<svg fill="none" height="18" viewBox="0 0 18 18" width="18" xmlns="http://www.w3.org/2000/svg" xmlns:xlink="http://www.w3.org/1999/xlink"><linearGradient id="a" gradientUnits="userSpaceOnUse" x1="0" x2="0" y1="0" y2="18"><stop offset="0" stop-color="#ffb28e"/><stop offset="1" stop-color="#ff7a55"/></linearGradient><clipPath id="b"><path d="m0 0h18v18h-18z"/></clipPath><clipPath id="c"><path d="m4.5 4.5h9v9h-9z"/></clipPath><g clip-path="url(#b)"><circle cx="9" cy="9" fill="url(#a)" r="9"/><g clip-path="url(#c)"><path d="m9 9c.75-1.11 0-2.625-.375-3 0 1.13925-.66488 1.77788-1.125 2.25-.45975.4725-.75 1.215-.75 1.875 0 .5967.23705 1.169.65901 1.591.42196.4219.99425.659 1.59099.659s1.169-.2371 1.591-.659c.4219-.422.659-.9943.659-1.591 0-.5745-.396-1.4775-.75-1.875-.66975 1.125-1.04663 1.125-1.5.75z" stroke="#181a20" stroke-linecap="round" stroke-linejoin="round" stroke-width=".75"/></g></g></svg>