<svg fill="none" height="18" viewBox="0 0 18 18" width="18" xmlns="http://www.w3.org/2000/svg" xmlns:xlink="http://www.w3.org/1999/xlink"><linearGradient id="a" gradientUnits="userSpaceOnUse" x1="0" x2="18" y1="0" y2="18"><stop offset="0" stop-color="#acffd2"/><stop offset="1" stop-color="#54ffc1"/></linearGradient><clipPath id="b"><path d="m0 0h18v18h-18z"/></clipPath><clipPath id="c"><path d="m4.5 4.5h9v9h-9z"/></clipPath><g clip-path="url(#b)"><circle cx="9" cy="9" fill="url(#a)" r="9"/><g clip-path="url(#c)" stroke="#181a20" stroke-linecap="round" stroke-linejoin="round" stroke-width=".75"><path d="m6.75 12.375c.41421 0 .75-.3358.75-.75s-.33579-.75-.75-.75-.75.3358-.75.75.33579.75.75.75z"/><path d="m10.875 12.375c.4142 0 .75-.3358.75-.75s-.3358-.75-.75-.75-.75.3358-.75.75.3358.75.75.75z"/><path d="m10.875 10.875h-4.125v-5.25h-.75"/><path d="m6.75 6.375 2.25188.16087m2.67672 2.46488-.0536.37425h-4.875"/><path d="m10.125 6.75h2.25m-1.125-1.125v2.25"/></g></g></svg>