<svg width="18" height="18" viewBox="0 0 18 18" fill="none" xmlns="http://www.w3.org/2000/svg">
    <g clip-path="url(#clip0_15985_74933)">
        <circle cx="9" cy="9" r="9" fill="url(#paint0_linear_15985_74933)"/>
        <g clip-path="url(#clip1_15985_74933)">
            <path d="M6.75 12.375C7.16421 12.375 7.5 12.0392 7.5 11.625C7.5 11.2108 7.16421 10.875 6.75 10.875C6.33579 10.875 6 11.2108 6 11.625C6 12.0392 6.33579 12.375 6.75 12.375Z" stroke="#181A20" stroke-width="0.75" stroke-linecap="round" stroke-linejoin="round"/>
            <path d="M10.875 12.375C11.2892 12.375 11.625 12.0392 11.625 11.625C11.625 11.2108 11.2892 10.875 10.875 10.875C10.4608 10.875 10.125 11.2108 10.125 11.625C10.125 12.0392 10.4608 12.375 10.875 12.375Z" stroke="#181A20" stroke-width="0.75" stroke-linecap="round" stroke-linejoin="round"/>
            <path d="M10.875 10.875H6.75V5.625H6" stroke="#181A20" stroke-width="0.75" stroke-linecap="round" stroke-linejoin="round"/>
            <path d="M6.75 6.375L9.00188 6.53587M11.6786 9.00075L11.625 9.375H6.75" stroke="#181A20" stroke-width="0.75" stroke-linecap="round" stroke-linejoin="round"/>
            <path d="M10.125 6.75H12.375M11.25 5.625V7.875" stroke="#181A20" stroke-width="0.75" stroke-linecap="round" stroke-linejoin="round"/>
        </g>
    </g>
    <defs>
        <linearGradient id="paint0_linear_15985_74933" x1="0" y1="0" x2="18" y2="18" gradientUnits="userSpaceOnUse">
            <stop stop-color="#ACFFD2"/>
            <stop offset="1" stop-color="#54FFC1"/>
        </linearGradient>
        <clipPath id="clip0_15985_74933">
            <rect width="18" height="18" fill="white"/>
        </clipPath>
        <clipPath id="clip1_15985_74933">
            <rect width="9" height="9" fill="white" transform="translate(4.5 4.5)"/>
        </clipPath>
    </defs>
</svg>
