<svg fill="none" height="18" viewBox="0 0 18 18" width="18" xmlns="http://www.w3.org/2000/svg" xmlns:xlink="http://www.w3.org/1999/xlink"><linearGradient id="a" gradientUnits="userSpaceOnUse" x1="18" x2=".000001" y1="18" y2="-.000001"><stop offset="0" stop-color="#ffb8e0"/><stop offset=".348958" stop-color="#be9eff"/><stop offset=".703125" stop-color="#88c0fc"/><stop offset="1" stop-color="#86ff99"/></linearGradient><clipPath id="b"><path d="m0 0h18v18h-18z"/></clipPath><clipPath id="c"><path d="m4.5 4.7207h9v9h-9z"/></clipPath><g clip-path="url(#b)"><circle cx="9" cy="9" fill="url(#a)" r="9"/><g clip-path="url(#c)" stroke="#181a20" stroke-linecap="round" stroke-linejoin="round" stroke-width=".75"><path d="m6.75 12.5957 5.625-5.625-1.125-1.125-5.625 5.625z"/><path d="m10.125 6.9707 1.125 1.125"/><path d="m7.875 5.8457c0 .19892.07902.38968.21967.53033.14065.14066.33142.21967.53033.21967-.19891 0-.38968.07902-.53033.21967-.14065.14066-.21967.33142-.21967.53033 0-.19891-.07902-.38967-.21967-.53033-.14065-.14065-.33142-.21967-.53033-.21967.19891 0 .38968-.07901.53033-.21967.14065-.14065.21967-.33141.21967-.53033z"/><path d="m11.625 9.5957c0 .19892.079.38968.2197.5303.1406.1407.3314.2197.5303.2197-.1989 0-.3897.079-.5303.2197-.1407.1406-.2197.3314-.2197.5303 0-.1989-.079-.3897-.2197-.5303-.1406-.1407-.3314-.2197-.5303-.2197.1989 0 .3897-.079.5303-.2197.1407-.14062.2197-.33138.2197-.5303z"/></g></g></svg>