<svg fill="none" height="18" viewBox="0 0 18 18" width="18" xmlns="http://www.w3.org/2000/svg" xmlns:xlink="http://www.w3.org/1999/xlink"><linearGradient id="a" gradientUnits="userSpaceOnUse" x1="0" x2="18" y1="0" y2="18"><stop offset="0" stop-color="#fff9b0"/><stop offset=".464297" stop-color="#d3fffa"/><stop offset="1" stop-color="#ffc4fa"/></linearGradient><clipPath id="b"><path d="m0 0h18v18h-18z"/></clipPath><clipPath id="c"><path d="m4.5 4.5h9v9h-9z"/></clipPath><g clip-path="url(#b)"><circle cx="9" cy="9" fill="url(#a)" r="9"/><g clip-path="url(#c)" stroke="#181a20" stroke-linecap="round" stroke-linejoin="round" stroke-width=".75"><path d="m10.125 6.375v.75"/><path d="m10.125 8.625v.75"/><path d="m10.125 10.875v.75"/><path d="m6.375 6.375h5.25c.1989 0 .3897.07902.5303.21967.1407.14065.2197.33142.2197.53033v1.125c-.1989 0-.3897.07902-.5303.21967-.1407.14065-.2197.33142-.2197.53033s.079.38968.2197.53033c.1406.14065.3314.21967.5303.21967v1.125c0 .1989-.079.3897-.2197.5303-.1406.1407-.3314.2197-.5303.2197h-5.25c-.19891 0-.38968-.079-.53033-.2197-.14065-.1406-.21967-.3314-.21967-.5303v-1.125c.19891 0 .38968-.07902.53033-.21967s.21967-.33142.21967-.53033-.07902-.38968-.21967-.53033-.33142-.21967-.53033-.21967v-1.125c0-.19891.07902-.38968.21967-.53033s.33142-.21967.53033-.21967"/></g></g></svg>