<svg fill="none" height="18" viewBox="0 0 18 18" width="18" xmlns="http://www.w3.org/2000/svg" xmlns:xlink="http://www.w3.org/1999/xlink"><linearGradient id="a" gradientUnits="userSpaceOnUse" x1="0" x2="18" y1="0" y2="18"><stop offset="0" stop-color="#ff7575"/><stop offset="1" stop-color="#8b54ff"/></linearGradient><clipPath id="b"><path d="m0 0h18v18h-18z"/></clipPath><clipPath id="c"><path d="m3 3h12v12h-12z"/></clipPath><g clip-path="url(#b)"><circle cx="9" cy="9" fill="url(#a)" r="9"/><g clip-path="url(#c)" stroke="#181a20" stroke-linecap="round" stroke-linejoin="round"><path d="m6.9295 6h-1.417c-.26853 0-.52607.10667-.71595.29655s-.29655.44742-.29655.71595v1.417c0 .2685.1065.526.2965.716l3.058 3.058c.09402.094.20565.1686.3285.2195s.25452.0771.3875.0771.26465-.0262.3875-.0771.23448-.1255.3285-.2195l1.417-1.417c.094-.094.1686-.2056.2195-.3285.0509-.1228.0771-.2545.0771-.3875 0-.13298-.0262-.26465-.0771-.3875s-.1255-.23448-.2195-.3285l-3.0585-3.058c-.18978-.18975-.44713-.2964-.7155-.2965z"/><path d="m11.786 12.2039 1.417-1.417c.0941-.094.1687-.2057.2196-.3285.0508-.1229.077-.2545.077-.3875s-.0262-.26468-.077-.38753c-.0509-.12285-.1255-.23447-.2196-.3285l-3.55847-3.55799"/><path d="m6.00012 7.5h-.005"/></g></g></svg>