<svg fill="none" height="18" viewBox="0 0 18 18" width="18" xmlns="http://www.w3.org/2000/svg" xmlns:xlink="http://www.w3.org/1999/xlink"><linearGradient id="a" gradientUnits="userSpaceOnUse" x1="0" x2="18" y1="0" y2="18"><stop offset="0" stop-color="#ff7575"/><stop offset="1" stop-color="#8b54ff"/></linearGradient><clipPath id="b"><path d="m0 0h18v18h-18z"/></clipPath><clipPath id="c"><path d="m4.5 4.5h9v9h-9z"/></clipPath><g clip-path="url(#b)"><circle cx="9" cy="9" fill="url(#a)" r="9"/><g clip-path="url(#c)" stroke="#181a20" stroke-linecap="round" stroke-linejoin="round" stroke-width=".75"><path d="m8.25 9.75 4.125-4.125"/><path d="m12.3752 5.625-2.43749 6.75c-.01645.0359-.04287.0663-.07611.0877-.03323.0213-.0719.0326-.11139.0326s-.07816-.0113-.11139-.0326c-.03324-.0214-.05966-.0518-.07611-.0877l-1.3125-2.625-2.625-1.3125c-.0359-.01645-.06633-.04287-.08766-.07611-.02133-.03323-.03267-.0719-.03267-.11139s.01134-.07816.03267-.11139c.02133-.03324.05176-.05966.08766-.07611z"/></g></g></svg>