<svg xmlns="http://www.w3.org/2000/svg" width="10" height="10" fill="none">
    <path fill="currentColor" fill-rule="evenodd"
        d="M6.354.146C6.207 0 5.97 0 5.5 0h-1c-.471 0-.707 0-.854.146C3.5.293 3.5.53 3.5 1v1.5c0 .471 0 .707-.146.854-.147.146-.383.146-.854.146H1c-.471 0-.707 0-.854.146C0 3.793 0 4.03 0 4.5v1c0 .471 0 .707.146.854C.293 6.5.53 6.5 1 6.5h1.5c.471 0 .707 0 .854.146.146.147.146.383.146.854V9c0 .471 0 .707.146.854.147.146.383.146.854.146h1c.471 0 .707 0 .854-.146C6.5 9.707 6.5 9.47 6.5 9V7.5c0-.471 0-.707.146-.854.147-.146.383-.146.854-.146H9c.471 0 .707 0 .854-.146C10 6.207 10 5.97 10 5.5v-1c0-.471 0-.707-.146-.854C9.707 3.5 9.47 3.5 9 3.5H7.5c-.471 0-.707 0-.854-.146C6.5 3.207 6.5 2.97 6.5 2.5V1c0-.471 0-.707-.146-.854Z"
        clip-rule="evenodd" />
</svg>