<svg xmlns="http://www.w3.org/2000/svg" fill="none" viewBox="0 0 16 16">
    <path fill="#767676" d="M14.667 8A6.667 6.667 0 1 1 1.333 8a6.667 6.667 0 0 1 13.334 0z"/>
    <g fill="#fff" fill-rule="evenodd" clip-rule="evenodd">
        <path d="M5.171 5.172c.235-.235.657-.192.944.095l4.618 4.618c.287.287.33.71.095.944-.234.234-.657.191-.943-.096L5.267 6.115c-.287-.286-.33-.709-.096-.943z"/>
        <path d="M10.828 5.171c.235.235.192.657-.095.944l-4.618 4.618c-.287.287-.71.33-.943.095-.235-.234-.192-.657.095-.943l4.618-4.618c.287-.287.71-.33.943-.096z"/>
    </g>
</svg>
