<svg xmlns="http://www.w3.org/2000/svg" fill="none" viewBox="0 0 14 14">
    <g fill="#767f8d" fill-rule="evenodd" clip-rule="evenodd">
        <path d="M5.814 11.361c-.898 0-1.68-.267-2.243-.793-.567-.53-.859-1.273-.859-2.117V3.705c0-.84.29-1.58.852-2.109.558-.525 1.335-.795 2.226-.8h.003l4.383-.001c.898 0 1.681.267 2.244.793.566.53.858 1.273.858 2.117v4.746c0 .84-.29 1.58-.851 2.109-.559.525-1.335.794-2.226.8h-.003l-4.384.001v-.533zm0-1.066c-.688 0-1.19-.203-1.515-.507-.321-.3-.52-.745-.52-1.337V3.705c0-.588.197-1.032.516-1.332.322-.303.819-.506 1.5-.51h.001l4.38-.002c.69 0 1.191.203 1.516.507.32.3.52.745.52 1.337v4.746c0 .588-.198 1.032-.516 1.332-.322.302-.819.505-1.5.51z"/>
        <path d="M3.488 13.439c-.898 0-1.68-.268-2.243-.794-.567-.53-.859-1.273-.859-2.117V5.782c0-1.084.483-1.986 1.368-2.488a.533.533 0 1 1 .527.927c-.514.292-.828.816-.828 1.561v4.746c0 .592.199 1.037.52 1.337.325.304.827.507 1.515.507l4.382-.002c.763-.005 1.295-.259 1.612-.628a.533.533 0 1 1 .81.695c-.562.654-1.418.994-2.418 1h-.002l-4.384.001v-.533z"/>
    </g>
</svg>
