<svg xmlns="http://www.w3.org/2000/svg" fill="none" viewBox="0 0 25 24">
    <circle cx="12.078" cy="12" r="12" fill="#5863f1"/>
    <path fill="#fff" d="M17.98 6.585a14.029 14.029 0 0 0-3.463-1.074.053.053 0 0 0-.056.026 9.768 9.768 0 0 0-.432.886 12.948 12.948 0 0 0-3.888 0 8.988 8.988 0 0 0-.438-.886.055.055 0 0 0-.056-.026 13.99 13.99 0 0 0-3.462 1.074.05.05 0 0 0-.023.02c-2.206 3.294-2.81 6.508-2.514 9.682a.059.059 0 0 0 .023.04 14.108 14.108 0 0 0 4.248 2.147.055.055 0 0 0 .06-.02c.327-.446.618-.92.868-1.413a.054.054 0 0 0-.03-.075 9.28 9.28 0 0 1-1.326-.633.054.054 0 0 1-.027-.044.055.055 0 0 1 .021-.046 6.89 6.89 0 0 0 .264-.207.052.052 0 0 1 .055-.007c2.784 1.27 5.798 1.27 8.549 0a.053.053 0 0 1 .056.007c.085.07.174.14.264.207a.055.055 0 0 1 .014.072.054.054 0 0 1-.019.018 8.712 8.712 0 0 1-1.327.632.054.054 0 0 0-.029.075c.254.492.544.964.868 1.414a.054.054 0 0 0 .06.02 14.06 14.06 0 0 0 4.254-2.147.054.054 0 0 0 .022-.04c.355-3.67-.594-6.857-2.515-9.682a.043.043 0 0 0-.022-.02zm-8.717 7.77c-.838 0-1.529-.77-1.529-1.715 0-.945.677-1.715 1.529-1.715.858 0 1.542.776 1.529 1.715 0 .945-.678 1.714-1.53 1.714zm5.652 0c-.838 0-1.528-.77-1.528-1.715 0-.945.677-1.715 1.528-1.715.859 0 1.543.776 1.53 1.715 0 .945-.671 1.714-1.53 1.714z"/>
</svg>
