<svg xmlns="http://www.w3.org/2000/svg" fill="none" viewBox="0 0 16 16">
    <path stroke="currentColor" stroke-linecap="round" stroke-linejoin="round" d="M9.687 6.313 6.313 9.687a2.384 2.384 0 1 1 3.373-3.373Z"/>
    <path stroke="currentColor" stroke-linecap="round" stroke-linejoin="round" d="M11.88 3.847c-1.167-.88-2.5-1.36-3.88-1.36-2.353 0-4.547 1.386-6.073 3.786-.6.94-.6 2.52 0 3.46a9.549 9.549 0 0 0 1.806 2.114m1.88 1.173c.76.32 1.567.493 2.387.493 2.353 0 4.547-1.386 6.073-3.786.6-.94.6-2.52 0-3.46-.22-.347-.46-.674-.706-.98"/>
    <path stroke="currentColor" stroke-linecap="round" stroke-linejoin="round" d="M10.34 8.467a2.377 2.377 0 0 1-1.88 1.88m-2.146-.66-4.98 4.98M14.667 1.334l-4.98 4.98"/>
</svg>
