<svg xmlns="http://www.w3.org/2000/svg" fill="none" viewBox="0 0 25 24">
    <g clip-path="url('#firefly_round_svg__clip0_972_42167')">
        <path fill="#000" d="M.078 0h24v24h-24z"/>
        <path fill="#fff" d="M13.267 13.051h1.142v1.142h-1.142zm-1.143 0h1.142v1.142h-1.142zm-1.142 0h1.142v1.142h-1.142z"/>
        <path fill="#fff" d="M10.982 14.192h1.142v1.142h-1.142zm-1.142 0h1.142v1.142H9.84z"/>
        <path fill="#fff" d="M9.84 13.051h1.142v1.142H9.84z"/>
        <path fill="#9787FC" d="M9.84 15.335h1.142v1.142H9.84z"/>
        <path fill="#fff" d="M10.982 15.335h1.142v1.142h-1.142zm1.142 0h1.142v1.142h-1.142zm0-1.143h1.142v1.142h-1.142zm1.143 0h1.142v1.142h-1.142z"/>
        <path fill="#9787FC" d="M13.267 15.335h1.142v1.142h-1.142z"/>
        <path fill="#fff" d="M13.267 17.619h1.142v1.142h-1.142zm-2.285 0h1.142v1.142h-1.142zm1.142 0h1.142v1.142h-1.142zm-2.284 0h1.142v1.142H9.84zm-1.143 0h1.142v1.142H8.697z"/>
        <path fill="#9787FC" d="M13.267 16.477h1.142v1.142h-1.142z"/>
        <path fill="#fff" d="M10.982 16.477h1.142v1.142h-1.142zm1.142 0h1.142v1.142h-1.142z"/>
        <path fill="#9787FC" d="M9.84 16.477h1.142v1.142H9.84z"/>
        <path fill="#fff" d="M8.697 16.477h1.142v1.142H8.697zm4.57 2.285h1.142v1.142h-1.142zm-2.285 0h1.142v1.142h-1.142zm1.142 0h1.142v1.142h-1.142zm-2.284 0h1.142v1.142H9.84zm4.569-3.427h1.142v1.142h-1.142zm0 1.142h1.142v1.142h-1.142z"/>
        <path fill="#9787FC" d="M14.409 11.908h1.142v1.142h-1.142zm1.142 2.284h1.142v1.142h-1.142zm-1.142-1.141h1.142v1.142h-1.142zm1.142 2.284h1.142v1.142h-1.142z"/>
        <path fill="#fff" d="M14.409 17.619h1.142v1.142h-1.142zm0-3.427h1.142v1.142h-1.142z"/>
        <path fill="#9787FC" d="M15.551 16.477h1.142v1.142h-1.142zm-1.142 2.285h1.142v1.142h-1.142zm-1.142-6.854h1.142v1.142h-1.142z"/>
        <path fill="#fff" d="M8.697 15.335h1.142v1.142H8.697zm0-1.143h1.142v1.142H8.697z"/>
        <path fill="#9787FC" d="M8.697 13.051h1.142v1.142H8.697zm1.143-1.143h1.142v1.142H9.84zm1.142 0h1.142v1.142h-1.142zm0-1.142h1.142v1.142h-1.142zm1.142 1.142h1.142v1.142h-1.142zm1.143-1.142h1.142v1.142h-1.142z"/>
        <path fill="#fff" d="M12.124 10.766h1.142v1.142h-1.142z"/>
        <path fill="#9787FC" d="M13.267 9.623h1.142v1.142h-1.142zm-4.57 2.285h1.142v1.142H8.697zm0-1.142h1.142v1.142H8.697zm-1.142 4.569h1.142v1.142H7.555zm0 1.142h1.142v1.142H7.555zm0 1.142h1.142v1.142H7.555z"/>
        <path fill="#9250FF" d="M15.551 11.908h1.142v1.142h-1.142zm0 1.143h1.142v1.142h-1.142zm1.142 1.141h1.142v1.142h-1.142zm0 2.285h1.142v1.142h-1.142zm-2.284-6.854h1.142v1.142h-1.142zm-2.285 0h1.142v1.142h-1.142zm-1.142 0h1.142v1.142h-1.142zm-2.285 0h1.142v1.142H8.697zm1.143 1.143h1.142v1.142H9.84zm5.711 0h1.142v1.142h-1.142z"/>
        <path fill="#9250FF" d="M16.693 13.051h1.142v1.142h-1.142zm0 2.284h1.142v1.142h-1.142zm-1.142 2.284h1.142v1.142h-1.142zm-2.284-9.138h1.142v1.142h-1.142zm1.142 0h1.142v1.142h-1.142zm0 2.285h1.142v1.142h-1.142z"/>
        <path fill="#9787FC" d="M12.124 8.481h1.142v1.142h-1.142z"/>
        <path fill="#9250FF" d="M12.124 6.196h1.142v1.142h-1.142zm0 1.143h1.142v1.142h-1.142zm1.143 0h1.142v1.142h-1.142zm-2.285 1.142h1.142v1.142h-1.142zM9.84 9.623h1.142v1.142H9.84zm-2.285 0h1.142v1.142H7.555zm0 1.143h1.142v1.142H7.555zm0 1.142h1.142v1.142H7.555zm-1.142 0h1.142v1.142H6.413zm0 2.284h1.142v1.142H6.413z"/>
        <path fill="#9787FC" d="M7.555 13.051h1.142v1.142H7.555z"/>
        <path fill="#9787FC" d="M7.555 14.192h1.142v1.142H7.555z"/>
        <path fill="#9250FF" d="M6.413 13.051h1.142v1.142H6.413zm0 2.284h1.142v1.142H6.413z"/>
        <path fill="#D543ED" d="M16.693 11.908h1.142v1.142h-1.142zm1.143 0h1.142v1.142h-1.142zm0 1.143h1.142v1.142h-1.142z"/>
        <path fill="#D543ED" d="M17.836 14.192h1.142v1.142h-1.142zm0 1.143h1.142v1.142h-1.142zm0 1.142h1.142v1.142h-1.142zm-1.143 1.142h1.142v1.142h-1.142zm-1.142 1.143h1.142v1.142h-1.142zm-1.142 1.142h1.142v1.142h-1.142zm-2.285 0h1.142v1.142h-1.142zm1.143 0h1.142v1.142h-1.142zm-2.285 0h1.142v1.142h-1.142zm-1.142 0h1.142v1.142H9.84zm-1.143 0h1.142v1.142H8.697zm0-1.142h1.142v1.142H8.697zm-1.142 0h1.142v1.142H7.555zm-1.142-1.143h1.142v1.142H6.413zm-1.142-3.427h1.142v1.142H5.271zm0-3.426h1.142v1.142H5.271zm1.142-2.285h1.142v1.142H6.413zm2.284 0h1.142v1.142H8.697zM9.84 7.339h1.142v1.142H9.84zM6.413 6.196h1.142v1.142H6.413zm1.142-1.142h1.142v1.142H7.555zM6.413 2.77h1.142v1.142H6.413z"/>
        <path fill="#9250FF" d="M7.555 7.339h1.142v1.142H7.555z"/>
        <path fill="#D543ED" d="M6.413 16.477h1.142v1.142H6.413zm-1.142-3.426h1.142v1.142H5.271zm1.142-2.285h1.142v1.142H6.413zm-1.142 4.569h1.142v1.142H5.271zm0-3.427h1.142v1.142H5.271zm1.142-2.285h1.142v1.142H6.413zm0-2.284h1.142v1.142H6.413zm1.142 1.142h1.142v1.142H7.555zm2.285 0h1.142v1.142H9.84zm0-2.285h1.142v1.142H9.84zm1.142 0h1.142v1.142h-1.142zm3.427 0h1.142v1.142h-1.142zm-3.427-2.284h1.142v1.142h-1.142zm4.569 1.142h1.142v1.142h-1.142zm-3.427-1.142h1.142v1.142h-1.142zm-2.284 0h1.142v1.142H9.84zm0-1.142h1.142v1.142H9.84zm1.142 4.569h1.142v1.142h-1.142zm3.427 0h1.142v1.142h-1.142zm-3.427-2.285h1.142v1.142h-1.142zm1.142 0h1.142v1.142h-1.142zm1.143 0h1.142v1.142h-1.142zm0 1.142h1.142v1.142h-1.142zm3.426 4.57h1.142v1.142h-1.142zm0-1.143h1.142v1.142h-1.142zm-1.142 0h1.142v1.142h-1.142zm0-1.142h1.142v1.142h-1.142zm0-1.142h1.142v1.142h-1.142z"/>
    </g>
    <defs>
        <clipPath id="firefly_round_svg__clip0_972_42167">
            <rect width="24" height="24" x=".078" fill="#fff" rx="12"/>
        </clipPath>
    </defs>
</svg>
