<svg xmlns="http://www.w3.org/2000/svg" fill="none" viewBox="0 0 16 16">
    <circle cx="8" cy="8" r="8" fill="#abfe2c" fill-opacity=".8"/>
    <path fill="#00501e" d="m12.698 11.65-.103.048a3.126 3.126 0 0 1-2.975-.206 2.524 2.524 0 0 0 1.885-.252l.108-.06-.3-.528-.108.063c-.02.012-.04.022-.06.032a1.907 1.907 0 0 1-1.885-.057 1.946 1.946 0 0 1-.935-1.405c.713-.065 2.46-.37 3.863-1.772l.11-.113c.387-.41.572-.897.532-1.412-.035-.453-.242-.89-.582-1.23s-.78-.55-1.23-.583a1.761 1.761 0 0 0-1.146.315 1.764 1.764 0 0 0-.584-1.032C8.943 3.163 8.488 3 8.005 3s-.94.163-1.282.458a1.764 1.764 0 0 0-.585 1.032 1.757 1.757 0 0 0-1.145-.315c-.453.035-.89.243-1.23.583-.343.342-.55.78-.583 1.23-.04.515.145 1.002.533 1.412.035.038.072.075.11.113C5.225 8.915 6.97 9.22 7.685 9.285a1.954 1.954 0 0 1-.935 1.405 1.901 1.901 0 0 1-1.885.058l-.06-.033-.107-.063-.3.528.107.06a2.527 2.527 0 0 0 1.885.253 3.126 3.126 0 0 1-2.975.205l-.102-.048-.313.525.123.058c.735.344 1.6.44 2.4.262a3.68 3.68 0 0 0 2.082-1.302c.033-.04.063-.083.095-.123v1.517h.605v-1.522c.033.042.063.087.098.127a3.68 3.68 0 0 0 2.9 1.393c.547 0 1.092-.123 1.582-.353l.115-.057zM6.7 5.093l-.002-.108c0-.047 0-.095.002-.14C6.723 3.99 7.39 3.6 8 3.6s1.278.39 1.3 1.245c.003.048.003.095.003.14 0 .038 0 .073-.003.11l-.022.815.567-.6.07-.072c.033-.033.068-.065.1-.098.62-.587 1.368-.392 1.8.04s.628 1.178.04 1.8c-.032.035-.065.068-.097.1C10.175 8.668 8.02 8.695 8 8.695c-.022 0-2.172-.027-3.757-1.612l-.098-.1c-.587-.623-.392-1.368.04-1.8.26-.26.603-.41.938-.41.312 0 .602.125.862.37.035.032.067.065.1.097.025.028.05.053.077.08l.563.593z"/>
</svg>
