<svg xmlns="http://www.w3.org/2000/svg" fill="none" viewBox="0 0 80 80">
    <circle cx="40" cy="40" r="40" fill="#abfe2c"/>
    <path fill="#00501e" d="m63.488 58.25-.513.238a15.628 15.628 0 0 1-9.913 1.037 15.52 15.52 0 0 1-4.962-2.062 12.62 12.62 0 0 0 9.425-1.263l.538-.3-1.5-2.637-.538.312c-.1.063-.2.113-.3.163-2.987 1.575-6.512 1.462-9.425-.288a9.732 9.732 0 0 1-4.675-7.025c3.563-.325 12.3-1.85 19.313-8.862.187-.188.374-.376.55-.563 1.937-2.05 2.862-4.487 2.662-7.062-.175-2.263-1.213-4.45-2.913-6.15s-3.9-2.75-6.15-2.913c-2.012-.162-3.987.388-5.725 1.575-.387-2.075-1.387-3.837-2.925-5.162-1.725-1.475-4-2.288-6.412-2.288s-4.7.813-6.413 2.288c-1.537 1.325-2.537 3.087-2.925 5.162-1.737-1.187-3.7-1.737-5.725-1.575-2.262.175-4.45 1.213-6.15 2.913-1.712 1.712-2.75 3.9-2.912 6.15-.2 2.575.725 5.012 2.662 7.062.175.188.363.375.55.563 7.013 7.012 15.738 8.537 19.313 8.862-.412 2.913-2.1 5.475-4.675 7.025-2.925 1.763-6.45 1.863-9.425.288-.1-.05-.2-.113-.3-.163l-.537-.312-1.5 2.637.537.3c.125.075.263.15.388.213 2.774 1.462 6.05 1.837 9.037 1.05a15.404 15.404 0 0 1-4.963 2.062 15.63 15.63 0 0 1-9.912-1.037l-.513-.238L15 60.875l.612.288c3.675 1.725 8 2.2 12 1.312a18.4 18.4 0 0 0 10.413-6.512c.163-.2.313-.413.475-.613v7.588h3.025v-7.613c.163.213.313.438.488.638a18.4 18.4 0 0 0 10.412 6.512 18.703 18.703 0 0 0 12-1.312l.575-.288zM33.5 25.463c0-.176-.012-.35-.012-.538 0-.238 0-.475.012-.7C33.613 19.95 36.95 18 40 18s6.388 1.95 6.5 6.225c.013.238.013.475.013.7 0 .188 0 .363-.013.55l-.112 4.075 2.837-3c.113-.125.225-.237.35-.362.163-.163.338-.325.5-.488 3.1-2.937 6.838-1.962 9 .2s3.138 5.888.2 9c-.162.175-.325.338-.487.5C50.875 43.338 40.1 43.475 40 43.475c-.112 0-10.862-.138-18.787-8.063-.163-.162-.325-.337-.488-.5-2.937-3.112-1.962-6.837.2-9 1.3-1.3 3.013-2.05 4.688-2.05 1.562 0 3.012.625 4.312 1.85.175.163.338.325.5.488.125.137.25.262.388.4l2.812 2.962z"/>
</svg>
