<svg xmlns="http://www.w3.org/2000/svg" fill="none" viewBox="0 0 25 24">
    <rect width="24" height="24" x=".078" fill="#1c68f3" rx="12"/>
    <path fill="#fff" fill-rule="evenodd" d="M19.032 9.278v3.889H6.942c.528 2.36 2.623 4.122 5.127 4.122 2.07 0 3.86-1.205 4.717-2.956h2.246V17.6c0 .773-.622 1.4-1.39 1.4H6.513c-.768 0-1.39-.627-1.39-1.4V9.278zm-3.58 5.055c-.738 1.086-1.978 1.798-3.383 1.798s-2.645-.712-3.383-1.798zm-6.35-4.122c-1.09 0-1.991.811-2.141 1.867h1.186c.13-.406.509-.7.956-.7.447 0 .825.294.956.7h1.185a2.169 2.169 0 0 0-2.141-1.867zm5.95 0c-1.09 0-1.991.811-2.141 1.867h1.186c.13-.406.509-.7.956-.7.447 0 .825.294.956.7h1.185a2.169 2.169 0 0 0-2.141-1.867zM17.643 5c.768 0 1.39.627 1.39 1.4v1.711H5.123V6.4c0-.773.623-1.4 1.391-1.4z" clip-rule="evenodd"/>
</svg>
