<svg xmlns="http://www.w3.org/2000/svg" fill="none" viewBox="0 0 24 24">
    <path stroke="currentColor" stroke-linecap="round" stroke-miterlimit="10" stroke-width="1.5" d="M12.02 2.91a6 6 0 0 0-6 6v2.89c0 .61-.26 1.54-.57 2.06L4.3 15.77c-.71 1.18-.22 2.49 1.08 2.93a20.92 20.92 0 0 0 13.27 0 2 2 0 0 0 1.08-2.93l-1.15-1.91a4.91 4.91 0 0 1-.56-2.06V8.91c0-3.3-2.7-6-6-6Z"/>
    <path stroke="currentColor" stroke-linecap="round" stroke-linejoin="round" stroke-miterlimit="10" stroke-width="1.5" d="M13.87 3.2a6.75 6.75 0 0 0-3.7 0 1.99 1.99 0 0 1 3.7 0Z"/>
    <path stroke="currentColor" stroke-miterlimit="10" stroke-width="1.5" d="M15.02 19.06a3 3 0 0 1-5.12 2.12 3.01 3.01 0 0 1-.88-2.12"/>
</svg>
