<svg xmlns="http://www.w3.org/2000/svg" fill="none" viewBox="0 0 18 18">
    <rect width="16.5" height="16.5" x=".75" y=".75" fill="#fff" rx="8.25"/>
    <rect width="16.5" height="16.5" x=".75" y=".75" stroke="#fff" stroke-width=".5" rx="8.25"/>
    <path fill="#fff" d="M9 17A8 8 0 1 0 9 1a8 8 0 0 0 0 16z"/>
    <path fill="#181818" fill-rule="evenodd" d="M9.495 3.881C9.462 3.384 9.253 3 9 3c-.276 0-.5.457-.5 1.02v4.837H4.02l-.139.005c-.497.033-.881.242-.881.495 0 .276.457.5 1.02.5H8.5v4.123l.005.139c.033.497.242.881.495.881.276 0 .5-.456.5-1.02V9.857h4.48l.139-.004c.497-.034.881-.243.881-.496 0-.276-.456-.5-1.02-.5H9.5V4.02z" clip-rule="evenodd"/>
    <path fill="#767676" d="m9.495 3.881.05-.001v-.002zM8.5 8.857v.05h.05v-.05zm-4.48 0v-.05h-.002zm-.139.005-.001-.05h-.002zm4.619.995h.05v-.05H8.5zm0 4.123h-.05v.002zm.005.139-.05.001v.002zM9.5 9.857v-.05h-.05v.05zm4.48 0v.05h.002zm.139-.004.001.05h.002zM9.5 8.857h-.05v.05h.05zm0-4.837h.05v-.002zM9 3.05c.1 0 .202.076.287.228.083.15.142.363.159.607l.1-.007a1.577 1.577 0 0 0-.172-.648c-.091-.164-.22-.28-.374-.28zm-.45.97c0-.276.055-.523.141-.7.088-.179.2-.27.309-.27v-.1c-.168 0-.306.137-.398.327a1.73 1.73 0 0 0-.152.743zm0 4.837V4.02h-.1v4.837zm-4.53.05H8.5v-.1H4.02zm-.137.005.138-.005-.003-.1-.138.005zm-.833.445c0-.1.076-.202.228-.286.15-.084.363-.143.607-.16l-.007-.1a1.577 1.577 0 0 0-.648.172c-.164.092-.28.22-.28.374zm.97.45c-.276 0-.523-.055-.7-.141-.179-.088-.27-.2-.27-.309h-.1c0 .168.137.306.327.399.192.094.455.151.743.151zm4.48 0H4.02v.1H8.5zm.05 4.173V9.857h-.1v4.123zm.005.137-.005-.138-.1.003.005.138zM9 14.95c-.1 0-.202-.076-.287-.228a1.48 1.48 0 0 1-.159-.607l-.1.007c.018.254.08.482.172.648.091.164.22.28.374.28zm.45-.97c0 .276-.055.523-.141.7-.088.179-.2.27-.309.27v.1c.168 0 .306-.137.398-.327.095-.192.152-.455.152-.743zm0-4.123v4.123h.1V9.857zm4.53-.05H9.5v.1h4.48zm.137-.004-.138.004.003.1.138-.004zm.833-.446c0 .1-.076.202-.228.287-.15.083-.363.143-.607.159l.007.1c.254-.017.482-.08.648-.172.164-.091.28-.22.28-.374zm-.97-.45c.276 0 .523.055.7.141.179.089.27.2.27.31h.1c0-.169-.137-.306-.327-.4a1.73 1.73 0 0 0-.743-.15zm-4.48 0h4.48v-.1H9.5zM9.45 4.02v4.837h.1V4.02zm-.005-.137.005.138.1-.003-.005-.138z"/>
</svg>
