<svg xmlns="http://www.w3.org/2000/svg" fill="none" viewBox="0 0 25 24">
    <path fill="#42cf00" d="M10.386 21.88c.446.16.93.16 1.377 0 3.039-1.083 4.136-1.968 4.136-1.968 3.159-2.24 3.186-5.181 3.186-5.181V5.449c0-.455-.356-.846-.793-.863-2.242-.082-5.545-1.795-6.754-2.465a.955.955 0 0 0-.929 0C9.4 2.789 6.1 4.504 3.855 4.586c-.437.017-.793.408-.793.863v9.282s.027 2.94 3.186 5.18c.002 0 1.1.886 4.138 1.97z"/>
    <path fill="#46dc00" d="M10.5 20.199a1.72 1.72 0 0 0 1.15 0c2.537-.904 3.454-1.644 3.454-1.644 2.637-1.87 2.661-4.327 2.661-4.327V6.58c0-.38-.298-.706-.662-.72-1.871-.068-4.63-1.5-5.638-2.058a.8.8 0 0 0-.776 0c-1.008.558-3.767 1.99-5.638 2.058-.364.012-.662.34-.662.72v7.648s.023 2.457 2.66 4.327c-.003 0 .914.74 3.451 1.644z"/>
    <path fill="#fff" d="M10.485 13.96a.582.582 0 0 1-.42-.18L7.972 11.6a.633.633 0 0 1 0-.872.576.576 0 0 1 .84 0l1.674 1.741 3.385-3.52a.576.576 0 0 1 .84 0 .633.633 0 0 1 0 .873l-3.805 3.956a.584.584 0 0 1-.42.182z"/>
    <path fill="#ff5f5f" d="m20.855 20.686-.52-.52c.48-.64.76-1.44.76-2.32 0-2.16-1.76-3.92-3.96-3.92s-3.96 1.76-3.96 3.92 1.76 3.92 3.96 3.92c.88 0 1.68-.32 2.32-.76l.52.52c.24.24.6.24.84 0s.24-.6.04-.84z"/>
    <path fill="#fff" d="M14.654 17.805c0 .647.262 1.268.727 1.726s1.096.714 1.753.714 1.289-.257 1.754-.714.726-1.079.726-1.726-.261-1.268-.726-1.725a2.504 2.504 0 0 0-3.507 0 2.421 2.421 0 0 0-.727 1.725z"/>
    <path fill="#ffd6c2" d="M17.375 16.685c.2 0 .36-.16.36-.36s-.16-.36-.36-.36-.36.16-.36.36.16.36.36.36z"/>
</svg>
