<svg xmlns="http://www.w3.org/2000/svg" fill="none" viewBox="0 0 18 18">
    <path fill="#fff" fill-rule="evenodd" d="M16.345 3.382 2.425 7.926l3.397 2.032a.75.75 0 0 1 .365.644v2.276l2.3-.933a.75.75 0 0 1 .649.041l5.207 2.92zm.339-1.372a.75.75 0 0 1 .971.84l-2.239 12.89a.75.75 0 0 1-1.105.525l-5.574-3.126-2.718 1.103a.75.75 0 0 1-1.032-.695v-2.69L.961 8.45a.75.75 0 0 1 .152-1.357zM14.18 5.656a.6.6 0 0 1-.06.846l-4.234 3.679a.6.6 0 0 1-.787-.906l4.235-3.679a.6.6 0 0 1 .846.06z" clip-rule="evenodd"/>
</svg>
