<svg xmlns="http://www.w3.org/2000/svg" fill="none" viewBox="0 0 20 20">
    <path fill="currentColor" fill-rule="evenodd" d="M5.167 9.291c0-.368.298-.666.666-.666h5a.667.667 0 0 1 0 1.333h-5a.667.667 0 0 1-.666-.667Zm-.425-6.258A2.406 2.406 0 0 0 2.333 5.44v3.85A.667.667 0 0 1 1 9.29V5.44a3.74 3.74 0 0 1 3.742-3.742h4.683c.985 0 1.915.307 2.61.903.703.603 1.132 1.478 1.132 2.522a.667.667 0 0 1-1.333 0c0-.655-.26-1.16-.668-1.51-.418-.359-1.026-.581-1.74-.581H4.741Z" clip-rule="evenodd"/>
    <path fill="currentColor" fill-rule="evenodd" d="M5 5.791a2.666 2.666 0 0 0-2.667 2.667v5.833A2.666 2.666 0 0 0 5 16.958h8.334A2.666 2.666 0 0 0 16 14.291v-.541h-.108c-1.045 0-2.119-.643-2.419-1.76v-.004a2.345 2.345 0 0 1 .624-2.293A2.328 2.328 0 0 1 15.767 9H16v-.542a2.677 2.677 0 0 0-2.666-2.667H5ZM1 8.458a4 4 0 0 1 4-4h8.334c2.201 0 4 1.798 4 4v1.208a.667.667 0 0 1-.667.667h-.9a.994.994 0 0 0-.739.314 1.01 1.01 0 0 0-.267.998c.117.432.577.771 1.13.771h.776c.368 0 .666.299.666.667v1.208a4 4 0 0 1-4 4H5a4 4 0 0 1-4-4V8.458Z" clip-rule="evenodd"/>
    <path fill="currentColor" fill-rule="evenodd" d="M15.767 10.332a.994.994 0 0 0-.722.299l-.012.012a1.007 1.007 0 0 0-.302.818v.008c.042.504.53.947 1.136.947h1.608a.19.19 0 0 0 .192-.184v-1.716a.189.189 0 0 0-.192-.184h-1.708Zm-1.672-.637a2.327 2.327 0 0 1 1.672-.696h1.708c.84 0 1.525.678 1.525 1.517v1.716c0 .84-.686 1.517-1.525 1.517h-1.608c-1.193 0-2.354-.872-2.464-2.166a2.34 2.34 0 0 1 .692-1.888Z" clip-rule="evenodd"/>
</svg>
