<svg xmlns="http://www.w3.org/2000/svg" fill="none" viewBox="0 0 25 25">
    <g stroke="#101010" stroke-linecap="round" stroke-linejoin="round">
        <path d="M17.83 7.55c-.24-.04-.49-.05-.75-.05h-10c-.28 0-.55.02-.81.06.14-.28.34-.54.58-.78l3.25-3.26a3.525 3.525 0 0 1 4.96 0l1.75 1.77c.64.63.98 1.43 1.02 2.26z"/>
        <path d="M10.078 22.5h7c3 0 5-2 5-5v-5c0-2.74-1.67-4.65-4.25-4.95-.24-.04-.49-.05-.75-.05h-10c-.28 0-.55.02-.81.06-2.55.32-4.19 2.22-4.19 4.94v2"/>
        <path d="M22.078 13h-3c-1.1 0-2 .9-2 2s.9 2 2 2h3"/>
    </g>
    <path fill="#a5f59c" d="M5.078 15.5c-2.21 0-4 1.79-4 4 0 .75.21 1.46.58 2.06a3.97 3.97 0 0 0 3.42 1.94c1.46 0 2.73-.78 3.42-1.94.37-.6.58-1.31.58-2.06 0-2.21-1.79-4-4-4zm1.97 3.67-2.13 1.97c-.14.13-.33.2-.51.2-.19 0-.38-.07-.53-.22l-.99-.99c-.29-.29-.29-.77 0-1.06s.77-.29 1.06 0l.48.48 1.6-1.48c.3-.28.78-.26 1.06.04s.26.78-.04 1.06z"/>
</svg>
