<svg height="395pt" preserveAspectRatio="xMidYMid meet" viewBox="0 0 395 395" width="395pt" xmlns="http://www.w3.org/2000/svg"><g transform="matrix(.1 0 0 -.1 0 395)"><path d="m730 3827v-123h125 125v123 123h-125-125z"/><path d="m1480 3705v-245l23-1h125l102 1v-125-125h-125-125v-245-245l-57-1c-32 0-87-1-123-1h-65l-3 118c-1 65-7 121-12 124s-61 5-124 4l-116-1v124 123h125 125v124 124l-125 1h-125v-124-125h-125-125l-2-492-3-493h-122-123v-616-616l113-1c61 0 118-1 125-1 9-1 12-57 12-246v-245h125 124l3-122 3-123h120l120-1 3-124 3-125 732 2c403 1 740 2 750 2 15 1 17 14 17 120 0 86 3 120 13 123 6 2 63 4 125 3l112-1v123 123h125 125v123 124l113-2c61 0 118 1 125 3 9 3 12 136 12 618v614h-125-125v245 245l-22 1c-13 0-69 0-125 0l-103-1v248 247l-125-1h-125v123 123l53 1c28 0 85 0 125-1l72-1v124 125l-125 1-125 2v-126-125h-125-125v125c0 95-3 125-12 124-7-1-63-1-125 0l-112 1-3 122-3 122h-247-248v123 123h-125-125z"/></g></svg>