<?xml version="1.0" standalone="no"?>
<!DOCTYPE svg PUBLIC "-//W3C//DTD SVG 20010904//EN"
 "http://www.w3.org/TR/2001/REC-SVG-20010904/DTD/svg10.dtd">
<svg version="1.0" xmlns="http://www.w3.org/2000/svg"
 width="395.000000pt" height="395.000000pt" viewBox="0 0 395.000000 395.000000"
 preserveAspectRatio="xMidYMid meet">
<metadata>
Created by potrace 1.14, written by Peter Selinger 2001-2017
</metadata>
<g transform="translate(0.000000,395.000000) scale(0.100000,-0.100000)"
fill="#000000" stroke="none">
<path d="M730 3827 l0 -123 125 0 125 0 0 123 0 123 -125 0 -125 0 0 -123z"/>
<path d="M1480 3705 l0 -245 23 -1 c12 0 68 0 125 0 l102 1 0 -125 0 -125
-125 0 -125 0 0 -245 0 -245 -57 -1 c-32 0 -87 -1 -123 -1 l-65 0 -3 118 c-1
65 -7 121 -12 124 -5 3 -61 5 -124 4 l-116 -1 0 124 0 123 125 0 125 0 0 124
0 124 -125 1 -125 0 0 -124 0 -125 -125 0 -125 0 -2 -492 -3 -493 -122 0 -123
0 0 -616 0 -616 113 -1 c61 0 118 -1 125 -1 9 -1 12 -57 12 -246 l0 -245 125
0 124 0 3 -122 3 -123 120 0 120 -1 3 -124 3 -125 732 2 c403 1 740 2 750 2
15 1 17 14 17 120 0 86 3 120 13 123 6 2 63 4 125 3 l112 -1 0 123 0 123 125
0 125 0 0 123 0 124 113 -2 c61 0 118 1 125 3 9 3 12 136 12 618 l0 614 -125
0 -125 0 0 245 0 245 -22 1 c-13 0 -69 0 -125 0 l-103 -1 0 248 0 247 -125 -1
-125 0 0 123 0 123 53 1 c28 0 85 0 125 -1 l72 -1 0 124 0 125 -125 1 -125 2
0 -126 0 -125 -125 0 -125 0 0 125 c0 95 -3 125 -12 124 -7 -1 -63 -1 -125 0
l-112 1 -3 122 -3 122 -247 0 -248 0 0 123 0 123 -125 0 -125 0 0 -245z"/>
</g>
</svg>
