<svg width="19" height="18" viewBox="0 0 19 18" fill="none" xmlns="http://www.w3.org/2000/svg">
<g opacity="0.5">
<rect x="0.623535" width="17.9997" height="18" rx="8.99983" fill="#07101B"/>
<path d="M10.5662 8.99996L14.4282 5.13793C14.6882 4.87792 14.6882 4.45592 14.4282 4.19525C14.1682 3.93458 13.7462 3.93525 13.4855 4.19525L9.62349 8.05728L5.76146 4.19525C5.50146 3.93525 5.07946 3.93525 4.81879 4.19525C4.55812 4.45525 4.55878 4.87726 4.81879 5.13793L8.68082 8.99996L4.81879 12.862C4.55878 13.122 4.55878 13.544 4.81879 13.8047C4.94879 13.9347 5.11879 14 5.29012 14C5.46146 14 5.63146 13.9347 5.76146 13.8047L9.62349 9.94263L13.4855 13.8047C13.6155 13.9347 13.7855 14 13.9569 14C14.1282 14 14.2982 13.9347 14.4282 13.8047C14.6882 13.5447 14.6882 13.1227 14.4282 12.862L10.5662 8.99996Z" fill="white"/>
</g>
</svg>
