<svg width="24" height="24" viewBox="0 0 24 24" fill="none" xmlns="http://www.w3.org/2000/svg">
<path d="M20 10.9999H7.41399L11.707 6.70687C12.097 6.31687 12.097 5.68388 11.707 5.29288C11.317 4.90188 10.684 4.90288 10.293 5.29288L4.29299 11.2929C3.90299 11.6829 3.90299 12.3159 4.29299 12.7069L10.293 18.7069C10.488 18.9019 10.743 18.9999 11 18.9999C11.257 18.9999 11.512 18.9019 11.707 18.7069C12.097 18.3169 12.097 17.6839 11.707 17.2929L7.41399 12.9999H20C20.553 12.9999 21 12.5529 21 11.9999C21 11.4469 20.553 10.9999 20 10.9999Z" fill="#111418"/>
</svg>
