<svg width="21" height="21" viewBox="0 0 21 21" fill="none" xmlns="http://www.w3.org/2000/svg">
<path fill-rule="evenodd" clip-rule="evenodd" d="M13.7019 4.21257C14.0208 4.39666 14.1301 4.80439 13.946 5.12325L7.36669 16.5189C7.18259 16.8378 6.77486 16.947 6.456 16.7629C6.13714 16.5788 6.02789 16.1711 6.21198 15.8522L12.7913 4.45658C12.9754 4.13772 13.3831 4.02847 13.7019 4.21257Z" fill="#07101B"/>
<path fill-rule="evenodd" clip-rule="evenodd" d="M2.28418 10.4998C2.28418 8.06909 4.25464 6.09863 6.68533 6.09863H9.44855V7.43197H6.68533C4.99102 7.43197 3.61751 8.80547 3.61751 10.4998C3.61751 12.1941 4.99102 13.5676 6.68532 13.5676H7.65478V14.9009H6.68532C4.25464 14.9009 2.28418 12.9305 2.28418 10.4998Z" fill="#07101B"/>
<path fill-rule="evenodd" clip-rule="evenodd" d="M17.8721 10.4998C17.8721 8.06909 15.9016 6.09863 13.4709 6.09863H12.0886V7.43197H13.4709C15.1652 7.43197 16.5387 8.80547 16.5387 10.4998C16.5387 12.1941 15.1652 13.5676 13.4709 13.5676H10.3704V14.9009H13.4709C15.9016 14.9009 17.8721 12.9305 17.8721 10.4998Z" fill="#07101B"/>
</svg>
