<svg width="48" height="48" viewBox="0 0 48 48" fill="none" xmlns="http://www.w3.org/2000/svg">
<g clip-path="url(#clip0_796_44955)">
<path d="M24 48C37.2548 48 48 37.2548 48 24C48 10.7452 37.2548 0 24 0C10.7452 0 0 10.7452 0 24C0 37.2548 10.7452 48 24 48Z" fill="#825EC6"/>
<path fill-rule="evenodd" clip-rule="evenodd" d="M33.5654 11.4989V13.3982H35.9791H38.3928L37.9073 15.2975L37.4217 17.1967H36.9487H36.4759V24.687V32.1774L36.7668 32.2342C36.9552 32.2712 37.1261 32.4008 37.2516 32.6022C37.3838 32.8143 37.4455 33.0812 37.4455 33.4417C37.446 33.9536 37.4568 33.9752 37.7909 34.1312C38.0177 34.2371 38.1854 34.4084 38.2807 34.6319C38.3647 34.8284 38.4134 35.1776 38.3966 35.4618L38.3676 35.9521H33.5654H28.763V35.2712C28.763 34.6875 28.7954 34.5562 28.9905 34.3532C29.1156 34.2231 29.3181 34.0919 29.4403 34.0619C29.6412 34.0124 29.6664 33.9414 29.7017 33.3301C29.7362 32.7323 29.7722 32.6264 30.0091 32.427C30.1569 32.3027 30.3624 32.2011 30.4663 32.2011C30.6501 32.2011 30.6549 32.0986 30.6533 28.0465C30.6518 24.7748 30.6213 23.7504 30.5097 23.227C30.4317 22.8613 30.1641 22.1562 29.9148 21.66C29.5452 20.9242 29.3167 20.616 28.6757 19.9887C28.0349 19.3613 27.72 19.1376 26.9683 18.7758C26.4612 18.5317 25.7409 18.2697 25.3675 18.1934C24.9938 18.1171 24.3919 18.054 24.0293 18.053C23.6669 18.0522 23.0339 18.1168 22.6226 18.1965C22.1797 18.2824 21.5188 18.5131 21.0017 18.7623C20.4826 19.0123 19.8844 19.3979 19.5267 19.7129C19.1957 20.0044 18.7086 20.5594 18.4442 20.9464C18.1798 21.3333 17.8683 21.8978 17.752 22.201C17.6357 22.5041 17.4788 23.0657 17.4035 23.449C17.2989 23.9812 17.2665 25.0974 17.2665 28.1735C17.2665 32.1875 17.2672 32.2011 17.468 32.2011C17.5788 32.2011 17.7971 32.3259 17.9531 32.4786C18.2089 32.7291 18.2367 32.8172 18.2367 33.3791C18.2367 33.9642 18.2514 34.0055 18.4795 34.0614C18.6131 34.0943 18.8314 34.2478 18.9646 34.4029C19.1719 34.6441 19.2069 34.7797 19.2069 35.3423V35.9996H14.4045H9.60221V35.2832C9.60221 34.6523 9.63024 34.5392 9.8364 34.3374C9.96526 34.2111 10.1835 34.0803 10.3215 34.0465C10.5589 33.9882 10.5724 33.9519 10.5724 33.3716C10.5724 33.0342 10.6195 32.672 10.6772 32.5667C10.7349 32.4611 10.9314 32.3139 11.1137 32.2393L11.4455 32.1035V24.8003C11.4455 20.7836 11.472 17.4296 11.5044 17.347C11.5536 17.2214 11.4775 17.1967 11.0411 17.1967H10.5188L10.0583 15.3687C9.80499 14.3632 9.59873 13.5085 9.59998 13.4694C9.60125 13.4303 10.6718 13.3982 11.9791 13.3982H14.356V11.4989V9.59961H23.9607H33.5654V11.4989Z" fill="#FEFEFE"/>
</g>
<defs>
<clipPath id="clip0_796_44955">
<rect width="48" height="48" fill="white"/>
</clipPath>
</defs>
</svg>
