<svg width="25" height="24" viewBox="0 0 25 24" fill="none" xmlns="http://www.w3.org/2000/svg">
<g clip-path="url(#clip0_972_42309)">
<rect x="0.078125" width="24" height="24" fill="black"/>
<rect x="13.2666" y="13.0508" width="1.14231" height="1.14231" fill="white"/>
<rect x="12.124" y="13.0508" width="1.14231" height="1.14231" fill="white"/>
<rect x="10.9824" y="13.0508" width="1.14231" height="1.14231" fill="white"/>
<rect x="10.9824" y="14.1924" width="1.14231" height="1.14231" fill="white"/>
<rect x="9.83984" y="14.1924" width="1.14231" height="1.14231" fill="white"/>
<rect x="9.83984" y="13.0508" width="1.14231" height="1.14231" fill="white"/>
<rect x="9.83984" y="15.335" width="1.14231" height="1.14231" fill="#9787FC"/>
<rect x="10.9824" y="15.335" width="1.14231" height="1.14231" fill="white"/>
<rect x="12.124" y="15.335" width="1.14231" height="1.14231" fill="white"/>
<rect x="12.124" y="14.1924" width="1.14231" height="1.14231" fill="white"/>
<rect x="13.2666" y="14.1924" width="1.14231" height="1.14231" fill="white"/>
<rect x="13.2666" y="15.335" width="1.14231" height="1.14231" fill="#9787FC"/>
<rect x="13.2666" y="17.6191" width="1.14231" height="1.14231" fill="white"/>
<rect x="10.9824" y="17.6191" width="1.14231" height="1.14231" fill="white"/>
<rect x="12.124" y="17.6191" width="1.14231" height="1.14231" fill="white"/>
<rect x="9.83984" y="17.6191" width="1.14231" height="1.14231" fill="white"/>
<rect x="8.69727" y="17.6191" width="1.14231" height="1.14231" fill="white"/>
<rect x="13.2666" y="16.4775" width="1.14231" height="1.14231" fill="#9787FC"/>
<rect x="10.9824" y="16.4775" width="1.14231" height="1.14231" fill="white"/>
<rect x="12.124" y="16.4775" width="1.14231" height="1.14231" fill="white"/>
<rect x="9.83984" y="16.4775" width="1.14231" height="1.14231" fill="#9787FC"/>
<rect x="8.69727" y="16.4775" width="1.14231" height="1.14231" fill="white"/>
<rect x="13.2666" y="18.7617" width="1.14231" height="1.14231" fill="white"/>
<rect x="10.9824" y="18.7617" width="1.14231" height="1.14231" fill="white"/>
<rect x="12.124" y="18.7617" width="1.14231" height="1.14231" fill="white"/>
<rect x="9.83984" y="18.7617" width="1.14231" height="1.14231" fill="white"/>
<rect x="14.4092" y="15.335" width="1.14231" height="1.14231" fill="white"/>
<rect x="14.4092" y="16.4775" width="1.14231" height="1.14231" fill="white"/>
<rect x="14.4092" y="11.9082" width="1.14231" height="1.14231" fill="#9787FC"/>
<rect x="15.5508" y="14.1924" width="1.14231" height="1.14231" fill="#9787FC"/>
<rect x="14.4092" y="13.0508" width="1.14231" height="1.14231" fill="#9787FC"/>
<rect x="15.5508" y="15.335" width="1.14231" height="1.14231" fill="#9787FC"/>
<rect x="14.4092" y="17.6191" width="1.14231" height="1.14231" fill="white"/>
<rect x="14.4092" y="14.1924" width="1.14231" height="1.14231" fill="white"/>
<rect x="15.5508" y="16.4775" width="1.14231" height="1.14231" fill="#9787FC"/>
<rect x="14.4092" y="18.7617" width="1.14231" height="1.14231" fill="#9787FC"/>
<rect x="13.2666" y="11.9082" width="1.14231" height="1.14231" fill="#9787FC"/>
<rect x="8.69727" y="15.335" width="1.14231" height="1.14231" fill="white"/>
<rect x="8.69727" y="14.1924" width="1.14231" height="1.14231" fill="white"/>
<rect x="8.69727" y="13.0508" width="1.14231" height="1.14231" fill="#9787FC"/>
<rect x="9.83984" y="11.9082" width="1.14231" height="1.14231" fill="#9787FC"/>
<rect x="10.9824" y="11.9082" width="1.14231" height="1.14231" fill="#9787FC"/>
<rect x="10.9824" y="10.7656" width="1.14231" height="1.14231" fill="#9787FC"/>
<rect x="12.124" y="11.9082" width="1.14231" height="1.14231" fill="#9787FC"/>
<rect x="13.2666" y="10.7656" width="1.14231" height="1.14231" fill="#9787FC"/>
<rect x="12.124" y="10.7656" width="1.14231" height="1.14231" fill="white"/>
<rect x="13.2666" y="9.62305" width="1.14231" height="1.14231" fill="#9787FC"/>
<rect x="8.69727" y="11.9082" width="1.14231" height="1.14231" fill="#9787FC"/>
<rect x="8.69727" y="10.7656" width="1.14231" height="1.14231" fill="#9787FC"/>
<rect x="7.55469" y="15.335" width="1.14231" height="1.14231" fill="#9787FC"/>
<rect x="7.55469" y="16.4775" width="1.14231" height="1.14231" fill="#9787FC"/>
<rect x="7.55469" y="17.6191" width="1.14231" height="1.14231" fill="#9787FC"/>
<rect x="15.5508" y="11.9082" width="1.14231" height="1.14231" fill="#9250FF"/>
<rect x="15.5508" y="13.0508" width="1.14231" height="1.14231" fill="#9250FF"/>
<rect x="16.6934" y="14.1924" width="1.14231" height="1.14231" fill="#9250FF"/>
<rect x="16.6934" y="16.4775" width="1.14231" height="1.14231" fill="#9250FF"/>
<rect x="14.4092" y="9.62305" width="1.14231" height="1.14231" fill="#9250FF"/>
<rect x="12.124" y="9.62305" width="1.14231" height="1.14231" fill="#9250FF"/>
<rect x="10.9824" y="9.62305" width="1.14231" height="1.14231" fill="#9250FF"/>
<rect x="8.69727" y="9.62305" width="1.14231" height="1.14231" fill="#9250FF"/>
<rect x="9.83984" y="10.7656" width="1.14231" height="1.14231" fill="#9250FF"/>
<rect x="15.5508" y="10.7656" width="1.14231" height="1.14231" fill="#9250FF"/>
<rect x="16.6934" y="13.0508" width="1.14231" height="1.14231" fill="#9250FF"/>
<rect x="16.6934" y="15.335" width="1.14231" height="1.14231" fill="#9250FF"/>
<rect x="15.5508" y="17.6191" width="1.14231" height="1.14231" fill="#9250FF"/>
<rect x="13.2666" y="8.48145" width="1.14231" height="1.14231" fill="#9250FF"/>
<rect x="14.4092" y="8.48145" width="1.14231" height="1.14231" fill="#9250FF"/>
<rect x="14.4092" y="10.7656" width="1.14231" height="1.14231" fill="#9250FF"/>
<rect x="12.124" y="8.48145" width="1.14231" height="1.14231" fill="#9787FC"/>
<rect x="12.124" y="6.19629" width="1.14231" height="1.14231" fill="#9250FF"/>
<rect x="12.124" y="7.33887" width="1.14231" height="1.14231" fill="#9250FF"/>
<rect x="13.2666" y="7.33887" width="1.14231" height="1.14231" fill="#9250FF"/>
<rect x="10.9824" y="8.48145" width="1.14231" height="1.14231" fill="#9250FF"/>
<rect x="9.83984" y="9.62305" width="1.14231" height="1.14231" fill="#9250FF"/>
<rect x="7.55469" y="9.62305" width="1.14231" height="1.14231" fill="#9250FF"/>
<rect x="7.55469" y="10.7656" width="1.14231" height="1.14231" fill="#9250FF"/>
<rect x="7.55469" y="11.9082" width="1.14231" height="1.14231" fill="#9250FF"/>
<rect x="6.41309" y="11.9082" width="1.14231" height="1.14231" fill="#9250FF"/>
<rect x="6.41309" y="14.1924" width="1.14231" height="1.14231" fill="#9250FF"/>
<rect x="7.55469" y="13.0508" width="1.14231" height="1.14231" fill="#9787FC"/>
<rect x="7.55469" y="14.1924" width="1.14231" height="1.14231" fill="#9787FC"/>
<rect x="6.41309" y="13.0508" width="1.14231" height="1.14231" fill="#9250FF"/>
<rect x="6.41309" y="15.335" width="1.14231" height="1.14231" fill="#9250FF"/>
<rect x="16.6934" y="11.9082" width="1.14231" height="1.14231" fill="#D543ED"/>
<rect x="17.8359" y="11.9082" width="1.14231" height="1.14231" fill="#D543ED"/>
<rect x="17.8359" y="13.0508" width="1.14231" height="1.14231" fill="#D543ED"/>
<rect x="17.8359" y="14.1924" width="1.14231" height="1.14231" fill="#D543ED"/>
<rect x="17.8359" y="15.335" width="1.14231" height="1.14231" fill="#D543ED"/>
<rect x="17.8359" y="16.4775" width="1.14231" height="1.14231" fill="#D543ED"/>
<rect x="16.6934" y="17.6191" width="1.14231" height="1.14231" fill="#D543ED"/>
<rect x="15.5508" y="18.7617" width="1.14231" height="1.14231" fill="#D543ED"/>
<rect x="14.4092" y="19.9043" width="1.14231" height="1.14231" fill="#D543ED"/>
<rect x="12.124" y="19.9043" width="1.14231" height="1.14231" fill="#D543ED"/>
<rect x="13.2666" y="19.9043" width="1.14231" height="1.14231" fill="#D543ED"/>
<rect x="10.9824" y="19.9043" width="1.14231" height="1.14231" fill="#D543ED"/>
<rect x="9.83984" y="19.9043" width="1.14231" height="1.14231" fill="#D543ED"/>
<rect x="8.69727" y="19.9043" width="1.14231" height="1.14231" fill="#D543ED"/>
<rect x="8.69727" y="18.7617" width="1.14231" height="1.14231" fill="#D543ED"/>
<rect x="7.55469" y="18.7617" width="1.14231" height="1.14231" fill="#D543ED"/>
<rect x="6.41309" y="17.6191" width="1.14231" height="1.14231" fill="#D543ED"/>
<rect x="5.27051" y="14.1924" width="1.14231" height="1.14231" fill="#D543ED"/>
<rect x="5.27051" y="10.7656" width="1.14231" height="1.14231" fill="#D543ED"/>
<rect x="6.41309" y="8.48145" width="1.14231" height="1.14231" fill="#D543ED"/>
<rect x="8.69727" y="8.48145" width="1.14231" height="1.14231" fill="#D543ED"/>
<rect x="9.83984" y="7.33887" width="1.14231" height="1.14231" fill="#D543ED"/>
<rect x="6.41309" y="6.19629" width="1.14231" height="1.14231" fill="#D543ED"/>
<rect x="7.55469" y="5.05371" width="1.14231" height="1.14231" fill="#D543ED"/>
<rect x="6.41309" y="2.76953" width="1.14231" height="1.14231" fill="#D543ED"/>
<rect x="7.55469" y="7.33887" width="1.14231" height="1.14231" fill="#9250FF"/>
<rect x="6.41309" y="16.4775" width="1.14231" height="1.14231" fill="#D543ED"/>
<rect x="5.27051" y="13.0508" width="1.14231" height="1.14231" fill="#D543ED"/>
<rect x="6.41309" y="10.7656" width="1.14231" height="1.14231" fill="#D543ED"/>
<rect x="5.27051" y="15.335" width="1.14231" height="1.14231" fill="#D543ED"/>
<rect x="5.27051" y="11.9082" width="1.14231" height="1.14231" fill="#D543ED"/>
<rect x="6.41309" y="9.62305" width="1.14231" height="1.14231" fill="#D543ED"/>
<rect x="6.41309" y="7.33887" width="1.14231" height="1.14231" fill="#D543ED"/>
<rect x="7.55469" y="8.48145" width="1.14231" height="1.14231" fill="#D543ED"/>
<rect x="9.83984" y="8.48145" width="1.14231" height="1.14231" fill="#D543ED"/>
<rect x="9.83984" y="6.19629" width="1.14231" height="1.14231" fill="#D543ED"/>
<rect x="10.9824" y="6.19629" width="1.14231" height="1.14231" fill="#D543ED"/>
<rect x="14.4092" y="6.19629" width="1.14231" height="1.14231" fill="#D543ED"/>
<rect x="10.9824" y="3.91211" width="1.14231" height="1.14231" fill="#D543ED"/>
<rect x="15.5508" y="5.05371" width="1.14231" height="1.14231" fill="#D543ED"/>
<rect x="12.124" y="3.91211" width="1.14231" height="1.14231" fill="#D543ED"/>
<rect x="9.83984" y="3.91211" width="1.14231" height="1.14231" fill="#D543ED"/>
<rect x="9.83984" y="2.76953" width="1.14231" height="1.14231" fill="#D543ED"/>
<rect x="10.9824" y="7.33887" width="1.14231" height="1.14231" fill="#D543ED"/>
<rect x="14.4092" y="7.33887" width="1.14231" height="1.14231" fill="#D543ED"/>
<rect x="10.9824" y="5.05371" width="1.14231" height="1.14231" fill="#D543ED"/>
<rect x="12.124" y="5.05371" width="1.14231" height="1.14231" fill="#D543ED"/>
<rect x="13.2666" y="5.05371" width="1.14231" height="1.14231" fill="#D543ED"/>
<rect x="13.2666" y="6.19629" width="1.14231" height="1.14231" fill="#D543ED"/>
<rect x="16.6934" y="10.7656" width="1.14231" height="1.14231" fill="#D543ED"/>
<rect x="16.6934" y="9.62305" width="1.14231" height="1.14231" fill="#D543ED"/>
<rect x="15.5508" y="9.62305" width="1.14231" height="1.14231" fill="#D543ED"/>
<rect x="15.5508" y="8.48145" width="1.14231" height="1.14231" fill="#D543ED"/>
<rect x="15.5508" y="7.33887" width="1.14231" height="1.14231" fill="#D543ED"/>
</g>
<defs>
<clipPath id="clip0_972_42309">
<rect x="0.078125" width="24" height="24" rx="12" fill="white"/>
</clipPath>
</defs>
</svg>
