<svg width="22" height="22" viewBox="0 0 22 22" fill="none" xmlns="http://www.w3.org/2000/svg">
<rect width="22" height="22" rx="11" fill="#272D29"/>
<g clip-path="url(#clip0_260_21256)">
<path d="M14.2867 9.12502C14.2716 9.14095 14.252 9.15192 14.2305 9.15647C14.209 9.16101 14.1867 9.15892 14.1664 9.15046C14.1462 9.14201 14.129 9.1276 14.1171 9.10914C14.1052 9.09068 14.0992 9.06904 14.0999 9.0471C14.0999 8.95514 14.0999 8.85401 14.0955 8.75835C13.9868 4.78815 8.04402 4.78815 7.93535 8.75835C7.93281 8.85458 7.93153 8.95084 7.93151 9.0471C7.93151 9.14424 7.81352 9.19347 7.74477 9.12502C7.67735 9.05775 7.60727 8.98914 7.53867 8.9238C4.67083 6.19376 0.471465 10.4282 3.18243 13.309C3.24823 13.3788 3.31505 13.448 3.38292 13.5167C6.65379 16.8098 11.0146 16.8102 11.0155 16.8102C11.0162 16.8102 15.3776 16.8099 18.6487 13.5167C18.717 13.4483 18.7838 13.3792 18.8492 13.3092C21.5601 10.4249 17.3581 6.19376 14.4929 8.9238C14.4226 8.98927 14.3539 9.05637 14.2867 9.12502Z" fill="#F6D4D2"/>
<path fill-rule="evenodd" clip-rule="evenodd" d="M13.5418 12.1091C13.4498 12.1091 13.4179 12.2429 13.4767 12.3137C13.5846 12.4439 13.6434 12.6078 13.6431 12.7769C13.6431 13.1767 13.3212 13.5008 12.9241 13.5008C12.527 13.5008 12.2051 13.1767 12.2051 12.7769C12.2051 12.7555 12.1774 12.7448 12.1649 12.7621C12.0515 12.919 11.9749 13.0951 11.9435 13.2799C11.9258 13.384 11.8417 13.4702 11.7361 13.4702H11.6779C11.5401 13.4702 11.4264 13.3578 11.4466 13.2215C11.5862 12.2874 12.5003 11.6099 13.5418 11.6099C14.5831 11.6099 15.4974 12.2874 15.6368 13.2215C15.6572 13.3577 15.5437 13.4702 15.4057 13.4702C15.2679 13.4702 15.1588 13.3572 15.1288 13.2227C14.9925 12.6104 14.3607 12.1091 13.5418 12.1091ZM7.15736 12.7769C7.15736 12.7488 7.12099 12.7336 7.10399 12.7561C6.98275 12.9153 6.89996 13.0955 6.86506 13.2857C6.84437 13.398 6.75373 13.4912 6.63959 13.4912H6.59672C6.45907 13.4912 6.34537 13.3788 6.36563 13.2425C6.50505 12.3081 7.41935 11.6311 8.46066 11.6311C9.50211 11.6311 10.4166 12.3079 10.5558 13.2426C10.5762 13.3786 10.4625 13.4913 10.3247 13.4913C10.1869 13.4913 10.0778 13.3782 10.0478 13.2437C9.91165 12.6311 9.27974 12.1302 8.4608 12.1302C8.38629 12.1302 8.35908 12.2353 8.40891 12.2906C8.52916 12.424 8.59556 12.5973 8.5952 12.7769C8.5952 13.1767 8.27333 13.5008 7.87621 13.5008C7.47923 13.5008 7.15736 13.1767 7.15736 12.7769ZM12.1839 14.4438C12.063 14.3777 11.9125 14.425 11.8151 14.5226C11.6273 14.7103 11.3427 14.839 11.0133 14.839C10.6831 14.839 10.3988 14.7118 10.2115 14.5237C10.1142 14.4262 9.96384 14.3781 9.84275 14.4438C9.72152 14.5094 9.67509 14.6626 9.76203 14.7696C10.0462 15.12 10.5067 15.3378 11.0133 15.3378C11.5201 15.3378 11.9798 15.1175 12.2636 14.7701C12.3507 14.6632 12.3049 14.5098 12.1838 14.4438H12.1839Z" fill="#383F3A"/>
</g>
<defs>
<clipPath id="clip0_260_21256">
<rect width="18.3333" height="11.828" fill="white" transform="translate(1.8335 5.33713)"/>
</clipPath>
</defs>
</svg>
