<svg width="20" height="20" viewBox="0 0 20 20" fill="none" xmlns="http://www.w3.org/2000/svg">
<path fill-rule="evenodd" clip-rule="evenodd" d="M5.16681 9.29133C5.16681 8.92314 5.46529 8.62466 5.83348 8.62466H10.8335C11.2017 8.62466 11.5001 8.92314 11.5001 9.29133C11.5001 9.65952 11.2017 9.958 10.8335 9.958H5.83348C5.46529 9.958 5.16681 9.65952 5.16681 9.29133Z" fill="#767F8D"/>
<path fill-rule="evenodd" clip-rule="evenodd" d="M4.74182 3.03255C3.41001 3.03255 2.33349 4.10908 2.33349 5.44089V9.29088C2.33349 9.65907 2.03501 9.95755 1.66682 9.95755C1.29863 9.95755 1.00015 9.65907 1.00015 9.29088V5.44089C1.00015 3.3727 2.67363 1.69922 4.74182 1.69922H9.42515C10.4098 1.69922 11.3396 2.00582 12.0342 2.60151C12.7382 3.20534 13.1668 4.0798 13.1668 5.12422C13.1668 5.49241 12.8683 5.79088 12.5002 5.79088C12.132 5.79088 11.8335 5.49241 11.8335 5.12422C11.8335 4.46863 11.5746 3.96393 11.1661 3.61359C10.7482 3.25511 10.1405 3.03255 9.42515 3.03255H4.74182Z" fill="#767F8D"/>
<path fill-rule="evenodd" clip-rule="evenodd" d="M5.00015 5.79134C3.52668 5.79134 2.33349 6.98453 2.33349 8.45801V14.2913C2.33349 15.7648 3.52668 16.958 5.00015 16.958H13.3335C14.807 16.958 16.0002 15.7648 16.0002 14.2913V13.7497H15.8918C14.8468 13.7497 13.7734 13.1068 13.473 11.9894L13.4721 11.986L13.4721 11.986C13.2436 11.1177 13.5151 10.2574 14.097 9.69323C14.531 9.25177 15.1253 8.99963 15.7668 8.99963H16.0002V8.45801C16.0002 6.99286 14.7986 5.79134 13.3335 5.79134H5.00015ZM1.00015 8.45801C1.00015 6.24815 2.7903 4.45801 5.00015 4.45801H13.3335C15.535 4.45801 17.3335 6.25648 17.3335 8.45801V9.6663C17.3335 10.0345 17.035 10.333 16.6668 10.333H15.7668C15.4788 10.333 15.2264 10.4445 15.0444 10.6314C15.0392 10.6368 15.0339 10.6421 15.0285 10.6473C14.783 10.8829 14.6581 11.2512 14.7611 11.6449C14.8781 12.0768 15.3376 12.4163 15.8918 12.4163H16.6668C17.035 12.4163 17.3335 12.7148 17.3335 13.083V14.2913C17.3335 16.5012 15.5433 18.2913 13.3335 18.2913H5.00015C2.7903 18.2913 1.00015 16.5012 1.00015 14.2913V8.45801Z" fill="#767F8D"/>
<path fill-rule="evenodd" clip-rule="evenodd" d="M15.767 10.3324C15.479 10.3324 15.2266 10.4439 15.0446 10.6308L15.0327 10.6428C14.8195 10.8508 14.7008 11.1468 14.7307 11.4609L14.7314 11.4687L14.7314 11.4687C14.7734 11.9731 15.2611 12.4157 15.867 12.4157H17.4753C17.5864 12.4157 17.667 12.3266 17.667 12.2324V10.5157C17.667 10.4215 17.5864 10.3324 17.4753 10.3324H15.767ZM14.0953 9.69459C14.5294 9.2519 15.1246 8.99902 15.767 8.99902H17.4753C18.3142 8.99902 19.0003 9.67662 19.0003 10.5157V12.2324C19.0003 13.0715 18.3142 13.7491 17.4753 13.7491H15.867C14.674 13.7491 13.513 12.8767 13.403 11.5834C13.3345 10.852 13.613 10.1688 14.0953 9.69459Z" fill="#767F8D"/>
</svg>
