<svg fill="none" height="136" viewBox="0 0 103 136" width="103" xmlns="http://www.w3.org/2000/svg"><g fill="#f1d590"><path d="m17.1069 17h8.5535v8.5h-8.5535z"/><path d="m42.7673 93.5h-8.5535v17h8.5535z"/><path d="m68.4277 93.5v17h-8.5535v-17z"/><path clip-rule="evenodd" d="m76.9812 25.5v8.5h8.5535l-.0001 17h8.5534v17h8.554v42.5h-8.554v8.5h-8.5534l.0001 8.5h-8.5535v8.5h-51.3208v-8.5h-8.5535v-8.5h-8.55343v-17h-8.55347v-42.5h8.55347v-34h8.55343v8.5h8.5535v8.5h8.5534v-17h8.5535v-8.5h-8.5535v-17h8.5535v8.5h17.1069v8.5h8.5535v8.5zm-25.6604 34h8.5534v8.5h-8.5534zm-17.107 25.5v-8.5h34.2139v8.5h8.5535v34h-8.5535v8.5h-34.2139v-8.5h-8.5534v-34z" fill-rule="evenodd"/><path d="m76.9812 25.5v-8.5h8.5535v8.5z"/><path d="m17.1069 0h-8.55343v8.5h8.55343z"/></g></svg>