<svg fill="none" height="336" viewBox="0 0 480 336" width="480" xmlns="http://www.w3.org/2000/svg" xmlns:xlink="http://www.w3.org/1999/xlink"><filter id="a" color-interpolation-filters="sRGB" filterUnits="userSpaceOnUse" height="724" width="698" x="-110" y="-173"><feFlood flood-opacity="0" result="BackgroundImageFix"/><feColorMatrix in="SourceAlpha" result="hardAlpha" type="matrix" values="0 0 0 0 0 0 0 0 0 0 0 0 0 0 0 0 0 0 127 0"/><feOffset dy="1"/><feGaussianBlur stdDeviation="1.5"/><feColorMatrix type="matrix" values="0 0 0 0 0.541176 0 0 0 0 0.352941 0 0 0 0 0.141176 0 0 0 0.27 0"/><feBlend in2="BackgroundImageFix" mode="normal" result="effect1_dropShadow_9324_8609"/><feColorMatrix in="SourceAlpha" result="hardAlpha" type="matrix" values="0 0 0 0 0 0 0 0 0 0 0 0 0 0 0 0 0 0 127 0"/><feOffset dy="5"/><feGaussianBlur stdDeviation="2.5"/><feColorMatrix type="matrix" values="0 0 0 0 0.541176 0 0 0 0 0.352941 0 0 0 0 0.141176 0 0 0 0.23 0"/><feBlend in2="effect1_dropShadow_9324_8609" mode="normal" result="effect2_dropShadow_9324_8609"/><feColorMatrix in="SourceAlpha" result="hardAlpha" type="matrix" values="0 0 0 0 0 0 0 0 0 0 0 0 0 0 0 0 0 0 127 0"/><feOffset dy="12"/><feGaussianBlur stdDeviation="3.5"/><feColorMatrix type="matrix" values="0 0 0 0 0.541176 0 0 0 0 0.352941 0 0 0 0 0.141176 0 0 0 0.14 0"/><feBlend in2="effect2_dropShadow_9324_8609" mode="normal" result="effect3_dropShadow_9324_8609"/><feColorMatrix in="SourceAlpha" result="hardAlpha" type="matrix" values="0 0 0 0 0 0 0 0 0 0 0 0 0 0 0 0 0 0 127 0"/><feOffset dy="21"/><feGaussianBlur stdDeviation="4"/><feColorMatrix type="matrix" values="0 0 0 0 0.541176 0 0 0 0 0.352941 0 0 0 0 0.141176 0 0 0 0.04 0"/><feBlend in2="effect3_dropShadow_9324_8609" mode="normal" result="effect4_dropShadow_9324_8609"/><feColorMatrix in="SourceAlpha" result="hardAlpha" type="matrix" values="0 0 0 0 0 0 0 0 0 0 0 0 0 0 0 0 0 0 127 0"/><feOffset dy="33"/><feGaussianBlur stdDeviation="4.5"/><feColorMatrix type="matrix" values="0 0 0 0 0.541176 0 0 0 0 0.352941 0 0 0 0 0.141176 0 0 0 0.01 0"/><feBlend in2="effect4_dropShadow_9324_8609" mode="normal" result="effect5_dropShadow_9324_8609"/><feBlend in="SourceGraphic" in2="effect5_dropShadow_9324_8609" mode="normal" result="shape"/></filter><clipPath id="b"><path d="m0 0h480v336h-480z"/></clipPath><clipPath id="c"><path d="m0 0h480v336h-480z"/></clipPath><clipPath id="d"><path d="m-100-172h680v680h-680z"/></clipPath><clipPath id="e"><path d="m-101-171h680v680h-680z"/></clipPath><g clip-path="url(#b)"><path d="m0 0h480v336h-480z" fill="#fff"/><g clip-path="url(#c)"><path d="m0 0h480v336h-480z" fill="#ec5a3d"/><g clip-path="url(#d)" stroke="#d0361e" stroke-miterlimit="10"><path d="m-547.848 19.3169c12.601-9.86588 64.33 56.207 76.939 46.3358 12.608-9.8711-39.128-75.9387-26.52-85.8099 12.608-9.8711 64.331 56.207 76.939 46.3359 12.608-9.8712-39.128-75.9388-26.52-85.8099 12.609-9.8712 64.331 56.20696 76.939 46.3358 12.609-9.8712-39.128-75.9387-26.519-85.8099 12.608-9.8707 64.331 56.207 76.939 46.3358 12.608-9.8711-39.128-75.9385-26.527-85.8045 12.602-9.866 64.338 56.2016 76.966 46.3146 12.629-9.8866-39.127-75.9386-26.526-85.8046s64.344 56.196 76.919 46.352c12.574-9.845-39.128-75.939-26.486-85.837 12.642-9.897 64.331 56.207 76.932 46.341 12.602-9.865-39.121-75.944-26.52-85.809 12.602-9.866 64.331 56.207 76.94 46.335 12.608-9.871-39.128-75.938-26.527-85.804 12.602-9.866 64.3377 56.201 76.9459 46.33 12.6083-9.871-39.1279-75.938-26.5197-85.81 12.6082-9.871 64.3309 56.207 76.9391 46.336 12.60822-9.871-39.128-75.938-26.5197-85.81 12.6082-9.871 64.3308 56.207 76.939 46.336 12.6083-9.871-39.12786-75.939-26.51964-85.81 12.60824-9.871 64.33084 56.207 76.93904 46.336 12.6083-9.871-39.1212-75.944-26.5197-85.81s64.3377 56.202 76.9387 46.336c12.602-9.866-39.1208-75.944-26.519-85.81 12.601-9.866 64.337 56.202 76.946 46.331 12.608-9.871-39.128-75.939-26.52-85.81s64.337 56.202 76.939 46.336c12.601-9.866-39.121-75.944-26.513-85.816 12.608-9.871 64.338 56.202 76.946 46.331s-39.121-75.944-26.52-85.81" stroke-width=".68"/><g stroke-width=".476"><path d="m-441.674 154.932c12.602-9.866 64.331 56.207 76.939 46.336s-39.128-75.939-26.519-85.81c12.608-9.871 64.33 56.207 76.939 46.336 12.608-9.871-39.128-75.9389-26.52-85.81 12.608-9.8712 64.331 56.207 76.939 46.336s-39.128-75.9389-26.52-85.8101c12.608-9.8711 64.331 56.207 76.939 46.3359 12.609-9.8712-39.128-75.93878-26.526-85.80466 12.601-9.86584 64.338 56.20176 76.966 46.31466 12.629-9.887-39.128-75.9387-26.526-85.8046 12.601-9.8659 64.344 56.1964 76.918 46.35172 12.575-9.84473-39.128-75.93872-26.486-85.83632s64.3313 56.207 76.9328 46.3411c12.6014-9.8659-39.1208-75.9437-26.5198-85.8097 12.6015-9.866 64.3309 56.2068 76.9391 46.3356 12.608235-9.8711-39.1279-75.9386-26.5265-85.8046 12.6015-9.866 64.3377 56.202 76.9459 46.331 12.6082-9.872-39.127984-75.939-26.5198-85.81 12.6083-9.871 64.3309 56.207 76.9392 46.336 12.6081-9.872-39.128-75.939-26.5198-85.81 12.6082-9.872 64.3309 56.207 76.9389 46.335 12.608-9.871-39.128-75.938-26.519-85.81 12.608-9.871 64.33 56.208 76.939 46.336 12.608-9.871-39.122-75.944-26.52-85.81 12.601-9.865 64.338 56.202 76.939 46.336s-39.121-75.944-26.52-85.81c12.602-9.865 64.338 56.202 76.946 46.331s-39.128-75.939-26.52-85.81c12.609-9.871 64.338 56.202 76.939 46.336 12.602-9.866-39.121-75.944-26.513-85.815 12.609-9.871 64.338 56.201 76.946 46.33 12.609-9.871-39.121-75.944-26.519-85.81"/><path d="m-255.157 393.165c12.601-9.866 64.331 56.207 76.939 46.336s-39.128-75.939-26.52-85.81 64.331 56.207 76.939 46.336-39.128-75.939-26.52-85.81c12.609-9.871 64.3313 56.207 76.9395 46.336s-39.1275-75.939-26.5195-85.81 64.3307 56.207 76.9389 46.336-39.128-75.939-26.5265-85.805c12.6014-9.866 64.3376 56.202 76.9661 46.315s-39.128-75.939-26.52649-85.805c12.60146-9.866 64.34439 56.197 76.91889 46.352 12.5744-9.845-39.128-75.939-26.486-85.836 12.642-9.898 64.3311 56.207 76.9321 46.341 12.602-9.866-39.121-75.944-26.5195-85.81s64.3305 56.207 76.9395 46.336c12.608-9.871-39.128-75.939-26.527-85.8048 12.602-9.8659 64.338 56.2018 76.946 46.3308s-39.128-75.939-26.52-85.8102c12.608-9.8711 64.331 56.207 76.939 46.3359 12.609-9.8712-39.128-75.9388-26.519-85.80996 12.608-9.87114 64.33 56.20706 76.939 46.33586 12.608-9.8712-39.128-75.9388-26.52-85.8099 12.608-9.8712 64.331 56.207 76.939 46.33582 12.608-9.87116-39.121-75.94402-26.52-85.80992 12.602-9.8659 64.338 56.2017 76.939 46.3358 12.602-9.8658-39.121-75.9444-26.519-85.8094 12.601-9.866 64.337 56.2012 76.946 46.3301 12.608-9.8712-39.128-75.9391-26.52-85.8101s64.337 56.202 76.939 46.336c12.601-9.866-39.121-75.944-26.513-85.815s64.338 56.202 76.946 46.33c12.608-9.871-39.121-75.944-26.52-85.81"/><path d="m11.701 734.017c12.6015-9.866 64.3309 56.207 76.9392 46.336 12.6078-9.871-39.128-75.939-26.5198-85.81s64.3306 56.207 76.9396 46.336c12.608-9.871-39.1284-75.939-26.52-85.81 12.608-9.871 64.331 56.207 76.939 46.336s-39.128-75.939-26.52-85.81 64.331 56.207 76.939 46.336-39.128-75.939-26.526-85.805c12.601-9.866 64.337 56.202 76.966 46.315 12.628-9.887-39.128-75.939-26.527-85.805 12.602-9.866 64.345 56.197 76.919 46.352 12.575-9.845-39.128-75.939-26.486-85.836 12.642-9.898 64.331 56.207 76.933 46.341 12.601-9.866-39.122-75.944-26.52-85.81 12.601-9.866 64.331 56.207 76.939 46.336 12.608-9.872-39.128-75.939-26.526-85.805 12.601-9.866 64.337 56.202 76.945 46.331 12.609-9.872-39.128-75.939-26.519-85.81 12.608-9.872 64.331 56.207 76.939 46.335 12.608-9.871-39.128-75.938-26.52-85.809 12.608-9.872 64.331 56.207 76.939 46.335 12.608-9.871-39.128-75.938-26.52-85.81 12.609-9.871 64.331 56.207 76.939 46.336 12.609-9.871-39.121-75.944-26.519-85.81 12.601-9.865 64.337 56.202 76.939 46.336 12.601-9.866-39.121-75.944-26.52-85.81 12.602-9.866 64.338 56.202 76.946 46.331s-39.128-75.939-26.52-85.81 64.338 56.202 76.939 46.336c12.602-9.866-39.121-75.944-26.513-85.815 12.609-9.871 64.338 56.201 76.946 46.33s-39.121-75.944-26.52-85.81"/><path d="m-496.119 85.3899c12.602-9.8659 64.331 56.2071 76.939 46.3361 12.609-9.871-39.128-75.939-26.519-85.8102 12.608-9.8711 64.33 56.2072 76.939 46.3359 12.608-9.8712-39.128-75.9388-26.52-85.80995 12.608-9.87116 64.331 56.20705 76.939 46.33585s-39.128-75.9387-26.52-85.8099c12.609-9.8712 64.331 56.207 76.939 46.3358 12.609-9.87113-39.128-75.9387-26.526-85.8046 12.601-9.8659 64.338 56.2017 76.966 46.3147 12.629-9.887-39.128-75.9386-26.526-85.8046 12.601-9.866 64.344 56.1964 76.918 46.3517 12.575-9.8447-39.128-75.9387-26.486-85.8367 12.642-9.897 64.331 56.2073 76.933 46.341 12.601-9.865-39.121-75.944-26.52-85.809 12.602-9.866 64.331 56.207 76.9392 46.335 12.6082-9.871-39.1282-75.938-26.5265-85.804 12.6014-9.866 64.3376 56.201 76.9459 46.33 12.60818-9.871-39.128-75.938-26.5198-85.81 12.6082-9.871 64.3309 56.207 76.9391 46.336s-39.12794-75.938-26.51972-85.81c12.60822-9.871 64.33082 56.207 76.93912 46.336 12.6082-9.871-39.1279-75.939-26.5197-85.81s64.3304 56.207 76.9394 46.336c12.608-9.871-39.1215-75.944-26.52-85.81 12.601-9.866 64.338 56.202 76.939 46.336 12.602-9.866-39.121-75.944-26.52-85.81 12.602-9.866 64.338 56.202 76.946 46.331s-39.128-75.939-26.52-85.81c12.609-9.871 64.338 56.202 76.94 46.336 12.601-9.866-39.122-75.944-26.514-85.816 12.609-9.871 64.338 56.202 76.946 46.331 12.609-9.871-39.121-75.944-26.519-85.81"/><path d="m-309.604 323.623c12.602-9.866 64.331 56.207 76.939 46.336 12.609-9.871-39.127-75.939-26.519-85.81s64.331 56.207 76.939 46.336-39.128-75.939-26.52-85.81 64.331 56.207 76.939 46.336-39.128-75.939-26.52-85.81c12.609-9.871 64.3314 56.207 76.9396 46.336s-39.1276-75.939-26.5266-85.805c12.6016-9.866 64.3377 56.202 76.9662 46.315s-39.1279-75.939-26.5265-85.805c12.6015-9.866 64.34441 56.197 76.9189 46.352 12.5744-9.845-39.128-75.9389-26.48601-85.8365s64.33091 56.2065 76.93241 46.3415c12.6014-9.866-39.1212-75.9444-26.5198-85.8103 12.6015-9.8659 64.3308 56.2073 76.9388 46.3359 12.609-9.8712-39.1277-75.9388-26.5262-85.80466 12.6012-9.86588 64.3372 56.20166 76.9462 46.33056 12.608-9.8712-39.128-75.9387-26.52-85.8099s64.331 56.207 76.939 46.3358c12.608-9.87114-39.128-75.9387-26.52-85.8099 12.609-9.8712 64.331 56.207 76.939 46.3359 12.609-9.8712-39.128-75.9384-26.519-85.8104 12.608-9.871 64.331 56.2074 76.939 46.3363 12.608-9.8712-39.121-75.9443-26.52-85.8103 12.602-9.866 64.338 56.2021 76.939 46.336 12.602-9.866-39.121-75.944-26.52-85.81 12.602-9.866 64.338 56.202 76.946 46.331 12.609-9.871-39.128-75.939-26.519-85.81 12.608-9.871 64.337 56.202 76.939 46.336 12.601-9.866-39.122-75.944-26.513-85.815 12.608-9.872 64.337 56.201 76.946 46.33 12.608-9.871-39.122-75.944-26.52-85.81"/><path d="m-42.7438 664.476c12.6014-9.866 64.3308 56.207 76.9391 46.336 12.6082-9.871-39.12798-75.939-26.51976-85.81 12.60826-9.871 64.33086 56.207 76.93906 46.336 12.6083-9.871-39.1279-75.939-26.5197-85.81s64.3311 56.207 76.9391 46.336-39.1279-75.939-26.52-85.81c12.608-9.871 64.331 56.207 76.939 46.336 12.609-9.871-39.128-75.939-26.526-85.805 12.601-9.866 64.338 56.202 76.966 46.315s-39.128-75.939-26.526-85.805c12.601-9.866 64.344 56.197 76.918 46.352 12.575-9.845-39.128-75.939-26.486-85.836 12.642-9.898 64.331 56.207 76.933 46.341 12.601-9.866-39.121-75.944-26.52-85.81s64.331 56.207 76.939 46.336c12.608-9.872-39.128-75.939-26.526-85.805 12.601-9.866 64.337 56.202 76.946 46.331 12.608-9.872-39.128-75.939-26.52-85.81 12.608-9.872 64.331 56.207 76.939 46.335 12.608-9.871-39.128-75.938-26.52-85.809 12.608-9.872 64.331 56.207 76.939 46.335 12.608-9.871-39.128-75.938-26.519-85.81 12.608-9.871 64.33 56.207 76.939 46.336 12.608-9.871-39.122-75.944-26.52-85.81 12.601-9.865 64.338 56.202 76.939 46.336s-39.121-75.944-26.52-85.81c12.602-9.866 64.338 56.202 76.946 46.331s-39.128-75.939-26.52-85.81c12.609-9.871 64.338 56.202 76.939 46.336 12.602-9.866-39.121-75.9442-26.513-85.8154 12.609-9.8711 64.338 56.2014 76.946 46.3304 12.609-9.871-39.121-75.9439-26.519-85.8097"/><path d="m-389.944 221.005c12.601-9.866 64.331 56.207 76.939 46.336s-39.128-75.939-26.52-85.81 64.331 56.207 76.939 46.336c12.608-9.872-39.128-75.939-26.519-85.81 12.608-9.871 64.33 56.207 76.939 46.336 12.608-9.872-39.128-75.939-26.52-85.81 12.608-9.8715 64.331 56.207 76.939 46.336 12.608-9.872-39.128-75.9392-26.526-85.8051 12.601-9.8659 64.337 56.2021 76.966 46.3151 12.6281-9.8874-39.128-75.9392-26.527-85.805 12.602-9.8659 64.3445 56.1964 76.919 46.3517 12.5744-9.8448-39.128-75.93878-26.486-85.8364 12.642-9.8976 64.3309 56.207 76.9324 46.3412 12.60144-9.8659-39.1212-75.9441-26.5198-85.81 12.6015-9.8658 64.3309 56.207057 76.9391 46.3359 12.6082-9.8712-39.127927-75.9388-26.5265-85.8046 12.6015-9.8658 64.3377 56.2017 76.9459 46.3305 12.6079-9.8712-39.128-75.9383-26.5198-85.8103 12.6083-9.871 64.3307 56.2074 76.9387 46.3363 12.609-9.8712-39.127-75.9383-26.519-85.8103 12.608-9.871 64.331 56.207 76.939 46.336s-39.128-75.939-26.52-85.81 64.331 56.207 76.939 46.336-39.121-75.944-26.52-85.81c12.602-9.866 64.338 56.202 76.94 46.336 12.601-9.866-39.122-75.944-26.52-85.81 12.601-9.866 64.338 56.202 76.946 46.331s-39.128-75.939-26.52-85.81 64.338 56.202 76.939 46.336c12.602-9.866-39.121-75.944-26.513-85.816 12.608-9.871 64.338 56.202 76.946 46.331s-39.121-75.944-26.52-85.81"/><path d="m-123.086 561.856c12.602-9.865 64.3311 56.207 76.9393 46.336 12.6083-9.871-39.1279-75.938-26.5197-85.81 12.6082-9.871 64.3309 56.207 76.93912 46.336 12.60818-9.871-39.12792-75.939-26.51972-85.81 12.60821-9.871 64.3309 56.207 76.9391 46.336s-39.128-75.939-26.5197-85.81c12.6082-9.871 64.3308 56.207 76.9386 46.336 12.609-9.871-39.1275-75.939-26.526-85.805 12.6014-9.865 64.338 56.202 76.966 46.315 12.629-9.887-39.128-75.939-26.526-85.804 12.601-9.866 64.344 56.196 76.918 46.351 12.575-9.844-39.128-75.939-26.486-85.836 12.642-9.898 64.331 56.207 76.933 46.341 12.601-9.866-39.121-75.944-26.52-85.81 12.602-9.866 64.331 56.207 76.939 46.336s-39.128-75.939-26.526-85.805c12.601-9.866 64.337 56.202 76.946 46.331 12.608-9.871-39.128-75.939-26.52-85.81s64.331 56.207 76.939 46.336-39.128-75.939-26.52-85.81 64.331 56.207 76.939 46.336c12.609-9.871-39.128-75.939-26.519-85.81 12.608-9.871 64.33 56.207 76.939 46.336 12.608-9.871-39.122-75.9444-26.52-85.8102 12.601-9.8659 64.338 56.2012 76.939 46.3362 12.602-9.866-39.121-75.9444-26.52-85.8103 12.602-9.8659 64.338 56.2013 76.946 46.3305 12.608-9.8711-39.128-75.9387-26.52-85.80987 12.609-9.87116 64.338 56.20177 76.94 46.33587 12.601-9.8659-39.122-75.944-26.513-85.8152 12.608-9.8711 64.337 56.2017 76.945 46.3305 12.609-9.87114-39.121-75.944-26.519-85.8099"/><path d="m-203.428 459.238c12.602-9.866 64.331 56.207 76.939 46.336 12.609-9.871-39.128-75.939-26.519-85.81 12.608-9.871 64.3305 56.207 76.9387 46.336 12.6083-9.871-39.1277-75.939-26.5197-85.81 12.6082-9.871 64.3309 56.207 76.9391 46.336s-39.1279-75.939-26.5197-85.81 64.3309 56.207 76.9391 46.336-39.128-75.939-26.52651-85.805c12.60151-9.866 64.33761 56.202 76.96611 46.315s-39.1279-75.939-26.5265-85.805c12.6015-9.866 64.3444 56.197 76.9184 46.352 12.575-9.845-39.1275-75.939-26.4855-85.836 12.6415-9.898 64.3305 56.207 76.9325 46.341 12.601-9.866-39.121-75.944-26.52-85.81 12.602-9.866 64.331 56.207 76.939 46.336s-39.128-75.939-26.526-85.805c12.601-9.866 64.337 56.202 76.946 46.331 12.608-9.871-39.128-75.939-26.52-85.81 12.608-9.8713 64.331 56.207 76.939 46.336 12.608-9.872-39.128-75.9391-26.52-85.8103 12.608-9.8711 64.331 56.2073 76.939 46.3363 12.609-9.872-39.128-75.9392-26.519-85.8103 12.608-9.8712 64.33 56.207 76.939 46.3358 12.608-9.8711-39.122-75.94403-26.52-85.8099 12.601-9.8659 64.338 56.2017 76.939 46.3358 12.602-9.8658-39.121-75.944-26.52-85.8099 12.602-9.8658 64.338 56.20174 76.946 46.33058 12.608-9.87118-39.128-75.93878-26.52-85.80988 12.609-9.8712 64.338 56.2017 76.94 46.3358 12.601-9.8658-39.122-75.944-26.513-85.815 12.608-9.871 64.337 56.2015 76.945 46.3304 12.609-9.8712-39.121-75.9444-26.519-85.8104"/><path d="m63.4307 800.09c12.6015-9.866 64.3313 56.207 76.9393 46.336s-39.128-75.939-26.52-85.81 64.331 56.207 76.939 46.336-39.128-75.939-26.52-85.81c12.609-9.871 64.331 56.207 76.94 46.336 12.608-9.871-39.128-75.939-26.52-85.81s64.331 56.207 76.939 46.336-39.128-75.939-26.527-85.805c12.602-9.866 64.338 56.202 76.967 46.315 12.628-9.887-39.128-75.939-26.527-85.805 12.602-9.865 64.344 56.197 76.919 46.352 12.574-9.845-39.128-75.939-26.486-85.836 12.642-9.898 64.331 56.207 76.932 46.341 12.602-9.866-39.121-75.944-26.519-85.81 12.601-9.866 64.33 56.207 76.939 46.336 12.608-9.871-39.128-75.939-26.527-85.805 12.602-9.866 64.338 56.202 76.946 46.331s-39.128-75.939-26.52-85.81c12.609-9.871 64.331 56.207 76.939 46.336 12.609-9.871-39.128-75.939-26.519-85.81 12.608-9.871 64.331 56.207 76.939 46.336 12.608-9.872-39.128-75.939-26.52-85.81s64.331 56.207 76.939 46.336c12.608-9.872-39.121-75.944-26.52-85.81 12.602-9.866 64.338 56.201 76.94 46.335 12.601-9.865-39.122-75.944-26.52-85.809 12.601-9.866 64.337 56.201 76.946 46.33 12.608-9.871-39.128-75.939-26.52-85.81s64.338 56.202 76.939 46.336-39.121-75.944-26.513-85.815 64.338 56.202 76.946 46.33c12.608-9.871-39.121-75.944-26.52-85.809"/></g><path d="m-522.016 52.3132c12.602-9.8658 64.331 56.2068 76.939 46.3359 12.608-9.8712-39.128-75.9388-26.519-85.8099 12.608-9.8712 64.33 56.207 76.939 46.3358 12.608-9.8712-39.128-75.9387-26.52-85.8099s64.331 56.207 76.939 46.3358c12.608-9.87112-39.128-75.9387-26.52-85.8099 12.608-9.8711 64.331 56.20703 76.939 46.3359 12.609-9.8712-39.128-75.9388-26.526-85.8049 12.601-9.866 64.338 56.202 76.966 46.3149 12.628-9.887-39.128-75.9389-26.527-85.8049 12.602-9.866 64.345 56.1967 76.919 46.352 12.575-9.845-39.128-75.939-26.486-85.836 12.642-9.898 64.331 56.207 76.933 46.341 12.601-9.866-39.121-75.944-26.52-85.81s64.331 56.207 76.9391 46.336c12.6082-9.871-39.1281-75.939-26.5261-85.805 12.601-9.866 64.3372 56.202 76.9455 46.331 12.6082-9.872-39.128-75.939-26.5198-85.81s64.3309 56.207 76.93912 46.336c12.60818-9.872-39.12792-75.939-26.51972-85.81 12.60821-9.871 64.3309 56.207 76.9391 46.336 12.6082-9.872-39.1279-75.939-26.5197-85.81 12.6082-9.872 64.3308 56.207 76.9395 46.335 12.608-9.871-39.1216-75.944-26.5202-85.809 12.6015-9.866 64.3372 56.201 76.9392 46.335 12.601-9.865-39.121-75.944-26.52-85.81 12.602-9.865 64.338 56.202 76.946 46.331s-39.128-75.939-26.52-85.81c12.609-9.871 64.338 56.202 76.939 46.336 12.602-9.866-39.121-75.944-26.513-85.815 12.609-9.871 64.338 56.201 76.946 46.33 12.609-9.871-39.121-75.944-26.519-85.81" stroke-width=".68"/><g stroke-width=".476"><path d="m-335.499 290.547c12.601-9.866 64.33 56.207 76.939 46.335 12.608-9.871-39.128-75.938-26.52-85.809 12.608-9.872 64.331 56.207 76.939 46.335 12.608-9.871-39.128-75.938-26.52-85.81 12.609-9.871 64.331 56.207 76.939 46.336 12.609-9.871-39.128-75.938-26.519-85.81 12.608-9.871 64.331 56.207 76.939 46.336s-39.128-75.938-26.527-85.804c12.602-9.866 64.338 56.201 76.9665 46.314 12.6284-9.887-39.128-75.938-26.5265-85.8043 12.6014-9.8659 64.3444 56.1963 76.91881 46.3513 12.57446-9.844-39.12791-75.9383-26.48601-85.8359 12.642-9.8976 64.3309 56.2069 76.9324 46.3409 12.6015-9.8657-39.12119-75.9438-26.5197-85.8097 12.6014-9.86589 64.3308 56.207 76.9391 46.3358 12.6084-9.8711-39.128-75.9387-26.5265-85.8046 12.6014-9.8659 64.3379 56.2017 76.9459 46.3306 12.608-9.8712-39.128-75.9388-26.52-85.8099 12.608-9.8712 64.331 56.20697 76.939 46.3358 12.609-9.8712-39.128-75.9388-26.519-85.81 12.608-9.871 64.33 56.2071 76.939 46.336 12.608-9.8712-39.128-75.939-26.52-85.81s64.331 56.207 76.939 46.3359c12.608-9.8709-39.121-75.9439-26.52-85.8099 12.602-9.866 64.338 56.202 76.939 46.336 12.602-9.866-39.121-75.944-26.519-85.81 12.601-9.866 64.337 56.202 76.946 46.33 12.608-9.871-39.128-75.938-26.52-85.809 12.608-9.872 64.337 56.201 76.939 46.335 12.601-9.865-39.121-75.944-26.513-85.815s64.338 56.202 76.946 46.331-39.121-75.944-26.52-85.81"/><path d="m-68.6395 631.399c12.6014-9.866 64.33086 56.207 76.93908 46.336s-39.12798-75.939-26.51978-85.81c12.60826-9.871 64.3309 56.207 76.9391 46.336 12.6083-9.871-39.1279-75.939-26.5197-85.81s64.3309 56.207 76.9388 46.336c12.609-9.872-39.1276-75.939-26.5194-85.81s64.3304 56.207 76.9394 46.336c12.608-9.872-39.128-75.939-26.527-85.805 12.602-9.866 64.338 56.202 76.966 46.315 12.629-9.887-39.128-75.939-26.526-85.805 12.601-9.866 64.344 56.196 76.919 46.352 12.574-9.845-39.128-75.939-26.486-85.837 12.642-9.897 64.331 56.207 76.932 46.341 12.602-9.865-39.121-75.944-26.52-85.809 12.602-9.866 64.331 56.207 76.939 46.335 12.609-9.871-39.128-75.938-26.526-85.804 12.601-9.866 64.338 56.202 76.946 46.33 12.608-9.871-39.128-75.938-26.52-85.81 12.608-9.871 64.331 56.207 76.939 46.336s-39.128-75.938-26.52-85.81c12.609-9.871 64.331 56.207 76.94 46.336 12.608-9.871-39.128-75.939-26.52-85.81s64.331 56.207 76.939 46.336-39.121-75.944-26.52-85.81c12.602-9.866 64.338 56.202 76.939 46.336 12.602-9.866-39.121-75.944-26.519-85.81 12.601-9.866 64.337 56.202 76.945 46.331 12.609-9.871-39.128-75.939-26.519-85.8102 12.608-9.8711 64.337 56.2022 76.939 46.3362 12.601-9.866-39.121-75.9443-26.513-85.8155s64.337 56.2017 76.946 46.3305c12.608-9.8712-39.122-75.94401-26.52-85.809881"/><path d="m-415.84 187.928c12.601-9.866 64.331 56.207 76.939 46.336s-39.128-75.939-26.52-85.81c12.609-9.871 64.331 56.207 76.94 46.336 12.608-9.871-39.128-75.939-26.52-85.81 12.608-9.8713 64.331 56.207 76.939 46.336s-39.128-75.9391-26.52-85.8102c12.608-9.8712 64.331 56.2072 76.939 46.3362 12.608-9.872-39.128-75.9391-26.526-85.805 12.601-9.8659 64.337 56.2017 76.966 46.3147 12.628-9.887-39.128-75.938766-26.527-85.80464 12.602-9.86586 64.3448 56.19644 76.9192 46.35174 12.5745-9.8448-39.1282-75.9388-26.4862-85.8364s64.3312 56.20702 76.9326 46.34115c12.6015-9.86585-39.1212-75.94405-26.5197-85.80995 12.6015-9.8658 64.33086 56.2071 76.9391 46.3359 12.6082-9.8712-39.128-75.9385-26.5265-85.8045 12.601452-9.866 64.3377 56.2016 76.9459 46.3304s-39.128-75.9384-26.5198-85.8094c12.6082-9.872 64.3314 56.207 76.9394 46.335 12.608-9.871-39.1282-75.938-26.52-85.81 12.608-9.871 64.331 56.207 76.939 46.336s-39.128-75.938-26.52-85.81c12.609-9.871 64.331 56.207 76.939 46.336 12.609-9.871-39.121-75.944-26.519-85.81 12.601-9.866 64.337 56.202 76.939 46.336 12.601-9.866-39.121-75.944-26.52-85.81 12.602-9.866 64.338 56.202 76.946 46.331s-39.128-75.939-26.52-85.81 64.338 56.202 76.939 46.336c12.602-9.866-39.121-75.944-26.513-85.815 12.609-9.872 64.338 56.201 76.946 46.33s-39.121-75.944-26.52-85.81"/><path d="m-148.983 528.78c12.602-9.866 64.331 56.207 76.9393 46.336 12.6082-9.872-39.1283-75.939-26.5198-85.81 12.6082-9.871 64.3309 56.207 76.9391 46.336 12.60825-9.872-39.1279-75.939-26.5197-85.81 12.6082-9.872 64.3309 56.207 76.9391 46.335 12.6082-9.871-39.128-75.938-26.51974-85.809 12.60824-9.872 64.33094 56.207 76.93914 46.335 12.6082-9.871-39.128-75.938-26.5265-85.804 12.6014-9.866 64.3381 56.202 76.9661 46.314 12.628-9.887-39.128-75.938-26.526-85.804 12.601-9.866 64.344 56.196 76.918 46.352 12.575-9.845-39.128-75.939-26.486-85.837 12.642-9.897 64.331 56.207 76.933 46.341 12.601-9.866-39.121-75.944-26.52-85.81 12.601-9.865 64.331 56.207 76.939 46.336s-39.128-75.938-26.526-85.804c12.601-9.866 64.337 56.201 76.945 46.33 12.609-9.871-39.128-75.939-26.519-85.81 12.608-9.871 64.331 56.207 76.939 46.336s-39.128-75.939-26.52-85.81 64.331 56.207 76.939 46.336-39.128-75.939-26.52-85.8098c12.609-9.8712 64.331 56.2068 76.94 46.3358 12.608-9.871-39.122-75.944-26.52-85.8099 12.601-9.8659 64.338 56.2019 76.939 46.3359 12.601-9.8659-39.121-75.9441-26.52-85.81 12.602-9.86582 64.338 56.2017 76.946 46.3306 12.608-9.8712-39.128-75.9388-26.52-85.8099 12.609-9.8712 64.338 56.2017 76.939 46.3358 12.602-9.8658-39.121-75.944-26.513-85.8151 12.609-9.8712 64.338 56.20162 76.946 46.3305 12.609-9.8712-39.121-75.944-26.519-85.8099"/><path d="m-229.323 426.161c12.601-9.866 64.33 56.207 76.939 46.336 12.608-9.871-39.128-75.939-26.52-85.81s64.331 56.207 76.939 46.336c12.6083-9.871-39.128-75.939-26.52-85.81 12.609-9.871 64.3312 56.207 76.9394 46.336s-39.1279-75.939-26.5197-85.81 64.3309 56.207 76.93909 46.336c12.60821-9.871-39.12799-75.939-26.52649-85.805s64.3376 56.202 76.9661 46.315-39.1279-75.939-26.5265-85.805c12.6015-9.866 64.3444 56.197 76.9189 46.352 12.5742-9.845-39.128-75.939-26.486-85.836 12.642-9.898 64.3312 56.207 76.9322 46.341 12.602-9.866-39.121-75.944-26.52-85.81 12.602-9.866 64.331 56.207 76.94 46.336 12.608-9.872-39.128-75.939-26.527-85.805s64.338 56.202 76.946 46.331c12.608-9.872-39.128-75.9392-26.52-85.8103 12.608-9.8712 64.331 56.2073 76.939 46.3363 12.608-9.872-39.128-75.9392-26.519-85.8104 12.608-9.8712 64.33 56.207 76.939 46.3359 12.608-9.8712-39.128-75.93884-26.52-85.81 12.608-9.8712 64.331 56.207 76.939 46.3359 12.608-9.8712-39.121-75.9441-26.52-85.81 12.602-9.8658 64.338 56.20175 76.939 46.33588 12.602-9.86588-39.121-75.94398-26.519-85.80988 12.601-9.8659 64.337 56.2017 76.946 46.3305 12.608-9.8711-39.128-75.9389-26.52-85.8099s64.337 56.2018 76.939 46.3359c12.601-9.8659-39.121-75.9439-26.513-85.8149s64.338 56.201 76.946 46.33-39.121-75.944-26.52-85.81"/><path d="m37.5337 767.014c12.6015-9.866 64.3313 56.207 76.9393 46.336 12.608-9.872-39.1282-75.939-26.5199-85.81 12.6079-9.872 64.3309 56.207 76.9389 46.335 12.608-9.871-39.128-75.938-26.52-85.809 12.609-9.872 64.331 56.207 76.94 46.335 12.608-9.871-39.128-75.938-26.52-85.81 12.608-9.871 64.331 56.207 76.939 46.336s-39.128-75.938-26.527-85.804c12.602-9.866 64.338 56.201 76.967 46.314 12.628-9.887-39.128-75.938-26.527-85.804 12.602-9.866 64.344 56.196 76.919 46.351 12.574-9.844-39.128-75.938-26.486-85.836 12.642-9.897 64.331 56.207 76.932 46.341 12.602-9.866-39.121-75.944-26.519-85.81 12.601-9.866 64.33 56.207 76.939 46.336 12.608-9.871-39.128-75.939-26.527-85.804 12.602-9.866 64.338 56.201 76.946 46.33s-39.128-75.939-26.52-85.81 64.331 56.207 76.939 46.336c12.609-9.871-39.128-75.939-26.519-85.81 12.608-9.871 64.331 56.207 76.939 46.336s-39.128-75.939-26.52-85.81 64.331 56.207 76.939 46.336-39.121-75.944-26.52-85.81c12.602-9.866 64.338 56.202 76.94 46.336 12.601-9.866-39.122-75.944-26.52-85.81 12.601-9.866 64.337 56.202 76.946 46.33 12.608-9.871-39.128-75.938-26.52-85.809 12.608-9.872 64.338 56.201 76.939 46.335 12.601-9.865-39.121-75.944-26.513-85.815s64.338 56.202 76.946 46.331-39.121-75.944-26.52-85.81"/><path d="m-470.286 118.386c12.601-9.866 64.331 56.207 76.939 46.336s-39.128-75.9389-26.52-85.8101c12.608-9.8711 64.331 56.2071 76.939 46.3361 12.609-9.871-39.128-75.939-26.519-85.8102 12.608-9.8711 64.33 56.2071 76.939 46.3359 12.608-9.8712-39.128-75.93875-26.52-85.8099152 12.608-9.8711648 64.331 56.2070152 76.939 46.3358152 12.608-9.8711-39.128-75.9387-26.526-85.8046 12.601-9.8659 64.337 56.2017 76.966 46.31469 12.628-9.88702-39.128-75.93879-26.527-85.80459 12.602-9.8659 64.345 56.1964 76.919 46.3517 12.575-9.8447-39.128-75.9388-26.486-85.8368 12.642-9.897 64.331 56.2074 76.9325 46.3416 12.6014-9.8659-39.1215-75.9436-26.5195-85.8096 12.601-9.866 64.3306 56.207 76.9388 46.335 12.6082-9.871-39.1279-75.938-26.5265-85.804 12.6015-9.866 64.33768 56.202 76.9459 46.33 12.6082-9.871-39.128-75.938-26.5198-85.809 12.60825-9.872 64.3309 56.207 76.9392 46.335 12.6082-9.871-39.128-75.938-26.5198-85.81 12.6082-9.871 64.3309 56.207 76.9392 46.336 12.608-9.871-39.128-75.938-26.5198-85.81 12.6082-9.871 64.3308 56.207 76.9388 46.336 12.609-9.871-39.121-75.944-26.519-85.81 12.601-9.866 64.337 56.202 76.939 46.336 12.601-9.866-39.122-75.944-26.52-85.81 12.601-9.866 64.338 56.202 76.946 46.331s-39.128-75.939-26.52-85.81 64.338 56.202 76.939 46.336c12.602-9.866-39.121-75.944-26.513-85.815 12.608-9.872 64.338 56.201 76.946 46.33s-39.121-75.944-26.52-85.81"/><path d="m-283.77 356.619c12.602-9.865 64.331 56.207 76.939 46.336 12.609-9.871-39.128-75.939-26.519-85.81 12.608-9.871 64.331 56.207 76.939 46.336s-39.128-75.939-26.52-85.81 64.331 56.207 76.939 46.336c12.6084-9.871-39.128-75.939-26.52-85.81 12.609-9.871 64.3313 56.207 76.9396 46.336 12.6082-9.871-39.128-75.939-26.5265-85.805 12.6014-9.865 64.3376 56.202 76.9661 46.315 12.62847-9.887-39.128-75.939-26.5265-85.805 12.6015-9.865 64.3444 56.197 76.9188 46.352 12.5745-9.845-39.12791-75.939-26.4859-85.836 12.642-9.898 64.3309 56.207 76.9323 46.341 12.6011-9.866-39.1212-75.9441-26.5197-85.81 12.6015-9.8658 64.3308 56.207 76.9388 46.336 12.609-9.871-39.128-75.9389-26.526-85.8047 12.601-9.8659 64.337 56.2017 76.946 46.3305 12.608-9.8711-39.128-75.9387-26.52-85.80987 12.608-9.87116 64.331 56.20697 76.939 46.33587 12.608-9.8712-39.128-75.9388-26.52-85.81 12.609-9.8711 64.331 56.2071 76.939 46.3359 12.609-9.87116-39.128-75.9388-26.519-85.8099 12.608-9.8712 64.331 56.207 76.939 46.3358 12.608-9.8711-39.121-75.9436-26.52-85.8096 12.602-9.866 64.338 56.2014 76.939 46.3355 12.602-9.8658-39.121-75.9435-26.52-85.8095 12.602-9.866 64.338 56.201 76.946 46.33s-39.128-75.939-26.519-85.81c12.608-9.871 64.337 56.202 76.939 46.336 12.601-9.866-39.122-75.944-26.513-85.815 12.608-9.871 64.337 56.202 76.946 46.33 12.608-9.871-39.122-75.944-26.52-85.809"/><path d="m-16.9113 697.472c12.60151-9.866 64.3309 56.207 76.9391 46.336 12.6083-9.872-39.1279-75.939-26.5197-85.81 12.6082-9.872 64.3309 56.207 76.9389 46.335 12.608-9.871-39.1277-75.938-26.5195-85.809 12.6082-9.872 64.3305 56.207 76.9395 46.335 12.608-9.871-39.128-75.938-26.52-85.81 12.608-9.871 64.331 56.207 76.939 46.336s-39.128-75.938-26.527-85.804c12.602-9.866 64.338 56.201 76.967 46.314 12.628-9.887-39.128-75.938-26.527-85.804 12.602-9.866 64.344 56.196 76.919 46.351 12.574-9.844-39.128-75.938-26.486-85.836 12.642-9.897 64.331 56.207 76.932 46.341 12.602-9.866-39.121-75.944-26.519-85.81 12.601-9.866 64.33 56.207 76.939 46.336 12.608-9.871-39.128-75.939-26.527-85.804 12.602-9.866 64.338 56.201 76.946 46.33s-39.128-75.939-26.52-85.81c12.609-9.871 64.331 56.207 76.939 46.336 12.609-9.871-39.128-75.939-26.519-85.81 12.608-9.871 64.331 56.207 76.939 46.336s-39.128-75.939-26.52-85.81 64.331 56.207 76.939 46.336-39.121-75.944-26.52-85.81c12.602-9.866 64.338 56.202 76.94 46.336 12.601-9.866-39.122-75.944-26.52-85.81 12.601-9.866 64.337 56.202 76.946 46.33 12.608-9.871-39.128-75.938-26.52-85.809 12.608-9.872 64.338 56.201 76.939 46.335 12.601-9.865-39.121-75.944-26.513-85.815 12.608-9.8709 64.338 56.202 76.946 46.331s-39.121-75.9443-26.52-85.8101"/><path d="m-364.11 254.001c12.601-9.866 64.331 56.207 76.939 46.336s-39.128-75.939-26.52-85.81 64.331 56.207 76.939 46.336-39.128-75.939-26.52-85.81c12.609-9.871 64.331 56.207 76.939 46.336 12.609-9.871-39.127-75.939-26.519-85.81s64.331 56.207 76.939 46.336c12.608-9.872-39.128-75.939-26.527-85.805 12.602-9.8659 64.338 56.202 76.9665 46.315s-39.1275-75.9391-26.5265-85.8049c12.6015-9.8659 64.3444 56.1959 76.9189 46.3519 12.5744-9.845-39.128-75.939-26.486-85.8366 12.642-9.89758 64.33088 56.207 76.9323 46.3411 12.6015-9.8658-39.1212-75.944-26.5197-85.8099 12.60147-9.8658 64.3309 56.2071 76.9391 46.3359s-39.128-75.9388-26.5265-85.8046c12.6015-9.8659 64.3379 56.20166 76.9459 46.3305 12.608-9.8712-39.128-75.9387-26.5198-85.8094 12.6078-9.872 64.3308 56.2065 76.9388 46.3354 12.609-9.8712-39.128-75.9384-26.519-85.8104 12.608-9.871 64.33 56.2075 76.939 46.3363 12.608-9.8713-39.128-75.9383-26.52-85.8103 12.608-9.871 64.331 56.207 76.939 46.336s-39.121-75.944-26.52-85.81c12.602-9.866 64.338 56.202 76.939 46.336 12.602-9.866-39.121-75.944-26.519-85.81 12.601-9.866 64.337 56.202 76.946 46.331 12.608-9.871-39.128-75.939-26.52-85.81s64.337 56.202 76.939 46.336c12.601-9.866-39.121-75.944-26.513-85.815 12.608-9.872 64.338 56.201 76.946 46.33s-39.121-75.944-26.52-85.81"/><path d="m-97.2518 594.854c12.6014-9.866 64.3309 56.207 76.9391 46.335 12.60819-9.871-39.128-75.938-26.5198-85.81 12.6083-9.871 64.3309 56.207 76.9391 46.336 12.6083-9.871-39.12791-75.938-26.51969-85.81 12.60819-9.871 64.33089 56.207 76.93909 46.336s-39.1279-75.939-26.5197-85.81 64.3307 56.207 76.9387 46.336c12.609-9.871-39.1276-75.939-26.526-85.804 12.601-9.866 64.338 56.201 76.966 46.314s-39.128-75.939-26.526-85.804c12.601-9.866 64.344 56.196 76.918 46.351 12.575-9.844-39.128-75.938-26.486-85.836s64.331 56.207 76.933 46.341c12.601-9.866-39.121-75.944-26.52-85.81s64.331 56.207 76.939 46.336-39.128-75.939-26.526-85.805c12.601-9.865 64.337 56.202 76.946 46.331 12.608-9.871-39.128-75.939-26.52-85.81s64.331 56.207 76.939 46.336-39.128-75.939-26.52-85.81 64.331 56.207 76.939 46.336-39.128-75.939-26.519-85.81c12.608-9.871 64.33 56.207 76.939 46.336 12.608-9.871-39.122-75.944-26.52-85.81 12.601-9.866 64.338 56.202 76.939 46.336s-39.121-75.9443-26.52-85.8102c12.602-9.8659 64.338 56.2012 76.946 46.3302s-39.128-75.9384-26.52-85.8096c12.609-9.8712 64.338 56.2017 76.939 46.3359 12.602-9.8659-39.121-75.9441-26.513-85.81521 12.609-9.87116 64.338 56.20171 76.946 46.33051 12.609-9.8712-39.121-75.944-26.519-85.8099"/><path d="m-177.594 492.234c12.602-9.865 64.331 56.207 76.939 46.336 12.6086-9.871-39.128-75.939-26.519-85.81 12.608-9.871 64.3305 56.207 76.9387 46.336s-39.1279-75.939-26.5197-85.81 64.3309 56.207 76.939097 46.336c12.608203-9.871-39.127997-75.939-26.519697-85.81 12.6082-9.871 64.3308 56.207 76.9391 46.336 12.6082-9.871-39.128-75.939-26.5265-85.805 12.6014-9.865 64.3376 56.202 76.966 46.315 12.629-9.887-39.1279-75.939-26.5264-85.805 12.6015-9.865 64.3444 56.197 76.9184 46.352 12.575-9.845-39.128-75.939-26.486-85.836 12.642-9.898 64.331 56.207 76.933 46.341 12.601-9.866-39.121-75.944-26.52-85.81 12.602-9.866 64.331 56.207 76.939 46.336s-39.128-75.939-26.526-85.805c12.601-9.866 64.337 56.202 76.946 46.331 12.608-9.871-39.128-75.939-26.52-85.81s64.331 56.207 76.939 46.336-39.128-75.939-26.52-85.8102c12.608-9.8711 64.331 56.2072 76.939 46.3362 12.609-9.871-39.128-75.9391-26.519-85.8103 12.608-9.8711 64.33 56.2073 76.939 46.3363 12.608-9.8716-39.122-75.9444-26.52-85.8103 12.601-9.86588 64.338 56.2017 76.939 46.3358 12.602-9.8659-39.121-75.944-26.52-85.8099 12.602-9.8658 64.338 56.2017 76.946 46.3306 12.608-9.8712-39.128-75.9388-26.52-85.8099 12.609-9.8712 64.338 56.2017 76.94 46.3358 12.601-9.8658-39.122-75.944-26.513-85.8152 12.608-9.8709 64.337 56.2017 76.945 46.3306 12.609-9.8712-39.121-75.9445-26.519-85.8095"/><path d="m89.2646 833.087c12.6014-9.865 64.3314 56.207 76.9394 46.336s-39.128-75.939-26.52-85.81 64.331 56.207 76.939 46.336-39.128-75.939-26.52-85.81c12.609-9.871 64.331 56.207 76.939 46.336 12.609-9.871-39.127-75.939-26.519-85.81s64.331 56.207 76.939 46.336-39.128-75.939-26.527-85.805c12.602-9.865 64.338 56.202 76.966 46.315 12.629-9.887-39.127-75.939-26.526-85.805 12.601-9.865 64.344 56.197 76.919 46.352 12.574-9.845-39.128-75.939-26.486-85.836 12.642-9.898 64.331 56.207 76.932 46.341 12.602-9.866-39.121-75.944-26.519-85.81 12.601-9.866 64.33 56.207 76.939 46.336 12.608-9.871-39.128-75.939-26.527-85.805 12.602-9.866 64.338 56.202 76.946 46.331s-39.128-75.939-26.52-85.81 64.331 56.207 76.939 46.336c12.609-9.871-39.128-75.939-26.519-85.81 12.608-9.871 64.33 56.207 76.939 46.336 12.608-9.871-39.128-75.939-26.52-85.81s64.331 56.207 76.939 46.336c12.608-9.872-39.121-75.944-26.52-85.81 12.602-9.866 64.338 56.201 76.939 46.336 12.602-9.866-39.121-75.944-26.519-85.81 12.601-9.866 64.337 56.201 76.946 46.33 12.608-9.871-39.128-75.939-26.52-85.81s64.337 56.202 76.939 46.336c12.601-9.866-39.121-75.944-26.513-85.815s64.338 56.202 76.946 46.33c12.608-9.871-39.121-75.944-26.52-85.809"/></g></g><g filter="url(#a)"><path d="m-3 18c0-9.94112 8.05888-18 18-18h448c9.941 0 18 8.05888 18 18v83.592c0 14.231-9.997 26.503-23.933 29.381l-170.748 35.256c-31.217 6.446-63.421 6.446-94.638 0l-170.7476-35.256c-13.9362-2.878-23.9334-15.15-23.9334-29.381z" fill="#ec5a3d"/><g clip-path="url(#e)" stroke="#d83f27" stroke-miterlimit="10"><path d="m-548.848 20.3169c12.601-9.8659 64.33 56.207 76.939 46.3358 12.608-9.8711-39.128-75.93871-26.52-85.8099 12.608-9.8711 64.331 56.207 76.939 46.3359 12.608-9.8712-39.128-75.9388-26.52-85.8099 12.609-9.8712 64.331 56.20696 76.939 46.3358 12.609-9.8712-39.128-75.9387-26.519-85.8099 12.608-9.8707 64.331 56.207 76.939 46.3358 12.608-9.8711-39.128-75.9385-26.527-85.8045 12.602-9.866 64.338 56.2016 76.966 46.3146 12.629-9.8866-39.127-75.9386-26.526-85.8046s64.344 56.196 76.919 46.352c12.574-9.845-39.128-75.939-26.486-85.837 12.642-9.897 64.331 56.207 76.932 46.341 12.602-9.865-39.121-75.944-26.52-85.809 12.602-9.866 64.331 56.207 76.94 46.335 12.608-9.871-39.128-75.938-26.527-85.804 12.602-9.866 64.3377 56.201 76.9459 46.33 12.6083-9.871-39.1279-75.938-26.5197-85.81 12.6082-9.871 64.3309 56.207 76.9391 46.336 12.60822-9.871-39.128-75.938-26.5197-85.81 12.6082-9.871 64.3308 56.207 76.939 46.336 12.6083-9.871-39.12786-75.939-26.51964-85.81 12.60824-9.871 64.33084 56.207 76.93904 46.336 12.6083-9.871-39.1212-75.944-26.5197-85.81s64.3377 56.202 76.9387 46.336c12.602-9.866-39.1208-75.944-26.519-85.81 12.601-9.866 64.337 56.202 76.946 46.331 12.608-9.871-39.128-75.939-26.52-85.81s64.337 56.202 76.939 46.336c12.601-9.866-39.121-75.944-26.513-85.816 12.608-9.871 64.338 56.202 76.946 46.331s-39.121-75.944-26.52-85.81" stroke-width=".68"/><g stroke-width=".476"><path d="m-442.674 155.932c12.602-9.866 64.331 56.207 76.939 46.336s-39.128-75.939-26.519-85.81c12.608-9.871 64.33 56.207 76.939 46.336 12.608-9.871-39.128-75.9389-26.52-85.81 12.608-9.8712 64.331 56.207 76.939 46.336s-39.128-75.9389-26.52-85.8101c12.608-9.8711 64.331 56.207 76.939 46.3359 12.609-9.8712-39.128-75.93878-26.526-85.80466 12.601-9.86584 64.338 56.20176 76.966 46.31466 12.629-9.887-39.128-75.9387-26.526-85.8046 12.601-9.8659 64.344 56.1964 76.918 46.35172 12.575-9.84473-39.128-75.93872-26.486-85.83632s64.3313 56.207 76.9328 46.3411c12.6014-9.8659-39.1208-75.9437-26.5198-85.8097 12.6015-9.866 64.3309 56.2068 76.9391 46.3356 12.608235-9.8711-39.1279-75.9386-26.5265-85.8046 12.6015-9.866 64.3377 56.202 76.9459 46.331 12.6082-9.872-39.12798-75.939-26.5198-85.81 12.6083-9.871 64.3309 56.207 76.9392 46.336 12.6081-9.872-39.128-75.939-26.5198-85.81 12.6082-9.872 64.3309 56.207 76.9389 46.335 12.608-9.871-39.1277-75.938-26.519-85.81 12.608-9.871 64.33 56.208 76.939 46.336 12.608-9.871-39.122-75.944-26.52-85.81 12.601-9.865 64.338 56.202 76.939 46.336s-39.121-75.944-26.52-85.81c12.602-9.865 64.338 56.202 76.946 46.331s-39.128-75.939-26.52-85.81c12.609-9.871 64.338 56.202 76.939 46.336 12.602-9.866-39.121-75.944-26.513-85.815 12.609-9.871 64.338 56.201 76.946 46.33 12.609-9.871-39.121-75.944-26.519-85.81"/><path d="m-256.157 394.165c12.601-9.866 64.331 56.207 76.939 46.336s-39.128-75.939-26.52-85.81 64.331 56.207 76.939 46.336-39.128-75.939-26.52-85.81c12.609-9.871 64.3313 56.207 76.9395 46.336s-39.1275-75.939-26.5195-85.81 64.3307 56.207 76.9389 46.336-39.128-75.939-26.5265-85.805c12.6014-9.866 64.33762 56.202 76.9661 46.315 12.6285-9.887-39.128-75.939-26.52649-85.805 12.60146-9.866 64.34439 56.197 76.91889 46.352 12.5744-9.845-39.128-75.939-26.486-85.836 12.642-9.898 64.3311 56.207 76.9321 46.341 12.602-9.866-39.121-75.944-26.5195-85.81s64.3305 56.207 76.9395 46.336c12.608-9.871-39.128-75.939-26.527-85.8048 12.602-9.8659 64.338 56.2018 76.946 46.3308s-39.128-75.939-26.52-85.8102c12.608-9.8711 64.331 56.207 76.939 46.3359 12.609-9.8712-39.128-75.9388-26.519-85.80996 12.608-9.87114 64.33 56.20706 76.939 46.33586 12.608-9.8712-39.128-75.9388-26.52-85.8099 12.608-9.8712 64.331 56.207 76.939 46.33582 12.608-9.87116-39.121-75.94402-26.52-85.80992 12.602-9.8659 64.338 56.2017 76.939 46.3358 12.602-9.8658-39.121-75.9444-26.519-85.8094 12.601-9.866 64.337 56.2012 76.946 46.3301 12.608-9.8712-39.128-75.9391-26.52-85.8101s64.337 56.202 76.939 46.336c12.601-9.866-39.121-75.944-26.513-85.815s64.338 56.202 76.946 46.33c12.608-9.871-39.121-75.944-26.52-85.81"/><path d="m10.701 735.017c12.6015-9.866 64.3309 56.207 76.9392 46.336 12.6078-9.871-39.128-75.939-26.5198-85.81s64.3306 56.207 76.9396 46.336c12.608-9.871-39.1284-75.939-26.52-85.81 12.608-9.871 64.331 56.207 76.939 46.336s-39.128-75.939-26.52-85.81 64.331 56.207 76.939 46.336-39.128-75.939-26.526-85.805c12.601-9.866 64.337 56.202 76.966 46.315 12.628-9.887-39.128-75.939-26.527-85.805 12.602-9.866 64.345 56.197 76.919 46.352 12.575-9.845-39.128-75.939-26.486-85.836 12.642-9.898 64.331 56.207 76.933 46.341 12.601-9.866-39.122-75.944-26.52-85.81 12.601-9.866 64.331 56.207 76.939 46.336 12.608-9.872-39.128-75.939-26.526-85.805 12.601-9.866 64.337 56.202 76.945 46.331 12.609-9.872-39.128-75.939-26.519-85.81 12.608-9.872 64.331 56.207 76.939 46.335 12.608-9.871-39.128-75.938-26.52-85.809 12.608-9.872 64.331 56.207 76.939 46.335 12.608-9.871-39.128-75.938-26.52-85.81 12.609-9.871 64.331 56.207 76.939 46.336 12.609-9.871-39.121-75.944-26.519-85.81 12.601-9.865 64.337 56.202 76.939 46.336 12.601-9.866-39.121-75.944-26.52-85.81 12.602-9.866 64.338 56.202 76.946 46.331s-39.128-75.939-26.52-85.81 64.338 56.202 76.939 46.336c12.602-9.866-39.121-75.944-26.513-85.815 12.609-9.871 64.338 56.201 76.946 46.33s-39.121-75.944-26.52-85.81"/><path d="m-497.119 86.3899c12.602-9.8659 64.331 56.2071 76.939 46.3361 12.609-9.871-39.128-75.939-26.519-85.8102 12.608-9.8711 64.33 56.2072 76.939 46.3359 12.608-9.8712-39.128-75.9388-26.52-85.80995 12.608-9.87116 64.331 56.20705 76.939 46.33585s-39.128-75.9387-26.52-85.8099c12.609-9.8712 64.331 56.207 76.939 46.3358 12.609-9.87113-39.128-75.9387-26.526-85.8046 12.601-9.8659 64.338 56.2017 76.966 46.3147 12.629-9.887-39.128-75.9386-26.526-85.8046 12.601-9.866 64.344 56.1964 76.918 46.3517 12.575-9.8447-39.128-75.9387-26.486-85.8367 12.642-9.897 64.331 56.2073 76.933 46.341 12.601-9.865-39.121-75.944-26.52-85.809 12.602-9.866 64.331 56.207 76.9392 46.335 12.6082-9.871-39.1282-75.938-26.5265-85.804 12.6014-9.866 64.3376 56.201 76.9459 46.33 12.60818-9.871-39.128-75.938-26.5198-85.81 12.6082-9.871 64.3309 56.207 76.9391 46.336s-39.12794-75.938-26.51972-85.81c12.60822-9.871 64.33082 56.207 76.93912 46.336 12.6082-9.871-39.1279-75.939-26.5197-85.81s64.3304 56.207 76.9394 46.336c12.608-9.871-39.1215-75.944-26.52-85.81 12.601-9.866 64.338 56.202 76.939 46.336 12.602-9.866-39.121-75.944-26.52-85.81 12.602-9.866 64.338 56.202 76.946 46.331s-39.128-75.939-26.52-85.81c12.609-9.871 64.338 56.202 76.94 46.336 12.601-9.866-39.122-75.944-26.514-85.816 12.609-9.871 64.338 56.202 76.946 46.331 12.609-9.871-39.121-75.944-26.519-85.81"/><path d="m-310.604 324.623c12.602-9.866 64.331 56.207 76.939 46.336 12.609-9.871-39.127-75.939-26.519-85.81s64.331 56.207 76.939 46.336-39.128-75.939-26.52-85.81 64.331 56.207 76.939 46.336-39.128-75.939-26.52-85.81c12.609-9.871 64.3314 56.207 76.9396 46.336s-39.1276-75.939-26.5266-85.805c12.6016-9.866 64.3377 56.202 76.9662 46.315s-39.1279-75.939-26.5265-85.805c12.6015-9.866 64.34441 56.197 76.9189 46.352 12.5744-9.845-39.128-75.9389-26.48601-85.8365s64.33091 56.2065 76.93241 46.3415c12.6014-9.866-39.1212-75.9444-26.5198-85.8103 12.6015-9.8659 64.3308 56.2073 76.9388 46.3359 12.609-9.8712-39.1277-75.9388-26.5262-85.80466 12.6012-9.86588 64.3372 56.20166 76.9462 46.33056 12.608-9.8712-39.128-75.9387-26.52-85.8099s64.331 56.207 76.939 46.3358c12.608-9.87114-39.128-75.9387-26.52-85.8099 12.609-9.8712 64.331 56.207 76.939 46.3359 12.609-9.8712-39.128-75.9388-26.519-85.8104 12.608-9.871 64.331 56.2074 76.939 46.3363 12.608-9.8712-39.121-75.9443-26.52-85.8103 12.602-9.866 64.338 56.2021 76.939 46.336 12.602-9.866-39.121-75.944-26.52-85.81 12.602-9.866 64.338 56.202 76.946 46.331 12.609-9.871-39.128-75.939-26.519-85.81 12.608-9.871 64.337 56.202 76.939 46.336 12.601-9.866-39.122-75.944-26.513-85.815 12.608-9.872 64.337 56.201 76.946 46.33 12.608-9.871-39.122-75.944-26.52-85.81"/><path d="m-43.7438 665.476c12.6014-9.866 64.3308 56.207 76.9391 46.336 12.6082-9.871-39.12798-75.939-26.51976-85.81 12.60826-9.871 64.33086 56.207 76.93906 46.336 12.6083-9.871-39.1279-75.939-26.5197-85.81s64.3311 56.207 76.9391 46.336-39.1279-75.939-26.52-85.81c12.608-9.871 64.331 56.207 76.939 46.336 12.609-9.871-39.128-75.939-26.526-85.805 12.601-9.866 64.338 56.202 76.966 46.315s-39.128-75.939-26.526-85.805c12.601-9.866 64.344 56.197 76.918 46.352 12.575-9.845-39.128-75.939-26.486-85.836 12.642-9.898 64.331 56.207 76.933 46.341 12.601-9.866-39.121-75.944-26.52-85.81s64.331 56.207 76.939 46.336c12.608-9.872-39.128-75.939-26.526-85.805 12.601-9.866 64.337 56.202 76.946 46.331 12.608-9.872-39.128-75.939-26.52-85.81 12.608-9.872 64.331 56.207 76.939 46.335 12.608-9.871-39.128-75.938-26.52-85.809 12.608-9.872 64.331 56.207 76.939 46.335 12.608-9.871-39.128-75.938-26.519-85.81 12.608-9.871 64.33 56.207 76.939 46.336 12.608-9.871-39.122-75.944-26.52-85.81 12.601-9.865 64.338 56.202 76.939 46.336s-39.121-75.944-26.52-85.81c12.602-9.866 64.338 56.202 76.946 46.331s-39.128-75.939-26.52-85.81c12.609-9.871 64.338 56.202 76.939 46.336 12.602-9.866-39.121-75.9442-26.513-85.8154 12.609-9.8711 64.338 56.2014 76.946 46.3304 12.609-9.871-39.121-75.9439-26.519-85.8097"/><path d="m-390.944 222.005c12.601-9.866 64.331 56.207 76.939 46.336s-39.128-75.939-26.52-85.81 64.331 56.207 76.939 46.336c12.608-9.872-39.128-75.939-26.519-85.81 12.608-9.871 64.33 56.207 76.939 46.336 12.608-9.872-39.128-75.939-26.52-85.81 12.608-9.8715 64.331 56.207 76.939 46.336 12.608-9.872-39.128-75.9392-26.526-85.8051 12.601-9.8659 64.337 56.2021 76.966 46.3151 12.6281-9.887-39.128-75.9392-26.527-85.805 12.602-9.8659 64.3445 56.1964 76.919 46.3517 12.5744-9.8448-39.128-75.93878-26.486-85.8364 12.642-9.8976 64.3309 56.207 76.9324 46.3412 12.60144-9.8659-39.1212-75.9441-26.5198-85.81 12.6015-9.8658 64.3309 56.20706 76.9391 46.3359 12.6082-9.8712-39.127927-75.9388-26.5265-85.8046 12.6015-9.8658 64.3377 56.2017 76.9459 46.3305 12.6079-9.8712-39.128-75.9383-26.5198-85.8103 12.6083-9.871 64.3307 56.2074 76.9387 46.3363 12.609-9.8712-39.127-75.9383-26.519-85.8103 12.608-9.871 64.331 56.207 76.939 46.336s-39.128-75.939-26.52-85.81 64.331 56.207 76.939 46.336-39.121-75.944-26.52-85.81c12.602-9.866 64.338 56.202 76.94 46.336 12.601-9.866-39.122-75.944-26.52-85.81 12.601-9.866 64.338 56.202 76.946 46.331s-39.128-75.939-26.52-85.81 64.338 56.202 76.939 46.336c12.602-9.866-39.121-75.944-26.513-85.816 12.608-9.871 64.338 56.202 76.946 46.331s-39.121-75.944-26.52-85.81"/><path d="m-124.086 562.856c12.602-9.865 64.3311 56.207 76.9393 46.336 12.6083-9.871-39.1279-75.938-26.5197-85.81 12.6082-9.871 64.3309 56.207 76.93912 46.336 12.60818-9.871-39.12792-75.939-26.51972-85.81s64.3309 56.207 76.9391 46.336-39.128-75.939-26.5197-85.81c12.6082-9.871 64.3308 56.207 76.9386 46.336 12.609-9.871-39.1275-75.939-26.526-85.805 12.6014-9.865 64.338 56.202 76.966 46.315 12.629-9.887-39.128-75.939-26.526-85.804 12.601-9.866 64.344 56.196 76.918 46.351 12.575-9.844-39.128-75.939-26.486-85.836 12.642-9.898 64.331 56.207 76.933 46.341 12.601-9.866-39.121-75.944-26.52-85.81 12.602-9.866 64.331 56.207 76.939 46.336s-39.128-75.939-26.526-85.805c12.601-9.866 64.337 56.202 76.946 46.331 12.608-9.871-39.128-75.939-26.52-85.81s64.331 56.207 76.939 46.336-39.128-75.939-26.52-85.81 64.331 56.207 76.939 46.336c12.609-9.871-39.128-75.939-26.519-85.81 12.608-9.871 64.33 56.207 76.939 46.336 12.608-9.871-39.122-75.9444-26.52-85.8102 12.601-9.8659 64.338 56.2012 76.939 46.3362 12.602-9.866-39.121-75.9444-26.52-85.8103 12.602-9.8659 64.338 56.2013 76.946 46.3305 12.608-9.8711-39.128-75.9387-26.52-85.8099 12.609-9.87113 64.338 56.2018 76.94 46.3359 12.601-9.8659-39.122-75.944-26.513-85.8152 12.608-9.8711 64.337 56.2017 76.945 46.3305 12.609-9.87114-39.121-75.944-26.519-85.8099"/><path d="m-204.428 460.238c12.602-9.866 64.331 56.207 76.939 46.336 12.609-9.871-39.128-75.939-26.519-85.81 12.608-9.871 64.3305 56.207 76.9387 46.336 12.6083-9.871-39.1277-75.939-26.5197-85.81 12.6082-9.871 64.3309 56.207 76.9391 46.336s-39.1279-75.939-26.5197-85.81 64.3309 56.207 76.9391 46.336-39.128-75.939-26.52651-85.805c12.60147-9.866 64.33761 56.202 76.96611 46.315s-39.1279-75.939-26.5265-85.805c12.6015-9.866 64.3444 56.197 76.9184 46.352 12.575-9.845-39.1275-75.939-26.4855-85.836 12.6415-9.898 64.3305 56.207 76.9325 46.341 12.601-9.866-39.121-75.944-26.52-85.81 12.602-9.866 64.331 56.207 76.939 46.336s-39.128-75.939-26.526-85.805c12.601-9.866 64.337 56.202 76.946 46.331 12.608-9.871-39.128-75.939-26.52-85.81 12.608-9.8713 64.331 56.207 76.939 46.336 12.608-9.872-39.128-75.9391-26.52-85.8103 12.608-9.8711 64.331 56.2073 76.939 46.3363 12.609-9.872-39.128-75.9392-26.519-85.8103 12.608-9.8712 64.33 56.207 76.939 46.3358 12.608-9.8711-39.122-75.94403-26.52-85.8099 12.601-9.8659 64.338 56.2017 76.939 46.3358 12.602-9.8658-39.121-75.944-26.52-85.8099 12.602-9.8658 64.338 56.20174 76.946 46.33058 12.608-9.87118-39.128-75.93878-26.52-85.80988 12.609-9.8712 64.338 56.2017 76.94 46.3358 12.601-9.8658-39.122-75.944-26.513-85.815 12.608-9.871 64.337 56.2015 76.945 46.3304 12.609-9.8712-39.121-75.9444-26.519-85.8104"/><path d="m62.4307 801.09c12.6015-9.866 64.3313 56.207 76.9393 46.336s-39.128-75.939-26.52-85.81 64.331 56.207 76.939 46.336-39.128-75.939-26.52-85.81c12.609-9.871 64.331 56.207 76.94 46.336 12.608-9.871-39.128-75.939-26.52-85.81s64.331 56.207 76.939 46.336-39.128-75.939-26.527-85.805c12.602-9.866 64.338 56.202 76.967 46.315 12.628-9.887-39.128-75.939-26.527-85.805 12.602-9.865 64.344 56.197 76.919 46.352 12.574-9.845-39.128-75.939-26.486-85.836 12.642-9.898 64.331 56.207 76.932 46.341 12.602-9.866-39.121-75.944-26.519-85.81 12.601-9.866 64.33 56.207 76.939 46.336 12.608-9.871-39.128-75.939-26.527-85.805 12.602-9.866 64.338 56.202 76.946 46.331s-39.128-75.939-26.52-85.81c12.609-9.871 64.331 56.207 76.939 46.336 12.609-9.871-39.128-75.939-26.519-85.81 12.608-9.871 64.331 56.207 76.939 46.336 12.608-9.872-39.128-75.939-26.52-85.81s64.331 56.207 76.939 46.336c12.608-9.872-39.121-75.944-26.52-85.81 12.602-9.866 64.338 56.201 76.94 46.335 12.601-9.865-39.122-75.944-26.52-85.809 12.601-9.866 64.337 56.201 76.946 46.33 12.608-9.871-39.128-75.939-26.52-85.81s64.338 56.202 76.939 46.336-39.121-75.944-26.513-85.815 64.338 56.202 76.946 46.33c12.608-9.871-39.121-75.944-26.52-85.809"/></g><path d="m-523.016 53.3132c12.602-9.8658 64.331 56.2068 76.939 46.3359 12.608-9.8712-39.128-75.9388-26.519-85.8099 12.608-9.8712 64.33 56.207 76.939 46.3358 12.608-9.8712-39.128-75.9387-26.52-85.8099s64.331 56.207 76.939 46.3358c12.608-9.8711-39.128-75.9387-26.52-85.8099 12.608-9.8711 64.331 56.20703 76.939 46.3359 12.609-9.8712-39.128-75.9388-26.526-85.8049 12.601-9.866 64.338 56.202 76.966 46.3149 12.628-9.887-39.128-75.9389-26.527-85.8049 12.602-9.866 64.345 56.1967 76.919 46.352 12.575-9.845-39.128-75.939-26.486-85.836 12.642-9.898 64.331 56.207 76.933 46.341 12.601-9.866-39.121-75.944-26.52-85.81s64.331 56.207 76.9391 46.336c12.6082-9.871-39.1281-75.939-26.5261-85.805 12.601-9.866 64.3372 56.202 76.9455 46.331 12.6082-9.872-39.128-75.939-26.5198-85.81s64.3309 56.207 76.93912 46.336c12.60818-9.872-39.12792-75.939-26.51972-85.81 12.60821-9.871 64.3309 56.207 76.9391 46.336 12.6082-9.872-39.1279-75.939-26.5197-85.81 12.6082-9.872 64.3308 56.207 76.9395 46.335 12.608-9.871-39.1216-75.944-26.5202-85.809 12.6015-9.866 64.3372 56.201 76.9392 46.335 12.601-9.865-39.121-75.944-26.52-85.81 12.602-9.865 64.338 56.202 76.946 46.331s-39.128-75.939-26.52-85.81c12.609-9.871 64.338 56.202 76.939 46.336 12.602-9.866-39.121-75.944-26.513-85.815 12.609-9.871 64.338 56.201 76.946 46.33 12.609-9.871-39.121-75.944-26.519-85.81" stroke-width=".68"/><g stroke-width=".476"><path d="m-336.499 291.547c12.601-9.866 64.33 56.207 76.939 46.335 12.608-9.871-39.128-75.938-26.52-85.809 12.608-9.872 64.331 56.207 76.939 46.335 12.608-9.871-39.128-75.938-26.52-85.81 12.609-9.871 64.331 56.207 76.939 46.336 12.609-9.871-39.128-75.938-26.519-85.81 12.608-9.871 64.331 56.207 76.939 46.336s-39.128-75.938-26.527-85.804c12.602-9.866 64.338 56.201 76.9665 46.314 12.6284-9.887-39.128-75.938-26.5265-85.8043 12.6014-9.8659 64.3444 56.1963 76.91881 46.3513 12.57446-9.844-39.12791-75.9383-26.48601-85.8359 12.642-9.8976 64.3309 56.2069 76.9324 46.3409 12.6015-9.8657-39.12119-75.9438-26.5197-85.8097 12.6014-9.86589 64.3308 56.207 76.9391 46.3358 12.6084-9.8711-39.128-75.9387-26.5265-85.8046 12.6014-9.8659 64.3379 56.2017 76.9459 46.3306 12.608-9.8712-39.128-75.9388-26.52-85.8099 12.608-9.8712 64.331 56.20697 76.939 46.3358 12.609-9.8712-39.128-75.9388-26.519-85.81 12.608-9.871 64.33 56.2071 76.939 46.336 12.608-9.8712-39.128-75.939-26.52-85.81s64.331 56.207 76.939 46.3359c12.608-9.8709-39.121-75.9439-26.52-85.8099 12.602-9.866 64.338 56.202 76.939 46.336 12.602-9.866-39.121-75.944-26.519-85.81 12.601-9.866 64.337 56.202 76.946 46.33 12.608-9.871-39.128-75.938-26.52-85.809 12.608-9.872 64.337 56.201 76.939 46.335 12.601-9.865-39.121-75.944-26.513-85.815s64.338 56.202 76.946 46.331-39.121-75.944-26.52-85.81"/><path d="m-69.6395 632.399c12.6014-9.866 64.33086 56.207 76.93908 46.336s-39.12798-75.939-26.51978-85.81c12.60826-9.871 64.3309 56.207 76.9391 46.336 12.6083-9.871-39.1279-75.939-26.5197-85.81s64.3309 56.207 76.9388 46.336c12.609-9.872-39.1276-75.939-26.5194-85.81s64.3304 56.207 76.9394 46.336c12.608-9.872-39.128-75.939-26.527-85.805 12.602-9.866 64.338 56.202 76.966 46.315 12.629-9.887-39.128-75.939-26.526-85.805 12.601-9.866 64.344 56.196 76.919 46.352 12.574-9.845-39.128-75.939-26.486-85.837 12.642-9.897 64.331 56.207 76.932 46.341 12.602-9.865-39.121-75.944-26.52-85.809 12.602-9.866 64.331 56.207 76.939 46.335 12.609-9.871-39.128-75.938-26.526-85.804 12.601-9.866 64.338 56.202 76.946 46.33 12.608-9.871-39.128-75.938-26.52-85.81 12.608-9.871 64.331 56.207 76.939 46.336s-39.128-75.938-26.52-85.81c12.609-9.871 64.331 56.207 76.94 46.336 12.608-9.871-39.128-75.939-26.52-85.81s64.331 56.207 76.939 46.336-39.121-75.944-26.52-85.81c12.602-9.866 64.338 56.202 76.939 46.336 12.602-9.866-39.121-75.944-26.519-85.81 12.601-9.866 64.337 56.202 76.945 46.331 12.609-9.871-39.128-75.939-26.519-85.8102 12.608-9.8711 64.337 56.2022 76.939 46.3362 12.601-9.866-39.121-75.9443-26.513-85.8155s64.337 56.2017 76.946 46.3305c12.608-9.8712-39.122-75.944-26.52-85.809881"/><path d="m-416.84 188.928c12.601-9.866 64.331 56.207 76.939 46.336s-39.128-75.939-26.52-85.81c12.609-9.871 64.331 56.207 76.94 46.336 12.608-9.871-39.128-75.939-26.52-85.81s64.331 56.207 76.939 46.336-39.128-75.9391-26.52-85.8102c12.608-9.8712 64.331 56.2072 76.939 46.3362 12.608-9.872-39.128-75.9391-26.526-85.805 12.601-9.8659 64.337 56.2017 76.966 46.3147 12.628-9.887-39.128-75.93877-26.527-85.80464 12.602-9.86586 64.345 56.19644 76.9192 46.35174 12.5745-9.8448-39.1282-75.9388-26.4862-85.8364s64.3312 56.20702 76.9326 46.34115c12.6015-9.86585-39.1212-75.94405-26.5197-85.80995 12.6015-9.8658 64.330859 56.2071 76.9391 46.3359 12.6082-9.8712-39.128-75.9385-26.5265-85.8045 12.601452-9.866 64.3377 56.2016 76.9459 46.3304s-39.128-75.9384-26.5198-85.8094c12.6082-9.872 64.3314 56.207 76.9394 46.335 12.608-9.871-39.1282-75.938-26.52-85.81 12.6082-9.871 64.331 56.207 76.939 46.336s-39.128-75.938-26.52-85.81c12.609-9.871 64.331 56.207 76.939 46.336 12.609-9.871-39.121-75.944-26.519-85.81 12.601-9.866 64.337 56.202 76.939 46.336 12.601-9.866-39.121-75.944-26.52-85.81 12.602-9.866 64.338 56.202 76.946 46.331s-39.128-75.939-26.52-85.81 64.338 56.202 76.939 46.336c12.602-9.866-39.121-75.944-26.513-85.815 12.609-9.872 64.338 56.201 76.946 46.33s-39.121-75.944-26.52-85.81"/><path d="m-149.983 529.78c12.602-9.866 64.331 56.207 76.9393 46.336 12.6082-9.872-39.1283-75.939-26.5198-85.81 12.6082-9.871 64.3309 56.207 76.9391 46.336 12.6082-9.872-39.1279-75.939-26.5197-85.81 12.6082-9.872 64.3309 56.207 76.9391 46.335 12.6082-9.871-39.128-75.938-26.51974-85.809 12.60824-9.872 64.33094 56.207 76.93914 46.335 12.6082-9.871-39.128-75.938-26.5265-85.804 12.6014-9.866 64.3381 56.202 76.9661 46.314 12.628-9.887-39.128-75.938-26.526-85.804 12.601-9.866 64.344 56.196 76.918 46.352 12.575-9.845-39.128-75.939-26.486-85.837 12.642-9.897 64.331 56.207 76.933 46.341 12.601-9.866-39.121-75.944-26.52-85.81 12.601-9.865 64.331 56.207 76.939 46.336s-39.128-75.938-26.526-85.804c12.601-9.866 64.337 56.201 76.945 46.33 12.609-9.871-39.128-75.939-26.519-85.81 12.608-9.871 64.331 56.207 76.939 46.336s-39.128-75.939-26.52-85.81 64.331 56.207 76.939 46.336-39.128-75.939-26.52-85.8098c12.609-9.8712 64.331 56.2068 76.94 46.3358 12.608-9.871-39.122-75.944-26.52-85.8099 12.601-9.8659 64.338 56.2019 76.939 46.3359 12.601-9.8659-39.121-75.9441-26.52-85.81 12.602-9.86582 64.338 56.2017 76.946 46.3306 12.608-9.8712-39.128-75.9388-26.52-85.8099 12.609-9.8712 64.338 56.2017 76.939 46.3358 12.602-9.8658-39.121-75.944-26.513-85.8151 12.609-9.8712 64.338 56.20162 76.946 46.3305 12.609-9.8712-39.121-75.944-26.519-85.8099"/><path d="m-230.323 427.161c12.601-9.866 64.33 56.207 76.939 46.336 12.608-9.871-39.128-75.939-26.52-85.81s64.331 56.207 76.939 46.336c12.6083-9.871-39.128-75.939-26.52-85.81 12.609-9.871 64.3312 56.207 76.9394 46.336s-39.1279-75.939-26.5197-85.81 64.3309 56.207 76.93909 46.336c12.60821-9.871-39.12799-75.939-26.52649-85.805s64.3376 56.202 76.9661 46.315-39.12793-75.939-26.5265-85.805c12.6015-9.866 64.3444 56.197 76.9189 46.352 12.5742-9.845-39.128-75.939-26.486-85.836 12.642-9.898 64.3312 56.207 76.9322 46.341 12.602-9.866-39.121-75.944-26.52-85.81 12.602-9.866 64.331 56.207 76.94 46.336 12.608-9.872-39.128-75.939-26.527-85.805s64.338 56.202 76.946 46.331c12.608-9.872-39.128-75.9392-26.52-85.8103 12.608-9.8712 64.331 56.2073 76.939 46.3363 12.608-9.872-39.128-75.9392-26.519-85.8104 12.608-9.8712 64.33 56.207 76.939 46.3359 12.608-9.8712-39.128-75.93884-26.52-85.81 12.608-9.8712 64.331 56.207 76.939 46.3359 12.608-9.8712-39.121-75.9441-26.52-85.81 12.602-9.8658 64.338 56.20175 76.939 46.335881 12.602-9.865881-39.121-75.943981-26.519-85.809881 12.601-9.8659 64.337 56.2017 76.946 46.3305 12.608-9.8711-39.128-75.9389-26.52-85.8099s64.337 56.2018 76.939 46.3359c12.601-9.8659-39.121-75.9439-26.513-85.8149s64.338 56.201 76.946 46.33-39.121-75.944-26.52-85.81"/><path d="m36.5337 768.014c12.6015-9.866 64.3313 56.207 76.9393 46.336 12.608-9.872-39.1282-75.939-26.5199-85.81 12.6082-9.872 64.3309 56.207 76.9389 46.335 12.608-9.871-39.128-75.938-26.52-85.809 12.609-9.872 64.331 56.207 76.94 46.335 12.608-9.871-39.128-75.938-26.52-85.81 12.608-9.871 64.331 56.207 76.939 46.336s-39.128-75.938-26.527-85.804c12.602-9.866 64.338 56.201 76.967 46.314 12.628-9.887-39.128-75.938-26.527-85.804 12.602-9.866 64.344 56.196 76.919 46.351 12.574-9.844-39.128-75.938-26.486-85.836 12.642-9.897 64.331 56.207 76.932 46.341 12.602-9.866-39.121-75.944-26.519-85.81 12.601-9.866 64.33 56.207 76.939 46.336 12.608-9.871-39.128-75.939-26.527-85.804 12.602-9.866 64.338 56.201 76.946 46.33s-39.128-75.939-26.52-85.81 64.331 56.207 76.939 46.336c12.609-9.871-39.128-75.939-26.519-85.81 12.608-9.871 64.331 56.207 76.939 46.336s-39.128-75.939-26.52-85.81 64.331 56.207 76.939 46.336-39.121-75.944-26.52-85.81c12.602-9.866 64.338 56.202 76.94 46.336 12.601-9.866-39.122-75.944-26.52-85.81 12.601-9.866 64.337 56.202 76.946 46.33 12.608-9.871-39.128-75.938-26.52-85.809 12.608-9.872 64.338 56.201 76.939 46.335 12.601-9.865-39.121-75.944-26.513-85.815s64.338 56.202 76.946 46.331-39.121-75.944-26.52-85.81"/><path d="m-471.286 119.386c12.601-9.866 64.331 56.207 76.939 46.336s-39.128-75.9389-26.52-85.8101c12.608-9.8711 64.331 56.2071 76.939 46.3361 12.609-9.871-39.128-75.939-26.519-85.8102 12.608-9.8711 64.33 56.2071 76.939 46.3359 12.608-9.8712-39.128-75.9388-26.52-85.809915 12.608-9.871165 64.331 56.207015 76.939 46.335815 12.608-9.8711-39.128-75.9387-26.526-85.8046 12.601-9.8659 64.337 56.2017 76.966 46.31469 12.628-9.88702-39.128-75.93879-26.527-85.80459 12.602-9.8659 64.345 56.1964 76.919 46.3517 12.575-9.8447-39.128-75.9388-26.486-85.8368 12.642-9.897 64.331 56.2074 76.9325 46.3416 12.6014-9.8659-39.1215-75.9436-26.5195-85.8096 12.601-9.866 64.3306 56.207 76.9388 46.335 12.6082-9.871-39.1279-75.938-26.5265-85.804 12.6015-9.866 64.33768 56.202 76.9459 46.33 12.6082-9.871-39.128-75.938-26.5198-85.809 12.60825-9.872 64.3309 56.207 76.9392 46.335 12.6082-9.871-39.128-75.938-26.5198-85.81 12.6082-9.871 64.3309 56.207 76.9392 46.336 12.608-9.871-39.128-75.938-26.5198-85.81 12.6082-9.871 64.3308 56.207 76.9388 46.336 12.609-9.871-39.121-75.944-26.519-85.81 12.601-9.866 64.337 56.202 76.939 46.336 12.601-9.866-39.122-75.944-26.52-85.81 12.601-9.866 64.338 56.202 76.946 46.331s-39.128-75.939-26.52-85.81 64.338 56.202 76.939 46.336c12.602-9.866-39.121-75.944-26.513-85.815 12.608-9.872 64.338 56.201 76.946 46.33s-39.121-75.944-26.52-85.81"/><path d="m-284.77 357.619c12.602-9.865 64.331 56.207 76.939 46.336 12.609-9.871-39.128-75.939-26.519-85.81 12.608-9.871 64.331 56.207 76.939 46.336s-39.128-75.939-26.52-85.81 64.331 56.207 76.939 46.336c12.6084-9.871-39.128-75.939-26.52-85.81 12.609-9.871 64.3313 56.207 76.9396 46.336 12.6082-9.871-39.128-75.939-26.5265-85.805 12.6014-9.865 64.3376 56.202 76.9661 46.315 12.62847-9.887-39.128-75.939-26.5265-85.805 12.6015-9.865 64.3444 56.197 76.9188 46.352 12.5745-9.845-39.12791-75.939-26.4859-85.836 12.642-9.898 64.3309 56.207 76.9323 46.341 12.6011-9.866-39.1212-75.9441-26.5197-85.81 12.6015-9.8658 64.3308 56.207 76.9388 46.336 12.609-9.871-39.128-75.9389-26.526-85.8047 12.601-9.8659 64.337 56.2017 76.946 46.3305 12.608-9.8711-39.128-75.9387-26.52-85.80987 12.608-9.87116 64.331 56.20697 76.939 46.33587 12.608-9.8712-39.128-75.9388-26.52-85.81 12.609-9.8711 64.331 56.2071 76.939 46.3359 12.609-9.871156-39.128-75.9388-26.519-85.8099 12.608-9.8712 64.331 56.207 76.939 46.3358 12.608-9.8711-39.121-75.9436-26.52-85.8096 12.602-9.866 64.338 56.2014 76.939 46.3355 12.602-9.8658-39.121-75.9435-26.52-85.8095 12.602-9.866 64.338 56.2013 76.946 46.33 12.608-9.871-39.128-75.939-26.519-85.81 12.608-9.871 64.337 56.202 76.939 46.336 12.601-9.866-39.122-75.944-26.513-85.815 12.608-9.871 64.337 56.202 76.946 46.33 12.608-9.871-39.122-75.944-26.52-85.809"/><path d="m-17.9113 698.472c12.60151-9.866 64.3309 56.207 76.9391 46.336 12.6083-9.872-39.1279-75.939-26.5197-85.81 12.6082-9.872 64.3309 56.207 76.9389 46.335 12.608-9.871-39.1277-75.938-26.5195-85.809 12.6082-9.872 64.3305 56.207 76.9395 46.335 12.608-9.871-39.128-75.938-26.52-85.81 12.608-9.871 64.331 56.207 76.939 46.336s-39.128-75.938-26.527-85.804c12.602-9.866 64.338 56.201 76.967 46.314 12.628-9.887-39.128-75.938-26.527-85.804 12.602-9.866 64.344 56.196 76.919 46.351 12.574-9.844-39.128-75.938-26.486-85.836 12.642-9.897 64.331 56.207 76.932 46.341 12.602-9.866-39.121-75.944-26.519-85.81 12.601-9.866 64.33 56.207 76.939 46.336 12.608-9.871-39.128-75.939-26.527-85.804 12.602-9.866 64.338 56.201 76.946 46.33s-39.128-75.939-26.52-85.81c12.609-9.871 64.331 56.207 76.939 46.336 12.609-9.871-39.128-75.939-26.519-85.81 12.608-9.871 64.331 56.207 76.939 46.336s-39.128-75.939-26.52-85.81 64.331 56.207 76.939 46.336-39.121-75.944-26.52-85.81c12.602-9.866 64.338 56.202 76.94 46.336 12.601-9.866-39.122-75.944-26.52-85.81 12.601-9.866 64.337 56.202 76.946 46.33 12.608-9.871-39.128-75.938-26.52-85.809 12.608-9.872 64.338 56.201 76.939 46.335 12.601-9.865-39.121-75.944-26.513-85.815 12.608-9.8709 64.338 56.202 76.946 46.331s-39.121-75.9443-26.52-85.8101"/><path d="m-365.11 255.001c12.601-9.866 64.331 56.207 76.939 46.336s-39.128-75.939-26.52-85.81 64.331 56.207 76.939 46.336-39.128-75.939-26.52-85.81c12.609-9.871 64.331 56.207 76.939 46.336 12.609-9.871-39.127-75.939-26.519-85.81s64.331 56.207 76.939 46.336c12.608-9.872-39.128-75.939-26.527-85.805 12.602-9.8659 64.338 56.202 76.9665 46.315s-39.1275-75.9391-26.5265-85.8049c12.601-9.8659 64.3444 56.1959 76.9189 46.3519 12.5744-9.845-39.128-75.939-26.486-85.8366 12.642-9.89758 64.33088 56.207 76.9323 46.3411 12.6015-9.8658-39.1212-75.944-26.5197-85.8099 12.601475-9.8658 64.3309 56.2071 76.9391 46.3359s-39.128-75.9388-26.5265-85.8046c12.6015-9.8659 64.3379 56.20166 76.9459 46.3305 12.608-9.8712-39.128-75.9387-26.5198-85.8094 12.6078-9.872 64.3308 56.2065 76.9388 46.3354 12.609-9.8712-39.128-75.9384-26.519-85.8104 12.608-9.871 64.33 56.2075 76.939 46.3363 12.608-9.8713-39.128-75.9383-26.52-85.8103 12.608-9.871 64.331 56.207 76.939 46.336s-39.121-75.944-26.52-85.81c12.602-9.866 64.338 56.202 76.939 46.336 12.602-9.866-39.121-75.944-26.519-85.81 12.601-9.866 64.337 56.202 76.946 46.331 12.608-9.871-39.128-75.939-26.52-85.81s64.337 56.202 76.939 46.336c12.601-9.866-39.121-75.944-26.513-85.815 12.608-9.872 64.338 56.201 76.946 46.33s-39.121-75.944-26.52-85.81"/><path d="m-98.2518 595.854c12.6014-9.866 64.3309 56.207 76.9391 46.335 12.60819-9.871-39.128-75.938-26.5198-85.81 12.6083-9.871 64.3309 56.207 76.9391 46.336 12.6083-9.871-39.1279-75.938-26.51969-85.81 12.60819-9.871 64.33089 56.207 76.93909 46.336s-39.1279-75.939-26.5197-85.81 64.3307 56.207 76.9387 46.336c12.609-9.871-39.1276-75.939-26.526-85.804 12.601-9.866 64.338 56.201 76.966 46.314s-39.128-75.939-26.526-85.804c12.601-9.866 64.344 56.196 76.918 46.351 12.575-9.844-39.128-75.938-26.486-85.836s64.331 56.207 76.933 46.341c12.601-9.866-39.121-75.944-26.52-85.81s64.331 56.207 76.939 46.336-39.128-75.939-26.526-85.805c12.601-9.865 64.337 56.202 76.946 46.331 12.608-9.871-39.128-75.939-26.52-85.81s64.331 56.207 76.939 46.336-39.128-75.939-26.52-85.81 64.331 56.207 76.939 46.336-39.128-75.939-26.519-85.81c12.608-9.871 64.33 56.207 76.939 46.336 12.608-9.871-39.122-75.944-26.52-85.81 12.601-9.866 64.338 56.202 76.939 46.336s-39.121-75.9443-26.52-85.8102c12.602-9.8659 64.338 56.2012 76.946 46.3302s-39.128-75.9384-26.52-85.8096c12.609-9.8712 64.338 56.2017 76.939 46.3359 12.602-9.8659-39.121-75.9441-26.513-85.81521 12.609-9.87116 64.338 56.20171 76.946 46.33051 12.609-9.8712-39.121-75.944-26.519-85.8099"/><path d="m-178.594 493.234c12.602-9.865 64.331 56.207 76.939 46.336 12.6086-9.871-39.128-75.939-26.519-85.81 12.608-9.871 64.3305 56.207 76.9387 46.336s-39.1279-75.939-26.5197-85.81 64.3309 56.207 76.939097 46.336c12.608203-9.871-39.127997-75.939-26.519697-85.81 12.6082-9.871 64.3308 56.207 76.9391 46.336 12.6082-9.871-39.128-75.939-26.5265-85.805 12.6014-9.865 64.3376 56.202 76.966 46.315 12.629-9.887-39.1279-75.939-26.5264-85.805 12.6015-9.865 64.3444 56.197 76.9184 46.352 12.575-9.845-39.128-75.939-26.486-85.836 12.642-9.898 64.331 56.207 76.933 46.341 12.601-9.866-39.121-75.944-26.52-85.81 12.602-9.866 64.331 56.207 76.939 46.336s-39.128-75.939-26.526-85.805c12.601-9.866 64.337 56.202 76.946 46.331 12.608-9.871-39.128-75.939-26.52-85.81s64.331 56.207 76.939 46.336-39.128-75.939-26.52-85.8102c12.608-9.8711 64.331 56.2072 76.939 46.3362 12.609-9.871-39.128-75.9391-26.519-85.8103 12.608-9.8711 64.33 56.2073 76.939 46.3363 12.608-9.8716-39.122-75.9444-26.52-85.8103 12.601-9.86588 64.338 56.2017 76.939 46.3358 12.602-9.8659-39.121-75.944-26.52-85.8099 12.602-9.8658 64.338 56.2017 76.946 46.3306 12.608-9.8712-39.128-75.9388-26.52-85.8099 12.609-9.8712 64.338 56.2017 76.94 46.3358 12.601-9.8658-39.122-75.944-26.513-85.8152 12.608-9.8709 64.337 56.2017 76.945 46.3306 12.609-9.8712-39.121-75.9445-26.519-85.8095"/><path d="m88.2646 834.087c12.6014-9.865 64.3314 56.207 76.9394 46.336s-39.128-75.939-26.52-85.81 64.331 56.207 76.939 46.336-39.128-75.939-26.52-85.81c12.609-9.871 64.331 56.207 76.939 46.336 12.609-9.871-39.127-75.939-26.519-85.81s64.331 56.207 76.939 46.336-39.128-75.939-26.527-85.805c12.602-9.865 64.338 56.202 76.966 46.315 12.629-9.887-39.127-75.939-26.526-85.805 12.601-9.865 64.344 56.197 76.919 46.352 12.574-9.845-39.128-75.939-26.486-85.836 12.642-9.898 64.331 56.207 76.932 46.341 12.602-9.866-39.121-75.944-26.519-85.81 12.601-9.866 64.33 56.207 76.939 46.336 12.608-9.871-39.128-75.939-26.527-85.805 12.602-9.866 64.338 56.202 76.946 46.331s-39.128-75.939-26.52-85.81 64.331 56.207 76.939 46.336c12.609-9.871-39.128-75.939-26.519-85.81 12.608-9.871 64.33 56.207 76.939 46.336 12.608-9.871-39.128-75.939-26.52-85.81s64.331 56.207 76.939 46.336c12.608-9.872-39.121-75.944-26.52-85.81 12.602-9.866 64.338 56.201 76.939 46.336 12.602-9.866-39.121-75.944-26.519-85.81 12.601-9.866 64.337 56.201 76.946 46.33 12.608-9.871-39.128-75.939-26.52-85.81s64.337 56.202 76.939 46.336c12.601-9.866-39.121-75.944-26.513-85.815s64.338 56.202 76.946 46.33c12.608-9.871-39.121-75.944-26.52-85.809"/></g></g></g></g></g></svg>