<svg viewBox="0 0 20 20" fill="none" xmlns="http://www.w3.org/2000/svg">
    <path d="M13.3937 18.2845L9.63241 18.2461L9.93128 17.4311C10.01 17.2102 10.0353 16.9734 10.0072 16.7361C9.97903 16.4988 9.88956 16.2762 9.7539 16.0836C9.61825 15.8911 9.43641 15.7287 9.23109 15.6195C8.82045 15.4013 8.29295 15.3959 7.87794 15.6057C7.67043 15.7106 7.48531 15.8693 7.34575 16.059C7.21383 16.2488 7.11975 16.4772 7.08683 16.7063C7.05391 16.9353 7.07434 17.1802 7.14853 17.4027L7.43067 18.2236L3.66937 18.1852C3.4018 18.1825 3.15006 18.1264 2.90644 18.0245C2.66282 17.9226 2.45025 17.7752 2.26108 17.5821C2.0719 17.389 1.92884 17.1735 1.83195 16.9278C1.73507 16.6822 1.68421 16.4217 1.68687 16.1618L1.72514 12.4157L2.54018 12.7146C2.7611 12.7933 2.99786 12.8187 3.22752 12.7904C3.45718 12.7622 3.67982 12.6727 3.87235 12.5371C4.06488 12.4014 4.22722 12.2272 4.33643 12.0143C4.44557 11.8089 4.50915 11.5726 4.51149 11.3432C4.51384 11.1139 4.45518 10.8686 4.35026 10.6611C4.24534 10.4536 4.08667 10.2685 3.89695 10.1289C3.70723 9.98937 3.48639 9.90301 3.25743 9.86244C3.0284 9.82952 2.78353 9.84995 2.56869 9.92422L1.74771 10.2064L1.78614 6.44506C1.79161 5.90992 2.00318 5.40746 2.38925 5.03677C2.76768 4.66599 3.28207 4.45717 3.80957 4.46256L5.98073 4.48474C5.97465 4.33176 5.98386 4.17894 6.00828 4.03392C6.06616 3.60635 6.23849 3.20289 6.48672 2.85372C6.73495 2.50456 7.0743 2.21749 7.4585 2.03027C7.84277 1.83541 8.295 1.72534 8.7001 1.73713C9.15115 1.74173 9.57061 1.84541 9.93569 2.03264C10.3159 2.23531 10.6417 2.52918 10.8904 2.88342C11.139 3.23767 11.2954 3.65214 11.3446 4.07315C11.366 4.22629 11.372 4.37926 11.3629 4.52444L13.5341 4.54662C13.8016 4.54935 14.0534 4.60545 14.297 4.70733C14.5406 4.80921 14.7532 4.95665 14.9424 5.14973C15.1316 5.33516 15.2746 5.55835 15.3715 5.804C15.4684 6.04965 15.5192 6.31013 15.5166 6.57005L15.4944 8.74121C15.6474 8.73513 15.8002 8.74434 15.9452 8.76876C16.3727 8.83429 16.7839 8.99905 17.1331 9.24728C17.4821 9.50316 17.7693 9.83486 17.9642 10.2191C18.159 10.6034 18.2617 11.0326 18.2573 11.4607C18.2529 11.8889 18.1415 12.3159 17.9389 12.6961C17.7362 13.0763 17.4422 13.4097 17.0881 13.6508C16.7339 13.8918 16.3194 14.0558 15.8907 14.1049C15.7376 14.1263 15.5922 14.1324 15.4394 14.1232L15.4173 16.2868C15.4146 16.5543 15.3584 16.8137 15.2566 17.0497C15.1548 17.2857 15.0073 17.5059 14.8218 17.6951C14.6288 17.8843 14.4132 18.0274 14.1676 18.1242C13.9141 18.2363 13.6536 18.2872 13.3937 18.2845ZM11.2427 17.0393L13.4062 17.0614C13.5056 17.0624 13.6129 17.0405 13.705 17.0032C13.7971 16.966 13.8895 16.9057 13.959 16.8376C14.0285 16.7695 14.0906 16.6784 14.1298 16.5871C14.1689 16.4957 14.1929 16.3889 14.194 16.2895L14.2325 12.5206L15.0475 12.8195C15.2684 12.8982 15.5051 12.9312 15.7425 12.8954C15.9798 12.8672 16.2024 12.7777 16.3949 12.6497C16.5874 12.5141 16.7498 12.3322 16.859 12.1269C16.9681 11.9216 17.024 11.6852 17.0265 11.4482C17.0289 11.2112 16.9701 10.9812 16.8652 10.766C16.7603 10.5585 16.6016 10.3734 16.4119 10.2339C16.2222 10.0943 16.0014 10.0079 15.7647 9.97494C15.5357 9.94201 15.2908 9.96245 15.0683 10.0366L14.2473 10.3188L14.2857 6.55748C14.2868 6.45809 14.2648 6.35848 14.2276 6.2587C14.1903 6.16657 14.1377 6.08193 14.062 6.0047C13.9864 5.92747 13.9028 5.8731 13.8115 5.83394C13.7201 5.79477 13.621 5.77082 13.5139 5.76973L9.75263 5.7313L10.0515 4.91626C10.1302 4.69534 10.1556 4.45858 10.1274 4.22128C10.0992 3.99162 10.0098 3.76133 9.87412 3.5688C9.73846 3.37627 9.55662 3.21386 9.35131 3.10472C9.16869 3.01875 8.94753 2.96297 8.6876 2.96031C8.45061 2.95789 8.22072 3.00906 8.01321 3.11398C7.8057 3.2189 7.62058 3.37757 7.48102 3.56729C7.34146 3.75701 7.24738 3.98542 7.21446 4.21445C7.18153 4.44349 7.20197 4.68836 7.27615 4.91084L7.5583 5.73182L3.797 5.69339C3.59059 5.69128 3.39096 5.77334 3.24422 5.91711C3.09756 6.05324 3.01144 6.25115 3.00933 6.45756L2.98715 8.62872C3.14012 8.62264 3.29294 8.63184 3.43796 8.65626C3.86545 8.72179 4.26899 8.88648 4.61808 9.14235C4.96725 9.39058 5.24668 9.72985 5.44154 10.1141C5.6364 10.4984 5.73141 10.9275 5.72704 11.3557C5.72266 11.7838 5.61126 12.2108 5.41623 12.5911C5.21356 12.9713 4.92734 13.2971 4.57309 13.5458C4.21893 13.7869 3.81203 13.9509 3.38329 14.0077C3.23795 14.0139 3.08498 14.02 2.93216 14.0107L2.91013 16.1666C2.90904 16.2736 2.93096 16.3733 2.96824 16.4654C3.00553 16.5575 3.06575 16.6499 3.13386 16.7194C3.20196 16.7889 3.28543 16.8509 3.38442 16.8902C3.47577 16.9293 3.57492 16.9533 3.68195 16.9544L5.85311 16.9765C5.84702 16.8236 5.85623 16.6707 5.88065 16.5257C5.94618 16.0982 6.11087 15.6947 6.3591 15.3455C6.60733 14.9964 6.94667 14.7093 7.33095 14.5144C8.0995 14.1247 9.05512 14.1345 9.81555 14.5398C10.1958 14.7425 10.5215 15.0364 10.7702 15.3906C11.0189 15.7448 11.1752 16.1593 11.2245 16.5803C11.2382 16.7334 11.2443 16.8864 11.2427 17.0393Z" fill="currentColor"/>
</svg>
