<svg xmlns="http://www.w3.org/2000/svg" width="20" height="20" viewBox="0 0 20 20" fill="none">
  <path d="M9.99996 18.9582C5.05829 18.9582 1.04163 14.9415 1.04163 9.99984C1.04163 5.05817 5.05829 1.0415 9.99996 1.0415C14.9416 1.0415 18.9583 5.05817 18.9583 9.99984C18.9583 14.9415 14.9416 18.9582 9.99996 18.9582ZM9.99996 2.2915C5.74996 2.2915 2.29163 5.74984 2.29163 9.99984C2.29163 14.2498 5.74996 17.7082 9.99996 17.7082C14.25 17.7082 17.7083 14.2498 17.7083 9.99984C17.7083 5.74984 14.25 2.2915 9.99996 2.2915Z" fill="currentColor"/>
  <path d="M13.3333 10.625H6.66663C6.32496 10.625 6.04163 10.3417 6.04163 10C6.04163 9.65833 6.32496 9.375 6.66663 9.375H13.3333C13.675 9.375 13.9583 9.65833 13.9583 10C13.9583 10.3417 13.675 10.625 13.3333 10.625Z" fill="currentColor"/>
  <path d="M10 13.9582C9.65833 13.9582 9.375 13.6748 9.375 13.3332V6.6665C9.375 6.32484 9.65833 6.0415 10 6.0415C10.3417 6.0415 10.625 6.32484 10.625 6.6665V13.3332C10.625 13.6748 10.3417 13.9582 10 13.9582Z" fill="currentColor"/>
</svg>