<svg xmlns="http://www.w3.org/2000/svg" xmlns:xlink="http://www.w3.org/1999/xlink" width="40" height="40" fill="none" viewBox="0 0 40 40">
    <linearGradient id="a" x1="40" x2=".000001" y1="40" y2="-.000001" gradientUnits="userSpaceOnUse">
        <stop offset="0" stop-color="#ffb8e0"/>
        <stop offset=".348958" stop-color="#be9eff"/>
        <stop offset=".703125" stop-color="#88c0fc"/>
        <stop offset="1" stop-color="#86ff99"/>
    </linearGradient>
    <mask id="b" width="40" height="40" x="0" y="0" maskUnits="userSpaceOnUse">
        <circle cx="20" cy="20" r="20" fill="url(#a)"/>
    </mask>
    <rect width="39" height="39" x=".5" y=".5" stroke="currentColor" stroke-dasharray="2 2" rx="19.5"/>
    <g mask="url(#b)">
        <rect width="62.3041" height="49.1712" x=".360963" y=".626507" stroke="currentColor" rx="24.5856" transform="matrix(.959517 .281649 -.237592 .971365 -4.1106 -13.1892)"/>
    </g>
    <path fill="currentColor" fill-rule="evenodd" d="m20.9909 14.0282c-.0662-.5807-.4846-1.0282-.9909-1.0282-.5523 0-1 .5326-1 1.1896v4.8104h-4.8104l-.1614.0091c-.5807.0662-1.0282.4846-1.0282.9909 0 .5523.5326 1 1.1896 1h4.8104v4.8104l.0091.1614c.0662.5807.4846 1.0282.9909 1.0282.5523 0 1-.5326 1-1.1896v-4.8104h4.8104l.1614-.0091c.5807-.0662 1.0282-.4846 1.0282-.9909 0-.5523-.5326-1-1.1896-1h-4.8104v-4.8104z" clip-rule="evenodd"/>
</svg>

