<svg fill="none" height="40" viewBox="0 0 40 40" width="40" xmlns="http://www.w3.org/2000/svg" xmlns:xlink="http://www.w3.org/1999/xlink"><linearGradient id="a" gradientUnits="userSpaceOnUse" x1="40" x2=".000001" y1="40" y2="-.000001"><stop offset="0" stop-color="#ffb8e0"/><stop offset=".348958" stop-color="#be9eff"/><stop offset=".703125" stop-color="#88c0fc"/><stop offset="1" stop-color="#86ff99"/></linearGradient><mask id="b" height="40" maskUnits="userSpaceOnUse" width="40" x="0" y="0"><circle cx="20" cy="20" fill="url(#a)" r="20"/></mask><rect height="39" rx="19.5" stroke="#9250ff" stroke-dasharray="2 2" width="39" x=".5" y=".5"/><g mask="url(#b)"><rect height="49.1712" rx="24.5856" stroke="#9250ff" transform="matrix(.959517 .281649 -.237592 .971365 -4.1106 -13.1892)" width="62.3041" x=".360963" y=".626507"/></g><path clip-rule="evenodd" d="m20.9909 14.0282c-.0662-.5807-.4846-1.0282-.9909-1.0282-.5523 0-1 .5326-1 1.1896v4.8104h-4.8104l-.1614.0091c-.5807.0662-1.0282.4846-1.0282.9909 0 .5523.5326 1 1.1896 1h4.8104v4.8104l.0091.1614c.0662.5807.4846 1.0282.9909 1.0282.5523 0 1-.5326 1-1.1896v-4.8104h4.8104l.1614-.0091c.5807-.0662 1.0282-.4846 1.0282-.9909 0-.5523-.5326-1-1.1896-1h-4.8104v-4.8104z" fill="#9250ff" fill-rule="evenodd"/></svg>