<svg xmlns="http://www.w3.org/2000/svg" width="48" height="48" fill="none">
    <rect width="48" height="48" fill="#181818" rx="24" />
    <path fill="#fff"
        d="M24.281 17.538c1.051 0 2.369-.732 3.153-1.708.71-.885 1.229-2.121 1.229-3.357 0-.168-.015-.336-.044-.473-1.17.046-2.576.809-3.42 1.83-.666.779-1.273 2-1.273 3.25 0 .184.03.367.044.428.075.015.193.03.311.03ZM20.581 36c1.436 0 2.072-.992 3.863-.992 1.82 0 2.22.961 3.82.961 1.568 0 2.62-1.495 3.611-2.96 1.11-1.678 1.57-3.326 1.599-3.402-.104-.03-3.109-1.297-3.109-4.852 0-3.082 2.369-4.47 2.502-4.577-1.57-2.32-3.952-2.38-4.604-2.38-1.761 0-3.197 1.098-4.1 1.098-.977 0-2.265-1.037-3.79-1.037-2.9 0-5.847 2.472-5.847 7.14 0 2.9 1.096 5.966 2.443 7.95C18.123 34.627 19.13 36 20.58 36Z" />
</svg>