<svg xmlns="http://www.w3.org/2000/svg" width="20" height="25" viewBox="0 0 20 25" fill="none">
    <path
        d="M10.3592 6.03846C11.4102 6.03846 12.7276 5.3061 13.5121 4.32962C14.2227 3.44469 14.7408 2.20884 14.7408 0.972981C14.7408 0.805149 14.726 0.637317 14.6964 0.5C13.5269 0.545772 12.1207 1.30865 11.2769 2.3309C10.6108 3.10903 10.0039 4.32963 10.0039 5.58074C10.0039 5.76383 10.0335 5.94692 10.0483 6.00795C10.1223 6.0232 10.2408 6.03846 10.3592 6.03846ZM6.65852 24.5C8.09438 24.5 8.73089 23.5083 10.522 23.5083C12.3427 23.5083 12.7424 24.4695 14.3411 24.4695C15.9102 24.4695 16.9612 22.9743 17.9529 21.5095C19.0631 19.8312 19.522 18.1834 19.5516 18.1071C19.448 18.0766 16.4431 16.8102 16.4431 13.2552C16.4431 10.1732 18.8115 8.78481 18.9447 8.678C17.3756 6.35887 14.9924 6.29784 14.3411 6.29784C12.5796 6.29784 11.1437 7.39638 10.2408 7.39638C9.26379 7.39638 7.97596 6.35887 6.45129 6.35887C3.54997 6.35887 0.604248 8.83058 0.604248 13.4994C0.604248 16.3983 1.69964 19.465 3.04668 21.4485C4.20129 23.1268 5.20787 24.5 6.65852 24.5Z"
        fill="currentColor" />
</svg>