<svg fill="none" height="24" viewBox="0 0 24 24" width="24" xmlns="http://www.w3.org/2000/svg" xmlns:xlink="http://www.w3.org/1999/xlink"><clipPath id="a"><path stroke="currentColor" d="m0 0h24v24h-24z"/></clipPath><g clip-path="url(#a)" stroke="#07101b" stroke-linecap="round" stroke-linejoin="round" stroke-width="1.5"><path stroke="currentColor" d="m12 16c2.2091 0 4-1.7909 4-4 0-2.20914-1.7909-4-4-4-2.20914 0-4 1.79086-4 4 0 2.2091 1.79086 4 4 4z"/><path stroke="currentColor" d="m16 12v1.5c0 .6631.2634 1.299.7322 1.7678.4689.4688 1.1048.7322 1.7678.7322s1.2989-.2634 1.7678-.7322c.4688-.4688.7322-1.1047.7322-1.7678v-1.5c.0025-1.9339-.618-3.81713-1.7696-5.37078s-2.773-2.69504-4.624-3.25509-3.8332-.50898-5.65297.14566c-1.81972.65464-3.38019 1.87802-4.45022 3.48892-1.07004 1.61089-1.59274 3.52359-1.49066 5.45479s.8235 3.7782 2.0574 5.2673 2.91464 2.5412 4.79324 3.0003c1.87861.4592 3.85511.301 5.63681-.4511"/></g></svg>
