<svg xmlns="http://www.w3.org/2000/svg" width="12" height="12" viewBox="0 0 12 12" fill="none">
  <path d="M4.75 5C4.88807 5 5 4.88807 5 4.75C5 4.61193 4.88807 4.5 4.75 4.5C4.61193 4.5 4.5 4.61193 4.5 4.75C4.5 4.88807 4.61193 5 4.75 5Z" fill="currentColor"/>
  <path d="M7.25 7.5C7.38807 7.5 7.5 7.38807 7.5 7.25C7.5 7.11193 7.38807 7 7.25 7C7.11193 7 7 7.11193 7 7.25C7 7.38807 7.11193 7.5 7.25 7.5Z" fill="currentColor"/>
  <path d="M1.5 2.5C1.5 2.23478 1.60536 1.98043 1.79289 1.79289C1.98043 1.60536 2.23478 1.5 2.5 1.5H9.5C9.76522 1.5 10.0196 1.60536 10.2071 1.79289C10.3946 1.98043 10.5 2.23478 10.5 2.5V9.5C10.5 9.76522 10.3946 10.0196 10.2071 10.2071C10.0196 10.3946 9.76522 10.5 9.5 10.5H2.5C2.23478 10.5 1.98043 10.3946 1.79289 10.2071C1.60536 10.0196 1.5 9.76522 1.5 9.5V2.5Z" stroke="currentColor" stroke-linecap="round" stroke-linejoin="round"/>
  <path d="M4.75 5C4.88807 5 5 4.88807 5 4.75C5 4.61193 4.88807 4.5 4.75 4.5C4.61193 4.5 4.5 4.61193 4.5 4.75C4.5 4.88807 4.61193 5 4.75 5Z" stroke="currentColor" stroke-linecap="round" stroke-linejoin="round"/>
  <path d="M7.25 7.5C7.38807 7.5 7.5 7.38807 7.5 7.25C7.5 7.11193 7.38807 7 7.25 7C7.11193 7 7 7.11193 7 7.25C7 7.38807 7.11193 7.5 7.25 7.5Z" stroke="currentColor" stroke-linecap="round" stroke-linejoin="round"/>
</svg>