<svg xmlns="http://www.w3.org/2000/svg" width="12" height="12" viewBox="0 0 12 12" fill="none">
    <g clip-path="url(#clip0_34180_32198)">
        <path
            d="M3.9295 3H2.5125C2.24397 3 1.98643 3.10667 1.79655 3.29655C1.60667 3.48643 1.5 3.74397 1.5 4.0125V5.4295C1.5 5.698 1.6065 5.9555 1.7965 6.1455L4.8545 9.2035C4.94852 9.29754 5.06015 9.37213 5.183 9.42302C5.30585 9.47391 5.43752 9.50011 5.5705 9.50011C5.70348 9.50011 5.83515 9.47391 5.958 9.42302C6.08085 9.37213 6.19248 9.29754 6.2865 9.2035L7.7035 7.7865C7.79754 7.69248 7.87213 7.58085 7.92302 7.458C7.97391 7.33515 8.00011 7.20348 8.00011 7.0705C8.00011 6.93752 7.97391 6.80585 7.92302 6.683C7.87213 6.56015 7.79754 6.44852 7.7035 6.3545L4.645 3.2965C4.45522 3.10675 4.19787 3.0001 3.9295 3V3Z"
            stroke="currentColor" stroke-linecap="round" stroke-linejoin="round" />
        <path
            d="M8.78652 9.20349L10.2035 7.78649C10.2976 7.69247 10.3721 7.58085 10.423 7.458C10.4739 7.33514 10.5001 7.20347 10.5001 7.07049C10.5001 6.93752 10.4739 6.80584 10.423 6.68299C10.3721 6.56014 10.2976 6.44851 10.2035 6.35449L6.64502 2.79649"
            stroke="currentColor" stroke-linecap="round" stroke-linejoin="round" />
        <path d="M3.00012 4.5H2.99512" stroke="currentColor" stroke-linecap="round" stroke-linejoin="round" />
    </g>
    <defs>
        <clipPath id="clip0_34180_32198">
            <rect width="12" height="12" fill="white" />
        </clipPath>
    </defs>
</svg>