<svg xmlns="http://www.w3.org/2000/svg" width="648" height="360" fill="none" viewBox="0 0 648 360">
    <path fill="currentColor" d="M360 120H376C379.771 120 381.657 120 382.828 121.172C384 122.343 384 124.229 384 128V144H368C364.229 144 362.343 144 361.172 142.828C360 141.657 360 139.771 360 136V120Z"/>
    <path fill="currentColor" d="M288 120V104C288 100.229 288 98.3431 289.172 97.1716C290.343 96 292.229 96 296 96H352C355.771 96 357.657 96 358.828 97.1716C360 98.3431 360 100.229 360 104V120H288Z"/>
    <path fill="currentColor" d="M288 120H272C268.229 120 266.343 120 265.172 121.172C264 122.343 264 124.229 264 128V144H280C283.771 144 285.657 144 286.828 142.828C288 141.657 288 139.771 288 136V120Z"/>
    <path fill="currentColor" fill-rule="evenodd" d="M272 0C268.229 0 266.343 0 265.172 1.17157C264 2.34315 264 4.22876 264 8V16C264 19.7712 264 21.6569 262.828 22.8284C261.657 24 259.771 24 256 24H224C220.229 24 218.343 24 217.172 25.1716C216 26.3431 216 28.2288 216 32V40C216 43.7712 216 45.6569 214.828 46.8284C213.657 48 211.771 48 208 48H200C196.229 48 194.343 48 193.172 49.1716C192 50.3431 192 52.2288 192 56V64C192 67.7712 192 69.6569 190.828 70.8284C189.657 72 187.771 72 184 72H176C172.229 72 170.343 72 169.172 73.1716C168 74.3431 168 76.2288 168 80V88C168 91.7712 168 93.6569 166.828 94.8284C165.657 96 163.771 96 160 96H152C148.229 96 146.343 96 145.172 97.1716C144 98.3431 144 100.229 144 104V112C144 115.771 144 117.657 142.828 118.828C141.657 120 139.771 120 136 120H104C100.229 120 98.3431 120 97.1716 121.172C96 122.343 96 124.229 96 128V136C96 139.771 96 141.657 94.8284 142.828C93.6569 144 91.7712 144 88 144H56C52.2288 144 50.3431 144 49.1716 145.172C48 146.343 48 148.229 48 152V160C48 163.771 48 165.657 46.8284 166.828C45.6569 168 43.7712 168 40 168H8C4.22876 168 2.34315 168 1.17157 169.172C0 170.343 0 172.229 0 176V184C0 187.771 0 189.657 1.17157 190.828C2.34315 192 4.22876 192 8 192H40C43.7712 192 45.6569 192 46.8284 193.172C48 194.343 48 196.229 48 200V208C48 211.771 48 213.657 49.1716 214.828C50.3431 216 52.2288 216 56 216H507C507.946 216 508.773 216 509.5 215.982C510.227 216 511.054 216 512 216H592C595.771 216 597.657 216 598.828 214.828C600 213.657 600 211.771 600 208V200C600 196.229 600 194.343 601.172 193.172C602.343 192 604.229 192 608 192H640C643.771 192 645.657 192 646.828 190.828C648 189.657 648 187.771 648 184V176C648 172.229 648 170.343 646.828 169.172C645.657 168 643.771 168 640 168H608C604.229 168 602.343 168 601.172 166.828C600 165.657 600 163.771 600 160V152C600 148.229 600 146.343 598.828 145.172C597.657 144 595.771 144 592 144H560C556.229 144 554.343 144 553.172 142.828C552 141.657 552 139.771 552 136V128C552 124.229 552 122.343 550.828 121.172C549.657 120 547.771 120 544 120H512C508.229 120 506.343 120 505.172 118.828C504 117.657 504 115.771 504 112V104C504 100.229 504 98.3431 502.828 97.1716C501.657 96 499.771 96 496 96H488C484.229 96 482.343 96 481.172 94.8284C480 93.6569 480 91.7712 480 88V80C480 76.2288 480 74.3431 478.828 73.1716C477.657 72 475.771 72 472 72H464C460.229 72 458.343 72 457.172 70.8284C456 69.6569 456 67.7712 456 64V56C456 52.2288 456 50.3431 454.828 49.1716C453.657 48 451.771 48 448 48H440C436.229 48 434.343 48 433.172 46.8284C432 45.6569 432 43.7712 432 40V32C432 28.2288 432 26.3431 430.828 25.1716C429.657 24 427.771 24 424 24H392C388.229 24 386.343 24 385.172 22.8284C384 21.6569 384 19.7712 384 16V8C384 4.22876 384 2.34315 382.828 1.17157C381.657 0 379.771 0 376 0H272ZM448 192C451.771 192 453.657 192 454.828 190.828C456 189.657 456 187.771 456 184V176C456 172.229 456 170.343 454.828 169.172C453.657 168 451.771 168 448 168H440C436.229 168 434.343 168 433.172 166.828C432 165.657 432 163.771 432 160V128C432 124.229 432 122.343 430.828 121.172C429.657 120 427.771 120 424 120H416C412.229 120 410.343 120 409.172 118.828C408 117.657 408 115.771 408 112V104C408 100.229 408 98.3431 406.828 97.1716C405.657 96 403.771 96 400 96H392C388.229 96 386.343 96 385.172 94.8284C384 93.6569 384 91.7712 384 88V80C384 76.2288 384 74.3431 382.828 73.1716C381.657 72 379.771 72 376 72H272C268.229 72 266.343 72 265.172 73.1716C264 74.3431 264 76.2288 264 80V88C264 91.7712 264 93.6569 262.828 94.8284C261.657 96 259.771 96 256 96H248C244.229 96 242.343 96 241.172 97.1716C240 98.3431 240 100.229 240 104V112C240 115.771 240 117.657 238.828 118.828C237.657 120 235.771 120 232 120H224C220.229 120 218.343 120 217.172 121.172C216 122.343 216 124.229 216 128V160C216 163.771 216 165.657 214.828 166.828C213.657 168 211.771 168 208 168H200C196.229 168 194.343 168 193.172 169.172C192 170.343 192 172.229 192 176V184C192 187.771 192 189.657 193.172 190.828C194.343 192 196.229 192 200 192H232C235.771 192 237.657 192 238.828 190.828C240 189.657 240 187.771 240 184V152C240 148.229 240 146.343 241.172 145.172C242.343 144 244.229 144 248 144H264V184C264 187.771 264 189.657 265.172 190.828C266.343 192 268.229 192 272 192H376C379.771 192 381.657 192 382.828 190.828C384 189.657 384 187.771 384 184V144H400C403.771 144 405.657 144 406.828 145.172C408 146.343 408 148.229 408 152V184C408 187.771 408 189.657 409.172 190.828C410.343 192 412.229 192 416 192H448Z" clip-rule="evenodd"/>
    <path fill="currentColor" d="M296 240H352C355.771 240 357.657 240 358.828 241.172C360 242.343 360 244.229 360 248V256C360 259.771 360 261.657 358.828 262.828C357.657 264 355.771 264 352 264H296C292.229 264 290.343 264 289.172 262.828C288 261.657 288 259.771 288 256V248C288 244.229 288 242.343 289.172 241.172C290.343 240 292.229 240 296 240Z"/>
    <path fill="currentColor" d="M352 360C355.771 360 357.657 360 358.828 358.828C360 357.657 360 355.771 360 352V344C360 340.229 360 338.343 361.172 337.172C362.343 336 364.229 336 368 336H400C403.771 336 405.657 336 406.828 334.828C408 333.657 408 331.771 408 328V320C408 316.229 408 314.343 409.172 313.172C410.343 312 412.229 312 416 312H424C427.771 312 429.657 312 430.828 310.828C432 309.657 432 307.771 432 304V296C432 292.229 432 290.343 433.172 289.172C434.343 288 436.229 288 440 288H448C451.771 288 453.657 288 454.828 286.828C456 285.657 456 283.771 456 280V248C456 244.229 456 242.343 454.828 241.172C453.657 240 451.771 240 448 240H416C412.229 240 410.343 240 409.172 241.172C408 242.343 408 244.229 408 248V256C408 259.771 408 261.657 406.828 262.828C405.657 264 403.771 264 400 264H392C388.229 264 386.343 264 385.172 265.172C384 266.343 384 268.229 384 272V280C384 283.771 384 285.657 382.828 286.828C381.657 288 379.771 288 376 288H272C268.229 288 266.343 288 265.172 286.828C264 285.657 264 283.771 264 280V272C264 268.229 264 266.343 262.828 265.172C261.657 264 259.771 264 256 264H248C244.229 264 242.343 264 241.172 262.828C240 261.657 240 259.771 240 256V248C240 244.229 240 242.343 238.828 241.172C237.657 240 235.771 240 232 240H200C196.229 240 194.343 240 193.172 241.172C192 242.343 192 244.229 192 248V280C192 283.771 192 285.657 193.172 286.828C194.343 288 196.229 288 200 288H208C211.771 288 213.657 288 214.828 289.172C216 290.343 216 292.229 216 296V304C216 307.771 216 309.657 217.172 310.828C218.343 312 220.229 312 224 312H232C235.771 312 237.657 312 238.828 313.172C240 314.343 240 316.229 240 320V328C240 331.771 240 333.657 241.172 334.828C242.343 336 244.229 336 248 336H280C283.771 336 285.657 336 286.828 337.172C288 338.343 288 340.229 288 344V352C288 355.771 288 357.657 289.172 358.828C290.343 360 292.229 360 296 360H352Z"/>
</svg>
