<svg fill="none" viewBox="0 0 16 16" xmlns="http://www.w3.org/2000/svg"><path d="m8 16c4.4183 0 8-3.5817 8-8 0-4.41828-3.5817-8-8-8-4.41828 0-8 3.58172-8 8 0 4.4183 3.58172 8 8 8z" fill="#f3ba2f"/><g fill="#fff"><path clip-rule="evenodd" d="m8.00048 5.07744-2.07179 2.07179.00004-.00009-1.20542-1.20547 3.27717-3.27717 3.27822 3.27816-1.2055 1.20546zm-4.1283 1.71809-1.20551 1.20568 1.20542 1.20526 1.20552-1.20551zm2.05692 2.05695 2.07178 2.07162 2.07272-2.0726 1.2061 1.2048-.0006.0007-3.27822 3.2781-3.27717-3.2772-.00171-.0017zm6.2002-2.05695-1.2055 1.20551 1.2055 1.20543 1.2055-1.20551z" fill-rule="evenodd"/><path d="m9.22383 8.00056h.00051l-1.22314-1.22322-.90408.90383-.10386.1039-.21421.21426-.00171.00166.00171.00175 1.22215 1.22233 1.22323-1.22323.00059-.00068-.00111-.0006"/></g></svg>