<svg viewBox="0 0 16 16" fill="none" xmlns="http://www.w3.org/2000/svg">
    <path d="M8 16C12.4183 16 16 12.4183 16 8C16 3.58172 12.4183 0 8 0C3.58172 0 0 3.58172 0 8C0 12.4183 3.58172 16 8 16Z" fill="#F3BA2F"/>
    <path fill-rule="evenodd" clip-rule="evenodd" d="M8.00048 5.07744L5.92869 7.14923L5.92873 7.14914L4.72331 5.94367L8.00048 2.6665L11.2787 5.94466L10.0732 7.15012L8.00048 5.07744ZM3.87218 6.79553L2.66667 8.00121L3.87209 9.20647L5.07761 8.00096L3.87218 6.79553ZM5.9291 8.85248L8.00088 10.9241L10.0736 8.8515L11.2797 10.0563L11.2791 10.057L8.00088 13.3351L4.72371 10.0579L4.722 10.0562L5.9291 8.85248ZM12.1293 6.79553L10.9238 8.00104L12.1293 9.20647L13.3348 8.00096L12.1293 6.79553Z" fill="white"/>
    <path d="M9.22383 8.00056H9.22434L8.0012 6.77734L7.09712 7.68117V7.68117L6.99326 7.78507L6.77905 7.99933L6.77734 8.00099L6.77905 8.00274L8.0012 9.22507L9.22443 8.00184L9.22502 8.00116L9.22391 8.00056" fill="white"/>
</svg>
