<svg xmlns="http://www.w3.org/2000/svg" fill="none" viewBox="0 0 20 20">
    <path fill="currentColor" stroke="currentColor" stroke-linecap="round" stroke-linejoin="round" stroke-width="1.5" d="M14.7678 16.7091L14.7678 16.7091L14.7619 16.7123C14.7222 16.7338 14.6042 16.7729 14.3599 16.7327C14.1202 16.6932 13.8111 16.5846 13.4521 16.3857L13.4514 16.3853L11.6416 15.3848C11.1515 15.1104 10.5543 14.9953 10.0003 14.9953C9.44637 14.9953 8.84911 15.1104 8.35908 15.3848L6.54924 16.3853L6.54853 16.3857C6.19281 16.5828 5.88456 16.6889 5.64406 16.7274C5.40586 16.7655 5.2794 16.7313 5.22908 16.707C5.14143 16.6568 4.91699 16.4095 4.91699 15.7105V3.7678C4.91699 3.53967 5.14168 3.25 5.53954 3.25H14.4611C14.859 3.25 15.0837 3.53967 15.0837 3.7678V15.7105C15.0837 16.4198 14.8525 16.664 14.7678 16.7091Z"/>
</svg>
