<svg xmlns="http://www.w3.org/2000/svg" fill="none" viewBox="0 0 24 24">
    <path fill="currentColor" stroke="currentColor" stroke-linecap="round" stroke-linejoin="round" stroke-width="1.5" d="M17.7914 20.1833L17.7914 20.1833L17.7855 20.1865C17.6992 20.2334 17.5208 20.2788 17.2071 20.2272C16.8981 20.1763 16.5108 20.0386 16.0694 19.794L16.0687 19.7936L13.8989 18.5941C13.8982 18.5937 13.8974 18.5933 13.8966 18.5928C13.3365 18.2791 12.6466 18.1444 12 18.1444C11.3534 18.1444 10.6635 18.2791 10.1035 18.5928C10.1027 18.5932 10.1019 18.5937 10.1011 18.5941L7.93126 19.7936L7.93056 19.794C7.49248 20.0368 7.106 20.1714 6.79618 20.221C6.48612 20.2706 6.29983 20.2288 6.2047 20.1812C6.02908 20.0846 5.75 19.7177 5.75 18.8526V4.52136C5.75 4.15378 6.09822 3.75 6.64706 3.75H17.3529C17.9018 3.75 18.25 4.15378 18.25 4.52136V18.8526C18.25 19.7242 17.9667 20.0901 17.7914 20.1833Z"/>
</svg>
