<svg viewBox="0 0 12 12" fill="none" xmlns="http://www.w3.org/2000/svg">
    <path d="M3 8.5C3.26522 8.5 3.51957 8.60536 3.70711 8.79289C3.89464 8.98043 4 9.23478 4 9.5C4 9.76522 3.89464 10.0196 3.70711 10.2071C3.51957 10.3946 3.26522 10.5 3 10.5C2.73478 10.5 2.48043 10.3946 2.29289 10.2071C2.10536 10.0196 2 9.76522 2 9.5C2 9.23478 2.10536 8.98043 2.29289 8.79289C2.48043 8.60536 2.73478 8.5 3 8.5ZM3 8.5H8.5M3 8.5V1.5H2M8.5 8.5C8.76522 8.5 9.01957 8.60536 9.20711 8.79289C9.39464 8.98043 9.5 9.23478 9.5 9.5C9.5 9.76522 9.39464 10.0196 9.20711 10.2071C9.01957 10.3946 8.76522 10.5 8.5 10.5C8.23478 10.5 7.98043 10.3946 7.79289 10.2071C7.60536 10.0196 7.5 9.76522 7.5 9.5C7.5 9.23478 7.60536 8.98043 7.79289 8.79289C7.98043 8.60536 8.23478 8.5 8.5 8.5ZM3 2.5L10 3L9.5 6.5H3" stroke="currentColor" stroke-linecap="round" stroke-linejoin="round"/>
</svg>
