<svg fill="none" viewBox="0 0 28 29" xmlns="http://www.w3.org/2000/svg" xmlns:xlink="http://www.w3.org/1999/xlink"><linearGradient id="a" gradientUnits="userSpaceOnUse" x1="14" x2="14" y1=".067" y2="28.067"><stop offset="0" stop-color="#00b550"/><stop offset="1" stop-color="#37dd80"/></linearGradient><path d="m28 14.067c0 7.732-6.268 14-14 14s-14-6.268-14-14 6.268-14 14-14 14 6.268 14 14z" fill="url(#a)"/><g fill="#fff"><path d="m12.21 7.68h3.557v1.057h-3.557zm4.964 2.836c.382 0 .72-.315.72-.71v-3.196a.723.723 0 0 0 -.72-.71.697.697 0 0 0 -.698.71v3.197a.69.69 0 0 0 .698.709zm-6.394 0c.383 0 .72-.315.72-.71v-3.196a.723.723 0 0 0 -.72-.71.697.697 0 0 0 -.698.71v3.197c0 .394.315.709.698.709z"/><path d="m19.932 7.68h-1.328v1.057h1.373a.75.75 0 0 1 .743.743v2.465h-13.474v-2.465a.75.75 0 0 1 .743-.743h1.384v-1.057h-1.317a1.869 1.869 0 0 0 -1.856 1.868v10.817c0 1.025.81 1.869 1.835 1.869h11.91a1.869 1.869 0 0 0 1.857-1.869v-10.817a1.879 1.879 0 0 0 -1.869-1.869zm-9.882 12.426a1.069 1.069 0 1 1 0-2.14 1.069 1.069 0 0 1 0 2.14zm.022-3.918a1.069 1.069 0 1 1 0-2.14 1.069 1.069 0 0 1 0 2.14zm3.906 3.918a1.069 1.069 0 1 1 0-2.14 1.069 1.069 0 0 1 0 2.14zm0-3.918a1.069 1.069 0 1 1 0-2.14 1.069 1.069 0 0 1 0 2.14zm3.906 0a1.069 1.069 0 1 1 1.07-1.07 1.076 1.076 0 0 1 -1.07 1.07z"/></g></svg>