<svg fill="none" height="15" viewBox="0 0 15 15" width="15" xmlns="http://www.w3.org/2000/svg" xmlns:xlink="http://www.w3.org/1999/xlink"><mask id="a" fill="#fff"><path clip-rule="evenodd" d="m9.80907 8.56281h.00561z" fill="#fff" fill-rule="evenodd"/></mask><mask id="b" fill="#fff"><path clip-rule="evenodd" d="m9.80907 10.4378h.00561z" fill="#fff" fill-rule="evenodd"/></mask><mask id="c" fill="#fff"><path clip-rule="evenodd" d="m7.49754 8.56281h.00562z" fill="#fff" fill-rule="evenodd"/></mask><mask id="d" fill="#fff"><path clip-rule="evenodd" d="m7.49805 10.4378h.00561z" fill="#fff" fill-rule="evenodd"/></mask><mask id="e" fill="#fff"><path clip-rule="evenodd" d="m5.18407 8.56281h.00561z" fill="#fff" fill-rule="evenodd"/></mask><mask id="f" fill="#fff"><path clip-rule="evenodd" d="m5.18457 10.4378h.00561z" fill="#fff" fill-rule="evenodd"/></mask><path d="m5 1.25v1.875" stroke="#fff" stroke-linecap="round" stroke-linejoin="round" stroke-miterlimit="10"/><path d="m9.99902 1.25v1.875" stroke="#fff" stroke-linecap="round" stroke-linejoin="round" stroke-miterlimit="10"/><path d="m2.1875 5.68115h10.625" stroke="#fff" stroke-linecap="round" stroke-linejoin="round" stroke-miterlimit="10"/><path d="m12.626 5.3125v5.3125c0 .8609-.2153 1.5018-.6086 1.9254-.3871.4168-1.018.6996-2.0164.6996h-5.00002c-.99845 0-1.62935-.2828-2.01642-.6996-.3933-.4236-.60858-1.0645-.60858-1.9254v-5.3125c0-.86085.21528-1.50185.60858-1.9254.38707-.41684 1.01797-.6996 2.01642-.6996h5.00002c.9984 0 1.6293.28276 2.0164.6996.3933.42355.6086 1.06455.6086 1.9254z" stroke="#fff" stroke-linecap="round" stroke-linejoin="round" stroke-miterlimit="10"/><g fill="#fff"><path d="m9.80907 7.56281c-.55229 0-1 .44771-1 1 0 .55228.44771 1 1 1zm.00561 2c.55232 0 1.00002-.44772 1.00002-1 0-.55229-.4477-1-1.00002-1zm-.00561 0h.00561v-2h-.00561z" mask="url(#a)"/><path d="m9.80907 9.43781c-.55229 0-1 .44771-1 .99999 0 .5523.44771 1 1 1zm.00561 1.99999c.55232 0 1.00002-.4477 1.00002-1 0-.55228-.4477-.99999-1.00002-.99999zm-.00561 0h.00561v-1.99999h-.00561z" mask="url(#b)"/><path d="m7.49754 7.56281c-.55228 0-1 .44771-1 1 0 .55228.44772 1 1 1zm.00562 2c.55228 0 1-.44772 1-1 0-.55229-.44772-1-1-1zm-.00562 0h.00562v-2h-.00562z" mask="url(#c)"/><path d="m7.49805 9.43781c-.55229 0-1 .44771-1 .99999 0 .5523.44771 1 1 1zm.00561 1.99999c.55229 0 1-.4477 1-1 0-.55228-.44771-.99999-1-.99999zm-.00561 0h.00561v-1.99999h-.00561z" mask="url(#d)"/><path d="m5.18407 7.56281c-.55229 0-1 .44771-1 1 0 .55228.44771 1 1 1zm.00561 2c.55229 0 1-.44772 1-1 0-.55229-.44771-1-1-1zm-.00561 0h.00561v-2h-.00561z" mask="url(#e)"/><path d="m5.18457 9.43781c-.55228 0-1 .44771-1 .99999 0 .5523.44772 1 1 1zm.00561 1.99999c.55229 0 1-.4477 1-1 0-.55228-.44771-.99999-1-.99999zm-.00561 0h.00561v-1.99999h-.00561z" mask="url(#f)"/></g></svg>