<svg fill="none" viewBox="0 0 16 17" xmlns="http://www.w3.org/2000/svg"><path d="m8 .286133c-4.408 0-8 3.591997-8 7.999997 0 4.40797 3.592 7.99997 8 7.99997s8-3.592 8-7.99997c0-4.408-3.592-7.999997-8-7.999997zm2.688 9.839967c.232.232.232.616 0 .848-.12.12-.272.176-.424.176s-.304-.056-.424-.176l-1.84-1.83997-1.84 1.83997c-.12.12-.272.176-.424.176s-.304-.056-.424-.176c-.232-.232-.232-.616 0-.848l1.84-1.83997-1.84-1.84c-.232-.232-.232-.616 0-.848s.616-.232.848 0l1.84 1.84 1.84-1.84c.232-.232.616-.232.848 0s.232.616 0 .848l-1.84 1.84z" fill="#ff3545"/></svg>