<svg xmlns="http://www.w3.org/2000/svg" fill="none" viewBox="0 0 16 16">
    <path fill="currentColor" d="m14.6666 8.00004c0 3.68186-2.9848 6.66666-6.66668 6.66666-3.6819 0-6.66667-2.9848-6.66667-6.66666 0-3.6819 2.98477-6.66667 6.66667-6.66667 3.68188 0 6.66668 2.98477 6.66668 6.66667z"/>
    <g fill="#fff" fill-rule="evenodd" clip-rule="evenodd">
        <path d="m5.17144 5.1717c.23431-.23431.65685-.19167.94377.09524l4.61789 4.61784c.2869.28692.3295.70942.0952.94382-.2343.2343-.6569.1916-.94378-.0953l-4.61784-4.61783c-.28691-.28691-.32956-.70945-.09524-.94377z"/>
        <path d="m10.8284 5.17144c.2343.23431.1917.65685-.0952.94377l-4.61786 4.61789c-.28692.2869-.70946.3295-.94377.0952-.23432-.2343-.19168-.6569.09524-.94378l4.61784-4.61784c.28695-.28691.70945-.32956.94375-.09524z"/>
    </g>
</svg>
