<svg fill="none" height="24" viewBox="0 0 24 24" width="24" xmlns="http://www.w3.org/2000/svg">
    <path
        d="m13.4139 11.9999 5.793-5.79303c.39-.39.39-1.02299 0-1.41399s-1.023-.39-1.414 0l-5.793 5.79302-5.79303-5.79302c-.39-.39-1.02299-.39-1.41399 0s-.39 1.02299 0 1.41399l5.79302 5.79303-5.79302 5.793c-.39.39-.39 1.023 0 1.414.195.195.44999.293.70699.293s.512-.098.707-.293l5.79303-5.793 5.793 5.793c.195.195.45.293.707.293s.512-.098.707-.293c.39-.39.39-1.023 0-1.414z"
        fill="currentColor" />
</svg>
