<svg xmlns="http://www.w3.org/2000/svg" width="16" height="16" fill="none">
    <path stroke="currentColor" stroke-linecap="round" stroke-linejoin="round" stroke-width="1.5"
        d="M12.91 3s0 0 0 0L8.98 1.27s0 0 0 0a2.8 2.8 0 0 0-1.12-.21c-.37 0-.77.06-1.12.21 0 0 0 0 0 0L2.81 3.01s0 0 0 0c-.64.28-1.3.8-1.3 1.6s.66 1.31 1.3 1.6c0 0 0 0 0 0l3.93 1.74s0 0 0 0c.35.16.75.22 1.12.22.36 0 .77-.06 1.12-.22 0 0 0 0 0 0l3.93-1.74s0 0 0 0c.64-.29 1.3-.8 1.3-1.6s-.66-1.32-1.3-1.6Z" />
    <mask id="a" width="16" height="8" x="0" y="5.33" fill="#000" maskUnits="userSpaceOnUse">
        <path fill="#fff" d="M0 5.33h16v8H0z" />
        <path
            d="M2 7.33c0 .56.42 1.21.93 1.44l4.53 2.01c.35.15.74.15 1.08 0l4.53-2.01c.51-.23.93-.88.93-1.44" />
    </mask>
    <path fill="currentColor"
        d="M3.5 7.33a1.5 1.5 0 1 0-3 0h3Zm-.57 1.44.61-1.37-.6 1.37Zm4.53 2.01-.61 1.37.61-1.37Zm1.08 0-.61-1.37.61 1.37Zm4.53-2.01-.6-1.38h-.01l.6 1.38Zm2.43-1.44a1.5 1.5 0 0 0-3 0h3Zm-15 0c0 .64.23 1.22.52 1.66.29.45.73.9 1.3 1.15l1.22-2.75.04.03a.31.31 0 0 1-.05-.06.31.31 0 0 1-.03-.07v.04h-3Zm1.82 2.8 4.53 2.02 1.22-2.74L3.54 7.4l-1.22 2.74Zm4.53 2.02c.73.32 1.57.33 2.3 0L7.93 9.4c.06-.02.11-.02.15 0l-1.22 2.74Zm2.3 0 4.53-2.01-1.22-2.74-4.53 2 1.22 2.75Zm4.52-2.01c.58-.26 1.02-.7 1.31-1.15.3-.44.52-1.02.52-1.66h-3V7.3l-.03.07a.3.3 0 0 1-.05.05l.04-.02 1.21 2.75Z"
        mask="url(#a)" />
    <mask id="b" width="16" height="8" x="0" y="8.67" fill="#000" maskUnits="userSpaceOnUse">
        <path fill="#fff" d="M0 8.67h16v8H0z" />
        <path
            d="M2 10.67c0 .62.37 1.18.93 1.43l4.53 2.01c.35.16.74.16 1.08 0l4.53-2.01c.56-.25.93-.81.93-1.43" />
    </mask>
    <path fill="currentColor"
        d="M3.5 10.67a1.5 1.5 0 1 0-3 0h3Zm-.57 1.43-.6 1.37.6-1.37Zm4.53 2.01-.61 1.37.61-1.37Zm1.08 0-.61-1.37.61 1.37Zm4.53-2.01.6 1.37-.6-1.37Zm2.43-1.43a1.5 1.5 0 0 0-3 0h3Zm-15 0c0 1.21.72 2.3 1.82 2.8l1.23-2.74a.07.07 0 0 1-.05-.06h-3Zm1.82 2.8 4.53 2.01 1.22-2.74-4.53-2.01-1.22 2.74Zm4.53 2.02c.73.32 1.57.32 2.3 0l-1.23-2.74c.06-.03.11-.02.15 0l-1.22 2.74Zm2.3 0 4.53-2.02-1.22-2.74-4.53 2.01 1.22 2.74Zm4.53-2.02a3.07 3.07 0 0 0 1.82-2.8h-3c0 .02-.01.05-.05.06l1.23 2.74Z"
        mask="url(#b)" />
</svg>