<svg xmlns="http://www.w3.org/2000/svg" width="24" height="24" fill="none" viewBox="0 0 24 24">
    <path stroke="currentColor" stroke-linecap="round" stroke-linejoin="round" stroke-width="1.5" d="m13.01 2.92 5.9 2.62c1.7.75 1.7 1.99 0 2.74l-5.9 2.62c-.67.3-1.77.3-2.44 0l-5.9-2.62c-1.7-.75-1.7-1.99 0-2.74l5.9-2.62c.67-.3 1.77-.3 2.44 0Z"/>
    <path stroke="currentColor" stroke-linecap="round" stroke-linejoin="round" stroke-width="1.5" d="M3 11c0 .84.63 1.81 1.4 2.15l6.79 3.02c.52.23 1.11.23 1.62 0l6.79-3.02A2.56 2.56 0 0 0 21 11"/>
    <path stroke="currentColor" stroke-linecap="round" stroke-linejoin="round" stroke-width="1.5" d="M3 16c0 .93.55 1.77 1.4 2.15l6.79 3.02c.52.23 1.11.23 1.62 0l6.79-3.02A2.36 2.36 0 0 0 21 16"/>
</svg>

