<svg fill="none" viewBox="0 0 16 16" xmlns="http://www.w3.org/2000/svg"><g stroke="#18c37b" stroke-linecap="round" stroke-linejoin="round" stroke-width="2"><path d="m8.67294 1.94687 3.93336 1.74667c1.1333.5 1.1333 1.32667 0 1.82667l-3.93336 1.74666c-.44667.2-1.18.2-1.62667 0l-3.93333-1.74666c-1.13333-.5-1.13333-1.32667 0-1.82667l3.93333-1.74667c.44667-.2 1.18-.2 1.62667 0z" fill="#18c37b"/><path d="m2 7.33334c0 .56.42 1.20667.93333 1.43334l4.52667 2.01332c.34667.1533.74.1533 1.08 0l4.5267-2.01332c.5133-.22667.9333-.87334.9333-1.43334"/><path d="m2 10.6667c0 .62.36667 1.18.93333 1.4333l4.52667 2.0133c.34667.1534.74.1534 1.08 0l4.5267-2.0133c.5666-.2533.9333-.8133.9333-1.4333"/></g></svg>