<svg width="24" height="24" viewBox="0 0 24 24" fill="none" xmlns="http://www.w3.org/2000/svg">
<path fill-rule="evenodd" clip-rule="evenodd" d="M13.9186 2.39851C13.9186 1.33813 13.059 0.478516 11.9986 0.478516C10.9382 0.478516 10.0786 1.33813 10.0786 2.39852V8.07878C10.0786 9.02158 10.0786 9.49299 9.78573 9.78588C9.49283 10.0788 9.02143 10.0788 8.07862 10.0788H2.39851C1.33813 10.0788 0.478516 10.9384 0.478516 11.9988C0.478516 13.0592 1.33813 13.9188 2.39852 13.9188H8.07862C9.02143 13.9188 9.49283 13.9188 9.78573 14.2117C10.0786 14.5046 10.0786 14.976 10.0786 15.9188V21.5985C10.0786 22.6589 10.9382 23.5185 11.9986 23.5185C13.059 23.5185 13.9186 22.6589 13.9186 21.5985V15.9188C13.9186 14.976 13.9186 14.5046 14.2115 14.2117C14.5044 13.9188 14.9758 13.9188 15.9186 13.9188H21.5985C22.6589 13.9188 23.5185 13.0592 23.5185 11.9988C23.5185 10.9384 22.6589 10.0788 21.5985 10.0788H15.9186C14.9758 10.0788 14.5044 10.0788 14.2115 9.78588C13.9186 9.49299 13.9186 9.02159 13.9186 8.07878V2.39851Z" fill="#9250FF"/>
</svg>
