<svg fill="none" height="14" viewBox="0 0 14 14" width="14" xmlns="http://www.w3.org/2000/svg"><g clip-rule="evenodd" fill="currentColor" fill-rule="evenodd"><path d="m5.81447 11.3613c-.89807 0-1.68081-.2675-2.2438-.7935-.56659-.5294-.85869-1.27252-.85869-2.11713v-4.74535c0-.84069.28998-1.58053.85198-2.10912.55848-.52528 1.33519-.795013 2.22645-.799983l.00297-.000007 4.38282-.001549c.898 0 1.6809.267559 2.2438.793619.5664.52941.8583 1.27253.8583 2.11704v4.74535c0 .8406-.2898 1.58033-.8517 2.10883-.5584.5252-1.3349.7948-2.2261.7998h-.003l-4.38303.002c-.00003 0 .00025 0 0-.5333zm0-1.0666c-.68885-.0001-1.19077-.2029-1.51559-.50635-.32124-.30013-.52023-.74567-.52023-1.33768v-4.74535c0-.58871.19739-1.03236.51611-1.33213.32201-.30287.81891-.50625 1.50026-.51031.00045-.00001.00089-.00001.00134-.00001l4.37944-.00154h.0007c.6889.00003 1.1905.20282 1.5151.50625.3211.3001.5201.74564.5201 1.33774v4.74535c0 .58879-.1974 1.03228-.5159 1.33187-.3218.30266-.8185.50596-1.5.51006z"/><path d="m3.48849 13.4385c-.89808 0-1.68081-.2676-2.24381-.7936-.566589-.5294-.858687-1.2725-.858687-2.1171l.000001-4.74534c0-1.08399.483473-1.98612 1.368406-2.48891.2561-.14551.58167-.05586.72718.20025.14551.2561.05585.58167-.20025.72718-.51409.29209-.82867.81641-.82867 1.56148v4.74534c0 .592.19899 1.0376.52023 1.3377.32482.3035.82662.5063 1.51547.5063l4.38148-.0021c.76333-.0045 1.29517-.2582 1.61212-.6273.1919-.2235.52864-.249.75204-.0571.2235.1919.2491.5286.0572.752-.56156.654-1.41673.9935-2.41672.9991h-.00298l-4.38301.0021c-.00004 0 .00025 0 0-.5334z"/></g></svg>