<svg fill="none" viewBox="0 0 16 16" xmlns="http://www.w3.org/2000/svg"><path d="m14.6666 8.00001c0 3.68189-2.9847 6.66669-6.66662 6.66669-3.6819 0-6.66667-2.9848-6.66667-6.66669 0-3.6819 2.98477-6.66667 6.66667-6.66667 3.68192 0 6.66662 2.98477 6.66662 6.66667z" fill="#ff3545"/><g clip-rule="evenodd" fill="#fff" fill-rule="evenodd"><path d="m8.0004 4.42709c.33137 0 .6.29766.6.66485v4.00365c0 .36718-.26863.66484-.6.66484s-.6-.29766-.6-.66484v-4.00365c0-.36719.26863-.66485.6-.66485z"/><path d="m8.0004 10.3581c.33137 0 .6.2686.6.6v.0153c0 .3314-.26863.6-.6.6s-.6-.2686-.6-.6v-.0153c0-.3314.26863-.6.6-.6z"/></g></svg>