<svg fill="none" height="24" viewBox="0 0 25 24" width="25" xmlns="http://www.w3.org/2000/svg"><circle cx="12.0781" cy="12" fill="#5863f1" r="12"/><path d="m17.9793 6.58478c-1.1029-.50631-2.2669-.86736-3.4627-1.07412-.0109-.00203-.0222-.00058-.0322.00415s-.0183.0125-.0236.02221c-.1586.28782-.3025.58346-.4313.88579-1.3073-.19575-2.6083-.19575-3.8887 0-.1162-.27889-.28775-.61984-.43798-.88579-.00556-.00951-.01387-.01712-.02383-.02182-.00996-.00471-.02112-.00629-.03199-.00454-1.19585.20635-2.35976.56742-3.46243 1.07412-.00944.00403-.01739.0109-.02277.01965-2.2055 3.29447-2.80976 6.50847-2.51338 9.68217.00083.0078.00323.0154.00706.0223.00383.0068.00901.0129.01522.0177 1.45508 1.0686 2.8644 1.7172 4.24784 2.1473.01076.0032.02224.003.0329-.0005s.02-.0102.02676-.0192c.32802-.4465.61868-.9193.86902-1.4136.0034-.0068.00534-.0142.00568-.0218.00034-.0075-.00092-.0151-.0037-.0222-.00279-.007-.00702-.0134-.01244-.0187s-.0119-.0094-.01901-.0121c-.4584-.1754-.90216-.3869-1.32714-.6325-.00772-.0045-.0142-.0109-.01887-.0186-.00467-.0076-.00739-.0163-.00791-.0253-.00052-.0089.00117-.0179.00492-.026s.00945-.0152.01659-.0207c.08913-.0668.17826-.1363.26356-.2065.00761-.0062.01679-.0102.02653-.0114.00974-.0013.01963.0002.02858.0042 2.78389 1.2708 5.79779 1.2708 8.54889 0 .0089-.0043.0189-.006.0288-.0049.0099.0012.0193.0051.027.0114.0853.0702.1744.1404.2643.2072.0071.0054.0129.0125.0167.0206.0037.0081.0055.0171.005.026s-.0031.0176-.0078.0253c-.0046.0077-.011.0141-.0187.0187-.4239.2476-.8679.459-1.3274.6318-.0071.0028-.0136.007-.019.0123-.0054.0054-.0096.0119-.0123.019s-.0039.0147-.0035.0224c.0004.0076.0024.015.0058.0218.2545.4916.5447.9638.8683 1.4129.0066.0092.0159.0161.0266.0197s.0223.0038.0331.0004c1.3899-.4298 2.7994-1.0786 4.2545-2.147.0063-.0046.0115-.0105.0153-.0173.0038-.0067.0061-.0143.0068-.022.3546-3.6694-.5942-6.85681-2.5151-9.68263-.0048-.00917-.0127-.01631-.0223-.02013zm-8.71662 7.76942c-.83787 0-1.52863-.7693-1.52863-1.7145 0-.945.67734-1.7146 1.52863-1.7146.85852 0 1.54252.7763 1.52912 1.7146 0 .9452-.6773 1.7145-1.52888 1.7145zm5.65282 0c-.8381 0-1.5286-.7693-1.5286-1.7145 0-.945.6771-1.7146 1.5286-1.7146.8583 0 1.5423.7763 1.5287 1.7146 0 .9452-.6704 1.7145-1.5287 1.7145z" fill="#fff"/></svg>