<svg xmlns="http://www.w3.org/2000/svg" width="21" height="21" viewBox="0 0 21 21" fill="none">
    <path fill-rule="evenodd" clip-rule="evenodd"
        d="M13.6624 4.21257C13.9813 4.39666 14.0905 4.80439 13.9064 5.12325L7.32713 16.5189C7.14304 16.8378 6.73531 16.947 6.41645 16.7629C6.09759 16.5788 5.98834 16.1711 6.17243 15.8522L12.7517 4.45658C12.9358 4.13772 13.3435 4.02847 13.6624 4.21257Z"
        fill="currentColor" />
    <path fill-rule="evenodd" clip-rule="evenodd"
        d="M2.24512 10.4998C2.24512 8.06909 4.21558 6.09863 6.64626 6.09863H9.40949V7.43197H6.64626C4.95196 7.43197 3.57845 8.80547 3.57845 10.4998C3.57845 12.1941 4.95196 13.5676 6.64626 13.5676H7.61572V14.9009H6.64626C4.21558 14.9009 2.24512 12.9305 2.24512 10.4998Z"
        fill="currentColor" />
    <path fill-rule="evenodd" clip-rule="evenodd"
        d="M17.833 10.4998C17.833 8.06909 15.8625 6.09863 13.4319 6.09863H12.0495V7.43197H13.4319C15.1262 7.43197 16.4997 8.80547 16.4997 10.4998C16.4997 12.1941 15.1262 13.5676 13.4319 13.5676H10.3313V14.9009H13.4319C15.8625 14.9009 17.833 12.9305 17.833 10.4998Z"
        fill="currentColor" />
</svg>