<svg xmlns="http://www.w3.org/2000/svg" fill="none" viewBox="0 0 16 16">
    <path fill="currentColor" d="M4.00002 6.66667C3.26669 6.66667 2.66669 7.26667 2.66669 8.00001C2.66669 8.73334 3.26669 9.33334 4.00002 9.33334C4.73335 9.33334 5.33335 8.73334 5.33335 8.00001C5.33335 7.26667 4.73335 6.66667 4.00002 6.66667ZM12 6.66667C11.2667 6.66667 10.6667 7.26667 10.6667 8.00001C10.6667 8.73334 11.2667 9.33334 12 9.33334C12.7334 9.33334 13.3334 8.73334 13.3334 8.00001C13.3334 7.26667 12.7334 6.66667 12 6.66667ZM8.00002 6.66667C7.26669 6.66667 6.66669 7.26667 6.66669 8.00001C6.66669 8.73334 7.26669 9.33334 8.00002 9.33334C8.73335 9.33334 9.33335 8.73334 9.33335 8.00001C9.33335 7.26667 8.73335 6.66667 8.00002 6.66667Z"/>
</svg>
