<svg width="13" height="12" viewBox="0 0 13 12" fill="none" xmlns="http://www.w3.org/2000/svg">
    <path fill-rule="evenodd" clip-rule="evenodd" d="M6.50039 8.06543L4.21755 5.78259C4.06134 5.62638 4.06134 5.37311 4.21755 5.2169C4.37376 5.06069 4.62702 5.06069 4.78323 5.2169L6.10039 6.53406L6.10039 2.74974C6.10039 2.52883 6.27948 2.34974 6.50039 2.34974C6.7213 2.34974 6.90039 2.52883 6.90039 2.74974L6.90039 6.53406L8.21755 5.2169C8.37376 5.06069 8.62702 5.06069 8.78323 5.2169C8.93944 5.37311 8.93944 5.62638 8.78323 5.78259L6.50039 8.06543Z" fill="currentColor"/>
    <path fill-rule="evenodd" clip-rule="evenodd" d="M3.39961 7.34961V8.84961H9.59961V7.34961H10.3996V9.14961C10.3996 9.42575 10.1758 9.64961 9.89961 9.64961H3.09961C2.82347 9.64961 2.59961 9.42575 2.59961 9.14961V7.34961H3.39961Z" fill="currentColor"/>
</svg>
