<svg xmlns="http://www.w3.org/2000/svg" width="18" height="18" viewBox="0 0 18 18" fill="none">
    <path
        d="M9 7.3125C8.925 7.3125 8.8575 7.2975 8.7825 7.2675C8.5725 7.185 8.4375 6.975 8.4375 6.75V1.5C8.4375 1.1925 8.6925 0.9375 9 0.9375C9.3075 0.9375 9.5625 1.1925 9.5625 1.5V5.3925L10.1025 4.8525C10.32 4.635 10.68 4.635 10.8975 4.8525C11.115 5.07 11.115 5.43 10.8975 5.6475L9.3975 7.1475C9.2925 7.2525 9.15 7.3125 9 7.3125Z"
        fill="currentColor" />
    <path
        d="M9 7.31258C8.8575 7.31258 8.715 7.26008 8.6025 7.14758L7.1025 5.64758C6.885 5.43008 6.885 5.07008 7.1025 4.85258C7.32 4.63508 7.68 4.63508 7.8975 4.85258L9.3975 6.35258C9.615 6.57008 9.615 6.93008 9.3975 7.14758C9.285 7.26008 9.1425 7.31258 9 7.31258Z"
        fill="currentColor" />
    <path
        d="M10.32 13.3125H7.6725C6.885 13.3125 6.18 12.8775 5.8275 12.1725L4.95 10.4175C4.92 10.35 4.8525 10.3125 4.785 10.3125H1.485C1.1775 10.3125 0.9225 10.0575 0.9225 9.75C0.9225 9.4425 1.1775 9.1875 1.485 9.1875H4.7925C5.295 9.1875 5.745 9.465 5.97 9.915L6.8475 11.67C7.005 11.9925 7.3275 12.1875 7.6875 12.1875H10.335C10.695 12.1875 11.0175 11.9925 11.175 11.67L12.0525 9.915C12.2775 9.465 12.7275 9.1875 13.23 9.1875H16.5C16.8075 9.1875 17.0625 9.4425 17.0625 9.75C17.0625 10.0575 16.8075 10.3125 16.5 10.3125H13.23C13.155 10.3125 13.095 10.35 13.065 10.4175L12.1875 12.1725C11.8125 12.8775 11.1075 13.3125 10.32 13.3125Z"
        fill="currentColor" />
    <path
        d="M11.25 17.0627H6.75C2.6775 17.0627 0.9375 15.3227 0.9375 11.2502V8.25019C0.9375 4.73269 2.2425 2.97019 5.1675 2.54269C5.4825 2.49769 5.76 2.70769 5.805 3.01519C5.85 3.32269 5.64 3.60769 5.3325 3.65269C2.9775 3.99769 2.0625 5.28769 2.0625 8.25019V11.2502C2.0625 14.7077 3.2925 15.9377 6.75 15.9377H11.25C14.7075 15.9377 15.9375 14.7077 15.9375 11.2502V8.25019C15.9375 5.28769 15.0225 3.99769 12.6675 3.65269C12.36 3.60769 12.15 3.32269 12.195 3.01519C12.24 2.70769 12.525 2.49769 12.8325 2.54269C15.7575 2.97019 17.0625 4.73269 17.0625 8.25019V11.2502C17.0625 15.3227 15.3225 17.0627 11.25 17.0627Z"
        fill="currentColor" />
</svg>