<svg xmlns="http://www.w3.org/2000/svg" width="24" height="24" viewBox='0 0 24 24' fill="none">
    <path stroke="currentColor"
        d="M17.61 10.69h2.89c.274 0 .5.226.5.5v5.24c0 1.662-.576 2.918-1.472 3.76-.901.846-2.165 1.31-3.598 1.31H8.07c-1.433 0-2.697-.464-3.598-1.31C3.576 19.347 3 18.091 3 16.43V7.57c0-1.662.576-2.918 1.472-3.76.901-.846 2.165-1.31 3.598-1.31h4.24c.274 0 .5.226.5.5v2.89c0 2.646 2.154 4.8 4.8 4.8Z" />
    <path fill="currentColor"
        d="M15.8 2.21c-.41-.41-1.12-.13-1.12.44v3.49c0 1.46 1.24 2.67 2.75 2.67.95.01 2.27.01 3.4.01.57 0 .87-.67.47-1.07-1.44-1.45-4.02-4.06-5.5-5.54Z" />
</svg>