<svg viewBox="0 0 80 64" fill="none" xmlns="http://www.w3.org/2000/svg">
    <path d="M25.7 9.8C25.7 10.1314 25.4314 10.4 25.1 10.4H23.9C23.5686 10.4 23.3 10.6686 23.3 11L23.3 12.7L23.3 14.4C23.3 14.7314 23.5687 15 23.9 15H25.1C25.4314 15 25.7 14.7314 25.7 14.4V13.3C25.7 12.9686 25.9687 12.7 26.3 12.7H27.5C27.8314 12.7 28.1 12.9686 28.1 13.3V14.5C28.1 14.8314 27.8314 15.1 27.5 15.1H26.3C25.9687 15.1 25.7 15.3686 25.7 15.7V16.8C25.7 17.1314 25.4314 17.4 25.1 17.4H23.9C23.5687 17.4 23.3 17.1314 23.3 16.8V15.7C23.3 15.3686 23.0314 15.1 22.7 15.1H21.5C21.1687 15.1 20.9 14.8314 20.9 14.5L20.9 12.7L20.9 10.9C20.9 10.5686 21.1686 10.3 21.5 10.3H22.7C23.0314 10.3 23.3 10.0314 23.3 9.7V8.6C23.3 8.26863 23.5686 8 23.9 8H25.1C25.4314 8 25.7 8.26863 25.7 8.6V9.8Z" fill="currentColor"/>
    <path d="M52.1 14.5C52.1 14.8314 52.3687 15.1 52.7 15.1H53.9C54.2314 15.1 54.5 14.8314 54.5 14.5V13.3C54.5 12.9686 54.2314 12.7 53.9 12.7H52.7C52.3687 12.7 52.1 12.9686 52.1 13.3V14.5Z" fill="currentColor"/>
    <path d="M40.1 32.5C40.1 32.8314 39.8314 33.1 39.5 33.1H38.3C37.9686 33.1 37.7 32.8314 37.7 32.5V28.9C37.7 28.5686 37.9686 28.3 38.3 28.3H39.5C39.8314 28.3 40.1 28.5686 40.1 28.9V32.5Z" fill="currentColor"/>
    <path d="M30.5 32.5C30.5 32.8314 30.7686 33.1 31.1 33.1H32.3C32.6314 33.1 32.9 32.8314 32.9 32.5V28.9C32.9 28.5686 32.6314 28.3 32.3 28.3H31.1C30.7686 28.3 30.5 28.5686 30.5 28.9V32.5Z" fill="currentColor"/>
    <path fill-rule="evenodd" clip-rule="evenodd" d="M32.3 19.9C32.6314 19.9 32.9 19.6314 32.9 19.3V18.1C32.9 17.7686 33.1686 17.5 33.5 17.5H44.3C44.6314 17.5 44.9 17.7686 44.9 18.1V19.3C44.9 19.6314 45.1686 19.9 45.5 19.9H49.1C49.4314 19.9 49.7 20.1686 49.7 20.5V24.1C49.7 24.4314 49.9686 24.7 50.3 24.7H51.5C51.8314 24.7 52.1 24.9686 52.1 25.3V28.9C52.1 29.2314 52.3686 29.5 52.7 29.5H53.9C54.2314 29.5 54.5 29.7686 54.5 30.1V36.1C54.5 36.4314 54.7686 36.7 55.1 36.7H56.3C56.6314 36.7 56.9 36.9686 56.9 37.3V38.5C56.9 38.8314 57.1686 39.1 57.5 39.1H58.7C59.0314 39.1 59.3 38.8314 59.3 38.5V37.3C59.3 36.9686 59.5686 36.7 59.9 36.7H61.1C61.4314 36.7 61.7 36.9686 61.7 37.3V43.3C61.7 43.6314 61.4314 43.9 61.1 43.9H59.9C59.5686 43.9 59.3 44.1686 59.3 44.5V48.1C59.3 48.4314 59.0314 48.7 58.7 48.7H57.5C57.1686 48.7 56.9 48.9686 56.9 49.3V50.5C56.9 50.8314 56.6314 51.1 56.3 51.1H55.1C54.7686 51.1 54.5 51.3686 54.5 51.7V52.9C54.5 53.2314 54.2314 53.5 53.9 53.5H50.3C49.9686 53.5 49.7 53.7686 49.7 54.1V55.3C49.7 55.6314 49.4314 55.9 49.1 55.9H35.9C35.5686 55.9 35.3 55.6314 35.3 55.3V54.1C35.3 53.7686 35.0314 53.5 34.7 53.5H31.1C30.7686 53.5 30.5 53.2314 30.5 52.9V51.7C30.5 51.3686 30.2314 51.1 29.9 51.1H28.7C28.3686 51.1 28.1 50.8314 28.1 50.5V46.3H29.9C30.2314 46.3 30.5 46.0314 30.5 45.7V43.9H32.3C32.6314 43.9 32.9 43.6314 32.9 43.3V39.7C32.9 39.3686 32.6314 39.1 32.3 39.1H31.1C30.7686 39.1 30.5 39.3686 30.5 39.7V43.9H28.7C28.3686 43.9 28.1 44.1686 28.1 44.5V46.3H23.9C23.5686 46.3 23.3 46.0314 23.3 45.7V44.5C23.3 44.1686 23.0314 43.9 22.7 43.9H21.5C21.1686 43.9 20.9 43.6314 20.9 43.3V37.3C20.9 36.9686 21.1686 36.7 21.5 36.7H22.7C23.0314 36.7 23.3 36.4314 23.3 36.1V30.1C23.3 29.7686 23.5686 29.5 23.9 29.5H25.1C25.4314 29.5 25.7 29.2314 25.7 28.9V25.3C25.7 24.9686 25.9686 24.7 26.3 24.7H27.5C27.8314 24.7 28.1 24.4314 28.1 24.1V20.5C28.1 20.1686 28.3686 19.9 28.7 19.9H32.3ZM51.5 43.9C51.8314 43.9 52.1 43.6314 52.1 43.3V39.7C52.1 39.3686 51.8314 39.1 51.5 39.1H50.3C49.9686 39.1 49.7 39.3686 49.7 39.7V43.9H47.9C47.5686 43.9 47.3 44.1686 47.3 44.5V46.3H42.5V44.5C42.5 44.1686 42.2314 43.9 41.9 43.9H40.1V39.7C40.1 39.3686 39.8314 39.1 39.5 39.1H38.3C37.9686 39.1 37.7 39.3686 37.7 39.7V43.3C37.7 43.6314 37.9686 43.9 38.3 43.9H40.1V45.7C40.1 46.0314 40.3686 46.3 40.7 46.3H42.5V48.1C42.5 48.4314 42.7686 48.7 43.1 48.7H46.7C47.0314 48.7 47.3 48.4314 47.3 48.1V46.3H49.1C49.4314 46.3 49.7 46.0314 49.7 45.7V43.9H51.5ZM30.5 34.9C30.5 34.5686 30.2314 34.3 29.9 34.3H28.7C28.3686 34.3 28.1 34.0314 28.1 33.7V27.7C28.1 27.3686 28.3686 27.1 28.7 27.1H29.9C30.2314 27.1 30.5 26.8314 30.5 26.5V25.3C30.5 24.9686 30.7686 24.7 31.1 24.7H41.9C42.2314 24.7 42.5 24.9686 42.5 25.3V26.5C42.5 26.8314 42.7686 27.1 43.1 27.1H44.3C44.6314 27.1 44.9 27.3686 44.9 27.7V33.7C44.9 34.0314 44.6314 34.3 44.3 34.3H43.1C42.7686 34.3 42.5 34.5686 42.5 34.9V36.1C42.5 36.4314 42.2314 36.7 41.9 36.7H31.1C30.7686 36.7 30.5 36.4314 30.5 36.1V34.9Z" fill="currentColor"/>
    <path d="M59.3 21.7C59.3 22.0314 59.0314 22.3 58.7 22.3H57.5C57.1687 22.3 56.9 22.0314 56.9 21.7V20.5C56.9 20.1686 57.1687 19.9 57.5 19.9H58.7C59.0314 19.9 59.3 20.1686 59.3 20.5V21.7Z" fill="currentColor"/>
    <path d="M66.5 18.2C66.5 17.8686 66.7687 17.6 67.1 17.6H70.7C71.0314 17.6 71.3 17.8686 71.3 18.2V19.4C71.3 19.7314 71.0314 20 70.7 20H67.1C66.7687 20 66.5 20.2686 66.5 20.6V26.5C66.5 26.8314 66.7687 27.1 67.1 27.1H70.7C71.0314 27.1 71.3 26.8314 71.3 26.5V25.4C71.3 25.0686 71.0314 24.8 70.7 24.8H69.5C69.1687 24.8 68.9 24.5314 68.9 24.2V23C68.9 22.6686 69.1687 22.4 69.5 22.4H70.7C71.0314 22.4 71.3 22.6686 71.3 23V24.2C71.3 24.5314 71.5687 24.8 71.9 24.8H73.1C73.4314 24.8 73.7 25.0686 73.7 25.4V26.6C73.7 26.9314 73.4314 27.2 73.1 27.2H71.9C71.5686 27.2 71.3 27.4686 71.3 27.8V28.9C71.3 29.2314 71.0314 29.5 70.7 29.5H67.1C66.7686 29.5 66.5 29.2314 66.5 28.9V27.7C66.5 27.3686 66.2314 27.1 65.9 27.1H64.7C64.3687 27.1 64.1 26.8314 64.1 26.5V20.5C64.1 20.1686 64.3687 19.9 64.7 19.9H65.9C66.2314 19.9 66.5 19.6314 66.5 19.3V18.2Z" fill="currentColor"/>
    <path d="M6.5 38.5C6.5 38.8314 6.76863 39.1 7.1 39.1H8.3C8.63137 39.1 8.9 39.3686 8.9 39.7L8.9 40.8C8.9 41.1314 9.16863 41.4 9.5 41.4H13.1C13.4314 41.4 13.7 41.1314 13.7 40.8V39.7C13.7 39.3686 13.9686 39.1 14.3 39.1H15.5C15.8314 39.1 16.1 38.8314 16.1 38.5V37.3C16.1 36.9686 15.8314 36.7 15.5 36.7H14.3C13.9686 36.7 13.7 36.4314 13.7 36.1V35C13.7 34.6686 13.4314 34.4 13.1 34.4H11.9C11.5686 34.4 11.3 34.6686 11.3 35V36.2C11.3 36.5314 11.5686 36.8 11.9 36.8H13.1C13.4314 36.8 13.7 37.0686 13.7 37.4V38.4C13.7 38.7314 13.4314 39 13.1 39H9.5C9.16863 39 8.9 38.7314 8.9 38.4L8.9 32.6C8.9 32.2686 9.16863 32 9.5 32H13.1C13.4314 32 13.7 31.7314 13.7 31.4V30.2C13.7 29.8686 13.4314 29.6 13.1 29.6H9.5C9.16863 29.6 8.9 29.8686 8.9 30.2L8.9 31.3C8.9 31.6314 8.63137 31.9 8.3 31.9H7.1C6.76863 31.9 6.5 32.1686 6.5 32.5V38.5Z" fill="currentColor"/>
    <path d="M61.7 33.7C61.7 34.0314 61.9687 34.3 62.3 34.3H63.5C63.8314 34.3 64.1 34.0314 64.1 33.7V32.5C64.1 32.1686 63.8314 31.9 63.5 31.9H62.3C61.9687 31.9 61.7 32.1686 61.7 32.5V33.7Z" fill="currentColor"/>
    <path d="M18.5 26.5C18.5 26.8314 18.2314 27.1 17.9 27.1H16.7C16.3687 27.1 16.1 26.8314 16.1 26.5V25.3C16.1 24.9686 16.3687 24.7 16.7 24.7H17.9C18.2314 24.7 18.5 24.9686 18.5 25.3V26.5Z" fill="currentColor"/>
</svg>
