<svg fill="none" height="16" width="16" xmlns="http://www.w3.org/2000/svg" xmlns:xlink="http://www.w3.org/1999/xlink"><linearGradient id="a"><stop offset=".58" stop-color="#a0a8d4"/><stop offset=".73" stop-color="#8791c7"/><stop offset=".91" stop-color="#6470b4"/></linearGradient><linearGradient id="b" gradientUnits="userSpaceOnUse" x1="8.002" x2="3.647" xlink:href="#a" y1="2.138" y2="6.859"/><linearGradient id="c" gradientUnits="userSpaceOnUse" x1="8.094" x2="12.451" xlink:href="#a" y1="13.862" y2="9.141"/><linearGradient id="d" gradientUnits="userSpaceOnUse" x1="8.048" x2="8.048" y1="1.941" y2="14.037"><stop offset="0" stop-color="#513eff"/><stop offset=".18" stop-color="#5157ff"/><stop offset=".57" stop-color="#5298ff"/><stop offset="1" stop-color="#52e5ff"/></linearGradient><path d="m4.049 6.855c.118.253.412.754.412.754l3.393-5.609-3.312 2.313c-.197.131-.359.31-.471.518a2.4 2.4 0 0 0 -.022 2.024z" fill="url(#b)"/><path d="m2.704 8.702a3.776 3.776 0 0 0 1.483 2.744l3.663 2.554s-2.292-3.303-4.225-6.59a3.319 3.319 0 0 1 -.389-1.12 1.794 1.794 0 0 1 0-.538c-.05.093-.148.285-.148.285-.196.4-.33.827-.396 1.267a7.75 7.75 0 0 0 .012 1.398z" fill="#a0a8d4"/><path d="m12.05 9.145c-.12-.253-.413-.754-.413-.754l-3.393 5.609 3.312-2.311c.197-.132.359-.31.471-.519a2.4 2.4 0 0 0 .023-2.025z" fill="url(#c)"/><path d="m13.394 7.298a3.777 3.777 0 0 0 -1.482-2.744l-3.664-2.554s2.29 3.303 4.224 6.59c.195.347.327.726.387 1.12.027.178.027.36 0 .538.05-.093.149-.285.149-.285.195-.4.329-.827.395-1.267a7.743 7.743 0 0 0 -.01-1.398z" fill="#a0a8d4"/><path d="m4.071 4.831c.112-.209.274-.387.471-.518l3.312-2.313-3.393 5.61s-.297-.5-.412-.754a2.4 2.4 0 0 1 .022-2.025zm-1.367 3.87a3.776 3.776 0 0 0 1.483 2.745l3.663 2.554s-2.292-3.303-4.225-6.59a3.32 3.32 0 0 1 -.389-1.12 1.794 1.794 0 0 1 0-.538c-.05.093-.148.285-.148.285-.196.4-.33.827-.396 1.267a7.75 7.75 0 0 0 .012 1.398zm9.34.446a13.31 13.31 0 0 0 -.413-.755l-3.387 5.608 3.312-2.311c.197-.132.359-.31.471-.519a2.4 2.4 0 0 0 .022-2.025l-.006.002zm1.343-1.847a3.777 3.777 0 0 0 -1.482-2.744l-3.657-2.556s2.29 3.303 4.225 6.59c.195.347.326.726.387 1.12.027.178.027.36 0 .538.05-.093.148-.285.148-.285.196-.4.33-.827.396-1.267a7.752 7.752 0 0 0 -.01-1.398l-.006.002z" fill="url(#d)"/></svg>