<svg xmlns="http://www.w3.org/2000/svg" width="16" height="16" fill="none">
    <path fill="url(#a)"
        d="M4.049 6.855c.118.253.412.754.412.754L7.854 2 4.542 4.313c-.197.131-.359.31-.471.518a2.4 2.4 0 0 0-.022 2.024Z" />
    <path fill="#A0A8D4"
        d="M2.704 8.702a3.776 3.776 0 0 0 1.483 2.744L7.85 14s-2.292-3.303-4.225-6.59a3.319 3.319 0 0 1-.389-1.12 1.794 1.794 0 0 1 0-.538c-.05.093-.148.285-.148.285-.196.4-.33.827-.396 1.267a7.75 7.75 0 0 0 .012 1.398Z" />
    <path fill="url(#b)"
        d="M12.05 9.145c-.12-.253-.413-.754-.413-.754L8.244 14l3.312-2.311c.197-.132.359-.31.471-.519a2.4 2.4 0 0 0 .023-2.025Z" />
    <path fill="#A0A8D4"
        d="M13.394 7.298a3.777 3.777 0 0 0-1.482-2.744L8.248 2s2.29 3.303 4.224 6.59c.195.347.327.726.387 1.12.027.178.027.36 0 .538.05-.093.149-.285.149-.285.195-.4.329-.827.395-1.267a7.743 7.743 0 0 0-.01-1.398Z" />
    <path fill="url(#c)"
        d="M4.071 4.831c.112-.209.274-.387.471-.518L7.854 2 4.461 7.61s-.297-.5-.412-.754a2.4 2.4 0 0 1 .022-2.025Zm-1.367 3.87a3.776 3.776 0 0 0 1.483 2.745L7.85 14s-2.292-3.303-4.225-6.59a3.32 3.32 0 0 1-.389-1.12 1.794 1.794 0 0 1 0-.538c-.05.093-.148.285-.148.285-.196.4-.33.827-.396 1.267a7.75 7.75 0 0 0 .012 1.398Zm9.34.446a13.31 13.31 0 0 0-.413-.755L8.244 14l3.312-2.311c.197-.132.359-.31.471-.519a2.4 2.4 0 0 0 .022-2.025l-.006.002ZM13.387 7.3a3.777 3.777 0 0 0-1.482-2.744L8.248 2s2.29 3.303 4.225 6.59c.195.347.326.726.387 1.12.027.178.027.36 0 .538.05-.093.148-.285.148-.285.196-.4.33-.827.396-1.267a7.752 7.752 0 0 0-.01-1.398l-.006.002Z"
        style="mix-blend-mode:color" />
    <defs>
        <linearGradient id="a" x1="8.002" x2="3.647" y1="2.138" y2="6.859"
            gradientUnits="userSpaceOnUse">
            <stop offset=".58" stop-color="#A0A8D4" />
            <stop offset=".73" stop-color="#8791C7" />
            <stop offset=".91" stop-color="#6470B4" />
        </linearGradient>
        <linearGradient id="b" x1="8.094" x2="12.451" y1="13.862" y2="9.141"
            gradientUnits="userSpaceOnUse">
            <stop offset=".58" stop-color="#A0A8D4" />
            <stop offset=".73" stop-color="#8791C7" />
            <stop offset=".91" stop-color="#6470B4" />
        </linearGradient>
        <linearGradient id="c" x1="8.048" x2="8.048" y1="1.941" y2="14.037"
            gradientUnits="userSpaceOnUse">
            <stop stop-color="#513EFF" />
            <stop offset=".18" stop-color="#5157FF" />
            <stop offset=".57" stop-color="#5298FF" />
            <stop offset="1" stop-color="#52E5FF" />
        </linearGradient>
    </defs>
</svg>