<svg fill="none" height="24" width="24" xmlns="http://www.w3.org/2000/svg" xmlns:xlink="http://www.w3.org/1999/xlink"><linearGradient id="a"><stop offset=".58" stop-color="#a0a8d4"/><stop offset=".73" stop-color="#8791c7"/><stop offset=".91" stop-color="#6470b4"/></linearGradient><linearGradient id="b" gradientUnits="userSpaceOnUse" x1="12.003" x2="5.47" xlink:href="#a" y1="3.207" y2="10.289"/><linearGradient id="c" gradientUnits="userSpaceOnUse" x1="12.142" x2="18.677" xlink:href="#a" y1="20.793" y2="13.711"/><linearGradient id="d" gradientUnits="userSpaceOnUse" x1="12.073" x2="12.073" y1="2.911" y2="21.056"><stop offset="0" stop-color="#513eff"/><stop offset=".18" stop-color="#5157ff"/><stop offset=".57" stop-color="#5298ff"/><stop offset="1" stop-color="#52e5ff"/></linearGradient><path d="m6.073 10.282c.178.38.618 1.132.618 1.132l5.09-8.414-4.968 3.469a2.168 2.168 0 0 0 -.707.778 3.6 3.6 0 0 0 -.033 3.035z" fill="url(#b)"/><path d="m4.057 13.053a5.663 5.663 0 0 0 2.223 4.116l5.495 3.831s-3.438-4.954-6.337-9.884a4.978 4.978 0 0 1 -.583-1.68 2.69 2.69 0 0 1 0-.808c-.076.14-.222.427-.222.427-.294.6-.495 1.24-.594 1.901-.057.698-.051 1.4.018 2.097z" fill="#a0a8d4"/><path d="m18.074 13.718c-.178-.38-.618-1.132-.618-1.132l-5.09 8.414 4.968-3.467c.296-.197.539-.464.707-.778a3.6 3.6 0 0 0 .033-3.037z" fill="url(#c)"/><path d="m20.091 10.947a5.662 5.662 0 0 0 -2.224-4.116l-5.494-3.831s3.436 4.954 6.337 9.884c.293.52.49 1.09.58 1.68.041.268.041.54 0 .808.076-.14.223-.427.223-.427.294-.6.494-1.24.594-1.901.058-.698.053-1.4-.016-2.097z" fill="#a0a8d4"/><path d="m6.107 7.247c.168-.313.41-.58.707-.778l4.967-3.469-5.09 8.416s-.444-.751-.618-1.132a3.6 3.6 0 0 1 .034-3.037zm-2.05 5.806a5.663 5.663 0 0 0 2.223 4.116l5.495 3.831s-3.438-4.954-6.337-9.884a4.978 4.978 0 0 1 -.583-1.68 2.69 2.69 0 0 1 0-.808c-.076.14-.222.427-.222.427-.294.6-.495 1.24-.594 1.901-.057.698-.051 1.4.018 2.097zm14.008.667c-.178-.38-.618-1.132-.618-1.132l-5.08 8.412 4.967-3.467c.296-.197.539-.464.707-.778a3.6 3.6 0 0 0 .033-3.037zm2.017-2.77a5.662 5.662 0 0 0 -2.224-4.117l-5.485-3.833s3.435 4.954 6.337 9.884c.293.52.49 1.09.58 1.68.041.268.041.54 0 .808.076-.14.223-.427.223-.427.294-.6.494-1.24.594-1.901.058-.698.052-1.4-.016-2.097l-.009.002z" fill="url(#d)"/></svg>