<svg xmlns="http://www.w3.org/2000/svg" width="24" height="24" fill="none">
    <path fill="url(#a)"
        d="M6.073 10.282c.178.38.618 1.132.618 1.132L11.781 3 6.813 6.469a2.168 2.168 0 0 0-.707.778 3.6 3.6 0 0 0-.033 3.035Z" />
    <path fill="#A0A8D4"
        d="M4.057 13.053a5.663 5.663 0 0 0 2.223 4.116L11.775 21s-3.438-4.954-6.337-9.884a4.978 4.978 0 0 1-.583-1.68 2.69 2.69 0 0 1 0-.808c-.076.14-.222.427-.222.427-.294.6-.495 1.24-.594 1.901-.057.698-.051 1.4.018 2.097Z" />
    <path fill="url(#b)"
        d="M18.074 13.718c-.178-.38-.618-1.132-.618-1.132L12.366 21l4.968-3.467c.296-.197.539-.464.707-.778a3.6 3.6 0 0 0 .033-3.037Z" />
    <path fill="#A0A8D4"
        d="M20.091 10.947a5.662 5.662 0 0 0-2.224-4.116L12.373 3s3.436 4.954 6.337 9.884c.293.52.49 1.09.58 1.68.041.268.041.54 0 .808.076-.14.223-.427.223-.427.294-.6.494-1.24.594-1.901.058-.698.053-1.4-.016-2.097Z" />
    <path fill="url(#c)"
        d="M6.107 7.247c.168-.313.41-.58.707-.778L11.781 3l-5.09 8.416s-.444-.751-.618-1.132a3.6 3.6 0 0 1 .034-3.037Zm-2.05 5.806a5.663 5.663 0 0 0 2.223 4.116L11.775 21s-3.438-4.954-6.337-9.884a4.978 4.978 0 0 1-.583-1.68 2.69 2.69 0 0 1 0-.808c-.076.14-.222.427-.222.427-.294.6-.495 1.24-.594 1.901-.057.698-.051 1.4.018 2.097Zm14.008.667c-.178-.38-.618-1.132-.618-1.132L12.367 21l4.967-3.467c.296-.197.539-.464.707-.778a3.6 3.6 0 0 0 .033-3.037l-.009.002Zm2.017-2.77a5.662 5.662 0 0 0-2.224-4.117L12.373 3s3.435 4.954 6.337 9.884c.293.52.49 1.09.58 1.68.041.268.041.54 0 .808.076-.14.223-.427.223-.427.294-.6.494-1.24.594-1.901.058-.698.052-1.4-.016-2.097l-.009.002Z"
        style="mix-blend-mode:color" />
    <defs>
        <linearGradient id="a" x1="12.003" x2="5.47" y1="3.207" y2="10.289"
            gradientUnits="userSpaceOnUse">
            <stop offset=".58" stop-color="#A0A8D4" />
            <stop offset=".73" stop-color="#8791C7" />
            <stop offset=".91" stop-color="#6470B4" />
        </linearGradient>
        <linearGradient id="b" x1="12.142" x2="18.677" y1="20.793" y2="13.711"
            gradientUnits="userSpaceOnUse">
            <stop offset=".58" stop-color="#A0A8D4" />
            <stop offset=".73" stop-color="#8791C7" />
            <stop offset=".91" stop-color="#6470B4" />
        </linearGradient>
        <linearGradient id="c" x1="12.073" x2="12.073" y1="2.911" y2="21.056"
            gradientUnits="userSpaceOnUse">
            <stop stop-color="#513EFF" />
            <stop offset=".18" stop-color="#5157FF" />
            <stop offset=".57" stop-color="#5298FF" />
            <stop offset="1" stop-color="#52E5FF" />
        </linearGradient>
    </defs>
</svg>