<svg fill="none" height="15" viewBox="0 0 15 15" width="15" xmlns="http://www.w3.org/2000/svg"><rect fill="#ff3545" height="15" rx="7.5" width="15"/><path d="m8.15998 7.49997 2.70352-2.70342c.182-.182.182-.47741 0-.65987-.182-.18247-.4774-.18201-.6599 0l-2.70351 2.70342-2.70352-2.70342c-.182-.18201-.47741-.18201-.65989 0-.18247.182-.18201.4774 0 .65987l2.70351 2.70342-2.70351 2.70343c-.18201.182-.18201.4774 0 .6599.091.091.21001.1367.32995.1367s.23894-.0457.32994-.1367l2.70352-2.70346 2.70351 2.70346c.091.091.21.1367.3299.1367.12 0 .239-.0457.33-.1367.182-.182.182-.4774 0-.6599z" fill="#fff"/></svg>