<svg xmlns="http://www.w3.org/2000/svg" width="20" height="20" fill="none" viewBox="0 0 20 20">
    <circle cx="10" cy="10" r="8" stroke="currentColor" stroke-width="1.5"/>
    <path stroke="currentColor" stroke-linejoin="round" stroke-width="1.25" d="M6.36642 9.01173C6.22252 9.21318 6.2125 9.47775 6.33368 9.68747C6.2202 9.88395 6.22034 10.1318 6.345 10.3312L9.47 15.3312C9.58421 15.514 9.78451 15.625 10 15.625C10.2155 15.625 10.4158 15.514 10.53 15.3312L13.655 10.3312C13.7797 10.1318 13.7798 9.88395 13.6663 9.68747C13.7875 9.47775 13.7775 9.21318 13.6336 9.01173L10.5086 4.63673C10.3913 4.47248 10.2018 4.375 10 4.375C9.79816 4.375 9.60874 4.47248 9.49142 4.63673L6.36642 9.01173ZM10 8.79815L12.348 9.73734L10 11.1461L7.65201 9.73734L10 8.79815Z"/>
</svg>
