<svg width="19" height="19" viewBox="0 0 19 19" fill="none" xmlns="http://www.w3.org/2000/svg">
    <path fill-rule="evenodd" clip-rule="evenodd"
        d="M8.80557 1.98031C5.03689 1.98031 1.98177 5.03543 1.98177 8.80411C1.98177 12.5728 5.03689 15.6279 8.80557 15.6279C12.5743 15.6279 15.6294 12.5728 15.6294 8.80411C15.6294 5.03543 12.5743 1.98031 8.80557 1.98031ZM0.648438 8.80411C0.648438 4.29905 4.30051 0.646973 8.80557 0.646973C13.3106 0.646973 16.9627 4.29905 16.9627 8.80411C16.9627 13.3092 13.3106 16.9612 8.80557 16.9612C4.30051 16.9612 0.648438 13.3092 0.648438 8.80411Z"
        fill="currentColor" stroke="currentColor" stroke-linecap="round" stroke-linejoin="round" />
    <path fill-rule="evenodd" clip-rule="evenodd"
        d="M13.5433 13.9322C13.8033 13.6715 14.2254 13.671 14.4861 13.931L17.4228 16.86C17.6835 17.12 17.684 17.5422 17.424 17.8028C17.164 18.0635 16.7419 18.0641 16.4812 17.8041L13.5445 14.875C13.2838 14.615 13.2833 14.1929 13.5433 13.9322Z"
        fill="currentColor" stroke="currentColor" stroke-linecap="round" stroke-linejoin="round" />
</svg>
    