<svg width="14" height="14" viewBox="0 0 14 14" fill="none" xmlns="http://www.w3.org/2000/svg">
    <g clip-path="url(#clip0_16962_36326)">
        <rect width="14" height="14" fill="#855DCD" />
        <path
            d="M4.12648 2.9751H9.76997V11.0251H8.94157V7.33768H8.93344C8.84189 6.31856 7.98803 5.51994 6.94823 5.51994C5.90842 5.51994 5.05456 6.31856 4.96301 7.33768H4.95488V11.0251H4.12648V2.9751Z"
            fill="white" />
        <path
            d="M2.625 4.11768L2.96154 5.26026H3.2463V9.88252C3.10333 9.88252 2.98743 9.99878 2.98743 10.1422V10.4538H2.93565C2.79268 10.4538 2.67678 10.5701 2.67678 10.7135V11.0251H5.57618V10.7135C5.57618 10.5701 5.46028 10.4538 5.31731 10.4538H5.26553V10.1422C5.26553 9.99878 5.14963 9.88252 5.00666 9.88252H4.69601V4.11768H2.625Z"
            fill="white" />
        <path
            d="M8.99334 9.88252C8.85037 9.88252 8.73447 9.99878 8.73447 10.1422V10.4538H8.68269C8.53972 10.4538 8.42382 10.5701 8.42382 10.7135V11.0251H11.3232V10.7135C11.3232 10.5701 11.2073 10.4538 11.0644 10.4538H11.0126V10.1422C11.0126 9.99878 10.8967 9.88252 10.7537 9.88252V5.26026H11.0385L11.375 4.11768H9.30399V9.88252H8.99334Z"
            fill="white" />
    </g>
    <defs>
        <clipPath id="clip0_16962_36326">
            <rect width="14" height="14" rx="4" fill="white" />
        </clipPath>
    </defs>
</svg>
    