<svg width="16" height="16" viewBox="0 0 16 16" fill="none" xmlns="http://www.w3.org/2000/svg">
    <path fill-rule="evenodd" clip-rule="evenodd" d="M11.9856 3.45836V4.24973H12.9913H13.997L13.7947 5.0411L13.5924 5.83247H13.3953H13.1983V8.9534V12.0744L13.3195 12.0981C13.398 12.1135 13.4692 12.1675 13.5215 12.2514C13.5766 12.3398 13.6023 12.451 13.6023 12.6012C13.6025 12.8145 13.607 12.8235 13.7462 12.8885C13.8407 12.9326 13.9106 13.004 13.9503 13.0971C13.9853 13.179 14.0056 13.3245 13.9986 13.4429L13.9865 13.6472H11.9856H9.98462V13.3635C9.98462 13.1203 9.99812 13.0656 10.0794 12.981C10.1315 12.9268 10.2159 12.8721 10.2668 12.8596C10.3505 12.839 10.361 12.8094 10.3757 12.5547C10.3901 12.3056 10.4051 12.2615 10.5038 12.1784C10.5654 12.1266 10.651 12.0843 10.6943 12.0843C10.7709 12.0843 10.7729 12.0416 10.7722 10.3532C10.7716 8.99001 10.7589 8.56316 10.7124 8.34506C10.6799 8.19272 10.5684 7.89892 10.4645 7.69218C10.3105 7.3856 10.2153 7.25716 9.94822 6.99578C9.68122 6.73439 9.55002 6.64117 9.23682 6.49041C9.02552 6.38872 8.72542 6.27955 8.56982 6.24774C8.41412 6.21596 8.16332 6.18965 8.01222 6.18925C7.86123 6.1889 7.59747 6.21581 7.42611 6.24904C7.24158 6.28485 6.96617 6.38096 6.75071 6.48479C6.53445 6.58897 6.2852 6.74962 6.13615 6.88087C5.99823 7.00231 5.79526 7.23358 5.68511 7.39482C5.57495 7.55602 5.44515 7.79126 5.39669 7.91756C5.34822 8.04386 5.28285 8.27787 5.25148 8.43757C5.20791 8.65931 5.19441 9.12441 5.19441 10.4061C5.19441 12.0786 5.19469 12.0843 5.27837 12.0843C5.32453 12.0843 5.41548 12.1363 5.48048 12.1999C5.58704 12.3043 5.59864 12.341 5.59864 12.5751C5.59864 12.8189 5.60475 12.8361 5.69982 12.8594C5.75549 12.8731 5.84644 12.9371 5.90194 13.0017C5.98829 13.1022 6.00288 13.1587 6.00288 13.3931V13.667H4.00191H2.00093V13.3685C2.00093 13.1056 2.01261 13.0585 2.09851 12.9744C2.1522 12.9218 2.24315 12.8673 2.30063 12.8532C2.39955 12.8289 2.40517 12.8138 2.40517 12.572C2.40517 12.4314 2.42481 12.2805 2.44883 12.2366C2.47288 12.1926 2.55474 12.1313 2.63073 12.1002L2.76898 12.0436V9.00061C2.76898 7.327 2.78002 5.92949 2.79352 5.89506C2.81401 5.84275 2.78228 5.83247 2.60045 5.83247H2.38285L2.19096 5.07078C2.08542 4.65183 1.99948 4.29571 2 4.27941C2.00053 4.26311 2.4466 4.24973 2.99131 4.24973H3.9817V3.45836V2.66699H7.98363H11.9856V3.45836Z" fill="currentColor"/>
</svg>
