<svg fill="none" height="14" viewBox="0 0 14 14" width="14" xmlns="http://www.w3.org/2000/svg" xmlns:xlink="http://www.w3.org/1999/xlink"><clipPath id="a"><rect height="14" rx="4" width="14"/></clipPath><g clip-path="url(#a)"><path d="m0 0h14v14h-14z" fill="#855dcd"/><g fill="#fff"><path d="m4.12648 2.9751h5.64349v8.05h-.8284v-3.68742h-.00813c-.09155-1.01912-.94541-1.81774-1.98521-1.81774-1.03981 0-1.89367.79862-1.98522 1.81774h-.00813v3.68742h-.8284z"/><path d="m2.625 4.11768.33654 1.14258h.28476v4.62226c-.14297 0-.25887.11626-.25887.25968v.3116h-.05178c-.14297 0-.25887.1163-.25887.2597v.3116h2.8994v-.3116c0-.1434-.1159-.2597-.25887-.2597h-.05178v-.3116c0-.14342-.1159-.25968-.25887-.25968h-.31065v-5.76484z"/><path d="m8.99334 9.88252c-.14297 0-.25887.11626-.25887.25968v.3116h-.05178c-.14297 0-.25887.1163-.25887.2597v.3116h2.89938v-.3116c0-.1434-.1159-.2597-.2588-.2597h-.0518v-.3116c0-.14342-.1159-.25968-.2589-.25968v-4.62226h.2848l.3365-1.14258h-2.07101v5.76484z"/></g></g></svg>