<svg xmlns="http://www.w3.org/2000/svg" fill="none" viewBox="0 0 80 80">
    <path fill="#825ec6" d="m40 80a40 40 0 1 0 0-80 40 40 0 0 0 0 80z"/>
    <path fill="#fefefe" fill-rule="evenodd" d="m55.94 19.17v3.16h8.06l-.81 3.17-.81 3.16h-1.58v24.97l.49.1c.31.06.6.27.8.6.23.36.33.8.33 1.4 0 .86.02.9.57 1.16.38.17.66.46.82.83.14.33.22.91.2 1.38l-.05.82h-16.02v-1.12c0-.98.05-1.2.38-1.53.2-.22.54-.44.75-.49.33-.08.37-.2.43-1.22.06-1 .12-1.17.52-1.5.24-.21.58-.38.76-.38.3 0 .31-.17.3-6.93 0-5.45-.04-7.16-.23-8.03-.13-.6-.58-1.78-1-2.6a8.6 8.6 0 0 0 -2.06-2.8 8.77 8.77 0 0 0 -2.84-2.02c-.85-.4-2.05-.84-2.67-.97-.62-.12-1.63-.23-2.23-.23s-1.66.1-2.35.24a12.63 12.63 0 0 0 -5.16 2.53c-.55.48-1.36 1.4-1.8 2.05s-.96 1.59-1.15 2.1c-.2.5-.46 1.43-.58 2.07-.18.89-.23 2.75-.23 7.88 0 6.69 0 6.7.33 6.7.19 0 .55.22.81.47.43.42.47.57.47 1.5 0 .98.03 1.05.4 1.14.23.05.6.31.82.57.34.4.4.63.4 1.56v1.09h-16v-1.2c0-1.05.04-1.23.38-1.57.22-.21.58-.43.81-.49.4-.1.42-.15.42-1.12 0-.56.08-1.17.18-1.34.1-.18.42-.42.72-.55l.56-.22v-12.18c0-6.69.04-12.28.1-12.42.08-.2-.05-.25-.78-.25h-.87l-.77-3.04c-.42-1.68-.76-3.1-.76-3.17s1.79-.12 3.97-.12h3.96v-6.33h32.01z" clip-rule="evenodd"/>
</svg>

