<svg xmlns="http://www.w3.org/2000/svg" fill="none" viewBox="0 0 15 15">
    <path fill="currentColor" fill-rule="evenodd" d="M4.2793 2.56641H5.0918V3.37891H4.2793V2.56641ZM9.9668 3.37891V4.19141H10.7793L10.7793 5.81641H11.5918V7.44141H12.4043V11.5039H11.5918V12.3164H10.7793L10.7793 13.1289H9.9668V13.9414H5.0918V13.1289H4.2793V12.3164H3.4668V10.6914H2.6543V6.62891H3.4668V3.37891L4.2793 3.37891V4.19115H5.09171V4.19141H5.0918V5.00391L5.90429 5.00391V3.37891H6.71679V2.56641H5.90429V0.941406H6.71679V1.75391H8.3418V2.56641H9.1543V3.37891H9.9668ZM9.9668 3.37891V2.56641H10.7793V3.37891L9.9668 3.37891ZM4.2793 0.941406H3.4668V1.75391H4.2793V0.941406ZM7.52963 6.62979H8.34213V7.44229H7.52963V6.62979ZM5.90463 9.06729V8.25479H9.15463V9.06729H9.96713V12.3173H9.15463V13.1298H5.90463V12.3173H5.09213V9.06729H5.90463ZM6.71713 9.87979H5.90463V11.5048H6.71713V9.87979ZM9.15463 9.87979V11.5048H8.34213V9.87979H9.15463Z" clip-rule="evenodd"/>
</svg>
