<svg fill="none" height="24" viewBox="0 0 25 24" width="25" xmlns="http://www.w3.org/2000/svg" xmlns:xlink="http://www.w3.org/1999/xlink"><clipPath id="a"><rect height="24" rx="12" width="24" x=".078125"/></clipPath><g clip-path="url(#a)"><path d="m.078125 0h24v24h-24z" fill="#000"/><path d="m13.2666 13.0508h1.14231v1.14231h-1.14231z" fill="#fff"/><path d="m12.124 13.0508h1.14231v1.14231h-1.14231z" fill="#fff"/><path d="m10.9824 13.0508h1.14231v1.14231h-1.14231z" fill="#fff"/><path d="m10.9824 14.1924h1.14231v1.14231h-1.14231z" fill="#fff"/><path d="m9.83984 14.1924h1.14231v1.14231h-1.14231z" fill="#fff"/><path d="m9.83984 13.0508h1.14231v1.14231h-1.14231z" fill="#fff"/><path d="m9.83984 15.335h1.14231v1.14231h-1.14231z" fill="#9787fc"/><path d="m10.9824 15.335h1.14231v1.14231h-1.14231z" fill="#fff"/><path d="m12.124 15.335h1.14231v1.14231h-1.14231z" fill="#fff"/><path d="m12.124 14.1924h1.14231v1.14231h-1.14231z" fill="#fff"/><path d="m13.2666 14.1924h1.14231v1.14231h-1.14231z" fill="#fff"/><path d="m13.2666 15.335h1.14231v1.14231h-1.14231z" fill="#9787fc"/><path d="m13.2666 17.6191h1.14231v1.14231h-1.14231z" fill="#fff"/><path d="m10.9824 17.6191h1.14231v1.14231h-1.14231z" fill="#fff"/><path d="m12.124 17.6191h1.14231v1.14231h-1.14231z" fill="#fff"/><path d="m9.83984 17.6191h1.14231v1.14231h-1.14231z" fill="#fff"/><path d="m8.69727 17.6191h1.14231v1.14231h-1.14231z" fill="#fff"/><path d="m13.2666 16.4775h1.14231v1.14231h-1.14231z" fill="#9787fc"/><path d="m10.9824 16.4775h1.14231v1.14231h-1.14231z" fill="#fff"/><path d="m12.124 16.4775h1.14231v1.14231h-1.14231z" fill="#fff"/><path d="m9.83984 16.4775h1.14231v1.14231h-1.14231z" fill="#9787fc"/><path d="m8.69727 16.4775h1.14231v1.14231h-1.14231z" fill="#fff"/><path d="m13.2666 18.7617h1.14231v1.14231h-1.14231z" fill="#fff"/><path d="m10.9824 18.7617h1.14231v1.14231h-1.14231z" fill="#fff"/><path d="m12.124 18.7617h1.14231v1.14231h-1.14231z" fill="#fff"/><path d="m9.83984 18.7617h1.14231v1.14231h-1.14231z" fill="#fff"/><path d="m14.4092 15.335h1.14231v1.14231h-1.14231z" fill="#fff"/><path d="m14.4092 16.4775h1.14231v1.14231h-1.14231z" fill="#fff"/><path d="m14.4092 11.9082h1.14231v1.14231h-1.14231z" fill="#9787fc"/><path d="m15.5508 14.1924h1.14231v1.14231h-1.14231z" fill="#9787fc"/><path d="m14.4092 13.0508h1.14231v1.14231h-1.14231z" fill="#9787fc"/><path d="m15.5508 15.335h1.14231v1.14231h-1.14231z" fill="#9787fc"/><path d="m14.4092 17.6191h1.14231v1.14231h-1.14231z" fill="#fff"/><path d="m14.4092 14.1924h1.14231v1.14231h-1.14231z" fill="#fff"/><path d="m15.5508 16.4775h1.14231v1.14231h-1.14231z" fill="#9787fc"/><path d="m14.4092 18.7617h1.14231v1.14231h-1.14231z" fill="#9787fc"/><path d="m13.2666 11.9082h1.14231v1.14231h-1.14231z" fill="#9787fc"/><path d="m8.69727 15.335h1.14231v1.14231h-1.14231z" fill="#fff"/><path d="m8.69727 14.1924h1.14231v1.14231h-1.14231z" fill="#fff"/><path d="m8.69727 13.0508h1.14231v1.14231h-1.14231z" fill="#9787fc"/><path d="m9.83984 11.9082h1.14231v1.14231h-1.14231z" fill="#9787fc"/><path d="m10.9824 11.9082h1.14231v1.14231h-1.14231z" fill="#9787fc"/><path d="m10.9824 10.7656h1.14231v1.14231h-1.14231z" fill="#9787fc"/><path d="m12.124 11.9082h1.14231v1.14231h-1.14231z" fill="#9787fc"/><path d="m13.2666 10.7656h1.14231v1.14231h-1.14231z" fill="#9787fc"/><path d="m12.124 10.7656h1.14231v1.14231h-1.14231z" fill="#fff"/><path d="m13.2666 9.62305h1.14231v1.14231h-1.14231z" fill="#9787fc"/><path d="m8.69727 11.9082h1.14231v1.14231h-1.14231z" fill="#9787fc"/><path d="m8.69727 10.7656h1.14231v1.14231h-1.14231z" fill="#9787fc"/><path d="m7.55469 15.335h1.14231v1.14231h-1.14231z" fill="#9787fc"/><path d="m7.55469 16.4775h1.14231v1.14231h-1.14231z" fill="#9787fc"/><path d="m7.55469 17.6191h1.14231v1.14231h-1.14231z" fill="#9787fc"/><path d="m15.5508 11.9082h1.14231v1.14231h-1.14231z" fill="#9250ff"/><path d="m15.5508 13.0508h1.14231v1.14231h-1.14231z" fill="#9250ff"/><path d="m16.6934 14.1924h1.14231v1.14231h-1.14231z" fill="#9250ff"/><path d="m16.6934 16.4775h1.14231v1.14231h-1.14231z" fill="#9250ff"/><path d="m14.4092 9.62305h1.14231v1.14231h-1.14231z" fill="#9250ff"/><path d="m12.124 9.62305h1.14231v1.14231h-1.14231z" fill="#9250ff"/><path d="m10.9824 9.62305h1.14231v1.14231h-1.14231z" fill="#9250ff"/><path d="m8.69727 9.62305h1.14231v1.14231h-1.14231z" fill="#9250ff"/><path d="m9.83984 10.7656h1.14231v1.14231h-1.14231z" fill="#9250ff"/><path d="m15.5508 10.7656h1.14231v1.14231h-1.14231z" fill="#9250ff"/><path d="m16.6934 13.0508h1.14231v1.14231h-1.14231z" fill="#9250ff"/><path d="m16.6934 15.335h1.14231v1.14231h-1.14231z" fill="#9250ff"/><path d="m15.5508 17.6191h1.14231v1.14231h-1.14231z" fill="#9250ff"/><path d="m13.2666 8.48145h1.14231v1.14231h-1.14231z" fill="#9250ff"/><path d="m14.4092 8.48145h1.14231v1.14231h-1.14231z" fill="#9250ff"/><path d="m14.4092 10.7656h1.14231v1.14231h-1.14231z" fill="#9250ff"/><path d="m12.124 8.48145h1.14231v1.14231h-1.14231z" fill="#9787fc"/><path d="m12.124 6.19629h1.14231v1.14231h-1.14231z" fill="#9250ff"/><path d="m12.124 7.33887h1.14231v1.14231h-1.14231z" fill="#9250ff"/><path d="m13.2666 7.33887h1.14231v1.14231h-1.14231z" fill="#9250ff"/><path d="m10.9824 8.48145h1.14231v1.14231h-1.14231z" fill="#9250ff"/><path d="m9.83984 9.62305h1.14231v1.14231h-1.14231z" fill="#9250ff"/><path d="m7.55469 9.62305h1.14231v1.14231h-1.14231z" fill="#9250ff"/><path d="m7.55469 10.7656h1.14231v1.14231h-1.14231z" fill="#9250ff"/><path d="m7.55469 11.9082h1.14231v1.14231h-1.14231z" fill="#9250ff"/><path d="m6.41309 11.9082h1.14231v1.14231h-1.14231z" fill="#9250ff"/><path d="m6.41309 14.1924h1.14231v1.14231h-1.14231z" fill="#9250ff"/><path d="m7.55469 13.0508h1.14231v1.14231h-1.14231z" fill="#9787fc"/><path d="m7.55469 14.1924h1.14231v1.14231h-1.14231z" fill="#9787fc"/><path d="m6.41309 13.0508h1.14231v1.14231h-1.14231z" fill="#9250ff"/><path d="m6.41309 15.335h1.14231v1.14231h-1.14231z" fill="#9250ff"/><path d="m16.6934 11.9082h1.14231v1.14231h-1.14231z" fill="#d543ed"/><path d="m17.8359 11.9082h1.14231v1.14231h-1.14231z" fill="#d543ed"/><path d="m17.8359 13.0508h1.14231v1.14231h-1.14231z" fill="#d543ed"/><path d="m17.8359 14.1924h1.14231v1.14231h-1.14231z" fill="#d543ed"/><path d="m17.8359 15.335h1.14231v1.14231h-1.14231z" fill="#d543ed"/><path d="m17.8359 16.4775h1.14231v1.14231h-1.14231z" fill="#d543ed"/><path d="m16.6934 17.6191h1.14231v1.14231h-1.14231z" fill="#d543ed"/><path d="m15.5508 18.7617h1.14231v1.14231h-1.14231z" fill="#d543ed"/><path d="m14.4092 19.9043h1.14231v1.14231h-1.14231z" fill="#d543ed"/><path d="m12.124 19.9043h1.14231v1.14231h-1.14231z" fill="#d543ed"/><path d="m13.2666 19.9043h1.14231v1.14231h-1.14231z" fill="#d543ed"/><path d="m10.9824 19.9043h1.14231v1.14231h-1.14231z" fill="#d543ed"/><path d="m9.83984 19.9043h1.14231v1.14231h-1.14231z" fill="#d543ed"/><path d="m8.69727 19.9043h1.14231v1.14231h-1.14231z" fill="#d543ed"/><path d="m8.69727 18.7617h1.14231v1.14231h-1.14231z" fill="#d543ed"/><path d="m7.55469 18.7617h1.14231v1.14231h-1.14231z" fill="#d543ed"/><path d="m6.41309 17.6191h1.14231v1.14231h-1.14231z" fill="#d543ed"/><path d="m5.27051 14.1924h1.14231v1.14231h-1.14231z" fill="#d543ed"/><path d="m5.27051 10.7656h1.14231v1.14231h-1.14231z" fill="#d543ed"/><path d="m6.41309 8.48145h1.14231v1.14231h-1.14231z" fill="#d543ed"/><path d="m8.69727 8.48145h1.14231v1.14231h-1.14231z" fill="#d543ed"/><path d="m9.83984 7.33887h1.14231v1.14231h-1.14231z" fill="#d543ed"/><path d="m6.41309 6.19629h1.14231v1.14231h-1.14231z" fill="#d543ed"/><path d="m7.55469 5.05371h1.14231v1.14231h-1.14231z" fill="#d543ed"/><path d="m6.41309 2.76953h1.14231v1.14231h-1.14231z" fill="#d543ed"/><path d="m7.55469 7.33887h1.14231v1.14231h-1.14231z" fill="#9250ff"/><g fill="#d543ed"><path d="m6.41309 16.4775h1.14231v1.14231h-1.14231z"/><path d="m5.27051 13.0508h1.14231v1.14231h-1.14231z"/><path d="m6.41309 10.7656h1.14231v1.14231h-1.14231z"/><path d="m5.27051 15.335h1.14231v1.14231h-1.14231z"/><path d="m5.27051 11.9082h1.14231v1.14231h-1.14231z"/><path d="m6.41309 9.62305h1.14231v1.14231h-1.14231z"/><path d="m6.41309 7.33887h1.14231v1.14231h-1.14231z"/><path d="m7.55469 8.48145h1.14231v1.14231h-1.14231z"/><path d="m9.83984 8.48145h1.14231v1.14231h-1.14231z"/><path d="m9.83984 6.19629h1.14231v1.14231h-1.14231z"/><path d="m10.9824 6.19629h1.14231v1.14231h-1.14231z"/><path d="m14.4092 6.19629h1.14231v1.14231h-1.14231z"/><path d="m10.9824 3.91211h1.14231v1.14231h-1.14231z"/><path d="m15.5508 5.05371h1.14231v1.14231h-1.14231z"/><path d="m12.124 3.91211h1.14231v1.14231h-1.14231z"/><path d="m9.83984 3.91211h1.14231v1.14231h-1.14231z"/><path d="m9.83984 2.76953h1.14231v1.14231h-1.14231z"/><path d="m10.9824 7.33887h1.14231v1.14231h-1.14231z"/><path d="m14.4092 7.33887h1.14231v1.14231h-1.14231z"/><path d="m10.9824 5.05371h1.14231v1.14231h-1.14231z"/><path d="m12.124 5.05371h1.14231v1.14231h-1.14231z"/><path d="m13.2666 5.05371h1.14231v1.14231h-1.14231z"/><path d="m13.2666 6.19629h1.14231v1.14231h-1.14231z"/><path d="m16.6934 10.7656h1.14231v1.14231h-1.14231z"/><path d="m16.6934 9.62305h1.14231v1.14231h-1.14231z"/><path d="m15.5508 9.62305h1.14231v1.14231h-1.14231z"/><path d="m15.5508 8.48145h1.14231v1.14231h-1.14231z"/><path d="m15.5508 7.33887h1.14231v1.14231h-1.14231z"/></g></g></svg>