<svg fill="none" height="20" viewBox="0 0 16 20" width="16" xmlns="http://www.w3.org/2000/svg"><path d="m1.75.193359h1.25v1.225861h-1.25z" fill="#d543ed"/><path d="m4.25001 2.64507h-1.25001v1.22586h-1.25v4.90342h-1.25v6.12925h1.25v2.4517h1.25v1.2259h1.25001v1.2259h7.49999v-1.2259h1.25v-1.2259h1.25v-1.2258h1.25v-6.1293h-1.25v-2.4517h-1.25v-2.45171h-1.25v-1.22586h1.25v-1.22586h-1.25v1.22586h-1.25v-1.22586h-1.25v-1.22585h-2.5v-1.225861h-1.25v2.451711h1.25v1.22586h-1.25v2.45171h-1.24999v-1.22585h-1.25001v-1.22586h1.25001z" fill="#d543ed"/><path d="m8 3.87109h1.25v1.22586h1.25v1.22586h1.25v2.45171h1.25v2.45168h1.25v4.9035h-1.25v1.2258h-1.25v1.2259h-6.25001v-1.2259h-2.49999v-2.4517h-1.25v-4.9034h1.25v-2.45174h3.75v-1.22585h1.25z" fill="#9250ff"/><path d="m4.25 5.09695h-1.25v1.22586h1.25z" fill="#9250ff"/><path d="m8 6.32227h1.25v1.22585h-1.25z" fill="#9787fc"/><path d="m11.75 12.4515v-2.45167h-1.25v-2.45171h-1.25v1.22586h-2.50001v1.22585h-1.25l.00001-1.22585h-1.25v2.45172h-1.25v6.1293h2.49999v1.2258h6.25001v-2.4517h1.25v-3.6776z" fill="#9787fc"/><g fill="#fff"><path d="m9.25 8.77344h-1.25001v1.22585h1.25001z"/><path clip-rule="evenodd" d="m5.49999 11.2252v1.2258h-1.24999v4.9034h1.24999v1.2259h5.00001v-1.2259h1.25v-4.9034h-1.25v-1.2258zm0 2.4517h1.25v2.4517h-1.25zm5.00001 2.4517v-2.4517h-1.25v2.4517z" fill-rule="evenodd"/></g></svg>