<svg viewBox="0 0 16 16" fill="none" xmlns="http://www.w3.org/2000/svg">
    <g clip-path="url(#clip0_28592_36197)">
        <rect width="16" height="16" fill="#F5F5F5"/>
        <path d="M4.11111 2H4.88889V2.77778H4.11111V2Z" fill="#E64CFF"/>
        <path d="M5.66667 3.55556H4.88889V4.33333L4.11111 4.33333V7.44444H3.33333V11.3333H4.11111V12.8889H4.88889V13.6667H5.66667V14.4444H10.3333V13.6667H11.1111L11.1111 12.8889H11.8889V12.1111H12.6667V8.22222H11.8889V6.66667H11.1111L11.1111 5.11111H10.3333V4.33333L11.1111 4.33333V3.55556H10.3333V4.33333H9.55556V3.55556H8.77778V2.77778H7.22222V2H6.44444V3.55556H7.22222V4.33333H6.44444V5.88889L5.66667 5.88889V5.11111H4.88889V4.33333H5.66667V3.55556Z" fill="#E64CFF"/>
        <path d="M8.00087 4.3335H8.77865V5.11127H9.55643V5.88905H10.3342V7.44461L11.112 7.44461V9.00016H11.8898V12.1113H11.112L11.112 12.8891H10.3342V13.6668H6.44531V12.8891H4.88976V11.3335H4.11198V8.22239H4.88976V6.66683H7.22309V5.88905L8.00087 5.88905V4.3335Z" fill="#222EBB"/>
        <path d="M5.66754 5.11127H4.88976V5.88905H5.66754V5.11127Z" fill="#222EBB"/>
        <path d="M8.00043 5.88965H8.77821V6.66743H8.00043V5.88965Z" fill="#6548F7"/>
        <path d="M10.3338 9.77854V8.22298H9.55599V6.66743L8.77821 6.66743V7.4452L7.22265 7.4452V8.22298H6.44487L6.44488 7.4452H5.6671V9.00076H4.88932V12.8897H6.44487V13.6674H10.3338V12.1119H11.1115V9.77854H10.3338Z" fill="#6548F7"/>
        <path d="M8.77778 7.44385H8V8.22163H8.77778V7.44385Z" fill="white"/>
        <path fill-rule="evenodd" clip-rule="evenodd" d="M6.44444 8.9994V9.77718H5.66667V12.8883H6.44444V13.6661H9.55556V12.8883H10.3333V9.77718H9.55556V8.9994H6.44444ZM6.44444 10.555H7.22222V12.1105H6.44444V10.555ZM9.55556 12.1105V10.555L8.77778 10.555V12.1105H9.55556Z" fill="white"/>
    </g>
    <defs>
        <clipPath id="clip0_28592_36197">
            <rect width="16" height="16" rx="8" fill="white"/>
        </clipPath>
    </defs>
</svg>
