<svg fill="none" viewBox="0 0 16 16" xmlns="http://www.w3.org/2000/svg" xmlns:xlink="http://www.w3.org/1999/xlink"><clipPath id="a"><rect height="16" rx="8" width="16"/></clipPath><g clip-path="url(#a)"><path d="m0 0h16v16h-16z" fill="#f5f5f5"/><path d="m4.11111 2h.77778v.77778h-.77778z" fill="#e64cff"/><path d="m5.66667 3.55556h-.77778v.77777h-.77778v3.11111h-.77778v3.88886h.77778v1.5556h.77778v.7778h.77778v.7777h4.66663v-.7777h.7778v-.7778h.7778v-.7778h.7778v-3.88888h-.7778v-1.55555h-.7778v-1.55556h-.7778v-.77778h.7778v-.77777h-.7778v.77777h-.77774v-.77777h-.77778v-.77778h-1.55556v-.77778h-.77778v1.55556h.77778v.77777h-.77778v1.55556h-.77777v-.77778h-.77778v-.77778h.77778z" fill="#e64cff"/><path d="m8.00087 4.3335h.77778v.77777h.77778v.77778h.77777v1.55556h.7778v1.55555h.7778v3.11114h-.7778v.7778h-.7778v.7777h-3.88889v-.7777h-1.55555v-1.5556h-.77778v-3.11111h.77778v-1.55556h2.33333v-.77778h.77778z" fill="#222ebb"/><path d="m5.66754 5.11127h-.77778v.77778h.77778z" fill="#222ebb"/><path d="m8.00043 5.88965h.77778v.77778h-.77778z" fill="#6548f7"/><path d="m10.3338 9.77854v-1.55556h-.77781v-1.55555h-.77778v.77777h-1.55556v.77778h-.77778l.00001-.77778h-.77778v1.55556h-.77778v3.88894h1.55555v.7777h3.88893v-1.5555h.7777v-2.33336z" fill="#6548f7"/><g fill="#fff"><path d="m8.77778 7.44385h-.77778v.77778h.77778z"/><path clip-rule="evenodd" d="m6.44444 8.9994v.77778h-.77777v3.11112h.77777v.7778h3.11112v-.7778h.77774v-3.11112h-.77774v-.77778zm0 1.5556h.77778v1.5555h-.77778zm3.11112 1.5555v-1.5555h-.77778v1.5555z" fill-rule="evenodd"/></g></g></svg>