<svg width="93" height="16" viewBox="0 0 93 16" fill="currentColor" xmlns="http://www.w3.org/2000/svg">
<path d="M0.430664 0H14.2238V5.24138H7.05135V7.72414H11.741V11.3103H7.05135V16H0.430664V0Z" fill="currentColor"/>
<path d="M16.1548 0H21.672V16H16.1548V0Z" fill="currentColor"/>
<path d="M46.7755 6.34483V3.31034H50.9134V0H40.9824V16H50.9134V12.6897H46.7755V9.65517H49.5341V6.34483H46.7755Z" fill="currentColor"/>
<path d="M52.8445 0H66.6376V4.68966H59.741V8H64.1548V11.3103H59.741V16H52.8445V0Z" fill="currentColor"/>
<path d="M74.3617 0H68.5686V16H77.3962V12.6897H74.3617V0Z" fill="currentColor"/>
<path fill-rule="evenodd" clip-rule="evenodd" d="M23.6031 0H36.2927V1.65517H39.0514V8.27586H36.2927V10.7586H39.0514V16H32.1548V11.3103H29.1203V16H23.6031V0ZM33.5341 3.86207V7.17241H29.1203V3.86207H33.5341Z" fill="currentColor"/>
<path d="M83.1893 0H76.8445V6.34483H79.0514V8H80.4307V9.65517H81.81V16H87.6031V9.65517H88.9824V8H90.3617V6.34483H92.5686V0H86.2238V6.34483H83.1893V0Z" fill="currentColor"/>
</svg>
