<svg xmlns="http://www.w3.org/2000/svg" width="15" height="16" fill="none">
    <rect width="15" height="15" y=".5" fill="#3E2469" rx="7.5" />
    <path fill="#A844DA"
        d="M4.152 2.546h.675v.675h-.675v-.675ZM5.502 3.896h-.675v.675h-.675v2.7h-.674v3.374h.674v1.35h.675v.674h.675v.675h4.05v-.675h.675v-.675h.674v-.674h.675V7.945h-.675v-1.35h-.675v-1.35h-.674v-.674h.675v-.675h-.675v.675h-.675v-.675h-.675V3.22h-1.35v-.675h-.675v1.35h.675v.675h-.675v1.35h-.675v-.676h-.675v-.674h.675v-.675Z" />
    <path fill="#9250FF"
        d="M7.527 4.571h.675v.675h.675v.675h.675v1.35h.674v1.35h.675v2.7h-.675v.674h-.674v.675H6.177v-.675h-1.35v-1.35h-.675v-2.7h.675V6.597h2.025v-.675h.675v-1.35ZM5.502 5.246h-.675v.675h.675v-.675Z" />
    <path fill="#9787FC" d="M7.528 5.92h.675v.676h-.675V5.92Z" />
    <path fill="#9787FC"
        d="M9.552 9.295v-1.35h-.674v-1.35h-.675v.676h-1.35v.675h-.675V7.27h-.675v1.35h-.675v3.374h1.35v.675h3.374v-1.35h.675V9.295h-.675Z" />
    <path fill="#fff" d="M8.203 7.27h-.675v.675h.675v-.674Z" />
    <path fill="#fff" fill-rule="evenodd"
        d="M6.178 8.62v.675h-.675v2.7h.675v.675h2.7v-.675h.674v-2.7h-.675V8.62h-2.7Zm0 1.35h.675v1.35h-.675V9.97Zm2.7 1.35V9.97h-.675v1.35h.674Z"
        clip-rule="evenodd" />
</svg>