<svg viewBox="0 0 14 19" fill="none" xmlns="http://www.w3.org/2000/svg">
    <path fill-rule="evenodd" clip-rule="evenodd" d="M2.20859 2.70068H3.31289V3.82568H2.20859V2.70068ZM9.93866 3.82568V4.95068H11.043L11.0429 7.20068H12.1472V9.45068H13.2515V15.0757H12.1472V16.2007H11.0429L11.0429 16.2007L11.043 17.3257H9.93866V18.4507H3.31289V17.3257H2.20859V16.2007H1.1043V13.9507H0V8.32568H1.1043V3.82568L2.20859 3.82568V4.95068H3.31289V6.07568L4.41717 6.07568V3.82568H5.52147V2.70068H4.41717V0.450684H5.52147V1.57568H7.73006V2.70068H8.83436V3.82568H9.93866ZM9.93866 3.82568V2.70068H11.043V3.82568L9.93866 3.82568ZM2.20859 0.450684H1.1043V1.57568H2.20859V0.450684ZM6.62576 8.32567H7.73006V9.45067H6.62576V8.32567ZM4.41717 11.7007V10.5757H8.83435V11.7007H9.93865V16.2007H8.83435V17.3257H4.41717V16.2007H3.31288V11.7007H4.41717ZM5.52146 12.8257H4.41717V15.0757H5.52146V12.8257ZM8.83435 12.8257V15.0757H7.73006V12.8257L8.83435 12.8257Z" fill="currentColor"/>
</svg>
