<svg xmlns="http://www.w3.org/2000/svg" width="25" height="24" fill="none" viewBox="0 0 25 24">
    <g clip-path="url(#clip0_972_42167)">
        <rect width="24" height="24" x="0.078125" fill="black"/>
        <rect width="1.14231" height="1.14231" x="13.2666" y="13.0508" fill="white"/>
        <rect width="1.14231" height="1.14231" x="12.124" y="13.0508" fill="white"/>
        <rect width="1.14231" height="1.14231" x="10.9824" y="13.0508" fill="white"/>
        <rect width="1.14231" height="1.14231" x="10.9824" y="14.1924" fill="white"/>
        <rect width="1.14231" height="1.14231" x="9.83984" y="14.1924" fill="white"/>
        <rect width="1.14231" height="1.14231" x="9.83984" y="13.0508" fill="white"/>
        <rect width="1.14231" height="1.14231" x="9.83984" y="15.335" fill="#9787FC"/>
        <rect width="1.14231" height="1.14231" x="10.9824" y="15.335" fill="white"/>
        <rect width="1.14231" height="1.14231" x="12.124" y="15.335" fill="white"/>
        <rect width="1.14231" height="1.14231" x="12.124" y="14.1924" fill="white"/>
        <rect width="1.14231" height="1.14231" x="13.2666" y="14.1924" fill="white"/>
        <rect width="1.14231" height="1.14231" x="13.2666" y="15.335" fill="#9787FC"/>
        <rect width="1.14231" height="1.14231" x="13.2666" y="17.6191" fill="white"/>
        <rect width="1.14231" height="1.14231" x="10.9824" y="17.6191" fill="white"/>
        <rect width="1.14231" height="1.14231" x="12.124" y="17.6191" fill="white"/>
        <rect width="1.14231" height="1.14231" x="9.83984" y="17.6191" fill="white"/>
        <rect width="1.14231" height="1.14231" x="8.69727" y="17.6191" fill="white"/>
        <rect width="1.14231" height="1.14231" x="13.2666" y="16.4775" fill="#9787FC"/>
        <rect width="1.14231" height="1.14231" x="10.9824" y="16.4775" fill="white"/>
        <rect width="1.14231" height="1.14231" x="12.124" y="16.4775" fill="white"/>
        <rect width="1.14231" height="1.14231" x="9.83984" y="16.4775" fill="#9787FC"/>
        <rect width="1.14231" height="1.14231" x="8.69727" y="16.4775" fill="white"/>
        <rect width="1.14231" height="1.14231" x="13.2666" y="18.7617" fill="white"/>
        <rect width="1.14231" height="1.14231" x="10.9824" y="18.7617" fill="white"/>
        <rect width="1.14231" height="1.14231" x="12.124" y="18.7617" fill="white"/>
        <rect width="1.14231" height="1.14231" x="9.83984" y="18.7617" fill="white"/>
        <rect width="1.14231" height="1.14231" x="14.4092" y="15.335" fill="white"/>
        <rect width="1.14231" height="1.14231" x="14.4092" y="16.4775" fill="white"/>
        <rect width="1.14231" height="1.14231" x="14.4092" y="11.9082" fill="#9787FC"/>
        <rect width="1.14231" height="1.14231" x="15.5508" y="14.1924" fill="#9787FC"/>
        <rect width="1.14231" height="1.14231" x="14.4092" y="13.0508" fill="#9787FC"/>
        <rect width="1.14231" height="1.14231" x="15.5508" y="15.335" fill="#9787FC"/>
        <rect width="1.14231" height="1.14231" x="14.4092" y="17.6191" fill="white"/>
        <rect width="1.14231" height="1.14231" x="14.4092" y="14.1924" fill="white"/>
        <rect width="1.14231" height="1.14231" x="15.5508" y="16.4775" fill="#9787FC"/>
        <rect width="1.14231" height="1.14231" x="14.4092" y="18.7617" fill="#9787FC"/>
        <rect width="1.14231" height="1.14231" x="13.2666" y="11.9082" fill="#9787FC"/>
        <rect width="1.14231" height="1.14231" x="8.69727" y="15.335" fill="white"/>
        <rect width="1.14231" height="1.14231" x="8.69727" y="14.1924" fill="white"/>
        <rect width="1.14231" height="1.14231" x="8.69727" y="13.0508" fill="#9787FC"/>
        <rect width="1.14231" height="1.14231" x="9.83984" y="11.9082" fill="#9787FC"/>
        <rect width="1.14231" height="1.14231" x="10.9824" y="11.9082" fill="#9787FC"/>
        <rect width="1.14231" height="1.14231" x="10.9824" y="10.7656" fill="#9787FC"/>
        <rect width="1.14231" height="1.14231" x="12.124" y="11.9082" fill="#9787FC"/>
        <rect width="1.14231" height="1.14231" x="13.2666" y="10.7656" fill="#9787FC"/>
        <rect width="1.14231" height="1.14231" x="12.124" y="10.7656" fill="white"/>
        <rect width="1.14231" height="1.14231" x="13.2666" y="9.62305" fill="#9787FC"/>
        <rect width="1.14231" height="1.14231" x="8.69727" y="11.9082" fill="#9787FC"/>
        <rect width="1.14231" height="1.14231" x="8.69727" y="10.7656" fill="#9787FC"/>
        <rect width="1.14231" height="1.14231" x="7.55469" y="15.335" fill="#9787FC"/>
        <rect width="1.14231" height="1.14231" x="7.55469" y="16.4775" fill="#9787FC"/>
        <rect width="1.14231" height="1.14231" x="7.55469" y="17.6191" fill="#9787FC"/>
        <rect width="1.14231" height="1.14231" x="15.5508" y="11.9082" fill="#9250FF"/>
        <rect width="1.14231" height="1.14231" x="15.5508" y="13.0508" fill="#9250FF"/>
        <rect width="1.14231" height="1.14231" x="16.6934" y="14.1924" fill="#9250FF"/>
        <rect width="1.14231" height="1.14231" x="16.6934" y="16.4775" fill="#9250FF"/>
        <rect width="1.14231" height="1.14231" x="14.4092" y="9.62305" fill="#9250FF"/>
        <rect width="1.14231" height="1.14231" x="12.124" y="9.62305" fill="#9250FF"/>
        <rect width="1.14231" height="1.14231" x="10.9824" y="9.62305" fill="#9250FF"/>
        <rect width="1.14231" height="1.14231" x="8.69727" y="9.62305" fill="#9250FF"/>
        <rect width="1.14231" height="1.14231" x="9.83984" y="10.7656" fill="#9250FF"/>
        <rect width="1.14231" height="1.14231" x="15.5508" y="10.7656" fill="#9250FF"/>
        <rect width="1.14231" height="1.14231" x="16.6934" y="13.0508" fill="#9250FF"/>
        <rect width="1.14231" height="1.14231" x="16.6934" y="15.335" fill="#9250FF"/>
        <rect width="1.14231" height="1.14231" x="15.5508" y="17.6191" fill="#9250FF"/>
        <rect width="1.14231" height="1.14231" x="13.2666" y="8.48145" fill="#9250FF"/>
        <rect width="1.14231" height="1.14231" x="14.4092" y="8.48145" fill="#9250FF"/>
        <rect width="1.14231" height="1.14231" x="14.4092" y="10.7656" fill="#9250FF"/>
        <rect width="1.14231" height="1.14231" x="12.124" y="8.48145" fill="#9787FC"/>
        <rect width="1.14231" height="1.14231" x="12.124" y="6.19629" fill="#9250FF"/>
        <rect width="1.14231" height="1.14231" x="12.124" y="7.33887" fill="#9250FF"/>
        <rect width="1.14231" height="1.14231" x="13.2666" y="7.33887" fill="#9250FF"/>
        <rect width="1.14231" height="1.14231" x="10.9824" y="8.48145" fill="#9250FF"/>
        <rect width="1.14231" height="1.14231" x="9.83984" y="9.62305" fill="#9250FF"/>
        <rect width="1.14231" height="1.14231" x="7.55469" y="9.62305" fill="#9250FF"/>
        <rect width="1.14231" height="1.14231" x="7.55469" y="10.7656" fill="#9250FF"/>
        <rect width="1.14231" height="1.14231" x="7.55469" y="11.9082" fill="#9250FF"/>
        <rect width="1.14231" height="1.14231" x="6.41309" y="11.9082" fill="#9250FF"/>
        <rect width="1.14231" height="1.14231" x="6.41309" y="14.1924" fill="#9250FF"/>
        <rect width="1.14231" height="1.14231" x="7.55469" y="13.0508" fill="#9787FC"/>
        <rect width="1.14231" height="1.14231" x="7.55469" y="14.1924" fill="#9787FC"/>
        <rect width="1.14231" height="1.14231" x="6.41309" y="13.0508" fill="#9250FF"/>
        <rect width="1.14231" height="1.14231" x="6.41309" y="15.335" fill="#9250FF"/>
        <rect width="1.14231" height="1.14231" x="16.6934" y="11.9082" fill="#D543ED"/>
        <rect width="1.14231" height="1.14231" x="17.8359" y="11.9082" fill="#D543ED"/>
        <rect width="1.14231" height="1.14231" x="17.8359" y="13.0508" fill="#D543ED"/>
        <rect width="1.14231" height="1.14231" x="17.8359" y="14.1924" fill="#D543ED"/>
        <rect width="1.14231" height="1.14231" x="17.8359" y="15.335" fill="#D543ED"/>
        <rect width="1.14231" height="1.14231" x="17.8359" y="16.4775" fill="#D543ED"/>
        <rect width="1.14231" height="1.14231" x="16.6934" y="17.6191" fill="#D543ED"/>
        <rect width="1.14231" height="1.14231" x="15.5508" y="18.7617" fill="#D543ED"/>
        <rect width="1.14231" height="1.14231" x="14.4092" y="19.9043" fill="#D543ED"/>
        <rect width="1.14231" height="1.14231" x="12.124" y="19.9043" fill="#D543ED"/>
        <rect width="1.14231" height="1.14231" x="13.2666" y="19.9043" fill="#D543ED"/>
        <rect width="1.14231" height="1.14231" x="10.9824" y="19.9043" fill="#D543ED"/>
        <rect width="1.14231" height="1.14231" x="9.83984" y="19.9043" fill="#D543ED"/>
        <rect width="1.14231" height="1.14231" x="8.69727" y="19.9043" fill="#D543ED"/>
        <rect width="1.14231" height="1.14231" x="8.69727" y="18.7617" fill="#D543ED"/>
        <rect width="1.14231" height="1.14231" x="7.55469" y="18.7617" fill="#D543ED"/>
        <rect width="1.14231" height="1.14231" x="6.41309" y="17.6191" fill="#D543ED"/>
        <rect width="1.14231" height="1.14231" x="5.27051" y="14.1924" fill="#D543ED"/>
        <rect width="1.14231" height="1.14231" x="5.27051" y="10.7656" fill="#D543ED"/>
        <rect width="1.14231" height="1.14231" x="6.41309" y="8.48145" fill="#D543ED"/>
        <rect width="1.14231" height="1.14231" x="8.69727" y="8.48145" fill="#D543ED"/>
        <rect width="1.14231" height="1.14231" x="9.83984" y="7.33887" fill="#D543ED"/>
        <rect width="1.14231" height="1.14231" x="6.41309" y="6.19629" fill="#D543ED"/>
        <rect width="1.14231" height="1.14231" x="7.55469" y="5.05371" fill="#D543ED"/>
        <rect width="1.14231" height="1.14231" x="6.41309" y="2.76953" fill="#D543ED"/>
        <rect width="1.14231" height="1.14231" x="7.55469" y="7.33887" fill="#9250FF"/>
        <rect width="1.14231" height="1.14231" x="6.41309" y="16.4775" fill="#D543ED"/>
        <rect width="1.14231" height="1.14231" x="5.27051" y="13.0508" fill="#D543ED"/>
        <rect width="1.14231" height="1.14231" x="6.41309" y="10.7656" fill="#D543ED"/>
        <rect width="1.14231" height="1.14231" x="5.27051" y="15.335" fill="#D543ED"/>
        <rect width="1.14231" height="1.14231" x="5.27051" y="11.9082" fill="#D543ED"/>
        <rect width="1.14231" height="1.14231" x="6.41309" y="9.62305" fill="#D543ED"/>
        <rect width="1.14231" height="1.14231" x="6.41309" y="7.33887" fill="#D543ED"/>
        <rect width="1.14231" height="1.14231" x="7.55469" y="8.48145" fill="#D543ED"/>
        <rect width="1.14231" height="1.14231" x="9.83984" y="8.48145" fill="#D543ED"/>
        <rect width="1.14231" height="1.14231" x="9.83984" y="6.19629" fill="#D543ED"/>
        <rect width="1.14231" height="1.14231" x="10.9824" y="6.19629" fill="#D543ED"/>
        <rect width="1.14231" height="1.14231" x="14.4092" y="6.19629" fill="#D543ED"/>
        <rect width="1.14231" height="1.14231" x="10.9824" y="3.91211" fill="#D543ED"/>
        <rect width="1.14231" height="1.14231" x="15.5508" y="5.05371" fill="#D543ED"/>
        <rect width="1.14231" height="1.14231" x="12.124" y="3.91211" fill="#D543ED"/>
        <rect width="1.14231" height="1.14231" x="9.83984" y="3.91211" fill="#D543ED"/>
        <rect width="1.14231" height="1.14231" x="9.83984" y="2.76953" fill="#D543ED"/>
        <rect width="1.14231" height="1.14231" x="10.9824" y="7.33887" fill="#D543ED"/>
        <rect width="1.14231" height="1.14231" x="14.4092" y="7.33887" fill="#D543ED"/>
        <rect width="1.14231" height="1.14231" x="10.9824" y="5.05371" fill="#D543ED"/>
        <rect width="1.14231" height="1.14231" x="12.124" y="5.05371" fill="#D543ED"/>
        <rect width="1.14231" height="1.14231" x="13.2666" y="5.05371" fill="#D543ED"/>
        <rect width="1.14231" height="1.14231" x="13.2666" y="6.19629" fill="#D543ED"/>
        <rect width="1.14231" height="1.14231" x="16.6934" y="10.7656" fill="#D543ED"/>
        <rect width="1.14231" height="1.14231" x="16.6934" y="9.62305" fill="#D543ED"/>
        <rect width="1.14231" height="1.14231" x="15.5508" y="9.62305" fill="#D543ED"/>
        <rect width="1.14231" height="1.14231" x="15.5508" y="8.48145" fill="#D543ED"/>
        <rect width="1.14231" height="1.14231" x="15.5508" y="7.33887" fill="#D543ED"/>
    </g>
    <defs>
        <clipPath id="clip0_972_42167">
            <rect width="24" height="24" x="0.078125" fill="white" rx="12"/>
        </clipPath>
    </defs>
</svg>
