<svg fill="none" height="16" width="15" xmlns="http://www.w3.org/2000/svg"><rect fill="#3e2469" height="15" rx="7.5" width="15" y=".5"/><path d="m4.152 2.546h.675v.675h-.675zm1.35 1.35h-.675v.675h-.675v2.7h-.674v3.374h.674v1.35h.675v.674h.675v.675h4.05v-.675h.675v-.675h.674v-.674h.675v-3.375h-.675v-1.35h-.675v-1.35h-.674v-.674h.675v-.675h-.675v.675h-.675v-.675h-.675v-.676h-1.35v-.675h-.675v1.35h.675v.675h-.675v1.35h-.675v-.676h-.675v-.674h.675v-.675z" fill="#a844da"/><path d="m7.527 4.571h.675v.675h.675v.675h.675v1.35h.674v1.35h.675v2.7h-.675v.674h-.674v.675h-3.375v-.675h-1.35v-1.35h-.675v-2.7h.675v-1.348h2.025v-.675h.675v-1.35zm-2.025.675h-.675v.675h.675z" fill="#9250ff"/><path d="m7.528 5.92h.675v.676h-.675z" fill="#9787fc"/><path d="m9.552 9.295v-1.35h-.674v-1.35h-.675v.676h-1.35v.675h-.675v-.676h-.675v1.35h-.675v3.374h1.35v.675h3.374v-1.35h.675v-2.024z" fill="#9787fc"/><g fill="#fff"><path d="m8.203 7.27h-.675v.675h.675v-.674z"/><path clip-rule="evenodd" d="m6.178 8.62v.675h-.675v2.7h.675v.675h2.7v-.675h.674v-2.7h-.675v-.675h-2.7zm0 1.35h.675v1.35h-.675zm2.7 1.35v-1.35h-.675v1.35h.674z" fill-rule="evenodd"/></g></svg>