<svg width="16" height="16" viewBox="0 0 16 16" fill="none" xmlns="http://www.w3.org/2000/svg">
    <path d="M8.00033 7.99967C9.84127 7.99967 11.3337 6.50729 11.3337 4.66634C11.3337 2.82539 9.84127 1.33301 8.00033 1.33301C6.15938 1.33301 4.66699 2.82539 4.66699 4.66634C4.66699 6.50729 6.15938 7.99967 8.00033 7.99967Z" stroke="currentColor" stroke-width="1.5" stroke-linecap="round" stroke-linejoin="round"/>
    <path d="M2.27344 14.6667C2.27344 12.0867 4.8401 10 8.0001 10C8.6401 10 9.26011 10.0867 9.84011 10.2467" stroke="currentColor" stroke-width="1.5" stroke-linecap="round" stroke-linejoin="round"/>
    <path d="M14.6663 11.9997C14.6663 12.4997 14.5264 12.973 14.2797 13.373C14.1397 13.613 13.9597 13.8263 13.753 13.9997C13.2863 14.4197 12.673 14.6663 11.9997 14.6663C11.0263 14.6663 10.1797 14.1463 9.71967 13.373C9.473 12.973 9.33301 12.4997 9.33301 11.9997C9.33301 11.1597 9.71967 10.4063 10.333 9.91968C10.793 9.55301 11.373 9.33301 11.9997 9.33301C13.473 9.33301 14.6663 10.5263 14.6663 11.9997Z" stroke="currentColor" stroke-width="1.5" stroke-miterlimit="10" stroke-linecap="round" stroke-linejoin="round"/>
    <path d="M10.96 12L11.62 12.66L13.04 11.3467" stroke="currentColor" stroke-width="1.5" stroke-linecap="round" stroke-linejoin="round"/>
</svg>
