<svg width="20" height="20" viewBox="0 0 20 20" fill="none" xmlns="http://www.w3.org/2000/svg">
    <path
        d="M14.167 8.33366H15.8337C17.5003 8.33366 18.3337 7.50033 18.3337 5.83366V4.16699C18.3337 2.50033 17.5003 1.66699 15.8337 1.66699H14.167C12.5003 1.66699 11.667 2.50033 11.667 4.16699V5.83366C11.667 7.50033 12.5003 8.33366 14.167 8.33366Z"
        stroke="currentColor" stroke-width="1.5" stroke-miterlimit="10" stroke-linecap="round"
        stroke-linejoin="round" />
    <path
        d="M4.16699 18.3337H5.83366C7.50033 18.3337 8.33366 17.5003 8.33366 15.8337V14.167C8.33366 12.5003 7.50033 11.667 5.83366 11.667H4.16699C2.50033 11.667 1.66699 12.5003 1.66699 14.167V15.8337C1.66699 17.5003 2.50033 18.3337 4.16699 18.3337Z"
        stroke="currentColor" stroke-width="1.5" stroke-miterlimit="10" stroke-linecap="round"
        stroke-linejoin="round" />
    <path
        d="M5.00033 8.33366C6.84127 8.33366 8.33366 6.84127 8.33366 5.00033C8.33366 3.15938 6.84127 1.66699 5.00033 1.66699C3.15938 1.66699 1.66699 3.15938 1.66699 5.00033C1.66699 6.84127 3.15938 8.33366 5.00033 8.33366Z"
        stroke="currentColor" stroke-width="1.5" stroke-miterlimit="10" stroke-linecap="round"
        stroke-linejoin="round" />
    <path
        d="M15.0003 18.3337C16.8413 18.3337 18.3337 16.8413 18.3337 15.0003C18.3337 13.1594 16.8413 11.667 15.0003 11.667C13.1594 11.667 11.667 13.1594 11.667 15.0003C11.667 16.8413 13.1594 18.3337 15.0003 18.3337Z"
        stroke="currentColor" stroke-width="1.5" stroke-miterlimit="10" stroke-linecap="round"
        stroke-linejoin="round" />
</svg>
    