<svg xmlns="http://www.w3.org/2000/svg" width="18" height="18" viewBox="0 0 18 18" fill="none">
    <path
        d="M9 9C11.0711 9 12.75 7.32107 12.75 5.25C12.75 3.17893 11.0711 1.5 9 1.5C6.92893 1.5 5.25 3.17893 5.25 5.25C5.25 7.32107 6.92893 9 9 9Z"
        stroke="currentColor" stroke-width="1.5" stroke-linecap="round" stroke-linejoin="round" />
    <path d="M2.55762 16.5C2.55762 13.5975 5.44511 11.25 9.00011 11.25C9.72011 11.25 10.4176 11.3475 11.0701 11.5275"
        stroke="currentColor" stroke-width="1.5" stroke-linecap="round" stroke-linejoin="round" />
    <path
        d="M16.5 13.5C16.5 13.74 16.47 13.9725 16.41 14.1975C16.3425 14.4975 16.2225 14.79 16.065 15.045C15.5475 15.915 14.595 16.5 13.5 16.5C12.7275 16.5 12.03 16.2075 11.505 15.7275C11.28 15.5325 11.085 15.3 10.935 15.045C10.6575 14.595 10.5 14.0625 10.5 13.5C10.5 12.69 10.8225 11.9475 11.3475 11.4075C11.895 10.845 12.66 10.5 13.5 10.5C14.385 10.5 15.1875 10.8825 15.7275 11.4975C16.2075 12.03 16.5 12.735 16.5 13.5Z"
        stroke="currentColor" stroke-width="1.5" stroke-miterlimit="10" stroke-linecap="round"
        stroke-linejoin="round" />
    <path d="M14.6178 13.4844H12.3828" stroke="currentColor" stroke-width="1.5" stroke-miterlimit="10"
        stroke-linecap="round" stroke-linejoin="round" />
    <path d="M13.5 12.3896V14.6321" stroke="currentColor" stroke-width="1.5" stroke-miterlimit="10"
        stroke-linecap="round" stroke-linejoin="round" />
</svg>