<svg xmlns="http://www.w3.org/2000/svg" width="20" height="20" fill="none">
    <path fill="currentColor"
        d="M15.56 1.67h-1.58c-1.82 0-2.78.96-2.78 2.77v1.59c0 1.81.96 2.77 2.78 2.77h1.58c1.82 0 2.77-.96 2.77-2.77V4.44c0-1.81-.95-2.77-2.77-2.77ZM6.03 11.2H4.45c-1.82 0-2.78.95-2.78 2.77v1.58c0 1.82.96 2.78 2.77 2.78h1.59c1.81 0 2.77-.96 2.77-2.77v-1.59c0-1.82-.95-2.78-2.77-2.78ZM5.24 8.82a3.57 3.57 0 1 0 0-7.15 3.57 3.57 0 0 0 0 7.15ZM14.76 18.33a3.58 3.58 0 1 0 0-7.15 3.58 3.58 0 0 0 0 7.15Z" />
</svg>
