<svg xmlns="http://www.w3.org/2000/svg" width="200" height="143" fill="none" viewBox="0 0 200 143">
    <path fill="currentColor" d="M57.143 5.374c0 .989-.8 1.79-1.786 1.79h-3.571C50.8 7.165 50 7.968 50 8.957v10.15c0 .99.8 1.792 1.786 1.792h3.571c.986 0 1.786-.802 1.786-1.791v-3.284c0-.99.8-1.792 1.786-1.792H62.5c.986 0 1.786.802 1.786 1.791v3.583c0 .99-.8 1.791-1.786 1.791H58.93c-.986 0-1.786.802-1.786 1.791v3.284c0 .99-.8 1.792-1.786 1.792h-3.571A1.788 1.788 0 0 1 50 26.27v-3.284c0-.989-.8-1.79-1.786-1.79h-3.571a1.788 1.788 0 0 1-1.786-1.792V8.658c0-.99.8-1.792 1.786-1.792h3.571c.986 0 1.786-.802 1.786-1.79V1.79C50 .802 50.8 0 51.786 0h3.571c.986 0 1.786.802 1.786 1.791v3.583ZM135.714 19.405c0 .99.8 1.791 1.786 1.791h3.572c.986 0 1.785-.802 1.785-1.791v-3.583c0-.989-.799-1.79-1.785-1.79H137.5c-.986 0-1.786.801-1.786 1.79v3.583ZM100 73.142c0 .99-.8 1.791-1.786 1.791h-3.571a1.789 1.789 0 0 1-1.786-1.791V62.395c0-.99.8-1.792 1.786-1.792h3.571c.987 0 1.786.802 1.786 1.792v10.747ZM71.429 73.142c0 .99.8 1.791 1.785 1.791h3.572c.986 0 1.785-.802 1.785-1.791V62.395c0-.99-.8-1.792-1.785-1.792h-3.572c-.986 0-1.785.802-1.785 1.792v10.747Z"/>
    <path fill="currentColor" fill-rule="evenodd" d="M76.786 35.526c.986 0 1.785-.802 1.785-1.791v-3.583c0-.989.8-1.79 1.786-1.79H112.5c.986 0 1.786.801 1.786 1.79v3.583c0 .99.799 1.791 1.785 1.791h10.715c.986 0 1.785.802 1.785 1.791v10.748c0 .989.8 1.79 1.786 1.79h3.572c.986 0 1.785.803 1.785 1.792v10.748c0 .989.8 1.79 1.786 1.79h3.571c.987 0 1.786.803 1.786 1.792v17.912c0 .99.8 1.792 1.786 1.792h3.571c.987 0 1.786.802 1.786 1.79v3.583c0 .99.799 1.791 1.786 1.791h3.571c.986 0 1.786-.802 1.786-1.79v-3.583c0-.99.799-1.791 1.786-1.791h3.571c.986 0 1.786.802 1.786 1.79v17.913c0 .989-.8 1.791-1.786 1.791h-3.571c-.987 0-1.786.802-1.786 1.792v10.747c0 .989-.8 1.791-1.786 1.791h-3.571c-.987 0-1.786.802-1.786 1.791v3.583c0 .989-.799 1.791-1.786 1.791h-3.571c-.986 0-1.786.802-1.786 1.791v3.583c0 .989-.799 1.791-1.786 1.791h-10.714c-.986 0-1.786.802-1.786 1.791v3.583c0 .989-.799 1.791-1.785 1.791H87.5a1.788 1.788 0 0 1-1.786-1.791v-3.583c0-.989-.8-1.791-1.785-1.791H73.214a1.788 1.788 0 0 1-1.785-1.791v-3.583c0-.989-.8-1.791-1.786-1.791H66.07a1.788 1.788 0 0 1-1.785-1.791V114.34h5.357c.986 0 1.786-.802 1.786-1.791v-5.374h5.357c.986 0 1.785-.802 1.785-1.791V94.637c0-.99-.8-1.791-1.785-1.791h-3.572c-.986 0-1.785.801-1.785 1.79v12.539H66.07c-.986 0-1.785.802-1.785 1.792v5.373h-12.5A1.788 1.788 0 0 1 50 112.549v-3.582c0-.99-.8-1.792-1.786-1.792h-3.571a1.788 1.788 0 0 1-1.786-1.791V87.472c0-.99.8-1.791 1.786-1.791h3.571c.986 0 1.786-.802 1.786-1.792V65.977c0-.99.8-1.791 1.786-1.791h3.571c.986 0 1.786-.802 1.786-1.791V51.647c0-.99.8-1.791 1.786-1.791H62.5c.986 0 1.786-.802 1.786-1.791V37.317c0-.989.8-1.79 1.785-1.79h10.715Zm57.143 71.649c.986 0 1.785-.802 1.785-1.791V94.637c0-.99-.799-1.791-1.785-1.791h-3.572c-.986 0-1.786.801-1.786 1.79v12.539h-5.357c-.986 0-1.785.802-1.785 1.792v5.373h-14.286v-5.373c0-.99-.8-1.792-1.786-1.792H100V94.637c0-.99-.8-1.791-1.786-1.791h-3.571c-.986 0-1.786.801-1.786 1.79v10.748c0 .989.8 1.791 1.786 1.791H100v5.374c0 .989.799 1.791 1.786 1.791h5.357v5.374c0 .989.799 1.791 1.786 1.791h10.714c.986 0 1.786-.802 1.786-1.791v-5.374h5.357c.986 0 1.785-.802 1.785-1.791v-5.374h5.358Zm-62.5-26.868c0-.99-.8-1.791-1.786-1.791H66.07a1.789 1.789 0 0 1-1.785-1.792V58.812c0-.99.8-1.791 1.785-1.791h3.572c.986 0 1.786-.802 1.786-1.791v-3.583c0-.99.8-1.791 1.785-1.791h32.143c.986 0 1.786.802 1.786 1.791v3.583c0 .989.799 1.79 1.786 1.79h3.571c.986 0 1.786.803 1.786 1.792v17.912c0 .99-.8 1.792-1.786 1.792h-3.571c-.987 0-1.786.802-1.786 1.79v3.583c0 .99-.8 1.792-1.786 1.792H73.214a1.788 1.788 0 0 1-1.785-1.792v-3.582Z" clip-rule="evenodd"/>
    <path fill="currentColor" d="M157.143 40.9c0 .99-.799 1.791-1.786 1.791h-3.571A1.789 1.789 0 0 1 150 40.9v-3.583c0-.989.8-1.79 1.786-1.79h3.571c.987 0 1.786.801 1.786 1.79V40.9ZM178.572 30.45c0-.988.799-1.79 1.785-1.79h10.715c.986 0 1.785.802 1.785 1.79v3.583c0 .99-.799 1.792-1.785 1.792h-10.715c-.986 0-1.785.802-1.785 1.79V55.23c0 .989.799 1.79 1.785 1.79h10.714c.987 0 1.786-.801 1.786-1.79v-3.284c0-.99-.799-1.791-1.786-1.791H187.5a1.789 1.789 0 0 1-1.786-1.792v-3.582c0-.99.8-1.791 1.786-1.791h3.572c.986 0 1.785.801 1.785 1.79v3.583c0 .99.8 1.791 1.786 1.791h3.571c.987 0 1.786.802 1.786 1.792v3.582c0 .99-.799 1.791-1.786 1.791h-3.571c-.986 0-1.786.802-1.786 1.792v3.284c0 .989-.799 1.79-1.786 1.79h-10.714a1.789 1.789 0 0 1-1.786-1.79v-3.583c0-.99-.799-1.791-1.785-1.791h-3.572a1.788 1.788 0 0 1-1.785-1.791V37.317c0-.989.799-1.79 1.785-1.79h3.572c.986 0 1.786-.803 1.786-1.792V30.45ZM0 91.054c0 .99.8 1.791 1.786 1.791h3.571c.986 0 1.786.802 1.786 1.792v3.284c0 .989.8 1.79 1.786 1.79h10.714c.986 0 1.786-.801 1.786-1.79v-3.284c0-.99.8-1.791 1.785-1.791h3.572c.986 0 1.785-.803 1.785-1.792v-3.582c0-.99-.8-1.791-1.785-1.791h-3.572a1.788 1.788 0 0 1-1.785-1.792v-3.284c0-.989-.8-1.79-1.786-1.79H16.07c-.986 0-1.785.801-1.785 1.79v3.583c0 .99.8 1.791 1.785 1.791h3.572c.986 0 1.786.802 1.786 1.791v2.986c0 .989-.8 1.791-1.786 1.791H8.929a1.789 1.789 0 0 1-1.786-1.791V73.44c0-.989.8-1.79 1.786-1.79h10.714c.986 0 1.786-.803 1.786-1.792v-3.582c0-.99-.8-1.792-1.786-1.792H8.929c-.987 0-1.786.802-1.786 1.792v3.284c0 .989-.8 1.79-1.786 1.79H1.786C.799 71.35 0 72.154 0 73.143v17.912ZM164.286 76.724c0 .99.799 1.792 1.786 1.792h3.571c.986 0 1.786-.802 1.786-1.792v-3.582c0-.99-.8-1.791-1.786-1.791h-3.571c-.987 0-1.786.802-1.786 1.791v3.582ZM35.714 55.23c0 .989-.8 1.79-1.785 1.79h-3.572a1.789 1.789 0 0 1-1.785-1.79v-3.583c0-.99.8-1.791 1.785-1.791h3.572c.986 0 1.785.802 1.785 1.791v3.583Z"/>
</svg>

