<svg xmlns="http://www.w3.org/2000/svg" width="49" height="48" fill="none">
    <rect width="46.909" height="46.909" x=".746" y=".545" fill="#fff" rx="23.454" />
    <rect width="46.909" height="46.909" x=".746" y=".545" stroke="#E8E8FF" stroke-width="1.091"
        rx="23.454" />
    <path fill="#4285F4"
        d="M35.868 24.26c0-.96-.08-1.66-.251-2.385H24.44v4.33H31c-.132 1.076-.846 2.696-2.434 3.785l-.022.145 3.534 2.683.245.024c2.249-2.035 3.545-5.03 3.545-8.582Z" />
    <path fill="#34A853"
        d="M24.439 35.667c3.214 0 5.912-1.037 7.883-2.826l-3.756-2.852c-1.006.687-2.355 1.167-4.127 1.167a7.153 7.153 0 0 1-6.773-4.848l-.14.011-3.674 2.787-.048.131c1.957 3.811 5.978 6.43 10.635 6.43Z" />
    <path fill="#FBBC05"
        d="M17.666 26.306A7.053 7.053 0 0 1 17.27 24c0-.804.145-1.582.383-2.307l-.006-.155-3.721-2.832-.122.057a11.487 11.487 0 0 0-1.27 5.237c0 1.88.463 3.655 1.27 5.237l3.862-2.93Z" />
    <path fill="#EB4335"
        d="M24.439 16.844c2.235 0 3.743.946 4.603 1.737l3.36-3.215c-2.064-1.88-4.75-3.033-7.963-3.033-4.657 0-8.678 2.618-10.635 6.43l3.849 2.93c.966-2.814 3.638-4.849 6.786-4.849Z" />
</svg>