<svg xmlns="http://www.w3.org/2000/svg" width="26" height="25" viewBox="0 0 26 25" fill="none">
    <g clip-path="url(#clip0_35087_79901)">
        <path
            d="M24.7455 12.7602C24.7455 11.8009 24.666 11.1009 24.4941 10.375H13.3169V14.7046H19.8777C19.7455 15.7805 19.0312 17.4009 17.4438 18.4897L17.4216 18.6347L20.9556 21.3177L21.2005 21.3417C23.4491 19.3065 24.7455 16.312 24.7455 12.7602Z"
            fill="#4285F4" />
        <path
            d="M13.3163 24.167C16.5305 24.167 19.2289 23.1299 21.1999 21.341L17.4432 18.4891C16.438 19.1761 15.0887 19.6557 13.3163 19.6557C10.1682 19.6557 7.49626 17.6206 6.5438 14.8076L6.40418 14.8192L2.72945 17.6063L2.6814 17.7372C4.63904 21.5484 8.6602 24.167 13.3163 24.167Z"
            fill="#34A853" />
        <path
            d="M6.54433 14.8063C6.29301 14.0804 6.14756 13.3026 6.14756 12.4989C6.14756 11.6952 6.29301 10.9174 6.53111 10.1915L6.52445 10.0369L2.80366 7.20508L2.68192 7.26183C1.87508 8.84333 1.41211 10.6193 1.41211 12.4989C1.41211 14.3785 1.87508 16.1544 2.68192 17.7359L6.54433 14.8063Z"
            fill="#FBBC05" />
        <path
            d="M13.3164 5.34409C15.5518 5.34409 17.0597 6.29038 17.9195 7.08117L21.2793 3.86634C19.2159 1.98672 16.5306 0.833008 13.3164 0.833008C8.66023 0.833008 4.63905 3.45151 2.6814 7.26259L6.53059 10.1923C7.49629 7.3793 10.1682 5.34409 13.3164 5.34409Z"
            fill="#EB4335" />
    </g>
    <defs>
        <clipPath id="clip0_35087_79901">
            <rect width="25.3333" height="24" fill="white" transform="translate(0.411133 0.5)" />
        </clipPath>
    </defs>
</svg>