<svg fill="none" height="48" width="49" xmlns="http://www.w3.org/2000/svg"><rect fill="#fff" height="46.909" rx="23.454" width="46.909" x=".746" y=".545"/><rect height="46.909" rx="23.454" stroke="#e8e8ff" stroke-width="1.091" width="46.909" x=".746" y=".545"/><path d="m35.868 24.26c0-.96-.08-1.66-.251-2.385h-11.177v4.33h6.56c-.132 1.076-.846 2.696-2.434 3.785l-.022.145 3.534 2.683.245.024c2.249-2.035 3.545-5.03 3.545-8.582z" fill="#4285f4"/><path d="m24.439 35.667c3.214 0 5.912-1.037 7.883-2.826l-3.756-2.852c-1.006.687-2.355 1.167-4.127 1.167a7.153 7.153 0 0 1 -6.773-4.848l-.14.011-3.674 2.787-.048.131c1.957 3.811 5.978 6.43 10.635 6.43z" fill="#34a853"/><path d="m17.666 26.306a7.053 7.053 0 0 1 -.396-2.306c0-.804.145-1.582.383-2.307l-.006-.155-3.721-2.832-.122.057a11.487 11.487 0 0 0 -1.27 5.237c0 1.88.463 3.655 1.27 5.237l3.862-2.93z" fill="#fbbc05"/><path d="m24.439 16.844c2.235 0 3.743.946 4.603 1.737l3.36-3.215c-2.064-1.88-4.75-3.033-7.963-3.033-4.657 0-8.678 2.618-10.635 6.43l3.849 2.93c.966-2.814 3.638-4.849 6.786-4.849z" fill="#eb4335"/></svg>