<svg fill="none" height="25" viewBox="0 0 26 25" width="26" xmlns="http://www.w3.org/2000/svg" xmlns:xlink="http://www.w3.org/1999/xlink"><clipPath id="a"><path d="m.411133.5h25.3333v24h-25.3333z"/></clipPath><g clip-path="url(#a)"><path d="m24.7455 12.7602c0-.9593-.0795-1.6593-.2514-2.3852h-11.1772v4.3296h6.5608c-.1322 1.0759-.8465 2.6963-2.4339 3.7851l-.0222.145 3.534 2.683.2449.024c2.2486-2.0352 3.545-5.0297 3.545-8.5815z" fill="#4285f4"/><path d="m13.3163 24.167c3.2142 0 5.9126-1.0371 7.8836-2.826l-3.7567-2.8519c-1.0052.687-2.3545 1.1666-4.1269 1.1666-3.1481 0-5.82004-2.0351-6.7725-4.8481l-.13962.0116-3.67473 2.7871-.04805.1309c1.95764 3.8112 5.9788 6.4298 10.6349 6.4298z" fill="#34a853"/><path d="m6.54433 14.8063c-.25132-.7259-.39677-1.5037-.39677-2.3074s.14545-1.5815.38355-2.3074l-.00666-.1546-3.72079-2.83182-.12174.05675c-.80684 1.5815-1.26981 3.35747-1.26981 5.23707s.46297 3.6555 1.26981 5.237z" fill="#fbbc05"/><path d="m13.3164 5.34409c2.2354 0 3.7433.94629 4.6031 1.73708l3.3598-3.21483c-2.0634-1.87962-4.7487-3.033332-7.9629-3.033332-4.65617 0-8.67735 2.618502-10.635 6.429582l3.84919 2.92971c.9657-2.813 3.63761-4.84821 6.78581-4.84821z" fill="#eb4335"/></g></svg>