<svg fill="none" height="24" viewBox="0 0 24 24" width="24" xmlns="http://www.w3.org/2000/svg"><path d="m11.9998 2.06472c-6.3307 0-11.462691 5.13198-11.462691 11.46268 0 2.1856.611961 4.2282 1.673411 5.9662l2.99462-3.1796 15.15696.0947-.1097 5.0732c1.9874-2.0614 3.2101-4.865 3.2101-7.9545 0-6.3307-5.132-11.46268-11.4627-11.46268z" fill="#33a0ff"/><path d="m6.81831 5.3318c-.55866-.03424-.98679-.51696-.95427-1.0762l.0758-1.22465c.03324-.53573.48-.95555 1.01688-.95555.02006 0 .04027.00057.06047.00186l1.22393.0758c.2708.01647.51969.13784.69994.34187.18053.20404.27052.46653.25318.73877l-.07508 1.21992c-.00444.07049-.01863.12637-.02737.15689l-.04356.21307-.80539.59634z" fill="#3dcc8e"/><path d="m6.95665 1.46014c-.86114 0-1.57741.67315-1.63071 1.53256l-.0758 1.2225-.00014.00229-.00015.00215c-.05215.89681.63475 1.67097 1.53113 1.72585l1.2.07422.44748.02765.36036-.26679.43586-.32253.3787-.28041.08698-.42512c.01719-.06519.03582-.15303.04255-.26049l.07508-1.22106c.02751-.4363-.11706-.85684-.40678-1.18438-.28843-.3264-.68776-.52127-1.12377-.54778l-1.22049-.07565h-.00172l-.00186-.00014c-.0321-.00187-.06463-.00287-.09672-.00287zm.91386 2.66808.04499-.72716-.72731-.04499-.04513.72731zm-.91386-1.43799c.00802 0 .01619.00029.02436.00072l1.22192.07579c.10703.00645.20575.05445.27697.13512.07164.08095.10732.18483.10044.29244l-.07523 1.22135c-.00114.01891-.00874.03553-.01232.05359l-.43587.32267-1.20071-.07422c-.22152-.01361-.39117-.20489-.37827-.42655l.0758-1.22236c.01318-.21334.19013-.37855.40291-.37855z" fill="#282828"/><path d="m11.9998 8.00577c-4.78598 0-8.66582 3.87983-8.66582 8.66583 0 1.7797.53674 3.4337 1.45677 4.8098h14.76605c.7772-1.4195 1.1088-3.1002 1.1088-4.8098 0-4.4295-3.8799-8.66583-8.6658-8.66583z" fill="#fff"/><g fill="#282827"><path d="m11.9997 7.39114c-5.11756 0-9.28095 4.16336-9.28095 9.28086 0 1.7596.49232 3.4065 1.34629 4.8099h1.48256c-1.0037-1.3428-1.59862-3.0082-1.59862-4.8099 0-4.4392 3.61147-8.05077 8.05072-8.05077 2.1085 0 4.1281.88277 5.6866 2.48567 1.5025 1.545 2.3642 3.5735 2.3642 5.5651 0 1.3637-.2253 3.2168-1.2043 4.8099h1.404c.6776-1.3639 1.0304-2.9946 1.0304-4.8099 0-2.3091-.9885-4.6501-2.7123-6.4228-1.7921-1.84304-4.1249-2.85806-6.5686-2.85806z"/><path d="m10.2497 19.1876c0 .4595-.37235.8319-.83186.8319s-.8319-.3724-.8319-.8319.37239-.8319.8319-.8319.83186.3724.83186.8319z"/><path d="m15.4128 19.1876c0 .4595-.3724.8319-.8319.8319s-.8319-.3724-.8319-.8319.3724-.8319.8319-.8319.8319.3724.8319.8319z"/></g><path d="m2.54492 18.8574 4.61775-4.8974-1.11146 3.4845c3.60516-2.6235 7.38989-2.2087 10.05479-1.4261 2.8286.8305 4.8089-1.6677 2.8703-4.3326-.9212-1.2665-2.1848-2.31805-3.6201-2.9558-3.7645-1.67227-7.54933-.69722-10.1025 1.8819-2.70462 2.7321-2.70878 5.7624-2.70878 8.2455z" fill="#ff6f21"/><path d="m11.5658 8.51801c-.536 0-1.0683.05345-1.59146.16105-1.59546.32812-3.07672 1.14613-4.28375 2.36544-2.00496 2.0253-2.42163 4.1991-2.50817 6.2399l5.38789-5.7143-1.42639 4.4716c2.68055-1.4015 5.74548-1.6088 9.13508-.6136 1.0786.3167 2.0562.0767 2.5516-.6262.5088-.7223.3772-1.752-.3519-2.7544-.8714-1.1978-2.0691-2.17632-3.3725-2.75547-1.156-.51353-2.357-.77402-3.5404-.77402zm-9.63611 11.88819v-1.5488c0-2.5673 0-5.7622 2.88659-8.6783 1.37839-1.39229 3.0763-2.32764 4.91018-2.70491 1.93064-.39718 3.96354-.15732 5.87924.69364 1.4977.66541 2.8714 1.78631 3.8678 3.15597 1.0378 1.4268 1.1768 3.031.3626 4.1864-.7959 1.1298-2.3279 1.5607-3.9037 1.0982-3.6343-1.0672-6.83724-.6186-9.51951 1.3334l-1.51881 1.1051.86042-2.6973z" fill="#282827"/><path d="m14.2119 7.54461c-.5475 1.42653-2.135 2.22304-3.606 1.80895-1.65721-.46667-2.53225-1.79849-2.32219-3.48781.20905-1.68 1.34428-3.15295 2.65289-4.968641-1.07491 2.288091-.1618 2.502451.1271 2.490981.2854-.01132.7021.0374 1.2951.23413 1.6158.53631 2.47 2.31503 1.8531 3.92239z" fill="#ff6f21"/><path d="m9.96908 3.3491c-.56769.89008-.96631 1.7174-1.0752 2.59257-.17237 1.38598.52986 2.44012 1.87862 2.81982 1.1709.3297 2.4292-.30161 2.8651-1.43713.2362-.61584.2116-1.28196-.0694-1.87573-.2812-.59434-.7796-1.03565-1.4033-1.24255-.5473-.18169-.8881-.21049-1.0769-.20332-.424.01662-.8153-.18083-1.046-.52872-.0266-.04012-.051-.08167-.07292-.12494zm1.42952 6.729c-.3189 0-.6412-.0428-.9596-.13251-.95508-.26895-1.71835-.80053-2.20709-1.53729-.48731-.73447-.68046-1.63988-.55881-2.61851.21493-1.72757 1.27967-3.19938 2.5125-4.903593.0831-.114913.167-.230973.2519-.348609l1.0555.621132c-.5209 1.10916-.4612 1.51981-.4338 1.61352.4191-.01275.9214.07651 1.4931.26622.9459.31393 1.7015.98292 2.1278 1.88404.4261.90039.4637 1.90997.1059 2.8426-.5428 1.41406-1.9266 2.313-3.3874 2.313z" fill="#282827"/><path d="m12.6572 12.9927c-.2153 0-.4171-.0957-.5532-.2625l-.4138-.5068c-.2398-.2937-.2055-.7235.0718-.9759-.0896-.0439-.1697-.1071-.2347-.1867l-.0944-.1156c-.2485-.3042-.2031-.7537.101-1.00203l.0595-.04857-.6061-.74393c-.2696-.33013-.2201-.81858.1103-1.08853.1385-.1129.3122-.17466.4896-.17466.233 0 .4515.10345.5992.28399l2.5853 3.18193c.2691.3297.2196.8181-.1108 1.0881-.0911.0745-.2003.1281-.3152.1546-.057.0131-.1158.0197-.1744.0197-.2014 0-.3919-.0772-.5353-.2146l-.5274.4306c-.1271.1037-.2875.1609-.4514.1609z" fill="#3dcc8e"/><path d="m12.5767 7.85238c-.2438-.29774-.6041-.46839-.9886-.46839-.2928 0-.5794.10202-.8068.28714-.5465.44647-.6279 1.25244-.1827 1.79778l.3367.41337c-.2473.42522-.2205.97772.1087 1.38082l.0633.0777c-.1489.3927-.0903.8525.194 1.2005l.4138.507c.232.2842.5757.4473.9429.4473.2797 0 .5531-.0973.7698-.2742l.2478-.2024c.1551.0652.3234.0999.4967.0999.0965 0 .1933-.011.2874-.0328.1897-.0437.3697-.132.5205-.2552.5452-.4455.6266-1.2514.1816-1.7968l-2.5827-3.17871zm-.9886.53803c.0784 0 .1562.0341.2098.09973l2.5841 3.18036c.0946.1159.0773.2864-.0385.381-.0334.0272-.0711.0449-.1102.054-.0201.0047-.0405.007-.061.007-.0786 0-.1564-.034-.2099-.0996l-.2574-.3171-.9137.7458c-.0391.0321-.0863.0476-.1333.0476-.061 0-.1216-.0265-.1633-.0775l-.4138-.5068c-.0728-.0892-.0595-.2204.0297-.2932l.9181-.7495-.3751-.4625-.4542.3711c-.0373.0302-.082.045-.1264.045-.0579 0-.1153-.0251-.1549-.0734l-.0945-.1159c-.073-.0893-.0598-.2208.0295-.2937l.4489-.36656-.9238-1.1338c-.0945-.11577-.0772-.28628.0386-.38085.0506-.04112.1112-.06118.1713-.06118z" fill="#282828"/></svg>