<svg fill="none" height="14" viewBox="0 0 14 14" width="14" xmlns="http://www.w3.org/2000/svg" xmlns:xlink="http://www.w3.org/1999/xlink"><clipPath id="a"><rect height="14" rx="4" width="14"/></clipPath><g clip-path="url(#a)"><path d="m0 0h14v14h-14z" fill="#abfe2c"/><path d="m11.4155 10.1199-.0964.0446c-.5781.2652-1.2408.3356-1.86355.1948-.33605-.0751-.6486-.2065-.93295-.3872.564.1478 1.1797.0774 1.6991-.19713.0235-.01174.0493-.02582.0728-.0399l.1011-.05632-.282-.49518-.1011.05867c-.0188.01174-.0376.02112-.0564.03051-.56165.2957-1.22435.27458-1.7719-.05398-.48645-.291-.80135-.7721-.8789-1.3189.66975-.06102 2.3124-.34733 3.6308-1.66389.0352-.0352.0705-.0704.1034-.1056.3642-.38488.5381-.84251.5005-1.32595-.0329-.42477-.2279-.83546-.5475-1.15463-.3196-.31916-.7332-.51629-1.15625-.5468-.37835-.03051-.74965.07275-1.0763.2957-.07285-.38957-.26085-.72047-.5499-.96924-.3243-.27692-.752-.42946-1.20555-.42946s-.8836.15254-1.20555.42946c-.28905.24877-.47705.57967-.5499.96924-.32665-.22295-.6956-.32621-1.0763-.2957-.42535.03285-.8366.22764-1.1562.5468-.32195.32152-.517.73221-.54755 1.15463-.0376.48344.1363.94107.50055 1.32595.0329.0352.06815.0704.1034.1056 1.31835 1.31656 2.95865 1.60287 3.63075 1.66389-.07755.5468-.3948 1.0279-.8789 1.3189-.5499.3309-1.2126.34968-1.7719.05398-.0188-.00939-.0376-.02112-.0564-.03051l-.10105-.05867-.282.49518.10105.05632c.0235.01408.04935.02816.07285.0399.5217.27453 1.1374.34493 1.69905.19713-.282.1807-.5969.3121-.93295.3872-.62275.1408-1.28545.0704-1.86355-.1948l-.09635-.0446-.29375.4929.11515.054c.6909.3238 1.504.413 2.256.2464.7802-.176 1.457-.5985 1.95755-1.22272.03055-.03755.05875-.07744.0893-.11499v1.42451h.5687v-1.42921c.03055.0399.05875.08214.09165.11969.50055.62422 1.17735 1.04672 1.95755 1.22272.25145.0563.50995.0845.7685.0845.5146 0 1.0269-.115 1.4875-.3309l.1081-.054zm-5.6377-6.15562c0-.03286-.00235-.06571-.00235-.10092 0-.04459 0-.08917.00235-.13142.02115-.8026.6486-1.16871 1.222-1.16871s1.20085.36611 1.222 1.16871c.00235.04459.00235.08918.00235.13142 0 .03521 0 .06806-.00235.10326l-.02115.76506.53345-.56323c.02115-.02347.0423-.04459.0658-.06806.03055-.03051.06345-.06102.094-.09152.5828-.5515 1.2855-.36845 1.692.03754.4066.406.5899 1.10535.0376 1.6897-.0305.03286-.0611.06337-.0916.09388-1.4876 1.49022-3.5133 1.51603-3.5321 1.51603-.02115 0-2.04215-.02581-3.53205-1.51369-.03055-.03051-.0611-.06336-.09165-.09387-.55225-.58435-.36895-1.2837.0376-1.6897.2444-.24407.56635-.38487.88125-.38487.29375 0 .56635.11734.81075.34732.0329.03051.06345.06102.094.09153.0235.02581.047.04928.07285.0751l.52875.55619z" fill="#00501e"/></g></svg>