<svg fill="none" height="48" viewBox="0 0 48 48" width="48" xmlns="http://www.w3.org/2000/svg"><circle cx="24" cy="24" fill="#abfe2c" r="24"/><path d="m38.1 34.95-.32.14a9.38 9.38 0 0 1 -8.92-.61 7.57 7.57 0 0 0 5.66-.76l.32-.18-.9-1.58-.32.19c-.06.03-.13.06-.18.1a5.84 5.84 0 0 1 -8.46-4.39c2.13-.2 7.37-1.11 11.58-5.32l.33-.34a5.46 5.46 0 0 0 1.6-4.24 5.9 5.9 0 0 0 -1.75-3.69 5.88 5.88 0 0 0 -3.69-1.74c-1.2-.1-2.39.23-3.43.94a5.3 5.3 0 0 0 -1.76-3.1 5.9 5.9 0 0 0 -3.84-1.37c-1.45 0-2.82.49-3.85 1.37a5.3 5.3 0 0 0 -1.76 3.1 5.27 5.27 0 0 0 -3.43-.95 5.9 5.9 0 0 0 -3.7 1.75 5.86 5.86 0 0 0 -1.74 3.7c-.12 1.54.44 3 1.6 4.23l.33.34c4.2 4.2 9.44 5.12 11.58 5.32a5.86 5.86 0 0 1 -8.46 4.38l-.18-.1-.32-.18-.9 1.58.33.18.23.13a7.58 7.58 0 0 0 5.42.63 9.38 9.38 0 0 1 -8.93.62l-.3-.15-.94 1.57.37.18c2.2 1.03 4.8 1.32 7.2.78a11.04 11.04 0 0 0 6.25-3.9l.28-.37v4.55h1.81v-4.56l.3.38a11.04 11.04 0 0 0 8.7 4.18c1.64 0 3.28-.37 4.75-1.06l.34-.18zm-18-19.67v-.75c.07-2.56 2.07-3.73 3.9-3.73s3.83 1.17 3.9 3.73v.75l-.07 2.45 1.7-1.8.21-.22.3-.29c1.87-1.76 4.1-1.18 5.4.12s1.89 3.53.13 5.4l-.3.3c-4.75 4.76-11.21 4.85-11.27 4.85-.07 0-6.52-.09-11.27-4.84l-.3-.3c-1.76-1.87-1.17-4.1.13-5.4a4.05 4.05 0 0 1 2.8-1.23c.95 0 1.82.37 2.6 1.1l.3.3.23.24 1.69 1.78z" fill="#00501e"/></svg>