<svg width="16" height="16" viewBox="0 0 16 16" fill="none" xmlns="http://www.w3.org/2000/svg">
    <path d="M14.5765 13.11L14.433 13.1765C13.572 13.572 12.585 13.677 11.6575 13.467C11.157 13.355 10.6915 13.159 10.268 12.8895C11.108 13.11 12.025 13.005 12.7985 12.5955C12.8335 12.578 12.872 12.557 12.907 12.536L13.0575 12.452L12.6375 11.7135L12.487 11.801C12.459 11.8185 12.431 11.8325 12.403 11.8465C11.5665 12.2875 10.5795 12.256 9.764 11.766C9.0395 11.332 8.5705 10.6145 8.455 9.799C9.4525 9.708 11.899 9.281 13.8625 7.3175C13.915 7.265 13.9675 7.2125 14.0165 7.16C14.559 6.586 14.818 5.9035 14.762 5.1825C14.713 4.549 14.4225 3.9365 13.9465 3.4605C13.4705 2.9845 12.8545 2.6905 12.2245 2.645C11.661 2.5995 11.108 2.7535 10.6215 3.086C10.513 2.505 10.233 2.0115 9.8025 1.6405C9.3195 1.2275 8.6825 1 8.007 1C7.3315 1 6.691 1.2275 6.2115 1.6405C5.781 2.0115 5.501 2.505 5.3925 3.086C4.906 2.7535 4.3565 2.5995 3.7895 2.645C3.156 2.694 2.5435 2.9845 2.0675 3.4605C1.588 3.94 1.2975 4.5525 1.252 5.1825C1.196 5.9035 1.455 6.586 1.9975 7.16C2.0465 7.2125 2.099 7.265 2.1515 7.3175C4.115 9.281 6.558 9.708 7.559 9.799C7.4435 10.6145 6.971 11.332 6.25 11.766C5.431 12.2595 4.444 12.2875 3.611 11.8465C3.583 11.8325 3.555 11.815 3.527 11.801L3.3765 11.7135L2.9565 12.452L3.107 12.536C3.142 12.557 3.1805 12.578 3.2155 12.5955C3.9925 13.005 4.9095 13.11 5.746 12.8895C5.326 13.159 4.857 13.355 4.3565 13.467C3.429 13.677 2.442 13.572 1.581 13.1765L1.4375 13.11L1 13.845L1.1715 13.9255C2.2005 14.4085 3.4115 14.5415 4.5315 14.293C5.6935 14.0305 6.7015 13.4005 7.447 12.4695C7.4925 12.4135 7.5345 12.354 7.58 12.298V14.4225H8.427V12.291C8.4725 12.3505 8.5145 12.4135 8.5635 12.4695C9.309 13.4005 10.317 14.0305 11.479 14.293C11.8535 14.377 12.2385 14.419 12.6235 14.419C13.39 14.419 14.153 14.2475 14.839 13.9255L15 13.845L14.5765 13.11ZM6.18 3.9295C6.18 3.8805 6.1765 3.8315 6.1765 3.779C6.1765 3.7125 6.1765 3.646 6.18 3.583C6.2115 2.386 7.146 1.84 8 1.84C8.854 1.84 9.7885 2.386 9.82 3.583C9.8235 3.6495 9.8235 3.716 9.8235 3.779C9.8235 3.8315 9.8235 3.8805 9.82 3.933L9.7885 5.074L10.583 4.234C10.6145 4.199 10.646 4.1675 10.681 4.1325C10.7265 4.087 10.7755 4.0415 10.821 3.996C11.689 3.1735 12.7355 3.4465 13.341 4.052C13.9465 4.6575 14.2195 5.7005 13.397 6.572C13.3515 6.621 13.306 6.6665 13.2605 6.712C11.045 8.9345 8.028 8.973 8 8.973C7.9685 8.973 4.9585 8.9345 2.7395 6.7155C2.694 6.67 2.6485 6.621 2.603 6.5755C1.7805 5.704 2.0535 4.661 2.659 4.0555C3.023 3.6915 3.5025 3.4815 3.9715 3.4815C4.409 3.4815 4.815 3.6565 5.179 3.9995C5.228 4.045 5.2735 4.0905 5.319 4.136C5.354 4.1745 5.389 4.2095 5.4275 4.248L6.215 5.0775L6.18 3.9295Z" fill="currentColor"/>
</svg>
