<svg width="14" height="14" viewBox="0 0 14 14" fill="none" xmlns="http://www.w3.org/2000/svg">
    <g clip-path="url(#clip0_16962_30265)">
        <rect width="14" height="14" fill="#ABFE2C" />
        <path
            d="M11.4155 10.1199L11.3191 10.1645C10.741 10.4297 10.0783 10.5001 9.45555 10.3593C9.1195 10.2842 8.80695 10.1528 8.5226 9.9721C9.0866 10.1199 9.7023 10.0495 10.2217 9.77497C10.2452 9.76323 10.271 9.74915 10.2945 9.73507L10.3956 9.67875L10.1136 9.18357L10.0125 9.24224C9.9937 9.25398 9.9749 9.26336 9.9561 9.27275C9.39445 9.56845 8.73175 9.54733 8.1842 9.21877C7.69775 8.92777 7.38285 8.44667 7.3053 7.89987C7.97505 7.83885 9.6177 7.55254 10.9361 6.23598C10.9713 6.20078 11.0066 6.16558 11.0395 6.13038C11.4037 5.7455 11.5776 5.28787 11.54 4.80443C11.5071 4.37966 11.3121 3.96897 10.9925 3.6498C10.6729 3.33064 10.2593 3.13351 9.83625 3.103C9.4579 3.07249 9.0866 3.17575 8.75995 3.3987C8.6871 3.00913 8.4991 2.67823 8.21005 2.42946C7.88575 2.15254 7.45805 2 7.0045 2C6.55095 2 6.1209 2.15254 5.79895 2.42946C5.5099 2.67823 5.3219 3.00913 5.24905 3.3987C4.9224 3.17575 4.55345 3.07249 4.17275 3.103C3.7474 3.13585 3.33615 3.33064 3.01655 3.6498C2.6946 3.97132 2.49955 4.38201 2.469 4.80443C2.4314 5.28787 2.6053 5.7455 2.96955 6.13038C3.00245 6.16558 3.0377 6.20078 3.07295 6.23598C4.3913 7.55254 6.0316 7.83885 6.7037 7.89987C6.62615 8.44667 6.3089 8.92777 5.8248 9.21877C5.2749 9.54967 4.6122 9.56845 4.0529 9.27275C4.0341 9.26336 4.0153 9.25163 3.9965 9.24224L3.89545 9.18357L3.61345 9.67875L3.7145 9.73507C3.738 9.74915 3.76385 9.76323 3.78735 9.77497C4.30905 10.0495 4.92475 10.1199 5.4864 9.9721C5.2044 10.1528 4.8895 10.2842 4.55345 10.3593C3.9307 10.5001 3.268 10.4297 2.6899 10.1645L2.59355 10.1199L2.2998 10.6128L2.41495 10.6668C3.10585 10.9906 3.91895 11.0798 4.67095 10.9132C5.45115 10.7372 6.12795 10.3147 6.6285 9.69048C6.65905 9.65293 6.68725 9.61304 6.7178 9.57549V11H7.2865V9.57079C7.31705 9.61069 7.34525 9.65293 7.37815 9.69048C7.8787 10.3147 8.5555 10.7372 9.3357 10.9132C9.58715 10.9695 9.84565 10.9977 10.1042 10.9977C10.6188 10.9977 11.1311 10.8827 11.5917 10.6668L11.6998 10.6128L11.4155 10.1199ZM5.7778 3.96428C5.7778 3.93142 5.77545 3.89857 5.77545 3.86336C5.77545 3.81877 5.77545 3.77419 5.7778 3.73194C5.79895 2.92934 6.4264 2.56323 6.9998 2.56323C7.5732 2.56323 8.20065 2.92934 8.2218 3.73194C8.22415 3.77653 8.22415 3.82112 8.22415 3.86336C8.22415 3.89857 8.22415 3.93142 8.2218 3.96662L8.20065 4.73168L8.7341 4.16845C8.75525 4.14498 8.7764 4.12386 8.7999 4.10039C8.83045 4.06988 8.86335 4.03937 8.8939 4.00887C9.4767 3.45737 10.1794 3.64042 10.5859 4.04641C10.9925 4.45241 11.1758 5.15176 10.6235 5.73611C10.593 5.76897 10.5624 5.79948 10.5319 5.82999C9.0443 7.32021 7.0186 7.34602 6.9998 7.34602C6.97865 7.34602 4.95765 7.32021 3.46775 5.83233C3.4372 5.80182 3.40665 5.76897 3.3761 5.73846C2.82385 5.15411 3.00715 4.45476 3.4137 4.04876C3.6581 3.80469 3.98005 3.66389 4.29495 3.66389C4.5887 3.66389 4.8613 3.78123 5.1057 4.01121C5.1386 4.04172 5.16915 4.07223 5.1997 4.10274C5.2232 4.12855 5.2467 4.15202 5.27255 4.17784L5.8013 4.73403L5.7778 3.96428Z"
            fill="#00501E" />
    </g>
    <defs>
        <clipPath id="clip0_16962_30265">
            <rect width="14" height="14" rx="4" fill="white" />
        </clipPath>
    </defs>
</svg>
    