<svg fill="none" height="80" viewBox="0 0 80 80" width="80" xmlns="http://www.w3.org/2000/svg"><circle cx="40" cy="40" fill="#abfe2c" r="40"/><path d="m63.4875 58.25-.5125.2375c-3.075 1.4125-6.6 1.7875-9.9125 1.0375-1.7875-.4-3.45-1.1-4.9625-2.0625 3 .7875 6.275.4125 9.0375-1.05.125-.0625.2625-.1375.3875-.2125l.5375-.3-1.5-2.6375-.5375.3125c-.1.0625-.2.1125-.3.1625-2.9875 1.575-6.5125 1.4625-9.425-.2875-2.5875-1.55-4.2625-4.1125-4.675-7.025 3.5625-.325 12.3-1.85 19.3125-8.8625.1875-.1875.375-.375.55-.5625 1.9375-2.05 2.8625-4.4875 2.6625-7.0625-.175-2.2625-1.2125-4.45-2.9125-6.15s-3.9-2.75-6.15-2.9125c-2.0125-.1625-3.9875.3875-5.725 1.575-.3875-2.075-1.3875-3.8375-2.925-5.1625-1.725-1.475-4-2.2875-6.4125-2.2875s-4.7.8125-6.4125 2.2875c-1.5375 1.325-2.5375 3.0875-2.925 5.1625-1.7375-1.1875-3.7-1.7375-5.725-1.575-2.2625.175-4.45 1.2125-6.15 2.9125-1.7125 1.7125-2.75 3.9-2.9125 6.15-.2 2.575.725 5.0125 2.6625 7.0625.175.1875.3625.375.55.5625 7.0125 7.0125 15.7375 8.5375 19.3125 8.8625-.4125 2.9125-2.1 5.475-4.675 7.025-2.925 1.7625-6.45 1.8625-9.425.2875-.1-.05-.2-.1125-.3-.1625l-.5375-.3125-1.5 2.6375.5375.3c.125.075.2625.15.3875.2125 2.775 1.4625 6.05 1.8375 9.0375 1.05-1.5.9625-3.175 1.6625-4.9625 2.0625-3.3125.75-6.8375.375-9.9125-1.0375l-.5125-.2375-1.5625 2.625.6125.2875c3.675 1.725 8 2.2 12 1.3125 4.15-.9375 7.75-3.1875 10.4125-6.5125.1625-.2.3125-.4125.475-.6125v7.5875h3.025v-7.6125c.1625.2125.3125.4375.4875.6375 2.6625 3.325 6.2625 5.575 10.4125 6.5125 1.3375.3 2.7125.45 4.0875.45 2.7375 0 5.4625-.6125 7.9125-1.7625l.575-.2875zm-29.9875-32.7875c0-.175-.0125-.35-.0125-.5375 0-.2375 0-.475.0125-.7.1125-4.275 3.45-6.225 6.5-6.225s6.3875 1.95 6.5 6.225c.0125.2375.0125.475.0125.7 0 .1875 0 .3625-.0125.55l-.1125 4.075 2.8375-3c.1125-.125.225-.2375.35-.3625.1625-.1625.3375-.325.5-.4875 3.1-2.9375 6.8375-1.9625 9 .2s3.1375 5.8875.2 9c-.1625.175-.325.3375-.4875.5-7.9125 7.9375-18.6875 8.075-18.7875 8.075-.1125 0-10.8625-.1375-18.7875-8.0625-.1625-.1625-.325-.3375-.4875-.5-2.9375-3.1125-1.9625-6.8375.2-9 1.3-1.3 3.0125-2.05 4.6875-2.05 1.5625 0 3.0125.625 4.3125 1.85.175.1625.3375.325.5.4875.125.1375.25.2625.3875.4l2.8125 2.9625z" fill="#00501e"/></svg>