<svg fill="none" height="16" viewBox="0 0 16 16" width="16" xmlns="http://www.w3.org/2000/svg"><circle cx="8" cy="8" fill="#abfe2c" fill-opacity=".8" r="8"/><path d="m12.6975 11.65-.1025.0475c-.615.2825-1.32.3575-1.9825.2075-.3575-.08-.69-.22-.9925-.4125.6.1575 1.255.0825 1.8075-.21.025-.0125.0525-.0275.0775-.0425l.1075-.06-.3-.5275-.1075.0625c-.02.0125-.04.0225-.06.0325-.5975.315-1.3025.2925-1.885-.0575-.5175-.31-.8525-.8225-.935-1.405.7125-.065 2.46-.37 3.8625-1.7725.0375-.0375.075-.075.11-.1125.3875-.41.5725-.8975.5325-1.4125-.035-.4525-.2425-.89-.5825-1.23s-.78-.55-1.23-.5825c-.4025-.0325-.7975.0775-1.145.315-.0775-.415-.2775-.7675-.585-1.0325-.345-.295-.8-.4575-1.2825-.4575s-.94.1625-1.2825.4575c-.3075.265-.5075.6175-.585 1.0325-.3475-.2375-.74-.3475-1.145-.315-.4525.035-.89.2425-1.23.5825-.3425.3425-.55.78-.5825 1.23-.04.515.145 1.0025.5325 1.4125.035.0375.0725.075.11.1125 1.4025 1.4025 3.1475 1.7075 3.8625 1.7725-.0825.5825-.42 1.095-.935 1.405-.585.3525-1.29.3725-1.885.0575-.02-.01-.04-.0225-.06-.0325l-.1075-.0625-.3.5275.1075.06c.025.015.0525.03.0775.0425.555.2925 1.21.3675 1.8075.21-.3.1925-.635.3325-.9925.4125-.6625.15-1.3675.075-1.9825-.2075l-.1025-.0475-.3125.525.1225.0575c.735.345 1.6.44 2.4.2625.83-.1875 1.55-.6375 2.0825-1.3025.0325-.04.0625-.0825.095-.1225v1.5175h.605v-1.5225c.0325.0425.0625.0875.0975.1275.5325.665 1.2525 1.115 2.0825 1.3025.2675.06.5425.09.8175.09.5475 0 1.0925-.1225 1.5825-.3525l.115-.0575zm-5.9975-6.5575c0-.035-.0025-.07-.0025-.1075 0-.0475 0-.095.0025-.14.0225-.855.69-1.245 1.3-1.245s1.2775.39 1.3 1.245c.0025.0475.0025.095.0025.14 0 .0375 0 .0725-.0025.11l-.0225.815.5675-.6c.0225-.025.045-.0475.07-.0725.0325-.0325.0675-.065.1-.0975.62-.5875 1.3675-.3925 1.8.04s.6275 1.1775.04 1.8c-.0325.035-.065.0675-.0975.1-1.5825 1.5875-3.7375 1.615-3.7575 1.615-.0225 0-2.1725-.0275-3.7575-1.6125-.0325-.0325-.065-.0675-.0975-.1-.5875-.6225-.3925-1.3675.04-1.8.26-.26.6025-.41.9375-.41.3125 0 .6025.125.8625.37.035.0325.0675.065.1.0975.025.0275.05.0525.0775.08l.5625.5925z" fill="#00501e"/></svg>