<svg fill="none" height="15" width="15" xmlns="http://www.w3.org/2000/svg" xmlns:xlink="http://www.w3.org/1999/xlink"><clipPath id="a"><path d="m3.271 3.402h8.457v8.194h-8.457z"/></clipPath><rect fill="#fff" height="15" rx="7.5" width="15"/><g clip-path="url(#a)"><path clip-rule="evenodd" d="m7.52 11.597-4.25-2.453v-4.224c0-1.355.952-1.904 2.125-1.226 1.077.621 1.967 2.062 2.106 3.342 1.105-.272 2.435-.148 3.337.373 1.186.685 1.186 1.795 0 2.48l-3.318 1.707zm-.72-4.641c0-.896-.629-1.984-1.404-2.432-.776-.448-1.404-.085-1.404.81v3.394l.09.053 2.718-1.433zm0 1.098v2.296l-2.08-1.2z" fill="#181818" fill-rule="evenodd"/></g></svg>