<svg width="14" height="15" viewBox="1 1 13 13" xmlns="http://www.w3.org/2000/svg">
    <path fill-rule="evenodd" clip-rule="evenodd" d="M1.86719 2.69954C1.86719 2.37738 2.12835 2.11621 2.45052 2.11621H6.56734V3.04954H2.80052V11.4495H11.2005V7.52315H12.1339V11.7995C12.1339 12.1217 11.8727 12.3829 11.5505 12.3829H2.45052C2.12836 12.3829 1.86719 12.1217 1.86719 11.7995V2.69954ZM7.97124 2.58288C7.97124 2.32514 8.18017 2.11621 8.4379 2.11621H11.6672C11.9249 2.11621 12.1339 2.32514 12.1339 2.58288V5.78734C12.1339 6.04507 11.9249 6.254 11.6672 6.254C11.4095 6.254 11.2005 6.04507 11.2005 5.78734V3.72322L5.44304 9.57961C5.26235 9.7634 4.96688 9.76591 4.78309 9.58523C4.5993 9.40454 4.59679 9.10907 4.77747 8.92528L10.554 3.04954H8.4379C8.18017 3.04954 7.97124 2.84061 7.97124 2.58288Z" fill="currentColor"/>
</svg>
