<svg xmlns="http://www.w3.org/2000/svg" fill="none" viewBox="0 0 18 18">
    <path fill="currentColor" fill-rule="evenodd" d="M2.40039 3.14941C2.40039 2.7352 2.73618 2.39941 3.15039 2.39941H8.44344V3.59941H3.60039V14.3994H14.4004V9.35119H15.6004V14.8494C15.6004 15.2636 15.2646 15.5994 14.8504 15.5994H3.15039C2.73618 15.5994 2.40039 15.2636 2.40039 14.8494V3.14941ZM10.2485 2.99941C10.2485 2.66804 10.5171 2.39941 10.8485 2.39941H15.0004C15.3318 2.39941 15.6004 2.66804 15.6004 2.99941V7.11943C15.6004 7.4508 15.3318 7.71943 15.0004 7.71943C14.669 7.71943 14.4004 7.4508 14.4004 7.11943V4.46557L6.99791 11.9952C6.7656 12.2315 6.38571 12.2347 6.14941 12.0024C5.91311 11.7701 5.90988 11.3902 6.14219 11.1539L13.5691 3.59941H10.8485C10.5171 3.59941 10.2485 3.33078 10.2485 2.99941Z" clip-rule="evenodd"/>
</svg>
