<svg fill="none" height="24" viewBox="0 0 25 24" width="25" xmlns="http://www.w3.org/2000/svg"><g fill="#3dc233" fill-opacity=".2"><path d="m23.5 12c0 6.0751-4.9249 11-11 11-6.07513 0-11-4.9249-11-11 0-6.07513 4.92487-11 11-11 6.0751 0 11 4.92487 11 11zm-19.8 0c0 4.8601 3.93989 8.8 8.8 8.8 4.8601 0 8.8-3.9399 8.8-8.8 0-4.86011-3.9399-8.8-8.8-8.8-4.86011 0-8.8 3.93989-8.8 8.8z" opacity=".5"/><path d="m12.5 21.9c0 .6075-.4937 1.1057-1.0982 1.045-1.55678-.1562-3.06679-.6432-4.42699-1.4333-1.67819-.9748-3.06859-2.3763-4.03007-4.0622-.96147-1.6859-1.4598-3.5961-1.44439-5.5368.0154-1.94074.544-3.84283 1.53212-5.51323.98813-1.67039 2.4006-3.04962 4.09406-3.99769 1.69345-.94806 3.60757-1.431208 5.54817-1.40039 1.9405.03081 3.8383.57449 5.5008 1.57584 1.3475.81162 2.5015 1.90049 3.3881 3.18966.3442.50057.1454 1.17317-.3871 1.46572-.5324.29255-1.1959.09301-1.5526-.3988-.6911-.953-1.5687-1.76079-2.5835-2.37202-1.33-.80109-2.8483-1.23603-4.4007-1.26068s-3.08371.36186-4.43848 1.12032c-1.35476.75845-2.48474 1.86183-3.27524 3.19815-.7905 1.33631-1.21338 2.85802-1.2257 4.41052-.01233 1.5526.38633 3.0808 1.15551 4.4295.76919 1.3487 1.88151 2.4699 3.22406 3.2498 1.02437.595 2.15495.9752 3.32295 1.1219.6028.0758 1.0972.5612 1.0972 1.1687z"/></g></svg>