<svg xmlns="http://www.w3.org/2000/svg" width="134" height="64" fill="none">
    <g clip-path="url(#a)">
        <path fill="#000" fill-opacity=".8"
            d="M39.4 23.54h11.45v4.35H44.9v2.05h3.89v2.97h-3.9v3.89h-5.5V23.54ZM52.45 23.54h4.59V36.8h-4.59V23.54ZM77.88 28.8v-2.51h3.44v-2.75h-8.25V36.8h8.25v-2.74h-3.44v-2.52h2.3V28.8h-2.3ZM82.92 23.54h11.45v3.89h-5.72v2.74h3.66v2.74h-3.66v3.89h-5.73V23.54ZM100.79 23.54h-4.81V36.8h7.33v-2.74h-2.52V23.54Z" />
        <path fill="#000" fill-opacity=".8" fill-rule="evenodd"
            d="M58.64 23.54h10.54v1.37h2.29v5.49h-2.3v2.06h2.3v4.34h-5.73v-3.89h-2.52v3.89h-4.58V23.54Zm8.25 3.2v2.75h-3.67v-2.75h3.67Z"
            clip-rule="evenodd" />
        <path fill="#000" fill-opacity=".8"
            d="M108.12 23.54h-5.27v5.26h1.83v1.37h1.15v1.37h1.14v5.26h4.81v-5.26h1.15v-1.37h1.14V28.8h1.83v-5.26h-5.26v5.26h-2.52v-5.26ZM43.44 42.29h1.35v3.65h-.77v.92h-1.73v-.92h-.39v.92h-1.73v-.92h-.77V42.3h1.35v2.28h.77V42.3h1.15v2.28h.77V42.3ZM45.34 42.29h3.46v.91h-1.54v.91h.77v.92h-.77v.91h1.54v.92h-3.46v-4.57ZM52.82 44.57h.77v1.83h-.77v.46h-3.46v-4.57h3.46v.45h.39v1.37h-.39v.46Zm-1.92-1.6v.92h.77v-.92h-.77Zm1.15 2.97v-.91H50.9v.91h1.15ZM57.97 42.29v.45h.38v1.37h-.74v.92h.74v1.37h-.38v.46h-3.44v-.46h-.39v-.91h1.16v.45h.77v-.91h-.77v-.92h.77v-.91h-.77v.46h-1.16v-.92h.39v-.45h3.44ZM65.76 43.66h-1.54v-.46h-.77v.91h1.56v.49h.75v1.8h-.38v.46H61.9v-.46h-.38v-.91h1.15v.45h.77v-.91h-1.54v-.46h-.38v-1.83h.38v-.45h3.47v.45h.38v.92ZM69.78 42.29v.45h.77v3.66h-.77v.46h-2.7v-.46h-.77v-3.66h.77v-.45h2.7Zm-.77 3.2v-1.83h-1.16v1.83h1.16ZM74.95 43.66h-1.93v1.83h1.93v1.37h-3.08v-.46h-.77v-3.66h.77v-.45h3.08v1.37ZM77.03 46.86H75.5v-4.57h1.54v4.57ZM81.05 42.29v.45h.77v4.12h-1.54v-.92h-1.16v.92h-1.54v-4.12h.77v-.45h2.7Zm-.77 2.74v-1.4h-1.16v1.4h1.16ZM83.9 42.29v3.65h1.55v.92h-3.08v-4.57h1.54ZM92.09 42.29v.45h.77v4.12h-1.54v-.92h-1.16v.92h-1.54v-4.12h.77v-.45h2.7Zm-.77 2.74v-1.4h-1.16v1.4h1.16ZM96.87 42.29v.45h.77v1.37h-1.39v-.45H95.1v1.83h1.15v-.46h-.38v-.46h1.77v1.83h-.77v.46h-2.7v-.46h-.76v-3.66h.77v-.45h2.7ZM101.66 42.29v.45h.77v1.37h-1.39v-.45h-1.15v1.83h1.15v-.46h-.39v-.46h1.78v1.83h-.77v.46h-2.7v-.46h-.77v-3.66h.77v-.45h2.7ZM107.21 44.64h-.77v.85h.77v1.37h-1.92v-1.37h-.77v1.37h-1.54v-4.57h3.46v.45h.77v1.9Zm-1.54-.3v-.91h-1.15v.91h1.15ZM107.76 42.29h3.47v.91h-1.54v.91h.77v.92h-.77v.91h1.54v.92h-3.47v-4.57ZM115.24 42.29v.45h.77v1.37h-1.38v-.45h-1.16v1.83h1.16v-.46h-.39v-.46h1.77v1.83h-.77v.46h-2.7v-.46h-.76v-3.66h.77v-.45h2.7ZM120.03 42.29v.45h.77v4.12h-1.54v-.92h-1.16v.92h-1.54v-4.12h.77v-.45h2.7Zm-.77 2.74v-1.4h-1.16v1.4h1.16ZM121.35 42.29h3.08v1.37h-.77v3.2h-1.54v-3.2h-.77v-1.37ZM128.44 42.29v.45h.78v3.66h-.78v.46h-2.69v-.46h-.77v-3.66h.77v-.45h2.7Zm-.77 3.2v-1.83h-1.15v1.83h1.16ZM134 44.64h-.77v.85h.77v1.37h-1.93v-1.37h-.76v1.37h-1.55v-4.57h3.47v.45h.77v1.9Zm-1.54-.3v-.91h-1.16v.91h1.16Z" />
        <path fill="#D543ED"
            d="M2.67 9.14h2.67v2.63H2.67V9.14ZM8.02 14.4H5.34v2.63H2.67v10.51H0V40.7h2.67v5.25h2.67v2.63h2.68v2.63h16.03v-2.63h2.67v-2.63h2.68v-2.63h2.67V30.17H29.4v-5.26h-2.68v-5.25h-2.67v-2.63h2.67V14.4h-2.67v2.63h-2.67V14.4H18.7v-2.63h-5.35V9.14H10.7v5.26h2.67v2.63H10.7v5.26H8.02v-2.63H5.34v-2.63h2.68V14.4Z" />
        <path fill="#9250FF"
            d="M16.03 17.03h2.68v2.63h2.67v2.63h2.67v5.25h2.67v5.26h2.68v10.51h-2.68v2.63h-2.67v2.63H10.7v-2.63H5.35V40.7H2.67V30.17h2.68v-5.26h8.01V22.3h2.67v-5.26ZM8.02 19.66H5.35v2.63h2.67v-2.63Z" />
        <path fill="#9787FC"
            d="M16.03 22.29h2.68v2.62h-2.68V22.3ZM24.05 35.43v-5.26h-2.67v-5.26H18.7v2.63h-5.35v2.63H10.7v-2.63H8.02v5.26H5.34v13.14h5.35v2.63h13.36v-5.26h2.67v-7.88h-2.67Z" />
        <path fill="#fff" d="M18.7 27.54h-2.67v2.63h2.68v-2.63Z" />
        <path fill="#fff" fill-rule="evenodd"
            d="M10.69 32.8v2.63H8.02v10.51h2.67v2.63h10.69v-2.63h2.67V35.43h-2.67V32.8H10.69Zm0 5.26h2.67v5.25H10.7v-5.25Zm10.69 5.25v-5.25H18.7v5.25h2.67Z"
            clip-rule="evenodd" />
    </g>
    <defs>
        <clipPath id="a">
            <path fill="#fff" d="M0 0h134v64H0z" />
        </clipPath>
    </defs>
</svg>