<svg xmlns="http://www.w3.org/2000/svg" width="169" height="80" fill="none">
    <filter id="a" width="168.024" height="80" x="0" y="0" color-interpolation-filters="sRGB"
        filterUnits="userSpaceOnUse">
        <feFlood flood-opacity="0" result="BackgroundImageFix" />
        <feGaussianBlur in="BackgroundImageFix" stdDeviation="8" />
        <feComposite in2="SourceAlpha" operator="in" result="effect1_backgroundBlur_24206_156839" />
        <feColorMatrix in="SourceAlpha" result="hardAlpha"
            values="0 0 0 0 0 0 0 0 0 0 0 0 0 0 0 0 0 0 127 0" />
        <feOffset />
        <feGaussianBlur stdDeviation="10" />
        <feComposite in2="hardAlpha" operator="out" />
        <feColorMatrix values="0 0 0 0 0 0 0 0 0 0 0 0 0 0 0 0 0 0 0.05 0" />
        <feBlend in2="effect1_backgroundBlur_24206_156839" result="effect2_dropShadow_24206_156839" />
        <feBlend in="SourceGraphic" in2="effect2_dropShadow_24206_156839" result="shape" />
    </filter>
    <g filter="url(#a)">
        <g fill="#f5f5f5">
            <path
                d="M57.323 37.127h13.578V42.3h-7.06v2.45h4.616v3.54h-4.616v4.628h-6.518zM72.802 37.127h5.431v15.79h-5.43zM102.945 43.389v-2.995h4.074v-3.267h-9.777v15.79h9.777v-3.266h-4.074v-2.995h2.716v-3.267zM108.919 37.127h13.578v4.628h-6.789v3.267h4.345v3.267h-4.345v4.629h-6.789zM130.101 37.127h-5.703v15.79h8.69v-3.266h-2.987z" />
            <path fill-rule="evenodd"
                d="M80.134 37.127h12.492v1.633h2.715v6.535h-2.715v2.45h2.715v5.173h-6.788v-4.629h-2.988v4.629h-5.43zm9.776 3.812v3.267h-4.345v-3.267z"
                clip-rule="evenodd" />
            <path
                d="M138.791 37.127h-6.246v6.262h2.173v1.633h1.357v1.634h1.358v6.262h5.703v-6.262h1.358v-1.634h1.358V43.39h2.172v-6.262h-6.246v6.262h-2.987z" />
        </g>
        <path fill="#e64cff"
            d="M22.536 20h2.536v2.5h-2.536zM27.609 25h-2.537v2.5h-2.536v10H20V50h2.536v5h2.536v2.5h2.537V60h15.217v-2.5h2.536V55H47.9v-2.5h2.536V40h-2.536v-5h-2.537v-5h-2.536v-2.5h2.536V25h-2.536v2.5H40.29V25h-2.536v-2.5H32.68V20h-2.536v5h2.536v2.5h-2.536v5h-2.536V30h-2.537v-2.5h2.537z" />
        <path fill="#222ebb"
            d="M35.217 27.5h2.537V30h2.536v2.5h2.536v5h2.536v5h2.536v10h-2.536V55h-2.536v2.5H30.145V55h-5.073v-5h-2.536V40h2.536v-5h7.61v-2.5h2.535zM27.609 30h-2.537v2.5h2.537z" />
        <path fill="#6548f7"
            d="M35.217 32.5h2.536V35h-2.536zM42.826 45v-5H40.29v-5h-2.537v2.5h-5.072V40h-2.536v-2.5h-2.536v5h-2.537V55h5.073v2.5h12.68v-5h2.537V45z" />
        <path fill="#fff" d="M37.753 37.5h-2.536V40h2.536z" />
        <path fill="#fff" fill-rule="evenodd"
            d="M30.145 42.5V45h-2.537v10h2.537v2.5H40.29V55h2.536V45H40.29v-2.5zm0 5h2.536v5h-2.536zm10.145 5v-5h-2.537v5z"
            clip-rule="evenodd" />
    </g>
</svg>