<svg fill="none" height="48" viewBox="0 0 36 48" width="36" xmlns="http://www.w3.org/2000/svg"><path d="m3.00001 0h3v3h-3z" fill="#d543ed"/><path d="m9.00002 6h-3.00001v3h-3v12h-3.00001v15h3.00001v6h3v3h3.00001v3h17.99998v-3h3v-3h3v-3h3v-15h-3v-6h-3v-6h-3v-3h3v-3h-3v3h-3v-3h-3v-3h-6v-3h-3v6h3v3h-3v6h-2.99998v-3h-3.00001v-3h3.00001z" fill="#d543ed"/><path d="m18 9h3v3h3v3h3v6h3v6h3v12h-3v3h-3v3h-15v-3h-5.99999v-6h-3.00001v-12h3.00001v-6h8.99999v-3h3z" fill="#9250ff"/><path d="m9.00001 12h-3v3h3z" fill="#9250ff"/><path d="m18 15h3v3h-3z" fill="#9787fc"/><path d="m27 30v-6h-3v-6h-3v3h-6v3h-3v-3h-2.99999v6h-3.00001v15h6v3h15v-6h3v-9z" fill="#9787fc"/><g fill="#fff"><path d="m21 21h-3v3h3z"/><path clip-rule="evenodd" d="m12 27v3h-3v12h3v3h12v-3h3v-12h-3v-3zm0 6h3v6h-3zm12 6v-6h-3v6z" fill-rule="evenodd"/></g></svg>