<svg fill="none" height="64" width="134" xmlns="http://www.w3.org/2000/svg" xmlns:xlink="http://www.w3.org/1999/xlink"><clipPath id="a"><path d="m0 0h134v64h-134z"/></clipPath><g clip-path="url(#a)"><g fill="#000" fill-opacity=".8"><path d="m39.4 23.54h11.45v4.35h-5.95v2.05h3.89v2.97h-3.9v3.89h-5.5v-13.26zm13.05 0h4.59v13.26h-4.59zm25.43 5.26v-2.51h3.44v-2.75h-8.25v13.26h8.25v-2.74h-3.44v-2.52h2.3v-2.74zm5.04-5.26h11.45v3.89h-5.72v2.74h3.66v2.74h-3.66v3.89h-5.73zm17.87 0h-4.81v13.26h7.33v-2.74h-2.52z"/><path clip-rule="evenodd" d="m58.64 23.54h10.54v1.37h2.29v5.49h-2.3v2.06h2.3v4.34h-5.73v-3.89h-2.52v3.89h-4.58zm8.25 3.2v2.75h-3.67v-2.75z" fill-rule="evenodd"/><path d="m108.12 23.54h-5.27v5.26h1.83v1.37h1.15v1.37h1.14v5.26h4.81v-5.26h1.15v-1.37h1.14v-1.37h1.83v-5.26h-5.26v5.26h-2.52zm-64.68 18.75h1.35v3.65h-.77v.92h-1.73v-.92h-.39v.92h-1.73v-.92h-.77v-3.64h1.35v2.28h.77v-2.28h1.15v2.28h.77v-2.28zm1.9 0h3.46v.91h-1.54v.91h.77v.92h-.77v.91h1.54v.92h-3.46zm7.48 2.28h.77v1.83h-.77v.46h-3.46v-4.57h3.46v.45h.39v1.37h-.39zm-1.92-1.6v.92h.77v-.92zm1.15 2.97v-.91h-1.15v.91zm5.92-3.65v.45h.38v1.37h-.74v.92h.74v1.37h-.38v.46h-3.44v-.46h-.39v-.91h1.16v.45h.77v-.91h-.77v-.92h.77v-.91h-.77v.46h-1.16v-.92h.39v-.45zm7.79 1.37h-1.54v-.46h-.77v.91h1.56v.49h.75v1.8h-.38v.46h-3.48v-.46h-.38v-.91h1.15v.45h.77v-.91h-1.54v-.46h-.38v-1.83h.38v-.45h3.47v.45h.38v.92zm4.02-1.37v.45h.77v3.66h-.77v.46h-2.7v-.46h-.77v-3.66h.77v-.45zm-.77 3.2v-1.83h-1.16v1.83zm5.94-1.83h-1.93v1.83h1.93v1.37h-3.08v-.46h-.77v-3.66h.77v-.45h3.08zm2.08 3.2h-1.53v-4.57h1.54v4.57zm4.02-4.57v.45h.77v4.12h-1.54v-.92h-1.16v.92h-1.54v-4.12h.77v-.45zm-.77 2.74v-1.4h-1.16v1.4zm3.62-2.74v3.65h1.55v.92h-3.08v-4.57h1.54zm8.19 0v.45h.77v4.12h-1.54v-.92h-1.16v.92h-1.54v-4.12h.77v-.45zm-.77 2.74v-1.4h-1.16v1.4zm5.55-2.74v.45h.77v1.37h-1.39v-.45h-1.15v1.83h1.15v-.46h-.38v-.46h1.77v1.83h-.77v.46h-2.7v-.46h-.76v-3.66h.77v-.45h2.7zm4.79 0v.45h.77v1.37h-1.39v-.45h-1.15v1.83h1.15v-.46h-.39v-.46h1.78v1.83h-.77v.46h-2.7v-.46h-.77v-3.66h.77v-.45zm5.55 2.35h-.77v.85h.77v1.37h-1.92v-1.37h-.77v1.37h-1.54v-4.57h3.46v.45h.77zm-1.54-.3v-.91h-1.15v.91zm2.09-2.05h3.47v.91h-1.54v.91h.77v.92h-.77v.91h1.54v.92h-3.47zm7.48 0v.45h.77v1.37h-1.38v-.45h-1.16v1.83h1.16v-.46h-.39v-.46h1.77v1.83h-.77v.46h-2.7v-.46h-.76v-3.66h.77v-.45h2.7zm4.79 0v.45h.77v4.12h-1.54v-.92h-1.16v.92h-1.54v-4.12h.77v-.45zm-.77 2.74v-1.4h-1.16v1.4zm2.09-2.74h3.08v1.37h-.77v3.2h-1.54v-3.2h-.77zm7.09 0v.45h.78v3.66h-.78v.46h-2.69v-.46h-.77v-3.66h.77v-.45h2.7zm-.77 3.2v-1.83h-1.15v1.83h1.16zm6.33-.85h-.77v.85h.77v1.37h-1.93v-1.37h-.76v1.37h-1.55v-4.57h3.47v.45h.77zm-1.54-.3v-.91h-1.16v.91z"/></g><path d="m2.67 9.14h2.67v2.63h-2.67zm5.35 5.26h-2.68v2.63h-2.67v10.51h-2.67v13.16h2.67v5.25h2.67v2.63h2.68v2.63h16.03v-2.63h2.67v-2.63h2.68v-2.63h2.67v-13.15h-2.67v-5.26h-2.68v-5.25h-2.67v-2.63h2.67v-2.63h-2.67v2.63h-2.67v-2.63h-2.68v-2.63h-5.35v-2.63h-2.65v5.26h2.67v2.63h-2.67v5.26h-2.68v-2.63h-2.68v-2.63h2.68z" fill="#d543ed"/><path d="m16.03 17.03h2.68v2.63h2.67v2.63h2.67v5.25h2.67v5.26h2.68v10.51h-2.68v2.63h-2.67v2.63h-13.35v-2.63h-5.35v-5.24h-2.68v-10.53h2.68v-5.26h8.01v-2.61h2.67v-5.26zm-8.01 2.63h-2.67v2.63h2.67z" fill="#9250ff"/><path d="m16.03 22.29h2.68v2.62h-2.68v-2.61zm8.02 13.14v-5.26h-2.67v-5.26h-2.68v2.63h-5.35v2.63h-2.65v-2.63h-2.68v5.26h-2.68v13.14h5.35v2.63h13.36v-5.26h2.67v-7.88z" fill="#9787fc"/><g fill="#fff"><path d="m18.7 27.54h-2.67v2.63h2.68v-2.63z"/><path clip-rule="evenodd" d="m10.69 32.8v2.63h-2.67v10.51h2.67v2.63h10.69v-2.63h2.67v-10.51h-2.67v-2.63zm0 5.26h2.67v5.25h-2.66v-5.25zm10.69 5.25v-5.25h-2.68v5.25h2.67z" fill-rule="evenodd"/></g></g></svg>