<svg fill="none" height="80" width="169" xmlns="http://www.w3.org/2000/svg" xmlns:xlink="http://www.w3.org/1999/xlink"><filter id="a" color-interpolation-filters="sRGB" filterUnits="userSpaceOnUse" height="80" width="168.024" x="0" y="0"><feFlood flood-opacity="0" result="BackgroundImageFix"/><feGaussianBlur in="BackgroundImageFix" stdDeviation="8"/><feComposite in2="SourceAlpha" operator="in" result="effect1_backgroundBlur_24206_156839"/><feColorMatrix in="SourceAlpha" result="hardAlpha" values="0 0 0 0 0 0 0 0 0 0 0 0 0 0 0 0 0 0 127 0"/><feOffset/><feGaussianBlur stdDeviation="10"/><feComposite in2="hardAlpha" operator="out"/><feColorMatrix values="0 0 0 0 0 0 0 0 0 0 0 0 0 0 0 0 0 0 0.05 0"/><feBlend in2="effect1_backgroundBlur_24206_156839" result="effect2_dropShadow_24206_156839"/><feBlend in="SourceGraphic" in2="effect2_dropShadow_24206_156839" result="shape"/></filter><g filter="url(#a)"><g fill="#f5f5f5"><path d="m57.323 37.127h13.578v5.173h-7.06v2.45h4.616v3.54h-4.616v4.628h-6.518zm15.479 0h5.431v15.79h-5.43zm30.143 6.262v-2.995h4.074v-3.267h-9.777v15.79h9.777v-3.266h-4.074v-2.995h2.716v-3.267zm5.974-6.262h13.578v4.628h-6.789v3.267h4.345v3.267h-4.345v4.629h-6.789zm21.182 0h-5.703v15.79h8.69v-3.266h-2.987z"/><path clip-rule="evenodd" d="m80.134 37.127h12.492v1.633h2.715v6.535h-2.715v2.45h2.715v5.173h-6.788v-4.629h-2.988v4.629h-5.43zm9.776 3.812v3.267h-4.345v-3.267z" fill-rule="evenodd"/><path d="m138.791 37.127h-6.246v6.262h2.173v1.633h1.357v1.634h1.358v6.262h5.703v-6.262h1.358v-1.634h1.358v-1.632h2.172v-6.262h-6.246v6.262h-2.987z"/></g><path d="m22.536 20h2.536v2.5h-2.536zm5.073 5h-2.537v2.5h-2.536v10h-2.536v12.5h2.536v5h2.536v2.5h2.537v2.5h15.217v-2.5h2.536v-2.5h2.538v-2.5h2.536v-12.5h-2.536v-5h-2.537v-5h-2.536v-2.5h2.536v-2.5h-2.536v2.5h-2.537v-2.5h-2.536v-2.5h-5.074v-2.5h-2.536v5h2.536v2.5h-2.536v5h-2.536v-2.5h-2.537v-2.5h2.537z" fill="#e64cff"/><path d="m35.217 27.5h2.537v2.5h2.536v2.5h2.536v5h2.536v5h2.536v10h-2.536v2.5h-2.536v2.5h-12.681v-2.5h-5.073v-5h-2.536v-10h2.536v-5h7.61v-2.5h2.535zm-7.608 2.5h-2.537v2.5h2.537z" fill="#222ebb"/><path d="m35.217 32.5h2.536v2.5h-2.536zm7.609 12.5v-5h-2.536v-5h-2.537v2.5h-5.072v2.5h-2.536v-2.5h-2.536v5h-2.537v12.5h5.073v2.5h12.68v-5h2.537v-7.5z" fill="#6548f7"/><g fill="#fff"><path d="m37.753 37.5h-2.536v2.5h2.536z"/><path clip-rule="evenodd" d="m30.145 42.5v2.5h-2.537v10h2.537v2.5h10.145v-2.5h2.536v-10h-2.536v-2.5zm0 5h2.536v5h-2.536zm10.145 5v-5h-2.537v5z" fill-rule="evenodd"/></g></g></svg>