<svg width="36" height="48" viewBox="0 0 36 48" fill="none" xmlns="http://www.w3.org/2000/svg">
<path d="M3.00001 0H6.00001V3H3.00001V0Z" fill="#D543ED"/>
<path d="M9.00002 6H6.00001V9L3.00001 9V21H0V36H3.00001V42H6.00001V45H9.00002V48H27V45H30L30 42H33V39H36V24H33V18H30L30 12H27V9L30 9V6H27V9H24V6H21V3H15V0H12V6H15V9H12V15L9.00002 15V12H6.00001V9H9.00002V6Z" fill="#D543ED"/>
<path d="M18 9H21V12H24V15H27V21L30 21V27H33V39H30L30 42H27V45H12V42H6.00001V36H3V24H6.00001V18H15V15L18 15V9Z" fill="#9250FF"/>
<path d="M9.00001 12H6.00001V15H9.00001V12Z" fill="#9250FF"/>
<path d="M18 15H21V18H18V15Z" fill="#9787FC"/>
<path d="M27 30V24H24V18L21 18V21L15 21V24H12L12 21H9.00001V27H6V42H12V45H27V39H30V30H27Z" fill="#9787FC"/>
<path d="M21 21H18V24H21V21Z" fill="white"/>
<path fill-rule="evenodd" clip-rule="evenodd" d="M12 27V30H9V42H12V45H24V42H27V30H24V27H12ZM12 33H15V39H12V33ZM24 39V33L21 33V39H24Z" fill="white"/>
</svg>
