<svg width="240" height="240" viewBox="0 0 240 240" fill="none" xmlns="http://www.w3.org/2000/svg">
    <path d="M41.7598 144.96H65.7598V154.08H53.2798V158.4H61.4398V164.64H53.2798V172.8H41.7598V144.96Z"
        fill="currentColor" />
    <path d="M69.1198 144.96H78.7198V172.8H69.1198V144.96Z" fill="currentColor" />
    <path d="M122.4 156V150.72H129.6V144.96H112.32V172.8H129.6V167.04H122.4V161.76H127.2V156H122.4Z"
        fill="currentColor" />
    <path d="M132.96 144.96H156.96V153.12H144.96V158.88H152.64V164.64H144.96V172.8H132.96V144.96Z"
        fill="currentColor" />
    <path d="M170.4 144.96H160.32V172.8H175.68V167.04H170.4V144.96Z" fill="currentColor" />
    <path fill-rule="evenodd" clip-rule="evenodd"
        d="M82.0798 144.96H104.16V147.84H108.96V159.36H104.16V163.68H108.96V172.8H96.9598V164.64H91.6798V172.8H82.0798V144.96ZM99.3598 151.68V157.44H91.6798V151.68H99.3598Z"
        fill="currentColor" />
    <path
        d="M185.76 144.96H174.72V156H178.56V158.88H180.96V161.76H183.36V172.8H193.44V161.76H195.84V158.88H198.24V156H202.08V144.96H191.04V156H185.76V144.96Z"
        fill="currentColor" />
    <path
        d="M30.5506 184.32H33.3741V192H31.7606V193.92H28.1304V192H27.3237V193.92H23.6935V192H22.0801V184.32H24.9036V189.12H26.517V184.32H28.9371V189.12H30.5506V184.32Z"
        fill="currentColor" />
    <path d="M34.5274 184.32H41.7878V186.24H38.561V188.16H40.1744V190.08H38.561V192H41.7878V193.92H34.5274V184.32Z"
        fill="currentColor" />
    <path
        d="M50.2061 189.12H51.8195V192.96H50.2061V193.92H42.9457V184.32H50.2061V185.28H51.0128V188.16H50.2061V189.12ZM46.1726 185.76V187.68H47.786V185.76H46.1726ZM48.5927 192V190.08H46.1726V192H48.5927Z"
        fill="currentColor" />
    <path
        d="M60.9944 184.32V185.28H61.8011V188.16H60.2338V190.08H61.8011V192.96H60.9944V193.92H53.7801V192.96H52.9733V191.04H55.3935V192H57.0069V190.08H55.3935V188.16H57.0069V186.24H55.3935V187.2H52.9733V185.28H53.7801V184.32H60.9944Z"
        fill="currentColor" />
    <path
        d="M77.322 187.2H74.0951V186.24H72.4817V188.16H75.7431V189.175H77.322V192.96H76.5152V193.92H69.2548V192.96H68.4481V191.04H70.8683V192H72.4817V190.08H69.2548V189.12H68.4481V185.28H69.2548V184.32H76.5152V185.28H77.322V187.2Z"
        fill="currentColor" />
    <path
        d="M85.7362 184.32V185.28H87.3496V192.96H85.7362V193.92H80.0892V192.96H78.4758V185.28H80.0892V184.32H85.7362ZM84.1228 191.04V187.2H81.7026V191.04H84.1228Z"
        fill="currentColor" />
    <path d="M96.5705 187.2H92.537V191.04H96.5705V193.92H90.1168V192.96H88.5034V185.28H90.1168V184.32H96.5705V187.2Z"
        fill="currentColor" />
    <path d="M100.948 193.92H97.7207V184.32H100.948V193.92Z" fill="currentColor" />
    <path
        d="M109.359 184.32V185.28H110.973V193.92H107.746V192H105.326V193.92H102.099V185.28H103.712V184.32H109.359ZM107.746 190.08V187.159H105.326V190.08H107.746Z"
        fill="currentColor" />
    <path d="M115.353 184.32V192H118.58V193.92H112.126V184.32H115.353Z" fill="currentColor" />
    <path
        d="M132.487 184.32V185.28H134.1V193.92H130.873V192H128.453V193.92H125.226V185.28H126.84V184.32H132.487ZM130.873 190.08V187.159H128.453V190.08H130.873Z"
        fill="currentColor" />
    <path
        d="M142.515 184.32V185.28H144.128V188.16H141.224V187.2H138.804V191.04H141.224V190.08H140.417V189.12H144.128V192.96H142.515V193.92H136.868V192.96H135.254V185.28H136.868V184.32H142.515Z"
        fill="currentColor" />
    <path
        d="M152.542 184.32V185.28H154.156V188.16H151.251V187.2H148.831V191.04H151.251V190.08H150.445V189.12H154.156V192.96H152.542V193.92H146.895V192.96H145.282V185.28H146.895V184.32H152.542Z"
        fill="currentColor" />
    <path
        d="M164.183 189.271H162.57V191.04H164.183V193.92H160.15V191.04H158.536V193.92H155.309V184.32H162.57V185.28H164.183V189.271ZM160.956 188.64V186.72H158.536V188.64H160.956Z"
        fill="currentColor" />
    <path d="M165.337 184.32H172.597V186.24H169.371V188.16H170.984V190.08H169.371V192H172.597V193.92H165.337V184.32Z"
        fill="currentColor" />
    <path
        d="M181.016 184.32V185.28H182.629V188.16H179.725V187.2H177.305V191.04H179.725V190.08H178.918V189.12H182.629V192.96H181.016V193.92H175.369V192.96H173.755V185.28H175.369V184.32H181.016Z"
        fill="currentColor" />
    <path
        d="M191.043 184.32V185.28H192.657V193.92H189.43V192H187.01V193.92H183.783V185.28H185.396V184.32H191.043ZM189.43 190.08V187.159H187.01V190.08H189.43Z"
        fill="currentColor" />
    <path d="M193.811 184.32H200.264V187.2H198.651V193.92H195.424V187.2H193.811V184.32Z" fill="currentColor" />
    <path
        d="M208.679 184.32V185.28H210.292V192.96H208.679V193.92H203.032V192.96H201.419V185.28H203.032V184.32H208.679ZM207.066 191.04V187.2H204.645V191.04H207.066Z"
        fill="currentColor" />
    <path
        d="M220.32 189.271H218.707V191.04H220.32V193.92H216.287V191.04H214.673V193.92H211.446V184.32H218.707V185.28H220.32V189.271ZM217.093 188.64V186.72H214.673V188.64H217.093Z"
        fill="currentColor" />
    <rect x="125.6" y="92.88" width="5.60001" height="5.52" fill="white" />
    <rect x="120" y="92.88" width="5.6" height="5.52" fill="white" />
    <rect x="114.4" y="92.88" width="5.6" height="5.52" fill="white" />
    <rect x="114.4" y="98.4" width="5.6" height="5.52" fill="white" />
    <rect x="108.8" y="98.4" width="5.6" height="5.52" fill="white" />
    <rect x="108.8" y="92.88" width="5.6" height="5.52" fill="white" />
    <rect x="108.8" y="103.92" width="5.6" height="5.52" fill="#9787FC" />
    <rect x="114.4" y="103.92" width="5.6" height="5.52" fill="white" />
    <rect x="120" y="103.92" width="5.6" height="5.52" fill="white" />
    <rect x="120" y="98.4" width="5.6" height="5.52" fill="white" />
    <rect x="125.6" y="98.4" width="5.60001" height="5.52" fill="white" />
    <rect x="125.6" y="103.92" width="5.60001" height="5.52" fill="#9787FC" />
    <rect x="125.6" y="114.96" width="5.60001" height="5.52" fill="white" />
    <rect x="114.4" y="114.96" width="5.6" height="5.52" fill="white" />
    <rect x="120" y="114.96" width="5.6" height="5.52" fill="white" />
    <rect x="108.8" y="114.96" width="5.6" height="5.52" fill="white" />
    <rect x="103.2" y="114.96" width="5.60001" height="5.52" fill="white" />
    <rect x="125.6" y="109.44" width="5.60001" height="5.52" fill="#9787FC" />
    <rect x="114.4" y="109.44" width="5.6" height="5.52" fill="white" />
    <rect x="120" y="109.44" width="5.6" height="5.52" fill="white" />
    <rect x="108.8" y="109.44" width="5.6" height="5.52" fill="#9787FC" />
    <rect x="103.2" y="109.44" width="5.60001" height="5.52" fill="white" />
    <rect x="125.6" y="120.48" width="5.60001" height="5.52" fill="white" />
    <rect x="114.4" y="120.48" width="5.6" height="5.52" fill="white" />
    <rect x="120" y="120.48" width="5.6" height="5.52" fill="white" />
    <rect x="108.8" y="120.48" width="5.6" height="5.52" fill="white" />
    <rect x="131.2" y="103.92" width="5.60001" height="5.52" fill="white" />
    <rect x="131.2" y="109.44" width="5.60001" height="5.52" fill="white" />
    <rect x="131.2" y="87.36" width="5.60001" height="5.52" fill="#9787FC" />
    <rect x="136.8" y="98.4" width="5.59999" height="5.52" fill="#9787FC" />
    <rect x="131.2" y="92.88" width="5.60001" height="5.52" fill="#9787FC" />
    <rect x="136.8" y="103.92" width="5.59999" height="5.52" fill="#9787FC" />
    <rect x="131.2" y="114.96" width="5.60001" height="5.52" fill="white" />
    <rect x="131.2" y="98.4" width="5.60001" height="5.52" fill="white" />
    <rect x="136.8" y="109.44" width="5.59999" height="5.52" fill="#9787FC" />
    <rect x="131.2" y="120.48" width="5.60001" height="5.52" fill="#9787FC" />
    <rect x="125.6" y="87.36" width="5.60001" height="5.52" fill="#9787FC" />
    <rect x="103.2" y="103.92" width="5.60001" height="5.52" fill="white" />
    <rect x="103.2" y="98.4" width="5.60001" height="5.52" fill="white" />
    <rect x="103.2" y="92.88" width="5.60001" height="5.52" fill="#9787FC" />
    <rect x="108.8" y="87.36" width="5.6" height="5.52" fill="#9787FC" />
    <rect x="114.4" y="87.36" width="5.6" height="5.52" fill="#9787FC" />
    <rect x="114.4" y="81.84" width="5.6" height="5.52" fill="#9787FC" />
    <rect x="120" y="87.36" width="5.6" height="5.52" fill="#9787FC" />
    <rect x="125.6" y="81.84" width="5.60001" height="5.52" fill="#9787FC" />
    <rect x="120" y="81.84" width="5.6" height="5.52" fill="white" />
    <rect x="125.6" y="76.32" width="5.60001" height="5.52" fill="#9787FC" />
    <rect x="103.2" y="87.36" width="5.60001" height="5.52" fill="#9787FC" />
    <rect x="103.2" y="81.84" width="5.60001" height="5.52" fill="#9787FC" />
    <rect x="97.6001" y="103.92" width="5.6" height="5.52" fill="#9787FC" />
    <rect x="97.6001" y="109.44" width="5.6" height="5.52" fill="#9787FC" />
    <rect x="97.6001" y="114.96" width="5.6" height="5.52" fill="#9787FC" />
    <rect x="136.8" y="87.36" width="5.59999" height="5.52" fill="#9250FF" />
    <rect x="136.8" y="92.88" width="5.59999" height="5.52" fill="#9250FF" />
    <rect x="142.4" y="98.4" width="5.60001" height="5.52" fill="#9250FF" />
    <rect x="142.4" y="109.44" width="5.60001" height="5.52" fill="#9250FF" />
    <rect x="131.2" y="76.32" width="5.60001" height="5.52" fill="#9250FF" />
    <rect x="120" y="76.32" width="5.6" height="5.52" fill="#9250FF" />
    <rect x="114.4" y="76.32" width="5.6" height="5.52" fill="#9250FF" />
    <rect x="103.2" y="76.32" width="5.60001" height="5.52" fill="#9250FF" />
    <rect x="108.8" y="81.84" width="5.6" height="5.52" fill="#9250FF" />
    <rect x="136.8" y="81.84" width="5.59999" height="5.52" fill="#9250FF" />
    <rect x="142.4" y="92.88" width="5.60001" height="5.52" fill="#9250FF" />
    <rect x="142.4" y="103.92" width="5.60001" height="5.52" fill="#9250FF" />
    <rect x="136.8" y="114.96" width="5.59999" height="5.52" fill="#9250FF" />
    <rect x="125.6" y="70.8" width="5.60001" height="5.52" fill="#9250FF" />
    <rect x="131.2" y="70.8" width="5.60001" height="5.52" fill="#9250FF" />
    <rect x="131.2" y="81.84" width="5.60001" height="5.52" fill="#9250FF" />
    <rect x="120" y="70.8" width="5.6" height="5.52" fill="#9787FC" />
    <rect x="120" y="59.76" width="5.6" height="5.52" fill="#9250FF" />
    <rect x="120" y="65.28" width="5.6" height="5.52" fill="#9250FF" />
    <rect x="125.6" y="65.28" width="5.60001" height="5.52" fill="#9250FF" />
    <rect x="114.4" y="70.8" width="5.6" height="5.52" fill="#9250FF" />
    <rect x="108.8" y="76.32" width="5.6" height="5.52" fill="#9250FF" />
    <rect x="97.6001" y="76.32" width="5.6" height="5.52" fill="#9250FF" />
    <rect x="97.6001" y="81.84" width="5.6" height="5.52" fill="#9250FF" />
    <rect x="97.6001" y="87.36" width="5.6" height="5.52" fill="#9250FF" />
    <rect x="92" y="87.36" width="5.60001" height="5.52" fill="#9250FF" />
    <rect x="92" y="98.4" width="5.60001" height="5.52" fill="#9250FF" />
    <rect x="97.6001" y="92.88" width="5.6" height="5.52" fill="#9787FC" />
    <rect x="97.6001" y="98.4" width="5.6" height="5.52" fill="#9787FC" />
    <rect x="92" y="92.88" width="5.60001" height="5.52" fill="#9250FF" />
    <rect x="92" y="103.92" width="5.60001" height="5.52" fill="#9250FF" />
    <rect x="142.4" y="87.36" width="5.60001" height="5.52" fill="#D543ED" />
    <rect x="148" y="87.36" width="5.60001" height="5.52" fill="#D543ED" />
    <rect x="148" y="92.88" width="5.60001" height="5.52" fill="#D543ED" />
    <rect x="148" y="98.4" width="5.60001" height="5.52" fill="#D543ED" />
    <rect x="148" y="103.92" width="5.60001" height="5.52" fill="#D543ED" />
    <rect x="148" y="109.44" width="5.60001" height="5.52" fill="#D543ED" />
    <rect x="142.4" y="114.96" width="5.60001" height="5.52" fill="#D543ED" />
    <rect x="136.8" y="120.48" width="5.59999" height="5.52" fill="#D543ED" />
    <rect x="131.2" y="126" width="5.60001" height="5.52" fill="#D543ED" />
    <rect x="120" y="126" width="5.6" height="5.52" fill="#D543ED" />
    <rect x="125.6" y="126" width="5.60001" height="5.52" fill="#D543ED" />
    <rect x="114.4" y="126" width="5.6" height="5.52" fill="#D543ED" />
    <rect x="108.8" y="126" width="5.6" height="5.52" fill="#D543ED" />
    <rect x="103.2" y="126" width="5.60001" height="5.52" fill="#D543ED" />
    <rect x="103.2" y="120.48" width="5.60001" height="5.52" fill="#D543ED" />
    <rect x="97.6001" y="120.48" width="5.6" height="5.52" fill="#D543ED" />
    <rect x="92" y="114.96" width="5.60001" height="5.52" fill="#D543ED" />
    <rect x="86.3999" y="98.4" width="5.6" height="5.52" fill="#D543ED" />
    <rect x="86.3999" y="81.84" width="5.6" height="5.52" fill="#D543ED" />
    <rect x="92" y="70.8" width="5.60001" height="5.52" fill="#D543ED" />
    <rect x="103.2" y="70.8" width="5.60001" height="5.52" fill="#D543ED" />
    <rect x="108.8" y="65.28" width="5.6" height="5.52" fill="#D543ED" />
    <rect x="92" y="59.76" width="5.60001" height="5.52" fill="#D543ED" />
    <rect x="97.6001" y="54.24" width="5.6" height="5.52" fill="#D543ED" />
    <rect x="92" y="43.2" width="5.6" height="5.52" fill="#D543ED" />
    <rect x="97.6001" y="65.28" width="5.6" height="5.52" fill="#9250FF" />
    <rect x="92" y="109.44" width="5.60001" height="5.52" fill="#D543ED" />
    <rect x="86.3999" y="92.88" width="5.6" height="5.52" fill="#D543ED" />
    <rect x="92" y="81.84" width="5.60001" height="5.52" fill="#D543ED" />
    <rect x="86.3999" y="103.92" width="5.6" height="5.52" fill="#D543ED" />
    <rect x="86.3999" y="87.36" width="5.6" height="5.52" fill="#D543ED" />
    <rect x="92" y="76.32" width="5.60001" height="5.52" fill="#D543ED" />
    <rect x="92" y="65.28" width="5.60001" height="5.52" fill="#D543ED" />
    <rect x="97.6001" y="70.8" width="5.6" height="5.52" fill="#D543ED" />
    <rect x="108.8" y="70.8" width="5.6" height="5.52" fill="#D543ED" />
    <rect x="108.8" y="59.76" width="5.6" height="5.52" fill="#D543ED" />
    <rect x="114.4" y="59.76" width="5.6" height="5.52" fill="#D543ED" />
    <rect x="131.2" y="59.76" width="5.60001" height="5.52" fill="#D543ED" />
    <rect x="114.4" y="48.72" width="5.6" height="5.52" fill="#D543ED" />
    <rect x="136.8" y="54.24" width="5.59999" height="5.52" fill="#D543ED" />
    <rect x="120" y="48.72" width="5.6" height="5.52" fill="#D543ED" />
    <rect x="108.8" y="48.72" width="5.6" height="5.52" fill="#D543ED" />
    <rect x="108.8" y="43.2" width="5.6" height="5.52" fill="#D543ED" />
    <rect x="114.4" y="65.28" width="5.6" height="5.52" fill="#D543ED" />
    <rect x="131.2" y="65.28" width="5.60001" height="5.52" fill="#D543ED" />
    <rect x="114.4" y="54.24" width="5.6" height="5.52" fill="#D543ED" />
    <rect x="120" y="54.24" width="5.6" height="5.52" fill="#D543ED" />
    <rect x="125.6" y="54.24" width="5.60001" height="5.52" fill="#D543ED" />
    <rect x="125.6" y="59.76" width="5.60001" height="5.52" fill="#D543ED" />
    <rect x="142.4" y="81.84" width="5.60001" height="5.52" fill="#D543ED" />
    <rect x="142.4" y="76.32" width="5.60001" height="5.52" fill="#D543ED" />
    <rect x="136.8" y="76.32" width="5.59999" height="5.52" fill="#D543ED" />
    <rect x="136.8" y="70.8" width="5.59999" height="5.52" fill="#D543ED" />
    <rect x="136.8" y="65.28" width="5.59999" height="5.52" fill="#D543ED" />
</svg>