<svg width="24" height="24" viewBox="0 0 24 24" fill="currentColor" xmlns="http://www.w3.org/2000/svg">
<path fill-rule="evenodd" clip-rule="evenodd" d="M11.7671 3.57656C7.24466 3.57656 3.57852 7.24271 3.57852 11.7651C3.57852 16.2875 7.24466 19.9537 11.7671 19.9537C16.2895 19.9537 19.9556 16.2875 19.9556 11.7651C19.9556 7.24271 16.2895 3.57656 11.7671 3.57656ZM1.97852 11.7651C1.97852 6.35905 6.361 1.97656 11.7671 1.97656C17.1731 1.97656 21.5556 6.35905 21.5556 11.7651C21.5556 17.1712 17.1731 21.5537 11.7671 21.5537C6.361 21.5537 1.97852 17.1712 1.97852 11.7651Z" fill="currentColor"/>
<path fill-rule="evenodd" clip-rule="evenodd" d="M17.4523 17.9186C17.7643 17.6058 18.2709 17.6052 18.5837 17.9172L22.1077 21.432C22.4205 21.7441 22.4212 22.2506 22.1092 22.5634C21.7972 22.8762 21.2907 22.8769 20.9778 22.5649L17.4538 19.05C17.141 18.738 17.1403 18.2315 17.4523 17.9186Z" fill="currentColor"/>
</svg>
