<svg fill="none" height="24" viewBox="0 0 25 24" width="25" xmlns="http://www.w3.org/2000/svg"><rect fill="#1c68f3" height="24" rx="12" width="24" x=".078125"/><path clip-rule="evenodd" d="m19.0323 9.27778v3.88892h-11.59104-.4987c.52782 2.3596 2.62258 4.1222 5.12634 4.1222 2.0699 0 3.8603-1.2047 4.7169-2.9555h2.2465v3.2666c0 .7732-.6227 1.4-1.3909 1.4h-11.12743c-.76818 0-1.39092-.6268-1.39092-1.4v-8.32222zm-3.5806 5.05562c-.7376 1.0855-1.9776 1.7978-3.3828 1.7978s-2.64517-.7123-3.38282-1.7978zm-6.34906-4.1223c-1.09002 0-1.99177.8113-2.14175 1.8667h1.18564c.13036-.4062.50915-.7.95611-.7.44697 0 .82576.2938.95616.7h1.1856c-.15-1.0554-1.0517-1.8667-2.14176-1.8667zm5.95006 0c-1.09 0-1.9918.8113-2.1417 1.8667h1.1856c.1304-.4062.5092-.7.9561-.7.447 0 .8258.2938.9561.7h1.1857c-.15-1.0554-1.0518-1.8667-2.1418-1.8667zm2.5887-5.2111c.7682 0 1.3909.6268 1.3909 1.4v1.71111h-13.90925v-1.71111c0-.7732.62274-1.4 1.39092-1.4z" fill="#fff" fill-rule="evenodd"/></svg>