<svg fill="none" height="40" viewBox="0 0 31 40" width="31" xmlns="http://www.w3.org/2000/svg"><path d="m2.53624 0h2.53623v2.5h-2.53623z" fill="#e64cff"/><path d="m7.60871 5h-2.53624v2.5h-2.53623v10h-2.53624v12.5h2.53624v5h2.53623v2.5h2.53624v2.5h15.21739v-2.5h2.5362v-2.5h2.5363v-2.5h2.5362v-12.5h-2.5362v-5h-2.5363v-5h-2.5362v-2.5h2.5362v-2.5h-2.5362v2.5h-2.5362v-2.5h-2.5363v-2.5h-5.0724v-2.5h-2.5363v5h2.5363v2.5h-2.5363v5h-2.53619v-2.5h-2.53624v-2.5h2.53624z" fill="#e64cff"/><path d="m15.2173 7.5h2.5362v2.5h2.5363v2.5h2.5362v5h2.5362v5h2.5362v10h-2.5362v2.5h-2.5362v2.5h-12.6812v-2.5h-5.07243v-5h-2.53624v-10h2.53624v-5h7.60873v-2.5h2.5362z" fill="#222ebb"/><path d="m7.60861 10h-2.53624v2.5h2.53624z" fill="#222ebb"/><path d="m15.2172 12.5h2.5362v2.5h-2.5362z" fill="#6548f7"/><path d="m22.8259 25v-5h-2.5362v-5h-2.5363v2.5h-5.0725v2.5h-2.5362v-2.5h-2.5362v5h-2.53623v12.5h5.07243v2.5h12.6812v-5h2.5362v-7.5z" fill="#6548f7"/><g fill="#fff"><path d="m17.7533 17.5h-2.5362v2.5h2.5362z"/><path clip-rule="evenodd" d="m10.1446 22.5v2.5h-2.5362v10h2.5362v2.5h10.145v-2.5h2.5362v-10h-2.5362v-2.5zm0 5h2.5362v5h-2.5362zm10.145 5v-5h-2.5363v5z" fill-rule="evenodd"/></g></svg>