<svg xmlns="http://www.w3.org/2000/svg" width="31" height="40" viewBox="0 0 31 40" fill="none">
    <path d="M2.53624 0H5.07247V2.5H2.53624V0Z" fill="#E64CFF" />
    <path
        d="M7.60871 5H5.07247V7.5L2.53624 7.5V17.5H0V30H2.53624V35H5.07247V37.5H7.60871V40H22.8261V37.5H25.3623L25.3623 35H27.8986V32.5H30.4348V20H27.8986V15H25.3623L25.3623 10H22.8261V7.5L25.3623 7.5V5H22.8261V7.5H20.2899V5H17.7536V2.5H12.6812V0H10.1449V5H12.6812V7.5H10.1449V12.5L7.60871 12.5V10H5.07247V7.5H7.60871V5Z"
        fill="#E64CFF" />
    <path
        d="M15.2173 7.5H17.7535V10H20.2898V12.5H22.826V17.5L25.3622 17.5V22.5H27.8984V32.5H25.3622L25.3622 35H22.826V37.5H10.1448V35H5.07237V30H2.53613V20H5.07237V15H12.6811V12.5L15.2173 12.5V7.5Z"
        fill="#222EBB" />
    <path d="M7.60861 10H5.07237V12.5H7.60861V10Z" fill="#222EBB" />
    <path d="M15.2172 12.5H17.7534V15H15.2172V12.5Z" fill="#6548F7" />
    <path
        d="M22.8259 25V20H20.2897V15L17.7534 15V17.5L12.6809 17.5V20H10.1447L10.1447 17.5H7.6085V22.5H5.07227V35H10.1447V37.5H22.8259V32.5H25.3621V25H22.8259Z"
        fill="#6548F7" />
    <path d="M17.7533 17.5H15.2171V20H17.7533V17.5Z" fill="white" />
    <path fill-rule="evenodd" clip-rule="evenodd"
        d="M10.1446 22.5V25H7.6084V35H10.1446V37.5H20.2896V35H22.8258V25H20.2896V22.5H10.1446ZM10.1446 27.5H12.6808V32.5H10.1446V27.5ZM20.2896 32.5V27.5L17.7533 27.5V32.5H20.2896Z"
        fill="white" />
</svg>