<svg xmlns="http://www.w3.org/2000/svg" width="20" height="20" viewBox="0 0 20 20" fill="none">
  <path d="M9.93331 18.9582C4.99998 18.9582 0.974976 14.9415 0.974976 9.99984C0.974976 5.05817 4.99998 1.0415 9.93331 1.0415C14.8666 1.0415 18.8916 5.05817 18.8916 9.99984C18.8916 14.9415 14.875 18.9582 9.93331 18.9582ZM9.93331 2.2915C5.68331 2.2915 2.22498 5.74984 2.22498 9.99984C2.22498 14.2498 5.68331 17.7082 9.93331 17.7082C14.1833 17.7082 17.6416 14.2498 17.6416 9.99984C17.6416 5.74984 14.1833 2.2915 9.93331 2.2915Z" fill="currentColor"/>
  <path d="M13.2666 10.625H6.59998C6.25831 10.625 5.97498 10.3417 5.97498 10C5.97498 9.65833 6.25831 9.375 6.59998 9.375H13.2666C13.6083 9.375 13.8916 9.65833 13.8916 10C13.8916 10.3417 13.6166 10.625 13.2666 10.625Z" fill="currentColor"/>
</svg>