<svg xmlns="http://www.w3.org/2000/svg" width="20" height="20" viewBox="0 0 20 20" fill="none">
    <path
        d="M4.16667 8.33301C3.25 8.33301 2.5 9.08301 2.5 9.99967C2.5 10.9163 3.25 11.6663 4.16667 11.6663C5.08333 11.6663 5.83333 10.9163 5.83333 9.99967C5.83333 9.08301 5.08333 8.33301 4.16667 8.33301Z"
        stroke="currentColor" stroke-width="1.5" />
    <path
        d="M15.8332 8.33301C14.9165 8.33301 14.1665 9.08301 14.1665 9.99967C14.1665 10.9163 14.9165 11.6663 15.8332 11.6663C16.7498 11.6663 17.4998 10.9163 17.4998 9.99967C17.4998 9.08301 16.7498 8.33301 15.8332 8.33301Z"
        stroke="currentColor" stroke-width="1.5" />
    <path
        d="M10.0002 8.33301C9.0835 8.33301 8.3335 9.08301 8.3335 9.99967C8.3335 10.9163 9.0835 11.6663 10.0002 11.6663C10.9168 11.6663 11.6668 10.9163 11.6668 9.99967C11.6668 9.08301 10.9168 8.33301 10.0002 8.33301Z"
        stroke="currentColor" stroke-width="1.5" />
</svg>