<svg xmlns="http://www.w3.org/2000/svg" width="20" height="20" fill="none" viewBox="0 0 20 20">
    <path fill="currentColor" fill-rule="evenodd" d="M12.7415 3.62761L14.0766 4.40944C14.9557 4.92422 15.5207 5.25703 15.9323 5.55624C16.3166 5.83559 16.4686 6.01774 16.5613 6.18058C16.6546 6.34452 16.7353 6.57239 16.7821 7.05418C16.832 7.56794 16.8337 8.23321 16.8337 9.26195V10.8256C16.8337 11.8543 16.832 12.5196 16.7821 13.0334C16.7353 13.5152 16.6546 13.743 16.5613 13.907C16.4686 14.0698 16.3166 14.252 15.9323 14.5313C15.5207 14.8305 14.9557 15.1633 14.0766 15.6781L12.7415 16.4599C11.8622 16.9748 11.2957 17.3046 10.8349 17.5163C10.4041 17.7142 10.1771 17.7543 10.0003 17.7543C9.82354 17.7543 9.59658 17.7142 9.1658 17.5163C8.70494 17.3046 8.13847 16.9748 7.2592 16.4599L5.92405 15.6781C5.04495 15.1633 4.47994 14.8305 4.06833 14.5313C3.68404 14.252 3.53206 14.0698 3.43937 13.907C3.34605 13.743 3.26538 13.5152 3.21856 13.0334C3.16862 12.5196 3.16699 11.8543 3.16699 10.8256V9.26195C3.16699 8.23321 3.16862 7.56794 3.21856 7.05418C3.26538 6.57239 3.34605 6.34452 3.43937 6.18058C3.53206 6.01774 3.68404 5.83559 4.06833 5.55624C4.47994 5.25703 5.04495 4.92422 5.92405 4.40944L7.2592 3.62761C8.13847 3.11273 8.70494 2.783 9.1658 2.57126C9.59658 2.37334 9.82354 2.33325 10.0003 2.33325C10.1771 2.33325 10.4041 2.37334 10.8349 2.57126C11.2957 2.783 11.8622 3.11273 12.7415 3.62761ZM6.50123 2.3332C8.20891 1.33324 9.06275 0.833252 10.0003 0.833252C10.9379 0.833252 11.7917 1.33324 13.4994 2.3332L14.8346 3.11503C16.5422 4.115 17.3961 4.61498 17.8649 5.43852C18.3337 6.26205 18.3337 7.26201 18.3337 9.26195V10.8256C18.3337 12.8255 18.3337 13.8255 17.8649 14.649C17.3961 15.4726 16.5422 15.9726 14.8346 16.9725L13.4994 17.7544C11.7917 18.7543 10.9379 19.2543 10.0003 19.2543C9.06275 19.2543 8.20891 18.7543 6.50123 17.7544L5.16609 16.9725C3.45841 15.9726 2.60457 15.4726 2.13578 14.649C1.66699 13.8255 1.66699 12.8255 1.66699 10.8256V9.26195C1.66699 7.26201 1.66699 6.26205 2.13578 5.43852C2.60457 4.61498 3.45841 4.115 5.16608 3.11503L6.50123 2.3332ZM7.50728 7.8508C7.70603 7.8508 7.8054 7.8508 7.87335 7.9041C7.88912 7.91648 7.90335 7.93071 7.91573 7.94648C7.96904 8.01443 7.96904 8.1138 7.96904 8.31255V11.7368C7.96904 11.9725 7.96904 12.0903 7.89581 12.1635C7.82259 12.2368 7.70474 12.2368 7.46904 12.2368H7.42979C7.30138 12.2368 7.23717 12.2368 7.18265 12.2082C7.12813 12.1796 7.0916 12.1268 7.01856 12.0212L5.26479 9.48535C5.26086 9.47966 5.25437 9.47626 5.24745 9.47626C5.23581 9.47626 5.22637 9.4857 5.22637 9.49734V11.7729C5.22637 11.9737 5.22637 12.0741 5.17201 12.1424C5.16023 12.1572 5.14681 12.1706 5.132 12.1824C5.06367 12.2368 4.96327 12.2368 4.76247 12.2368C4.56167 12.2368 4.46126 12.2368 4.39294 12.1824C4.37813 12.1706 4.3647 12.1572 4.35292 12.1424C4.29857 12.0741 4.29857 11.9737 4.29857 11.7729V8.3508C4.29857 8.11509 4.29857 7.99724 4.37179 7.92402C4.44502 7.8508 4.56287 7.8508 4.79857 7.8508H4.84961C4.97853 7.8508 5.04299 7.8508 5.09765 7.87957C5.15232 7.90835 5.18881 7.96148 5.26179 8.06776L6.99943 10.5982C7.00414 10.6051 7.01193 10.6092 7.02026 10.6092C7.03421 10.6092 7.04553 10.5978 7.04553 10.5839V8.31255C7.04553 8.1138 7.04553 8.01443 7.09884 7.94648C7.11121 7.93071 7.12544 7.91648 7.14121 7.9041C7.20916 7.8508 7.30854 7.8508 7.50728 7.8508ZM9.19949 12.2368C8.99868 12.2368 8.89828 12.2368 8.82996 12.1824C8.81515 12.1706 8.80172 12.1572 8.78994 12.1424C8.73559 12.0741 8.73559 11.9737 8.73559 11.7729V8.3508C8.73559 8.11509 8.73559 7.99724 8.80881 7.92402C8.88204 7.8508 8.99989 7.8508 9.23559 7.8508H11.2588C11.3822 7.8508 11.4438 7.8508 11.492 7.87207C11.5491 7.89724 11.5947 7.94282 11.6198 7.99987C11.6411 8.04809 11.6411 8.10975 11.6411 8.23307C11.6411 8.35639 11.6411 8.41804 11.6198 8.46626C11.5947 8.52331 11.5491 8.56889 11.492 8.59406C11.4438 8.61534 11.3822 8.61534 11.2588 8.61534H10.1634C9.92768 8.61534 9.80983 8.61534 9.73661 8.68856C9.66338 8.76179 9.66338 8.87964 9.66338 9.11534V9.16043C9.66338 9.39614 9.66338 9.51399 9.73661 9.58721C9.80983 9.66043 9.92768 9.66043 10.1634 9.66043H11.066C11.1893 9.66043 11.251 9.66043 11.2992 9.68171C11.3562 9.70688 11.4018 9.75246 11.427 9.80951C11.4483 9.85773 11.4483 9.91939 11.4483 10.0427C11.4483 10.166 11.4483 10.2277 11.427 10.2759C11.4018 10.3329 11.3562 10.3785 11.2992 10.4037C11.251 10.425 11.1893 10.425 11.066 10.425H10.1634C9.92768 10.425 9.80983 10.425 9.73661 10.4982C9.66338 10.5714 9.66338 10.6893 9.66338 10.925V11.7729C9.66338 11.9737 9.66338 12.0741 9.60903 12.1424C9.59725 12.1572 9.58383 12.1706 9.56902 12.1824C9.50069 12.2368 9.40029 12.2368 9.19949 12.2368ZM12.4803 7.8508C12.357 7.8508 12.2953 7.8508 12.2471 7.87207C12.1901 7.89724 12.1445 7.94282 12.1193 7.99987C12.098 8.04809 12.098 8.10975 12.098 8.23307C12.098 8.35639 12.098 8.41804 12.1193 8.46626C12.1445 8.52331 12.1901 8.56889 12.2471 8.59406C12.2953 8.61534 12.357 8.61534 12.4803 8.61534H12.9415C13.1772 8.61534 13.2951 8.61534 13.3683 8.68856C13.4415 8.76179 13.4415 8.87964 13.4415 9.11534V11.7782C13.4415 11.9739 13.4415 12.0717 13.4933 12.1391C13.5065 12.1563 13.522 12.1718 13.5392 12.185C13.6066 12.2368 13.7044 12.2368 13.9001 12.2368C14.0957 12.2368 14.1936 12.2368 14.2609 12.185C14.2782 12.1718 14.2936 12.1563 14.3068 12.1391C14.3586 12.0717 14.3586 11.9739 14.3586 11.7782V9.11534C14.3586 8.87964 14.3586 8.76179 14.4318 8.68856C14.505 8.61534 14.6229 8.61534 14.8586 8.61534H15.3198C15.4431 8.61534 15.5048 8.61534 15.553 8.59406C15.6101 8.56889 15.6556 8.52331 15.6808 8.46626C15.7021 8.41804 15.7021 8.35639 15.7021 8.23307C15.7021 8.10975 15.7021 8.04809 15.6808 7.99987C15.6556 7.94282 15.6101 7.89724 15.553 7.87207C15.5048 7.8508 15.4431 7.8508 15.3198 7.8508H12.4803Z" clip-rule="evenodd"/>
</svg>
