<svg xmlns="http://www.w3.org/2000/svg" width="20" height="20" fill="none" viewBox="0 0 20 20">
    <path fill="currentColor" d="m16.12 12.08-.84-1.39a3.1 3.1 0 0 1-.33-1.23V7.35a4.92 4.92 0 0 0-2.8-4.44 2.47 2.47 0 0 0-4.3.03 4.94 4.94 0 0 0-2.77 4.41v2.1c0 .35-.16.93-.33 1.23l-.84 1.4a2 2 0 0 0-.2 1.74c.2.56.67.99 1.29 1.2a15.8 15.8 0 0 0 10.03 0 2 2 0 0 0 1.09-2.94ZM12.36 16.68A2.51 2.51 0 0 1 10 18.33a2.47 2.47 0 0 1-2.35-1.66l.33.04a12.74 12.74 0 0 0 2.04.13c.47 0 .95-.02 1.41-.06l.52-.05.4-.05Z"/>
</svg>
