<svg xmlns="http://www.w3.org/2000/svg" width="24" height="24" fill="none">
    <path fill="currentColor"
        d="m19.34 14.49-1-1.66a3.72 3.72 0 0 1-.4-1.48V8.82a5.9 5.9 0 0 0-3.37-5.33 2.96 2.96 0 0 0-5.17.03 5.93 5.93 0 0 0-3.3 5.3v2.53c0 .41-.19 1.11-.4 1.47l-1.01 1.67a2.4 2.4 0 0 0-.24 2.09c.24.67.81 1.19 1.55 1.44a18.97 18.97 0 0 0 12.04.01 2.4 2.4 0 0 0 1.3-3.54ZM14.83 20.01A3.01 3.01 0 0 1 12 22a2.97 2.97 0 0 1-2.82-2l.4.05a15.4 15.4 0 0 0 2.44.16c.57 0 1.14-.03 1.7-.08.21-.02.42-.03.62-.06l.49-.06Z" />
</svg>