<svg xmlns="http://www.w3.org/2000/svg" width="20" height="20" fill="none" viewBox="0 0 20 20">
    <path stroke="currentColor" stroke-linecap="round" stroke-miterlimit="10" stroke-width="1.5" d="M10.02 2.42a5 5 0 0 0-5 5v2.41c0 .51-.22 1.29-.48 1.72l-.96 1.6c-.59.97-.18 2.07.9 2.43 3.6 1.2 7.47 1.2 11.06 0 1.01-.33 1.45-1.52.9-2.44l-.96-1.59a4.1 4.1 0 0 1-.46-1.72v-2.4c0-2.76-2.25-5-5-5Z"/>
    <path stroke="currentColor" stroke-linecap="round" stroke-linejoin="round" stroke-miterlimit="10" stroke-width="1.5" d="M11.56 2.67a5.63 5.63 0 0 0-3.08 0 1.65 1.65 0 0 1 3.08 0Z"/>
    <path stroke="currentColor" stroke-miterlimit="10" stroke-width="1.5" d="M12.52 15.88a2.5 2.5 0 0 1-4.27 1.77 2.5 2.5 0 0 1-.73-1.77"/>
</svg>
