<svg viewBox="0 0 16 16" fill="none" xmlns="http://www.w3.org/2000/svg">
    <path d="M10.0753 2.1398L10.138 2.19513L13.8047 5.8618C13.9171 5.97478 13.9853 6.12429 13.9969 6.28322C14.0086 6.44215 13.9629 6.6 13.8682 6.72816C13.7735 6.85632 13.636 6.94632 13.4806 6.98184C13.3253 7.01736 13.1623 6.99607 13.0213 6.9218L10.9067 9.0358L9.95735 11.5671C9.93234 11.6339 9.89678 11.6963 9.85201 11.7518L9.80535 11.8051L8.80535 12.8051C8.69047 12.9198 8.53769 12.9887 8.37568 12.9987C8.21366 13.0088 8.05354 12.9594 7.92535 12.8598L7.86201 12.8045L6.00001 10.9431L3.47135 13.4711C3.35138 13.5907 3.19039 13.6601 3.02109 13.6653C2.85179 13.6705 2.68687 13.611 2.55983 13.499C2.43279 13.3869 2.35314 13.2308 2.33708 13.0622C2.32102 12.8935 2.36974 12.7251 2.47335 12.5911L2.52868 12.5285L5.05668 9.9998L3.19535 8.1378C3.08056 8.02301 3.01161 7.87027 3.00142 7.70826C2.99123 7.54624 3.04051 7.38607 3.14001 7.2578L3.19535 7.19513L4.19535 6.19513C4.24565 6.14465 4.30372 6.10256 4.36735 6.07047L4.43268 6.04247L6.96335 5.09247L9.07735 2.97913C9.00526 2.84436 8.98168 2.6889 9.01054 2.5388C9.03941 2.38871 9.11898 2.25309 9.23591 2.15467C9.35285 2.05624 9.50006 2.00099 9.65288 1.99816C9.8057 1.99533 9.95485 2.04577 10.0753 2.1398Z" fill="currentColor"/>
</svg>
