<svg fill="none" height="18" viewBox="0 0 18 18" width="18" xmlns="http://www.w3.org/2000/svg"><rect fill="#fff" height="16.5" rx="8.25" width="16.5" x=".75" y=".75"/><rect height="16.5" rx="8.25" stroke="#fff" stroke-width=".5" width="16.5" x=".75" y=".75"/><path d="m9 17c4.4183 0 8-3.5817 8-8 0-4.41828-3.5817-8-8-8-4.41828 0-8 3.58172-8 8 0 4.4183 3.58172 8 8 8z" fill="#fff"/><path clip-rule="evenodd" d="m9.49544 3.88131c-.03311-.4977-.24231-.88131-.49544-.88131-.27614 0-.5.45652-.5 1.01967v4.83747h-4.48033l-.13836.00457c-.4977.03311-.88131.2423-.88131.49543 0 .27615.45652.5 1.01967.5h4.48033v4.12316l.00456.1384c.03311.4977.24231.8813.49544.8813.27614 0 .5-.4565.5-1.0197v-4.12316h4.4803l.1384-.00456c.4977-.03311.8813-.24231.8813-.49544 0-.27614-.4565-.5-1.0197-.5h-4.4803v-4.83747z" fill="#181818" fill-rule="evenodd"/><path d="m9.49544 3.88131.05-.00165-.00011-.00167zm-.99544 4.97583v.05h.05v-.05zm-4.48033 0v-.05002l-.00165.00005zm-.13836.00457-.00165-.05-.00167.00011zm4.61869.99543h.05v-.05h-.05zm0 4.12316h-.05003l.00006.0017zm.00456.1384-.05.0016.00011.0017zm.99544-4.26156v-.05h-.05v.05zm4.4803 0v.05003l.0017-.00005zm.1384-.00456.0016.05.0017-.00011zm-4.6187-.99544h-.05v.05h.05zm0-4.83747h.05003l-.00006-.00165zm-.5-.96967c.09927 0 .20168.07601.28655.22835.08363.15014.1428.36285.159.60628l.09978-.00664c-.01692-.25428-.0789-.48222-.17142-.64831-.0913-.16388-.22004-.27968-.37391-.27968zm-.45.96967c0-.27563.05489-.5227.14134-.699.08806-.17958.20024-.27067.30866-.27067v-.1c-.16773 0-.30554.13717-.39845.32664-.09451.19275-.15155.45551-.15155.74303zm0 4.83747v-4.83747h-.1v4.83747zm-4.53033.05h4.48033v-.1h-4.48033zm-.13671.00454.13836-.00456-.0033-.09995-.13836.00456zm-.83296.44546c0-.09926.07601-.20168.22835-.28654.15014-.08364.36285-.14281.60628-.159l-.00664-.09978c-.25428.01691-.48222.0789-.64831.17142-.16388.09129-.27968.22004-.27968.3739zm.96967.45c-.27563 0-.5227-.05489-.699-.14134-.17958-.08805-.27067-.20024-.27067-.30866h-.1c0 .16773.13717.30554.32664.39845.19275.09451.45551.15155.74303.15155zm4.48033 0h-4.48033v.1h4.48033zm.05 4.17316v-4.12316h-.1v4.12316zm.00454.1367-.00457-.1383-.09994.0033.00456.1383zm.44546.833c-.09927 0-.20168-.076-.28655-.2283-.08363-.1502-.1428-.3629-.159-.6063l-.09978.0066c.01692.2543.0789.4822.17142.6483.0913.1639.22004.2797.37391.2797zm.45-.9697c0 .2757-.05489.5227-.14134.699-.08806.1796-.20024.2707-.30866.2707v.1c.16773 0 .30554-.1372.39845-.3266.09451-.1928.15155-.4556.15155-.7431zm0-4.12316v4.12316h.1v-4.12316zm4.5303-.05h-4.4803v.1h4.4803zm.1367-.00453-.1383.00456.0033.09995.1383-.00457zm.833-.44547c0 .09927-.076.20169-.2283.28655-.1502.08364-.3629.14281-.6063.159l.0066.09978c.2543-.01692.4822-.0789.6483-.17142.1639-.0913.2797-.22004.2797-.37391zm-.9697-.45c.2757 0 .5227.05489.699.14134.1796.08806.2707.20025.2707.30866h.1c0-.16772-.1372-.30554-.3266-.39844-.1928-.09452-.4556-.15156-.7431-.15156zm-4.4803 0h4.4803v-.1h-4.4803zm-.05-4.88747v4.83747h.1v-4.83747zm-.00454-.13671.00457.13836.09994-.0033-.00456-.13836z" fill="#767676"/></svg>