<svg fill="none" height="24" viewBox="0 0 24 24" width="24" xmlns="http://www.w3.org/2000/svg" xmlns:xlink="http://www.w3.org/1999/xlink"><filter id="a" color-interpolation-filters="sRGB" filterUnits="userSpaceOnUse" height="72" width="72" x="-24" y="-24"><feFlood flood-opacity="0" result="BackgroundImageFix"/><feGaussianBlur in="BackgroundImageFix" stdDeviation="12"/><feComposite in2="SourceAlpha" operator="in" result="effect1_backgroundBlur_15668_32192"/><feBlend in="SourceGraphic" in2="effect1_backgroundBlur_15668_32192" mode="normal" result="shape"/></filter><mask id="b" height="11" maskUnits="userSpaceOnUse" width="12" x="6" y="5"><path d="m6.625 5h10.7034v10.7172h-10.7034z" fill="#fff"/></mask><g filter="url(#a)"><rect fill="#181a20" fill-opacity=".5" height="24" rx="10" width="24"/><path clip-rule="evenodd" d="m14.9893 14.687c.1797.4241.3596.8481.5389 1.2724.2037.4824.4046.966.6114 1.4472.0712.1659.0843.3249-.0424.4633-.1232.1347-.2798.1404-.4463.0816-.397-.1402-.7964-.2739-1.1924-.4171-.0971-.0351-.137-.0097-.1779.0796-.1821.3976-.3699.7927-.5586 1.1873-.0753.1575-.2075.2164-.3784.2038-.1517-.0112-.2453-.0964-.3012-.2294-.2944-.7006-.5875-1.4018-.8814-2.1026-.0136-.0324-.0306-.0632-.0548-.1127-.1011.2384-.1965.4609-.2899.6842-.2127.5086-.4237 1.0178-.637 1.5261-.0638.152-.1747.234-.3467.2357-.173.0017-.2781-.0823-.3484-.232-.1861-.3959-.3768-.7896-.56208-1.1859-.03423-.0732-.06917-.0844-.14592-.0572-.41908.1488-.84025.2918-1.26149.4343-.14715.0499-.28803.0238-.39093-.0908-.10303-.1148-.13285-.2532-.06823-.4066.34402-.8164.68507-1.6341 1.02781-2.451.01669-.0398.03963-.077.05963-.1153.05261.0219.10187.0486.13556.0971-.1695.4111-.33787.8226-.50885 1.233-.17571.4217-.35446.8421-.53078 1.2635-.03844.0919-.05153.186.02661.2646.07202.0725.1552.0507.24106.0207.43828-.1537.87863-.3015 1.31572-.4583.11167-.0401.16614-.0192.21649.0914.1945.4268.399.8489.5992 1.273.0395.0838.0956.1491.1948.1476.0932-.0013.151-.0613.1852-.143.3132-.7483.6229-1.498.9414-2.2441.0496-.1163.0413-.2059-.0281-.3022-.0321.0192-.0374.047-.0479.0718-.3098.7369-.6196 1.4739-.93 2.2106-.0207.0489-.027.1183-.0967.1198-.074.0015-.0873-.0704-.1129-.1213-.2127-.4229-.4264-.8453-.6344-1.2705-.0372-.0761-.0725-.0939-.15277-.0658-.23022.0805-.46316.1533-.69534.2281-.23595.076-.47242.1504-.7083.2267-.03937.0127-.07738.024-.10906-.0115-.02729-.0306-.01913-.0656-.00483-.1.0121-.0291.02211-.059.03428-.0881.31819-.759.63654-1.518.95485-2.277.26592.07.53837.0629.80737.0462.3556-.0221.6592.0912.9483.2847.2344.1569.4757.3083.7735.3145.41.9807.8207 1.9612 1.2293 2.9426.0386.0927.0836.1753.1948.1783.1111.003.1641-.0767.2065-.1669.1892-.4031.3772-.8067.5708-1.2076.0903-.1872.0458-.1992.2875-.1158.4241.1462.8485.2916 1.2717.4404.0931.0328.1764.0395.2482-.0387.0727-.0792.0519-.1623.0143-.2516-.3728-.8853-.7436-1.7716-1.115-2.6576.038-.0525.0688-.111.1238-.1495z" fill="#fccdd3" fill-rule="evenodd"/><g mask="url(#b)"><path clip-rule="evenodd" d="m10.2146 5.80867c-.1915 0-.32191-.00528-.45173.00114-.23626.0117-.43319.09983-.57403.30134-.10894.15588-.19904.32204-.2845.49062-.15344.30276-.37919.52886-.6823.68126-.13366.06721-.2623.14441-.39254.21828-.27243.15446-.40031.39112-.39761.70217.00172.20132.00002.40267.00314.60394.00348.22297-.05347.42888-.16637.6198-.09029.15269-.18036.30558-.27397.45625-.19345.31143-.20323.62173-.00284.93403.04683.0729.08463.1521.13513.2222.23779.3303.34387.6953.30902 1.1027-.01074.1255-.00471.2526-.00362.3788.00227.2693.09524.4936.32946.6436.08948.0573.17814.119.27458.162.43215.1925.75595.4919.94872.9289.03958.0898.09405.1731.14327.2585.15423.2675.3902.3908.6947.3907.20909 0 .41809-.0005.62719-.0026.2231-.0022.4273.0617.6176.1738.1529.09.3055.1804.456.2742.3007.1872.6002.1896.9015.0024.1139-.0707.2312-.1358.3434-.209.2582-.1686.5359-.26.8481-.2427.1691.0093.3391.0035.5088.004.3092.0009.5484-.1232.7031-.3966.0738-.1303.1512-.259.2183-.3927.1522-.3032.3751-.5319.6796-.6835.1375-.0684.2706-.146.4026-.2247.2142-.1277.3578-.304.3823-.5635.0228-.2405.007-.481.0063-.7215-.0006-.2438.0602-.4672.1861-.6746.0921-.1516.1821-.3045.2737-.4565.1694-.2814.1779-.5654.0118-.85096-.0734-.12607-.1472-.25203-.2263-.37449-.1696-.26218-.2637-.54309-.2454-.85997.0101-.17313.0061-.3473.0037-.52093-.0037-.2639-.0951-.48356-.3235-.63532-.1547-.10284-.3174-.19118-.4822-.27542-.2906-.14858-.5087-.36708-.6581-.6574-.074-.14361-.1543-.28409-.2361-.42348-.1272-.21691-.3105-.355-.5663-.37841-.0979-.00895-.1969-.00564-.2954-.00739-.2128-.00384-.4266.0176-.6382-.01127-.2615-.03568-.4856-.16783-.6911-.31958-.439-.32418-.8629-.32873-1.3019-.00152-.3466.25832-.7337.39887-1.1141.33341zm-.93629 9.19053c-.03369-.0484-.08295-.0751-.13556-.0971-.2264-.2664-.36428-.5877-.54661-.8815-.11441-.1843-.29018-.2963-.4754-.3973-.17977-.0981-.36496-.1871-.52946-.3114-.23901-.1807-.36206-.4219-.37129-.72-.00438-.1419-.01127-.2852.00213-.4261.03577-.3757-.06759-.7076-.28159-1.0136-.08099-.1158-.15002-.2414-.21242-.3685-.14116-.2874-.13479-.5775.00322-.866.07852-.16424.17845-.31586.27541-.46892.14751-.2328.23209-.47977.21607-.75981-.00969-.16925-.00232-.33939-.00441-.5091-.00473-.38243.16538-.66563.48901-.85974.12497-.07496.25129-.14871.38204-.21267.28715-.14046.49831-.35118.64019-.63871.09741-.1975.19857-.39411.34472-.56333.17935-.20764.40872-.30195.67726-.30967.13792-.00396.27728-.01263.41378.00151.3854.03985.722-.07481 1.0336-.29285.1029-.07197.2155-.13111.3271-.18936.3017-.15747.6041-.14955.9073.00085.1559.07735.3019.17114.4474.26495.236.15207.4892.23008.7714.21779.1693-.00739.3391-.00249.5087-.00398.3829-.00339.6627.17173.8542.49657.078.13238.1559.26535.2241.40294.1329.26832.3326.46501.5995.59851.1656.08277.3287.1708.4817.27613.2736.18848.4113.44947.4148.78118.0013.13025.0099.26152-.0027.39058-.037.37985.0671.71615.2851 1.02441.068.09618.1243.20125.1805.3052.1871.34602.1684.68812-.0278 1.02412-.0973.1669-.1965.3326-.2952.4987-.0993.1669-.1447.3475-.1425.5414.0023.1973 0 .3948.0034.5921.0065.3827-.1629.6665-.4847.8624-.1379.084-.2799.1618-.4232.2364-.2332.1213-.4249.2834-.5481.5206-.0945.1817-.1937.361-.2908.5413-.0551.0385-.0859.097-.1239.1496-.0501.0282-.0882.0696-.1248.1127-.2112.1418-.4469.1789-.6958.1703-.177-.0061-.3543-.0013-.5315-.0018-.1232-.0003-.2419.0225-.3547.072-.3504.154-.6446.4169-1.0177.5272-.0609-.0174-.1224-.0038-.1837-.0036-.2977-.0061-.539-.1576-.7734-.3145-.2891-.1935-.5927-.3068-.9483-.2847-.26904.0168-.54149.0238-.80743-.0462-.04505-.0335-.0928-.0611-.14966-.069z" fill="#6534ff" fill-rule="evenodd"/></g><g clip-rule="evenodd" fill-rule="evenodd"><path d="m13.4899 11.4719c.0959.0028.1604-.0765.1324-.1748-.1706-.5975-.3436-1.1944-.5161-1.79138-.0266-.09196-.0967-.11056-.1771-.09144-.0657.01558-.083.07763-.1001.13527-.1106.37331-.2213.74655-.3322 1.11985-.0605.2035-.1238.4063-.1809.6108-.0236.0843-.0057.1626.0919.187.085.0212.1435-.013.1664-.1046.0219-.0877.0549-.1725.077-.2602.0152-.0604.0465-.082.1082-.0804.1378.0036.2758.0035.4135 0 .065-.0016.1007.0157.1144.0859.0166.0845.046.1667.0721.2492.0202.0634.0522.1162.1305.1148zm-3.0977-1.0261c-.0093.098.019.1905.0648.2803.0878.1719.1752.3442.2585.5183.0671.1403.1685.2235.3286.2289.1685.0058.2717-.0825.3409-.2257.0907-.1881.1852-.3744.2736-.5635.0761-.1627.0756-.3281-.0035-.4906-.0983-.20199-.1953-.40461-.2984-.60408-.1236-.23899-.467-.25619-.6011-.02199-.125.21836-.2269.45007-.3357.67747-.029.0609-.034.1293-.0277.2009zm3.8338-.0405c0 .2999.0011.5997-.0007.8996-.0006.0976.034.1646.1386.1659.1193.0014.1374-.0892.1393-.1801.0037-.1696.0041-.3394-.0001-.5089-.0018-.0725.0225-.096.0946-.0944.1853.0041.3707.0044.5559.0004.2205-.0048.388-.1703.3947-.3912.005-.1656.0054-.33155-.0001-.4971-.0074-.22539-.1814-.38953-.4063-.39015-.2681-.00076-.5363.00317-.8043-.00213-.0862-.00173-.1157.01897-.1138.11039.0059.2958.0022.59179.0022.88769zm-5.75255.0037c0 .2919-.00016.5839.00021.8759.00005.0314-.00423.0655.00618.0936.02429.0656.07386.0998.14694.0931.09121-.0084.11931-.0758.12185-.1491.00601-.1734.00715-.3473.00139-.5207-.00286-.086.01878-.1187.11075-.1151.18107.0071.36271.0054.54398.0009.2144-.0052.38234-.1685.3906-.3829.00651-.1694.00632-.33941.00012-.50885-.00824-.22482-.18295-.38603-.40976-.38655-.26809-.00059-.53628.00393-.80424-.00239-.09194-.00216-.11138.02864-.10994.11435.00498.29582.00192.59184.00192.88774zm1.74135-4.60012c.3804.06545.7675-.0751 1.114-.33344.439-.32721.863-.32264 1.3019.00154.2055.15173.4297.28388.6912.31958.2116.02885.4254.00744.6381.01125.0986.00178.1975-.00154.2954.00742.2559.0234.4392.16149.5664.3784.0817.13939.1621.27985.236.42348.1495.29033.3675.50882.6582.65738.1648.08427.3274.17261.4821.27542.2284.15178.3198.37144.3235.63532.0024.17365.0064.3478-.0036.52095-.0183.31685.0758.59777.2453.85997.0792.12243.153.24842.2264.3745.1661.28555.1576.56945-.0119.85095-.0915.152-.1815.3049-.2736.4565-.1259.2074-.1868.4308-.1861.6746.0007.2404.0164.481-.0063.7215-.0245.2595-.1682.4358-.3823.5635-.132.0787-.2651.1563-.4026.2247-.3045.1516-.5275.3803-.6796.6835-.0671.1337-.1445.2624-.2183.3927-.1547.2733-.3939.3975-.7032.3966-.1696-.0005-.3396.0053-.5087-.0041-.3123-.0172-.5899.0741-.8481.2428-.1122.0732-.2296.1383-.3434.209-.3013.1871-.6008.1848-.9015-.0025-.1505-.0937-.3032-.1841-.456-.2741-.1904-.1121-.3946-.176-.6176-.1738-.2091.0021-.4182.0025-.62722.0026-.3045.0001-.54047-.1232-.6947-.3907-.04922-.0854-.10369-.1687-.14327-.2585-.19277-.437-.51657-.7364-.94872-.929-.09647-.0429-.1851-.1046-.27458-.1619-.23422-.15-.32719-.3743-.32946-.6436-.00109-.1263-.00712-.2533.00362-.3788.03485-.4074-.07123-.7724-.30902-1.1027-.0505-.0702-.0883-.1493-.13513-.2222-.20039-.3123-.19064-.6226.00284-.93405.09361-.15065.18368-.30354.27397-.45623.1129-.19094.16985-.39685.16637-.6198-.00312-.20127-.00142-.40261-.00315-.60393-.00269-.31105.12519-.54772.39762-.7022.13024-.07384.25888-.15107.39252-.21826.30313-.1524.52887-.37852.68232-.68126.08546-.1686.17556-.33474.2845-.49064.14083-.20151.33775-.28964.574-.30132.12985-.00642.26029-.00113.45179-.00113z" fill="#fefefe"/><path d="m14.7402 14.9497c.2914.6972.5828 1.3944.8741 2.0917.0501.1198.1017.2391.1497.3597.0168.0423.0462.0888.0063.1329-.0407.0451-.0872.0172-.1314.003-.4567-.1469-.9144-.2914-1.3695-.4432-.0906-.0302-.1278-.0108-.1687.0733-.2072.4253-.4213.8471-.6335 1.27-.0225.0448-.037.0974-.1044.097-.0702-.0005-.0791-.0584-.0977-.1026-.3675-.8744-.7337-1.7493-1.0995-2.6244-.0119-.0285-.0168-.0598-.025-.0897.3731-.1103.6673-.3732 1.0177-.5272.1127-.0496.2315-.0723.3547-.072.1772.0005.3545-.0043.5314.0018.249.0086.4847-.0285.6958-.1703z" fill="#fccdd3"/><path d="m8.74056 10.0447c0 .0985.00185.197-.00071.2954-.00147.0568.01207.0873.0781.0861.18488-.0033.36986-.0006.5548-.0014.10092-.0005.15442-.0579.1578-.1537.00514-.1455.00597-.29147.00029-.43693-.00384-.09931-.05566-.15986-.16515-.15856-.17705.00211-.35419.00291-.53119-.00052-.07311-.00145-.09775.02786-.09481.098.00376.09041.00089.18109.00087.27161zm-.26689.3642c0-.2959.00303-.59188-.00192-.8877-.00146-.08571.018-.11653.10994-.11435.26793.00632.53615.00177.80424.00239.22681.0005.40152.16173.40973.38655.00623.16943.00642.33941-.00009.50891-.00826.2144-.1762.3776-.39063.3829-.18124.0044-.36288.0061-.54398-.001-.09194-.0035-.11358.0291-.11072.1152.00576.1733.00462.3472-.00139.5206-.00254.0734-.03064.1407-.12185.1491-.07308.0067-.12265-.0274-.14694-.093-.01041-.0282-.00615-.0623-.0062-.0937-.00035-.292-.00019-.5839-.00019-.8759z" fill="#6534ff"/><path d="m14.4928 10.0493c0 .0984.0026.1969-.0009.2953-.0022.0624.0228.0821.0831.0812.181-.0027.362-.0013.543-.001.1066.0002.1622-.057.1653-.1588.0044-.1455.006-.29155-.0007-.43694-.0045-.1004-.0613-.15583-.1695-.15398-.173.00293-.3463.0036-.5193-.0005-.0775-.00185-.1061.02622-.1021.10303.0047.09033.0011.18108.0011.27169zm-.2669.3556c0-.2959.0038-.59188-.0022-.88767-.0018-.0914.0277-.1121.1139-.1104.268.00531.5362.00138.8043.00214.2248.00061.3988.16476.4062.39015.0055.16554.0052.33148.0002.49708-.0068.2209-.1742.3865-.3947.3912-.1853.0041-.3707.0037-.5559-.0004-.0721-.0015-.0965.022-.0947.0944.0042.1696.0038.3393.0002.5089-.002.0909-.0201.1815-.1394.1801-.1045-.0012-.1391-.0682-.1385-.1659.0018-.2999.0006-.5997.0006-.8996z" fill="#6534ff"/><path d="m11.4394 10.4424c-.0076-.0383-.0079-.0801-.0242-.1143-.0953-.1989-.1914-.39757-.2933-.59316-.0443-.08516-.1143-.08434-.159.00261-.0974.18904-.1886.38125-.2791.57375-.0468.0993-.0343.2.0132.2963.0853.1731.1724.3455.2585.5183.0197.0395.0396.0817.0917.0794.0447-.002.0648-.0386.0831-.075.0899-.1797.1808-.3589.2707-.5386.0232-.0464.0367-.0956.0384-.1493zm-1.0473.0031c-.0063-.0716-.0014-.14.0277-.2009.1087-.2274.2106-.4591.3356-.67743.1341-.23423.4775-.21703.6011.02196.1031.19947.2002.40211.2985.60407.0791.1625.0796.3279.0035.4906-.0885.1891-.1829.3754-.2737.5635-.0692.1432-.1724.2315-.3409.2257-.1601-.0054-.2615-.0886-.3285-.2288-.0833-.1742-.1708-.3465-.2585-.5184-.0458-.0898-.0741-.1823-.0648-.2803z" fill="#6534ff"/><path d="m12.9881 10.0786c-.0102.0002-.0203.0004-.0305.0007-.0363.1229-.0755.245-.1079.369-.0264.1012-.1256.2369-.0568.2949.0672.0565.2171.0137.3307.0162.0494.0011.0588-.0154.0444-.0633-.0621-.2052-.1203-.4116-.1799-.6175zm.502 1.3929c-.0784.0015-.1105-.0513-.1306-.1147-.0262-.0825-.0555-.1647-.0721-.2492-.0137-.0702-.0495-.0875-.1144-.0859-.1378.0035-.2758.0036-.4135 0-.0617-.0016-.0931.02-.1083.0804-.022.0877-.055.1726-.0769.2602-.0229.0917-.0814.1258-.1664.1046-.0976-.0243-.1155-.1027-.092-.187.0571-.2045.1204-.4072.1809-.6108.1109-.3732.2217-.74651.3323-1.11984.017-.05761.0344-.11968.1001-.13527.0804-.01909.1505-.00052.1771.09144.1725.59697.3455 1.19387.5161 1.79147.028.0982-.0366.1776-.1323.1746z" fill="#6534ff"/><path d="m8.74039 10.0445c.00002-.09055.00286-.18124-.0009-.27164-.00292-.07015.02173-.09945.09483-.098.177.00343.35412.00263.53117.00052.10951-.00131.16131.05925.16517.15855.00566.14546.00483.29147-.00031.43697-.00336.0958-.05686.1532-.15778.1536-.18493.0008-.36994-.0018-.5548.0015-.06605.0012-.07959-.0293-.07812-.0862.00258-.0983.00074-.1968.00074-.2953z" fill="#fefefe"/><path d="m14.4927 10.0496c0-.09059.0035-.18135-.0011-.27168-.004-.07681.0246-.10488.102-.10303.1731.0041.3463.00344.5194.0005.1081-.00185.1649.05358.1695.15398.0066.14539.0051.29143.0006.43693-.0031.1019-.0587.159-.1652.1588-.181-.0003-.362-.0017-.543.001-.0604.0009-.0854-.0188-.0831-.0812.0035-.0983.0009-.1969.0009-.2953z" fill="#fefefe"/><path d="m11.4393 10.4426c-.0016.0536-.0152.1029-.0384.1493-.0899.1797-.1808.3589-.2707.5385-.0183.0365-.0384.0731-.0831.075-.0521.0024-.072-.0398-.0917-.0793-.0861-.1729-.1732-.3452-.2585-.5183-.0475-.0963-.06-.197-.0132-.2963.0905-.1925.1818-.38473.2791-.57377.0447-.08695.1147-.08778.159-.00261.1019.19559.1981.39418.2933.59318.0163.0341.0166.076.0242.1143z" fill="#fefefe"/><path d="m12.9876 10.0786c.0596.206.1178.4123.1799.6175.0145.0479.005.0644-.0444.0633-.1135-.0024-.2635.0403-.3307-.0162-.0688-.0579.0304-.1937.0569-.2949.0323-.1239.0716-.2461.1078-.369.0102-.0002.0203-.0004.0305-.0007z" fill="#fefefe"/></g></g></svg>