<svg width="24" height="24" viewBox="0 0 24 24" fill="none" xmlns="http://www.w3.org/2000/svg">
<g filter="url(#filter0_b_15668_32192)">
<rect width="24" height="24" rx="10" fill="#181A20" fill-opacity="0.5"/>
<path fill-rule="evenodd" clip-rule="evenodd" d="M14.9893 14.687C15.169 15.1111 15.3489 15.5351 15.5282 15.9594C15.7319 16.4418 15.9328 16.9254 16.1396 17.4066C16.2108 17.5725 16.2239 17.7315 16.0972 17.8699C15.974 18.0046 15.8174 18.0103 15.6509 17.9515C15.2539 17.8113 14.8545 17.6776 14.4585 17.5344C14.3614 17.4993 14.3215 17.5247 14.2806 17.614C14.0985 18.0116 13.9107 18.4067 13.722 18.8013C13.6467 18.9588 13.5145 19.0177 13.3436 19.0051C13.1919 18.9939 13.0983 18.9087 13.0424 18.7757C12.748 18.0751 12.4549 17.3739 12.161 16.6731C12.1474 16.6407 12.1304 16.6099 12.1062 16.5604C12.0051 16.7988 11.9097 17.0213 11.8163 17.2446C11.6036 17.7532 11.3926 18.2624 11.1793 18.7707C11.1155 18.9227 11.0046 19.0047 10.8326 19.0064C10.6596 19.0081 10.5545 18.9241 10.4842 18.7744C10.2981 18.3785 10.1074 17.9848 9.92212 17.5885C9.88789 17.5153 9.85295 17.5041 9.7762 17.5313C9.35712 17.6801 8.93595 17.8231 8.51471 17.9656C8.36756 18.0155 8.22668 17.9894 8.12378 17.8748C8.02075 17.76 7.99093 17.6216 8.05555 17.4682C8.39957 16.6518 8.74062 15.8341 9.08336 15.0172C9.10005 14.9774 9.12299 14.9402 9.14299 14.9019C9.1956 14.9238 9.24486 14.9505 9.27855 14.999C9.10905 15.4101 8.94068 15.8216 8.7697 16.232C8.59399 16.6537 8.41524 17.0741 8.23892 17.4955C8.20048 17.5874 8.18739 17.6815 8.26553 17.7601C8.33755 17.8326 8.42073 17.8108 8.50659 17.7808C8.94487 17.6271 9.38522 17.4793 9.82231 17.3225C9.93398 17.2824 9.98845 17.3033 10.0388 17.4139C10.2333 17.8407 10.4378 18.2628 10.638 18.6869C10.6775 18.7707 10.7336 18.836 10.8328 18.8345C10.926 18.8332 10.9838 18.7732 11.018 18.6915C11.3312 17.9432 11.6409 17.1935 11.9594 16.4474C12.009 16.3311 12.0007 16.2415 11.9313 16.1452C11.8992 16.1644 11.8939 16.1922 11.8834 16.217C11.5736 16.9539 11.2638 17.6909 10.9534 18.4276C10.9327 18.4765 10.9264 18.5459 10.8567 18.5474C10.7827 18.5489 10.7694 18.477 10.7438 18.4261C10.5311 18.0032 10.3174 17.5808 10.1094 17.1556C10.0722 17.0795 10.0369 17.0617 9.95663 17.0898C9.72641 17.1703 9.49347 17.2431 9.26129 17.3179C9.02534 17.3939 8.78887 17.4683 8.55299 17.5446C8.51362 17.5573 8.47561 17.5686 8.44393 17.5331C8.41664 17.5025 8.4248 17.4675 8.4391 17.4331C8.4512 17.404 8.46121 17.3741 8.47338 17.345C8.79157 16.586 9.10992 15.827 9.42823 15.068C9.69415 15.138 9.9666 15.1309 10.2356 15.1142C10.5912 15.0921 10.8948 15.2054 11.1839 15.3989C11.4183 15.5558 11.6596 15.7072 11.9574 15.7134C12.3674 16.6941 12.7781 17.6746 13.1867 18.656C13.2253 18.7487 13.2703 18.8313 13.3815 18.8343C13.4926 18.8373 13.5456 18.7576 13.588 18.6674C13.7772 18.2643 13.9652 17.8607 14.1588 17.4598C14.2491 17.2726 14.2046 17.2606 14.4463 17.344C14.8704 17.4902 15.2948 17.6356 15.718 17.7844C15.8111 17.8172 15.8944 17.8239 15.9662 17.7457C16.0389 17.6665 16.0181 17.5834 15.9805 17.4941C15.6077 16.6088 15.2369 15.7225 14.8655 14.8365C14.9035 14.784 14.9343 14.7255 14.9893 14.687Z" fill="#FCCDD3"/>
<mask id="mask0_15668_32192" style="mask-type:alpha" maskUnits="userSpaceOnUse" x="6" y="5" width="12" height="11">
<path d="M6.625 5H17.3284V15.7172H6.625V5Z" fill="white"/>
</mask>
<g mask="url(#mask0_15668_32192)">
<path fill-rule="evenodd" clip-rule="evenodd" d="M10.2146 5.80867C10.0231 5.80867 9.89269 5.80339 9.76287 5.80981C9.52661 5.82151 9.32968 5.90964 9.18884 6.11115C9.0799 6.26703 8.9898 6.43319 8.90434 6.60177C8.7509 6.90453 8.52515 7.13063 8.22204 7.28303C8.08838 7.35024 7.95974 7.42744 7.8295 7.50131C7.55707 7.65577 7.42919 7.89243 7.43189 8.20348C7.43361 8.4048 7.43191 8.60615 7.43503 8.80742C7.43851 9.03039 7.38156 9.2363 7.26866 9.42722C7.17837 9.57991 7.0883 9.7328 6.99469 9.88347C6.80124 10.1949 6.79146 10.5052 6.99185 10.8175C7.03868 10.8904 7.07648 10.9696 7.12698 11.0397C7.36477 11.37 7.47085 11.735 7.436 12.1424C7.42526 12.2679 7.43129 12.395 7.43238 12.5212C7.43465 12.7905 7.52762 13.0148 7.76184 13.1648C7.85132 13.2221 7.93998 13.2838 8.03642 13.3268C8.46857 13.5193 8.79237 13.8187 8.98514 14.2557C9.02472 14.3455 9.07919 14.4288 9.12841 14.5142C9.28264 14.7817 9.51861 14.905 9.82311 14.9049C10.0322 14.9049 10.2412 14.9044 10.4503 14.9023C10.6734 14.9001 10.8776 14.964 11.0679 15.0761C11.2208 15.1661 11.3734 15.2565 11.5239 15.3503C11.8246 15.5375 12.1241 15.5399 12.4254 15.3527C12.5393 15.282 12.6566 15.2169 12.7688 15.1437C13.027 14.9751 13.3047 14.8837 13.6169 14.901C13.786 14.9103 13.956 14.9045 14.1257 14.905C14.4349 14.9059 14.6741 14.7818 14.8288 14.5084C14.9026 14.3781 14.98 14.2494 15.0471 14.1157C15.1993 13.8125 15.4222 13.5838 15.7267 13.4322C15.8642 13.3638 15.9973 13.2862 16.1293 13.2075C16.3435 13.0798 16.4871 12.9035 16.5116 12.644C16.5344 12.4035 16.5186 12.163 16.5179 11.9225C16.5173 11.6787 16.5781 11.4553 16.704 11.2479C16.7961 11.0963 16.8861 10.9434 16.9777 10.7914C17.1471 10.51 17.1556 10.226 16.9895 9.94044C16.9161 9.81437 16.8423 9.68841 16.7632 9.56595C16.5936 9.30377 16.4995 9.02286 16.5178 8.70598C16.5279 8.53285 16.5239 8.35868 16.5215 8.18505C16.5178 7.92115 16.4264 7.70149 16.198 7.54973C16.0433 7.44689 15.8806 7.35855 15.7158 7.27431C15.4252 7.12573 15.2071 6.90723 15.0577 6.61691C14.9837 6.4733 14.9034 6.33282 14.8216 6.19343C14.6944 5.97652 14.5111 5.83843 14.2553 5.81502C14.1574 5.80607 14.0584 5.80938 13.9599 5.80763C13.7471 5.80379 13.5333 5.82523 13.3217 5.79636C13.0602 5.76068 12.8361 5.62853 12.6306 5.47678C12.1916 5.1526 11.7677 5.14805 11.3287 5.47526C10.9821 5.73358 10.595 5.87413 10.2146 5.80867ZM9.27831 14.9992C9.24462 14.9508 9.19536 14.9241 9.14275 14.9021C8.91635 14.6357 8.77847 14.3144 8.59614 14.0206C8.48173 13.8363 8.30596 13.7243 8.12074 13.6233C7.94097 13.5252 7.75578 13.4362 7.59128 13.3119C7.35227 13.1312 7.22922 12.89 7.21999 12.5919C7.21561 12.45 7.20872 12.3067 7.22212 12.1658C7.25789 11.7901 7.15453 11.4582 6.94053 11.1522C6.85954 11.0364 6.79051 10.9108 6.72811 10.7837C6.58695 10.4963 6.59332 10.2062 6.73133 9.9177C6.80985 9.75346 6.90978 9.60184 7.00674 9.44878C7.15425 9.21598 7.23883 8.96901 7.22281 8.68897C7.21312 8.51972 7.22049 8.34958 7.2184 8.17987C7.21367 7.79744 7.38378 7.51424 7.70741 7.32013C7.83238 7.24517 7.9587 7.17142 8.08945 7.10746C8.3766 6.967 8.58776 6.75628 8.72964 6.46875C8.82705 6.27125 8.92821 6.07464 9.07436 5.90542C9.25371 5.69778 9.48308 5.60347 9.75162 5.59575C9.88954 5.59179 10.0289 5.58312 10.1654 5.59726C10.5508 5.63711 10.8874 5.52245 11.199 5.30441C11.3019 5.23244 11.4145 5.1733 11.5261 5.11505C11.8278 4.95758 12.1302 4.9655 12.4334 5.1159C12.5893 5.19325 12.7353 5.28704 12.8808 5.38085C13.1168 5.53292 13.37 5.61093 13.6522 5.59864C13.8215 5.59125 13.9913 5.59615 14.1609 5.59466C14.5438 5.59127 14.8236 5.76639 15.0151 6.09123C15.0931 6.22361 15.171 6.35658 15.2392 6.49417C15.3721 6.76249 15.5718 6.95918 15.8387 7.09268C16.0043 7.17545 16.1674 7.26348 16.3204 7.36881C16.594 7.55729 16.7317 7.81828 16.7352 8.14999C16.7365 8.28024 16.7451 8.41151 16.7325 8.54057C16.6955 8.92042 16.7996 9.25672 17.0176 9.56498C17.0856 9.66116 17.1419 9.76623 17.1981 9.87018C17.3852 10.2162 17.3665 10.5583 17.1703 10.8943C17.073 11.0612 16.9738 11.2269 16.8751 11.393C16.7758 11.5599 16.7304 11.7405 16.7326 11.9344C16.7349 12.1317 16.7326 12.3292 16.736 12.5265C16.7425 12.9092 16.5731 13.193 16.2513 13.3889C16.1134 13.4729 15.9714 13.5507 15.8281 13.6253C15.5949 13.7466 15.4032 13.9087 15.28 14.1459C15.1855 14.3276 15.0863 14.5069 14.9892 14.6872C14.9341 14.7257 14.9033 14.7842 14.8653 14.8368C14.8152 14.865 14.7771 14.9064 14.7405 14.9495C14.5293 15.0913 14.2936 15.1284 14.0447 15.1198C13.8677 15.1137 13.6904 15.1185 13.5132 15.118C13.39 15.1177 13.2713 15.1405 13.1585 15.19C12.8081 15.344 12.5139 15.6069 12.1408 15.7172C12.0799 15.6998 12.0184 15.7134 11.9571 15.7136C11.6594 15.7075 11.4181 15.556 11.1837 15.3991C10.8946 15.2056 10.591 15.0923 10.2354 15.1144C9.96636 15.1312 9.69391 15.1382 9.42797 15.0682C9.38292 15.0347 9.33517 15.0071 9.27831 14.9992Z" fill="#6534FF"/>
</g>
<path fill-rule="evenodd" clip-rule="evenodd" d="M13.4899 11.4719C13.5858 11.4747 13.6503 11.3954 13.6223 11.2971C13.4517 10.6996 13.2787 10.1027 13.1062 9.50572C13.0796 9.41376 13.0095 9.39516 12.9291 9.41428C12.8634 9.42986 12.8461 9.49191 12.829 9.54955C12.7184 9.92286 12.6077 10.2961 12.4968 10.6694C12.4363 10.8729 12.373 11.0757 12.3159 11.2802C12.2923 11.3645 12.3102 11.4428 12.4078 11.4672C12.4928 11.4884 12.5513 11.4542 12.5742 11.3626C12.5961 11.2749 12.6291 11.1901 12.6512 11.1024C12.6664 11.042 12.6977 11.0204 12.7594 11.022C12.8972 11.0256 13.0352 11.0255 13.1729 11.022C13.2379 11.0204 13.2736 11.0377 13.2873 11.1079C13.3039 11.1924 13.3333 11.2746 13.3594 11.3571C13.3796 11.4205 13.4116 11.4733 13.4899 11.4719ZM10.3922 10.4458C10.3829 10.5438 10.4112 10.6363 10.457 10.7261C10.5448 10.898 10.6322 11.0703 10.7155 11.2444C10.7826 11.3847 10.884 11.4679 11.0441 11.4733C11.2126 11.4791 11.3158 11.3908 11.385 11.2476C11.4757 11.0595 11.5702 10.8732 11.6586 10.6841C11.7347 10.5214 11.7342 10.356 11.6551 10.1935C11.5568 9.99151 11.4598 9.78889 11.3567 9.58942C11.2331 9.35043 10.8897 9.33323 10.7556 9.56743C10.6306 9.78579 10.5287 10.0175 10.4199 10.2449C10.3909 10.3058 10.3859 10.3742 10.3922 10.4458ZM14.226 10.4053C14.226 10.7052 14.2271 11.005 14.2253 11.3049C14.2247 11.4025 14.2593 11.4695 14.3639 11.4708C14.4832 11.4722 14.5013 11.3816 14.5032 11.2907C14.5069 11.1211 14.5073 10.9513 14.5031 10.7818C14.5013 10.7093 14.5256 10.6858 14.5977 10.6874C14.783 10.6915 14.9684 10.6918 15.1536 10.6878C15.3741 10.683 15.5416 10.5175 15.5483 10.2966C15.5533 10.131 15.5537 9.96505 15.5482 9.7995C15.5408 9.57411 15.3668 9.40997 15.1419 9.40935C14.8738 9.40859 14.6056 9.41252 14.3376 9.40722C14.2514 9.40549 14.2219 9.42619 14.2238 9.51761C14.2297 9.81341 14.226 10.1094 14.226 10.4053ZM8.47345 10.409C8.47345 10.7009 8.47329 10.9929 8.47366 11.2849C8.47371 11.3163 8.46943 11.3504 8.47984 11.3785C8.50413 11.4441 8.5537 11.4783 8.62678 11.4716C8.71799 11.4632 8.74609 11.3958 8.74863 11.3225C8.75464 11.1491 8.75578 10.9752 8.75002 10.8018C8.74716 10.7158 8.7688 10.6831 8.86077 10.6867C9.04184 10.6938 9.22348 10.6921 9.40475 10.6876C9.61915 10.6824 9.78709 10.5191 9.79535 10.3047C9.80186 10.1353 9.80167 9.96529 9.79547 9.79585C9.78723 9.57103 9.61252 9.40982 9.38571 9.4093C9.11762 9.40871 8.84943 9.41323 8.58147 9.40691C8.48953 9.40475 8.47009 9.43555 8.47153 9.52126C8.47651 9.81708 8.47345 10.1131 8.47345 10.409ZM10.2148 5.80888C10.5952 5.87433 10.9823 5.73378 11.3288 5.47544C11.7678 5.14823 12.1918 5.1528 12.6307 5.47698C12.8362 5.62871 13.0604 5.76086 13.3219 5.79656C13.5335 5.82541 13.7473 5.804 13.96 5.80781C14.0586 5.80959 14.1575 5.80627 14.2554 5.81523C14.5113 5.83863 14.6946 5.97672 14.8218 6.19363C14.9035 6.33302 14.9839 6.47348 15.0578 6.61711C15.2073 6.90744 15.4253 7.12593 15.716 7.27449C15.8808 7.35876 16.0434 7.4471 16.1981 7.54991C16.4265 7.70169 16.5179 7.92135 16.5216 8.18523C16.524 8.35888 16.528 8.53303 16.518 8.70618C16.4997 9.02303 16.5938 9.30395 16.7633 9.56615C16.8425 9.68858 16.9163 9.81457 16.9897 9.94065C17.1558 10.2262 17.1473 10.5101 16.9778 10.7916C16.8863 10.9436 16.7963 11.0965 16.7042 11.2481C16.5783 11.4555 16.5174 11.6789 16.5181 11.9227C16.5188 12.1631 16.5345 12.4037 16.5118 12.6442C16.4873 12.9037 16.3436 13.08 16.1295 13.2077C15.9975 13.2864 15.8644 13.364 15.7269 13.4324C15.4224 13.584 15.1994 13.8127 15.0473 14.1159C14.9802 14.2496 14.9028 14.3783 14.829 14.5086C14.6743 14.7819 14.4351 14.9061 14.1258 14.9052C13.9562 14.9047 13.7862 14.9105 13.6171 14.9011C13.3048 14.8839 13.0272 14.9752 12.769 15.1439C12.6568 15.2171 12.5394 15.2822 12.4256 15.3529C12.1243 15.54 11.8248 15.5377 11.5241 15.3504C11.3736 15.2567 11.2209 15.1663 11.0681 15.0763C10.8777 14.9642 10.6735 14.9003 10.4505 14.9025C10.2414 14.9046 10.0323 14.905 9.82328 14.9051C9.51878 14.9052 9.28281 14.7819 9.12858 14.5144C9.07936 14.429 9.02489 14.3457 8.98531 14.2559C8.79254 13.8189 8.46874 13.5195 8.03659 13.3269C7.94012 13.284 7.85149 13.2223 7.76201 13.165C7.52779 13.015 7.43482 12.7907 7.43255 12.5214C7.43146 12.3951 7.42543 12.2681 7.43617 12.1426C7.47102 11.7352 7.36494 11.3702 7.12715 11.0399C7.07665 10.9697 7.03885 10.8906 6.99202 10.8177C6.79163 10.5054 6.80138 10.1951 6.99486 9.88365C7.08847 9.733 7.17854 9.58011 7.26883 9.42742C7.38173 9.23648 7.43868 9.03057 7.4352 8.80762C7.43208 8.60635 7.43378 8.40501 7.43205 8.20369C7.42936 7.89264 7.55724 7.65597 7.82967 7.50149C7.95991 7.42765 8.08855 7.35042 8.22219 7.28323C8.52532 7.13083 8.75106 6.90471 8.90451 6.60197C8.98997 6.43337 9.08007 6.26723 9.18901 6.11133C9.32984 5.90982 9.52676 5.82169 9.76301 5.81001C9.89286 5.80359 10.0233 5.80888 10.2148 5.80888Z" fill="#FEFEFE"/>
<path fill-rule="evenodd" clip-rule="evenodd" d="M14.7402 14.9497C15.0316 15.6469 15.323 16.3441 15.6143 17.0414C15.6644 17.1612 15.716 17.2805 15.764 17.4011C15.7808 17.4434 15.8102 17.4899 15.7703 17.534C15.7296 17.5791 15.6831 17.5512 15.6389 17.537C15.1822 17.3901 14.7245 17.2456 14.2694 17.0938C14.1788 17.0636 14.1416 17.083 14.1007 17.1671C13.8935 17.5924 13.6794 18.0142 13.4672 18.4371C13.4447 18.4819 13.4302 18.5345 13.3628 18.5341C13.2926 18.5336 13.2837 18.4757 13.2651 18.4315C12.8976 17.5571 12.5314 16.6822 12.1656 15.8071C12.1537 15.7786 12.1488 15.7473 12.1406 15.7174C12.5137 15.6071 12.8079 15.3442 13.1583 15.1902C13.271 15.1406 13.3898 15.1179 13.513 15.1182C13.6902 15.1187 13.8675 15.1139 14.0444 15.12C14.2934 15.1286 14.5291 15.0915 14.7402 14.9497Z" fill="#FCCDD3"/>
<path fill-rule="evenodd" clip-rule="evenodd" d="M8.74056 10.0447C8.74056 10.1432 8.74241 10.2417 8.73985 10.3401C8.73838 10.3969 8.75192 10.4274 8.81795 10.4262C9.00283 10.4229 9.18781 10.4256 9.37275 10.4248C9.47367 10.4243 9.52717 10.3669 9.53055 10.2711C9.53569 10.1256 9.53652 9.97963 9.53084 9.83417C9.527 9.73486 9.47518 9.67431 9.36569 9.67561C9.18864 9.67772 9.0115 9.67852 8.8345 9.67509C8.76139 9.67364 8.73675 9.70295 8.73969 9.77309C8.74345 9.8635 8.74058 9.95418 8.74056 10.0447ZM8.47367 10.4089C8.47367 10.113 8.4767 9.81702 8.47175 9.5212C8.47029 9.43549 8.48975 9.40467 8.58169 9.40685C8.84962 9.41317 9.11784 9.40862 9.38593 9.40924C9.61274 9.40974 9.78745 9.57097 9.79566 9.79579C9.80189 9.96522 9.80208 10.1352 9.79557 10.3047C9.78731 10.5191 9.61937 10.6823 9.40494 10.6876C9.2237 10.692 9.04206 10.6937 8.86096 10.6866C8.76902 10.6831 8.74738 10.7157 8.75024 10.8018C8.756 10.9751 8.75486 11.149 8.74885 11.3224C8.74631 11.3958 8.71821 11.4631 8.627 11.4715C8.55392 11.4782 8.50435 11.4441 8.48006 11.3785C8.46965 11.3503 8.47391 11.3162 8.47386 11.2848C8.47351 10.9928 8.47367 10.7009 8.47367 10.4089Z" fill="#6534FF"/>
<path fill-rule="evenodd" clip-rule="evenodd" d="M14.4928 10.0493C14.4928 10.1477 14.4954 10.2462 14.4919 10.3446C14.4897 10.407 14.5147 10.4267 14.575 10.4258C14.756 10.4231 14.937 10.4245 15.118 10.4248C15.2246 10.425 15.2802 10.3678 15.2833 10.266C15.2877 10.1205 15.2893 9.97445 15.2826 9.82906C15.2781 9.72866 15.2213 9.67323 15.1131 9.67508C14.9401 9.67801 14.7668 9.67868 14.5938 9.67458C14.5163 9.67273 14.4877 9.7008 14.4917 9.77761C14.4964 9.86794 14.4928 9.95869 14.4928 10.0493ZM14.2259 10.4049C14.2259 10.109 14.2297 9.81302 14.2237 9.51723C14.2219 9.42583 14.2514 9.40513 14.3376 9.40683C14.6056 9.41214 14.8738 9.40821 15.1419 9.40897C15.3667 9.40958 15.5407 9.57373 15.5481 9.79912C15.5536 9.96466 15.5533 10.1306 15.5483 10.2962C15.5415 10.5171 15.3741 10.6827 15.1536 10.6874C14.9683 10.6915 14.7829 10.6911 14.5977 10.687C14.5256 10.6855 14.5012 10.709 14.503 10.7814C14.5072 10.951 14.5068 11.1207 14.5032 11.2903C14.5012 11.3812 14.4831 11.4718 14.3638 11.4704C14.2593 11.4692 14.2247 11.4022 14.2253 11.3045C14.2271 11.0046 14.2259 10.7048 14.2259 10.4049Z" fill="#6534FF"/>
<path fill-rule="evenodd" clip-rule="evenodd" d="M11.4394 10.4424C11.4318 10.4041 11.4315 10.3623 11.4152 10.3281C11.3199 10.1292 11.2238 9.93053 11.1219 9.73494C11.0776 9.64978 11.0076 9.6506 10.9629 9.73755C10.8655 9.92659 10.7743 10.1188 10.6838 10.3113C10.637 10.4106 10.6495 10.5113 10.697 10.6076C10.7823 10.7807 10.8694 10.9531 10.9555 11.1259C10.9752 11.1654 10.9951 11.2076 11.0472 11.2053C11.0919 11.2033 11.112 11.1667 11.1303 11.1303C11.2202 10.9506 11.3111 10.7714 11.401 10.5917C11.4242 10.5453 11.4377 10.4961 11.4394 10.4424ZM10.3921 10.4455C10.3858 10.3739 10.3907 10.3055 10.4198 10.2446C10.5285 10.0172 10.6304 9.7855 10.7554 9.56717C10.8895 9.33294 11.2329 9.35014 11.3565 9.58913C11.4596 9.7886 11.5567 9.99124 11.655 10.1932C11.7341 10.3557 11.7346 10.5211 11.6585 10.6838C11.57 10.8729 11.4756 11.0592 11.3848 11.2473C11.3156 11.3905 11.2124 11.4788 11.0439 11.473C10.8838 11.4676 10.7824 11.3844 10.7154 11.2442C10.6321 11.07 10.5446 10.8977 10.4569 10.7258C10.4111 10.636 10.3828 10.5435 10.3921 10.4455Z" fill="#6534FF"/>
<path fill-rule="evenodd" clip-rule="evenodd" d="M12.9881 10.0786C12.9779 10.0788 12.9678 10.079 12.9576 10.0793C12.9213 10.2022 12.8821 10.3243 12.8497 10.4483C12.8233 10.5495 12.7241 10.6852 12.7929 10.7432C12.8601 10.7997 13.01 10.7569 13.1236 10.7594C13.173 10.7605 13.1824 10.744 13.168 10.6961C13.1059 10.4909 13.0477 10.2845 12.9881 10.0786ZM13.4901 11.4715C13.4117 11.473 13.3796 11.4202 13.3595 11.3568C13.3333 11.2743 13.304 11.1921 13.2874 11.1076C13.2737 11.0374 13.2379 11.0201 13.173 11.0217C13.0352 11.0252 12.8972 11.0253 12.7595 11.0217C12.6978 11.0201 12.6664 11.0417 12.6512 11.1021C12.6292 11.1898 12.5962 11.2747 12.5743 11.3623C12.5514 11.454 12.4929 11.4881 12.4079 11.4669C12.3103 11.4426 12.2924 11.3642 12.3159 11.2799C12.373 11.0754 12.4363 10.8727 12.4968 10.6691C12.6077 10.2959 12.7185 9.92259 12.8291 9.54926C12.8461 9.49165 12.8635 9.42958 12.9292 9.41399C13.0096 9.3949 13.0797 9.41347 13.1063 9.50543C13.2788 10.1024 13.4518 10.6993 13.6224 11.2969C13.6504 11.3951 13.5858 11.4745 13.4901 11.4715Z" fill="#6534FF"/>
<path fill-rule="evenodd" clip-rule="evenodd" d="M8.74039 10.0445C8.74041 9.95395 8.74325 9.86326 8.73949 9.77286C8.73657 9.70271 8.76122 9.67341 8.83432 9.67486C9.01132 9.67829 9.18844 9.67749 9.36549 9.67538C9.475 9.67407 9.5268 9.73463 9.53066 9.83393C9.53632 9.97939 9.53549 10.1254 9.53035 10.2709C9.52699 10.3667 9.47349 10.4241 9.37257 10.4245C9.18764 10.4253 9.00263 10.4227 8.81777 10.426C8.75172 10.4272 8.73818 10.3967 8.73965 10.3398C8.74223 10.2415 8.74039 10.143 8.74039 10.0445Z" fill="#FEFEFE"/>
<path fill-rule="evenodd" clip-rule="evenodd" d="M14.4927 10.0496C14.4927 9.95901 14.4962 9.86825 14.4916 9.77792C14.4876 9.70111 14.5162 9.67304 14.5936 9.67489C14.7667 9.67899 14.9399 9.67833 15.113 9.67539C15.2211 9.67354 15.2779 9.72897 15.2825 9.82937C15.2891 9.97476 15.2876 10.1208 15.2831 10.2663C15.28 10.3682 15.2244 10.4253 15.1179 10.4251C14.9369 10.4248 14.7559 10.4234 14.5749 10.4261C14.5145 10.427 14.4895 10.4073 14.4918 10.3449C14.4953 10.2466 14.4927 10.148 14.4927 10.0496Z" fill="#FEFEFE"/>
<path fill-rule="evenodd" clip-rule="evenodd" d="M11.4393 10.4426C11.4377 10.4962 11.4241 10.5455 11.4009 10.5919C11.311 10.7716 11.2201 10.9508 11.1302 11.1304C11.1119 11.1669 11.0918 11.2035 11.0471 11.2054C10.995 11.2078 10.9751 11.1656 10.9554 11.1261C10.8693 10.9532 10.7822 10.7809 10.6969 10.6078C10.6494 10.5115 10.6369 10.4108 10.6837 10.3115C10.7742 10.119 10.8655 9.92677 10.9628 9.73773C11.0075 9.65078 11.0775 9.64995 11.1218 9.73512C11.2237 9.93071 11.3199 10.1293 11.4151 10.3283C11.4314 10.3624 11.4317 10.4043 11.4393 10.4426Z" fill="#FEFEFE"/>
<path fill-rule="evenodd" clip-rule="evenodd" d="M12.9876 10.0786C13.0472 10.2846 13.1054 10.4909 13.1675 10.6961C13.182 10.744 13.1725 10.7605 13.1231 10.7594C13.0096 10.757 12.8596 10.7997 12.7924 10.7432C12.7236 10.6853 12.8228 10.5495 12.8493 10.4483C12.8816 10.3244 12.9209 10.2022 12.9571 10.0793C12.9673 10.0791 12.9774 10.0789 12.9876 10.0786Z" fill="#FEFEFE"/>
</g>
<defs>
<filter id="filter0_b_15668_32192" x="-24" y="-24" width="72" height="72" filterUnits="userSpaceOnUse" color-interpolation-filters="sRGB">
<feFlood flood-opacity="0" result="BackgroundImageFix"/>
<feGaussianBlur in="BackgroundImageFix" stdDeviation="12"/>
<feComposite in2="SourceAlpha" operator="in" result="effect1_backgroundBlur_15668_32192"/>
<feBlend mode="normal" in="SourceGraphic" in2="effect1_backgroundBlur_15668_32192" result="shape"/>
</filter>
</defs>
</svg>
