<svg width="24" height="24" viewBox="0 0 24 24" fill="none" xmlns="http://www.w3.org/2000/svg">
    <g id="vuesax/linear/task">
        <g id="task">
            <path id="Vector" d="M10 19.5H21" stroke="currentColor" stroke-width="1.5" stroke-linecap="round"
                stroke-linejoin="round" />
            <path id="Vector_2" d="M10 12.5H21" stroke="currentColor" stroke-width="1.5" stroke-linecap="round"
                stroke-linejoin="round" />
            <path id="Vector_3" d="M10 5.5H21" stroke="currentColor" stroke-width="1.5" stroke-linecap="round"
                stroke-linejoin="round" />
            <path id="Vector_4"
                d="M4.5 7C5.32843 7 6 6.32843 6 5.5C6 4.67157 5.32843 4 4.5 4C3.67157 4 3 4.67157 3 5.5C3 6.32843 3.67157 7 4.5 7Z"
                stroke="currentColor" stroke-width="1.5" stroke-linecap="round" stroke-linejoin="round" />
            <path id="Vector_5" d="M3 12.5L4 13.5L7 10.5" stroke="currentColor" stroke-width="1.5"
                stroke-linecap="round" stroke-linejoin="round" />
            <path id="Vector_6"
                d="M4.5 21C5.32843 21 6 20.3284 6 19.5C6 18.6716 5.32843 18 4.5 18C3.67157 18 3 18.6716 3 19.5C3 20.3284 3.67157 21 4.5 21Z"
                stroke="currentColor" stroke-width="1.5" stroke-linecap="round" stroke-linejoin="round" />
        </g>
    </g>
</svg>