<svg width="24" height="24" viewBox="0 0 24 24" fill="none" xmlns="http://www.w3.org/2000/svg">
    <path d="M3 22H21" stroke="#181818" stroke-width="1.5" stroke-linecap="round" stroke-linejoin="round" />
    <path
        d="M5.59998 8.37988H4C3.45 8.37988 3 8.82988 3 9.37988V17.9999C3 18.5499 3.45 18.9999 4 18.9999H5.59998C6.14998 18.9999 6.59998 18.5499 6.59998 17.9999V9.37988C6.59998 8.82988 6.14998 8.37988 5.59998 8.37988Z"
        stroke="#181818" stroke-width="1.5" stroke-linecap="round" stroke-linejoin="round" />
    <path
        d="M12.8002 5.18994H11.2002C10.6502 5.18994 10.2002 5.63994 10.2002 6.18994V17.9999C10.2002 18.5499 10.6502 18.9999 11.2002 18.9999H12.8002C13.3502 18.9999 13.8002 18.5499 13.8002 17.9999V6.18994C13.8002 5.63994 13.3502 5.18994 12.8002 5.18994Z"
        stroke="#181818" stroke-width="1.5" stroke-linecap="round" stroke-linejoin="round" />
    <path
        d="M19.9999 2H18.3999C17.8499 2 17.3999 2.45 17.3999 3V18C17.3999 18.55 17.8499 19 18.3999 19H19.9999C20.5499 19 20.9999 18.55 20.9999 18V3C20.9999 2.45 20.5499 2 19.9999 2Z"
        stroke="#181818" stroke-width="1.5" stroke-linecap="round" stroke-linejoin="round" />
</svg>