<svg xmlns="http://www.w3.org/2000/svg" width="20" height="20" fill="none">
    <path stroke="currentColor" stroke-linecap="round" stroke-linejoin="round" stroke-width="1.5"
        d="M15.12 18.02a9.3 9.3 0 0 1-2.62.31h-5a9.3 9.3 0 0 1-2.62-.31c.19-2.17 2.41-3.88 5.12-3.88 2.7 0 4.93 1.71 5.12 3.88Z" />
    <path stroke="currentColor" stroke-linecap="round" stroke-linejoin="round" stroke-width="1.5"
        d="M12.5 1.67h-5c-4.17 0-5.83 1.66-5.83 5.83v5c0 3.15.95 4.88 3.21 5.52.19-2.17 2.41-3.88 5.12-3.88 2.7 0 4.93 1.71 5.12 3.88 2.26-.64 3.21-2.37 3.21-5.52v-5c0-4.17-1.66-5.83-5.83-5.83ZM10 11.8a2.99 2.99 0 1 1 0-5.98 2.99 2.99 0 0 1 0 5.98Z" />
    <path stroke="currentColor" stroke-linecap="round" stroke-linejoin="round" stroke-width="1.5"
        d="M12.98 8.82a2.99 2.99 0 1 1-5.97 0 2.99 2.99 0 0 1 5.97 0Z" />
</svg>
