<svg xmlns="http://www.w3.org/2000/svg" width="20" height="20" fill="none">
    <path fill="currentColor"
        d="M13.5 1.67h-7c-3.02 0-4.83 1.8-4.83 4.84v6.98c0 2.34 1.07 3.95 2.96 4.56.55.2 1.19.28 1.88.28h6.98c.7 0 1.33-.09 1.88-.28 1.89-.6 2.96-2.22 2.96-4.56V6.51c0-3.03-1.8-4.84-4.84-4.84Zm3.58 11.82c0 1.79-.7 2.91-2.1 3.38-.81-1.6-2.73-2.73-4.98-2.73-2.25 0-4.16 1.13-4.97 2.73h-.01c-1.4-.45-2.1-1.59-2.1-3.37v-7c0-2.34 1.24-3.58 3.59-3.58h6.98c2.35 0 3.6 1.24 3.6 3.59v6.98Z" />
    <path fill="currentColor" d="M10 6.67a2.98 2.98 0 1 0 0 5.96 2.98 2.98 0 0 0 0-5.96Z" />
</svg>
