<svg xmlns="http://www.w3.org/2000/svg" width="24" height="24" fill="none">
    <path stroke="currentColor" stroke-linecap="round" stroke-linejoin="round" stroke-width="1.5"
        d="M18.14 21.62c-.88.26-1.92.38-3.14.38H9c-1.22 0-2.26-.12-3.14-.38.22-2.6 2.89-4.65 6.14-4.65 3.25 0 5.92 2.05 6.14 4.65Z" />
    <path stroke="currentColor" stroke-linecap="round" stroke-linejoin="round" stroke-width="1.5"
        d="M15 2H9C4 2 2 4 2 9v6c0 3.78 1.14 5.85 3.86 6.62.22-2.6 2.89-4.65 6.14-4.65 3.25 0 5.92 2.05 6.14 4.65C20.86 20.85 22 18.78 22 15V9c0-5-2-7-7-7Zm-3 12.17A3.58 3.58 0 1 1 12.01 7a3.58 3.58 0 0 1-.01 7.17Z" />
    <path stroke="currentColor" stroke-linecap="round" stroke-linejoin="round" stroke-width="1.5"
        d="M15.58 10.58a3.58 3.58 0 1 1-7.17.01 3.58 3.58 0 0 1 7.17-.01Z" />
</svg>