<svg width="34" height="35" viewBox="0 0 34 35" fill="none" xmlns="http://www.w3.org/2000/svg">
    <g filter="url(#filter0_d_10671_42283)">
        <path fill-rule="evenodd" clip-rule="evenodd"
            d="M23.9418 15.33C23.9723 15.2562 23.9879 15.1772 23.9878 15.0974V13.8819C23.9878 13.7208 23.9238 13.5662 23.8099 13.4523C23.696 13.3384 23.5415 13.2744 23.3804 13.2744H10.6192C10.4581 13.2744 10.3036 13.3384 10.1896 13.4523C10.0757 13.5662 10.0117 13.7208 10.0117 13.8819V15.0974C10.0116 15.1772 10.0273 15.2562 10.0578 15.33C10.0883 15.4038 10.133 15.4708 10.1894 15.5273C10.2458 15.5838 10.3128 15.6286 10.3866 15.6591C10.4603 15.6897 10.5393 15.7054 10.6192 15.7054H11.2271V22.3897C11.2271 22.4695 11.2428 22.5485 11.2733 22.6223C11.3039 22.696 11.3487 22.763 11.4052 22.8194C11.4617 22.8758 11.5287 22.9205 11.6025 22.951C11.6762 22.9815 11.7553 22.9972 11.8351 22.9971H22.1653C22.3265 22.9971 22.4811 22.9331 22.5951 22.8192C22.7091 22.7053 22.7732 22.5508 22.7734 22.3897V15.7054H23.3804C23.4602 15.7054 23.5392 15.6897 23.613 15.6591C23.6867 15.6286 23.7537 15.5838 23.8101 15.5273C23.8665 15.4708 23.9113 15.4038 23.9418 15.33Z"
            fill="#4B4B4B" />
        <path
            d="M20.2975 11.0497C19.8331 11.5148 17.6074 12.0587 17.6074 12.0587C17.6074 12.0587 18.1544 9.83303 18.6164 9.36858C18.7252 9.25123 18.8566 9.15704 19.0026 9.09165C19.1487 9.02625 19.3065 8.991 19.4665 8.988C19.6265 8.985 19.7855 9.01431 19.9339 9.07418C20.0823 9.13405 20.2172 9.22325 20.3303 9.33644C20.4434 9.44963 20.5326 9.58448 20.5924 9.73292C20.6522 9.88137 20.6815 10.0404 20.6784 10.2004C20.6754 10.3604 20.6401 10.5181 20.5746 10.6642C20.5092 10.8102 20.4149 10.941 20.2975 11.0497Z"
            stroke="black" stroke-width="0.5" stroke-linecap="round" stroke-linejoin="round" />
        <path
            d="M13.7028 11.05C14.1672 11.5151 16.3929 12.059 16.3929 12.059C16.3929 12.059 15.8453 9.83391 15.3839 9.36947C15.1594 9.1539 14.8593 9.03495 14.5481 9.03815C14.2369 9.04134 13.9393 9.16643 13.7193 9.38655C13.4992 9.60668 13.3742 9.9043 13.3712 10.2155C13.3681 10.5268 13.4871 10.8268 13.7028 11.0512V11.05Z"
            stroke="black" stroke-width="0.5" stroke-linecap="round" stroke-linejoin="round" />
    </g>
    <path
        d="M22.7739 22.3894C22.7737 22.5506 22.7096 22.7051 22.5956 22.819C22.4815 22.9329 22.327 22.9969 22.1658 22.9969H11.8356C11.7558 22.9969 11.6767 22.9813 11.6029 22.9508C11.5292 22.9203 11.4621 22.8756 11.4057 22.8192C11.3492 22.7627 11.3044 22.6958 11.2738 22.622C11.2433 22.5483 11.2275 22.4692 11.2275 22.3894V15.7051H22.7733L22.7739 22.3894Z"
        fill="#F93737" />
    <path d="M22.7739 15.7051H11.2275V17.4284H22.7733V15.7051H22.7739Z" fill="#CD1B1B" />
    <path
        d="M23.9888 15.0974C23.9889 15.1772 23.9732 15.2562 23.9427 15.33C23.9123 15.4038 23.8675 15.4708 23.8111 15.5273C23.7547 15.5838 23.6877 15.6286 23.614 15.6591C23.5402 15.6897 23.4612 15.7054 23.3814 15.7054H10.6201C10.5403 15.7054 10.4613 15.6897 10.3875 15.6591C10.3138 15.6286 10.2468 15.5838 10.1904 15.5273C10.134 15.4708 10.0893 15.4038 10.0588 15.33C10.0283 15.2562 10.0126 15.1772 10.0127 15.0974V13.8819C10.0127 13.7208 10.0767 13.5662 10.1906 13.4523C10.3045 13.3384 10.459 13.2744 10.6201 13.2744H23.3814C23.5425 13.2744 23.697 13.3384 23.8109 13.4523C23.9248 13.5662 23.9888 13.7208 23.9888 13.8819V15.098V15.0974Z"
        fill="#CD1B1B" />
    <path
        d="M23.9888 14.3506V13.8819C23.9888 13.7208 23.9248 13.5662 23.8109 13.4523C23.697 13.3384 23.5425 13.2744 23.3814 13.2744H10.6201C10.459 13.2744 10.3045 13.3384 10.1906 13.4523C10.0767 13.5662 10.0127 13.7208 10.0127 13.8819V14.3506H23.9888Z"
        fill="#F93737" />
    <path d="M19.1274 13.2744H14.874V15.7054H19.1274V13.2744Z" fill="#D8922C" />
    <path d="M19.1274 13.2744H14.874V14.3506H19.1274V13.2744Z" fill="#FFB952" />
    <path d="M19.1274 15.7051H14.874V22.9969H19.1274V15.7051Z" fill="#FFB952" />
    <path d="M19.1274 15.7051H14.874V17.4284H19.1274V15.7051Z" fill="#D8922C" />
    <path
        d="M23.9888 15.0974C23.9889 15.1772 23.9732 15.2562 23.9427 15.33C23.9123 15.4038 23.8675 15.4708 23.8111 15.5273C23.7547 15.5838 23.6877 15.6286 23.614 15.6591C23.5402 15.6897 23.4612 15.7054 23.3814 15.7054H10.6201C10.5403 15.7054 10.4613 15.6897 10.3875 15.6591C10.3138 15.6286 10.2468 15.5838 10.1904 15.5273C10.134 15.4708 10.0893 15.4038 10.0588 15.33C10.0283 15.2562 10.0126 15.1772 10.0127 15.0974V13.8819C10.0127 13.7208 10.0767 13.5662 10.1906 13.4523C10.3045 13.3384 10.459 13.2744 10.6201 13.2744H23.3814C23.5425 13.2744 23.697 13.3384 23.8109 13.4523C23.9248 13.5662 23.9888 13.7208 23.9888 13.8819V15.098V15.0974Z"
        stroke="url(#paint0_linear_10671_42283)" stroke-width="0.611111" stroke-linecap="round"
        stroke-linejoin="round" />
    <path
        d="M22.7739 22.3894C22.7737 22.5506 22.7096 22.7051 22.5956 22.819C22.4815 22.9329 22.327 22.9969 22.1658 22.9969H11.8356C11.7558 22.9969 11.6767 22.9813 11.6029 22.9508C11.5292 22.9203 11.4621 22.8756 11.4057 22.8192C11.3492 22.7627 11.3044 22.6958 11.2738 22.622C11.2433 22.5483 11.2275 22.4692 11.2275 22.3894L11.2275 15.7051H22.7739V22.3894Z"
        stroke="url(#paint1_linear_10671_42283)" stroke-width="0.611111" stroke-linecap="round"
        stroke-linejoin="round" />
    <path d="M14.874 13.2744V22.9972" stroke="url(#paint2_linear_10671_42283)"
        stroke-width="0.611111" stroke-linecap="round" stroke-linejoin="round" />
    <path d="M19.127 22.9972V13.2744" stroke="url(#paint3_linear_10671_42283)"
        stroke-width="0.611111" stroke-linecap="round" stroke-linejoin="round" />
    <path
        d="M20.2985 11.0497C19.8341 11.5148 17.6084 12.0587 17.6084 12.0587C17.6084 12.0587 18.1553 9.83303 18.6173 9.36858C18.7262 9.25123 18.8575 9.15704 19.0036 9.09165C19.1497 9.02625 19.3075 8.991 19.4675 8.988C19.6275 8.985 19.7865 9.01431 19.9349 9.07418C20.0833 9.13405 20.2181 9.22325 20.3313 9.33644C20.4444 9.44963 20.5336 9.58448 20.5934 9.73292C20.6532 9.88137 20.6825 10.0404 20.6794 10.2004C20.6763 10.3604 20.641 10.5181 20.5756 10.6642C20.5101 10.8102 20.4159 10.941 20.2985 11.0497Z"
        stroke="url(#paint4_linear_10671_42283)" stroke-width="0.611111" stroke-linecap="round"
        stroke-linejoin="round" />
    <path
        d="M13.7028 11.05C14.1672 11.5151 16.3929 12.059 16.3929 12.059C16.3929 12.059 15.8453 9.83391 15.3839 9.36947C15.1594 9.1539 14.8593 9.03495 14.5481 9.03815C14.2369 9.04134 13.9393 9.16643 13.7193 9.38655C13.4992 9.60668 13.3742 9.9043 13.3712 10.2155C13.3681 10.5268 13.4871 10.8268 13.7028 11.0512V11.05Z"
        stroke="url(#paint5_linear_10671_42283)" stroke-width="0.611111" stroke-linecap="round"
        stroke-linejoin="round" />
    <path
        d="M13.7028 11.05C14.1672 11.5151 16.3929 12.059 16.3929 12.059C16.3929 12.059 15.8453 9.83391 15.3839 9.36947C15.1594 9.1539 14.8593 9.03495 14.5481 9.03815C14.2369 9.04134 13.9393 9.16643 13.7193 9.38655C13.4992 9.60668 13.3742 9.9043 13.3712 10.2155C13.3681 10.5268 13.4871 10.8268 13.7028 11.0512V11.05Z"
        stroke="url(#paint6_linear_10671_42283)" stroke-width="0.611111" stroke-linecap="round"
        stroke-linejoin="round" />
    <g filter="url(#filter1_d_10671_42283)">
        <rect x="13.9453" y="12.0278" width="6.11111" height="6.11111" rx="3.05556" fill="#FFB952" />
        <rect x="14.112" y="12.1945" width="5.77778" height="5.77778" rx="2.88889" stroke="#EFA437"
            stroke-width="0.333333" />
        <rect x="14.112" y="12.1945" width="5.77778" height="5.77778" rx="2.88889"
            stroke="url(#paint7_linear_10671_42283)" stroke-width="0.333333" />
        <path d="M17.001 13.5894V14.6937L17.9344 15.1109L17.001 13.5894Z" fill="white"
            fill-opacity="0.4" />
        <path d="M17.0009 13.5894L16.0674 15.1109L17.0009 14.6937V13.5894Z" fill="white" />
        <path d="M17.001 15.8265V16.5769L17.935 15.2847L17.001 15.8265Z" fill="white"
            fill-opacity="0.4" />
        <path d="M17.0009 16.5769V15.8264L16.0674 15.2847L17.0009 16.5769Z" fill="white" />
        <path d="M17.001 15.6527L17.9344 15.1107L17.001 14.6938V15.6527Z" fill="white"
            fill-opacity="0.1" />
        <path d="M16.0674 15.1107L17.0009 15.6527V14.6938L16.0674 15.1107Z" fill="white"
            fill-opacity="0.4" />
    </g>
    <defs>
        <filter id="filter0_d_10671_42283" x="0.0117188" y="0.737793" width="33.9766"
            height="34.2593" filterUnits="userSpaceOnUse" color-interpolation-filters="sRGB">
            <feFlood flood-opacity="0" result="BackgroundImageFix" />
            <feColorMatrix in="SourceAlpha" type="matrix"
                values="0 0 0 0 0 0 0 0 0 0 0 0 0 0 0 0 0 0 127 0" result="hardAlpha" />
            <feOffset dy="2" />
            <feGaussianBlur stdDeviation="5" />
            <feComposite in2="hardAlpha" operator="out" />
            <feColorMatrix type="matrix"
                values="0 0 0 0 0.803922 0 0 0 0 0.105882 0 0 0 0 0.105882 0 0 0 0.35 0" />
            <feBlend mode="normal" in2="BackgroundImageFix" result="effect1_dropShadow_10671_42283" />
            <feBlend mode="normal" in="SourceGraphic" in2="effect1_dropShadow_10671_42283"
                result="shape" />
        </filter>
        <filter id="filter1_d_10671_42283" x="12.9453" y="12.0278" width="8.11133" height="8.77799"
            filterUnits="userSpaceOnUse" color-interpolation-filters="sRGB">
            <feFlood flood-opacity="0" result="BackgroundImageFix" />
            <feColorMatrix in="SourceAlpha" type="matrix"
                values="0 0 0 0 0 0 0 0 0 0 0 0 0 0 0 0 0 0 127 0" result="hardAlpha" />
            <feOffset dy="1.66667" />
            <feGaussianBlur stdDeviation="0.5" />
            <feComposite in2="hardAlpha" operator="out" />
            <feColorMatrix type="matrix"
                values="0 0 0 0 0.519857 0 0 0 0 0.324628 0 0 0 0 0.120657 0 0 0 0.5 0" />
            <feBlend mode="multiply" in2="BackgroundImageFix"
                result="effect1_dropShadow_10671_42283" />
            <feBlend mode="normal" in="SourceGraphic" in2="effect1_dropShadow_10671_42283"
                result="shape" />
        </filter>
        <linearGradient id="paint0_linear_10671_42283" x1="17.0008" y1="13.2112" x2="17.0008"
            y2="16.0286" gradientUnits="userSpaceOnUse">
            <stop stop-color="#FFDF86" />
            <stop offset="0.385417" stop-color="#FFF3C7" />
            <stop offset="0.713542" stop-color="#FFDF86" />
            <stop offset="1" stop-color="#D57E42" />
        </linearGradient>
        <linearGradient id="paint1_linear_10671_42283" x1="17.0007" y1="15.5154" x2="17.0007"
            y2="23.9663" gradientUnits="userSpaceOnUse">
            <stop stop-color="#FFDF86" />
            <stop offset="0.385417" stop-color="#FFF3C7" />
            <stop offset="0.713542" stop-color="#FFDF86" />
            <stop offset="1" stop-color="#D57E42" />
        </linearGradient>
        <linearGradient id="paint2_linear_10671_42283" x1="15.374" y1="13.0215" x2="15.374"
            y2="24.2898" gradientUnits="userSpaceOnUse">
            <stop stop-color="#FFDF86" />
            <stop offset="0.385417" stop-color="#FFF3C7" />
            <stop offset="0.713542" stop-color="#FFDF86" />
            <stop offset="1" stop-color="#D57E42" />
        </linearGradient>
        <linearGradient id="paint3_linear_10671_42283" x1="19.627" y1="13.0215" x2="19.627"
            y2="24.2898" gradientUnits="userSpaceOnUse">
            <stop stop-color="#FFDF86" />
            <stop offset="0.385417" stop-color="#FFF3C7" />
            <stop offset="0.713542" stop-color="#FFDF86" />
            <stop offset="1" stop-color="#D57E42" />
        </linearGradient>
        <linearGradient id="paint4_linear_10671_42283" x1="19.144" y1="8.90791" x2="19.144"
            y2="12.467" gradientUnits="userSpaceOnUse">
            <stop stop-color="#F0C241" />
            <stop offset="0.385417" stop-color="#FFE378" />
            <stop offset="0.713542" stop-color="#FFD04E" />
            <stop offset="1" stop-color="#D57E42" />
        </linearGradient>
        <linearGradient id="paint5_linear_10671_42283" x1="14.882" y1="8.95951" x2="14.882"
            y2="12.4606" gradientUnits="userSpaceOnUse">
            <stop stop-color="#FFDF86" />
            <stop offset="0.385417" stop-color="#FFF3C7" />
            <stop offset="0.713542" stop-color="#FFDF86" />
            <stop offset="1" stop-color="#D57E42" />
        </linearGradient>
        <linearGradient id="paint6_linear_10671_42283" x1="14.882" y1="8.95951" x2="14.882"
            y2="12.4606" gradientUnits="userSpaceOnUse">
            <stop stop-color="#F0C241" />
            <stop offset="0.385417" stop-color="#FFE378" />
            <stop offset="0.713542" stop-color="#FFD04E" />
            <stop offset="1" stop-color="#D57E42" />
        </linearGradient>
        <linearGradient id="paint7_linear_10671_42283" x1="17.0009" y1="11.8689" x2="17.0009"
            y2="18.9514" gradientUnits="userSpaceOnUse">
            <stop stop-color="#FFDF86" />
            <stop offset="0.385417" stop-color="#FFF3C7" />
            <stop offset="0.713542" stop-color="#FFDF86" />
            <stop offset="1" stop-color="#D57E42" />
        </linearGradient>
    </defs>
</svg>
    