<svg fill="none" height="16" viewBox="0 0 16 16" width="16" xmlns="http://www.w3.org/2000/svg" xmlns:xlink="http://www.w3.org/1999/xlink"><filter id="a" color-interpolation-filters="sRGB" filterUnits="userSpaceOnUse" height="8.77775" width="8.11133" x="4.27734" y="4.36108"><feFlood flood-opacity="0" result="BackgroundImageFix"/><feColorMatrix in="SourceAlpha" result="hardAlpha" type="matrix" values="0 0 0 0 0 0 0 0 0 0 0 0 0 0 0 0 0 0 127 0"/><feOffset dy="1.66667"/><feGaussianBlur stdDeviation=".5"/><feComposite in2="hardAlpha" operator="out"/><feColorMatrix type="matrix" values="0 0 0 0 0.519857 0 0 0 0 0.324628 0 0 0 0 0.120657 0 0 0 0.5 0"/><feBlend in2="BackgroundImageFix" mode="multiply" result="effect1_dropShadow_11296_11650"/><feBlend in="SourceGraphic" in2="effect1_dropShadow_11296_11650" mode="normal" result="shape"/></filter><linearGradient id="b"><stop offset="0" stop-color="#ffdf86"/><stop offset=".385417" stop-color="#fff3c7"/><stop offset=".713542" stop-color="#ffdf86"/><stop offset="1" stop-color="#d57e42"/></linearGradient><linearGradient id="c" gradientUnits="userSpaceOnUse" x1="8.00029" x2="8.00029" xlink:href="#b" y1="4.95763" y2="8.03119"/><linearGradient id="d" gradientUnits="userSpaceOnUse" x1="8.00015" x2="8.00015" xlink:href="#b" y1="7.47155" y2="16.6907"/><linearGradient id="e" gradientUnits="userSpaceOnUse" x1="6.18066" x2="6.18066" xlink:href="#b" y1="4.75072" y2="17.0434"/><linearGradient id="f" gradientUnits="userSpaceOnUse" x1="10.8203" x2="10.8203" xlink:href="#b" y1="4.75072" y2="17.0434"/><linearGradient id="g"><stop offset="0" stop-color="#f0c241"/><stop offset=".385417" stop-color="#ffe378"/><stop offset=".713542" stop-color="#ffd04e"/><stop offset="1" stop-color="#d57e42"/></linearGradient><linearGradient id="h" gradientUnits="userSpaceOnUse" x1="10.3383" x2="10.3383" xlink:href="#g" y1=".263445" y2="4.14604"/><linearGradient id="i" gradientUnits="userSpaceOnUse" x1="5.68927" x2="5.68927" xlink:href="#b" y1=".319308" y2="4.13867"/><linearGradient id="j" gradientUnits="userSpaceOnUse" x1="5.68927" x2="5.68927" xlink:href="#g" y1=".319308" y2="4.13867"/><linearGradient id="k" gradientUnits="userSpaceOnUse" x1="8.3329" x2="8.3329" xlink:href="#b" y1="4.20212" y2="11.2847"/><path clip-rule="evenodd" d="m15.5734 7.26907c.0332-.08047.0503-.16671.0502-.25379v-1.326c0-.17575-.0698-.3443-.1941-.46858-.1242-.12427-.2928-.19409-.4685-.19409h-13.92138c-.175749 0-.344301.06982-.468575.19409-.124274.12428-.194092.29283-.194092.46858v1.326c-.000086.08708.016989.17332.050252.25379.033263.08048.082061.15361.143604.21522.061543.0616.134624.11047.215066.14381.080442.03335.166667.05051.253745.05051h.66315v7.29189c0 .0871.01716.1733.05051.2538.03334.0804.08221.1535.14382.215.0616.0616.13473.1104.21521.1436.08047.0333.16672.0504.25379.0503h11.2693c.1758 0 .3445-.0698.4688-.1941.1244-.1242.1944-.2928.1946-.4686v-7.29189h.6622c.087 0 .1733-.01716.2537-.05051.0804-.03334.1535-.08221.2151-.14381.0615-.06161.1103-.13474.1436-.21522z" fill="#4b4b4b" fill-rule="evenodd"/><path d="m11.5978 2.59999c-.5067.50734-2.93471 1.10067-2.93471 1.10067s.59666-2.428 1.10066-2.934668c.11872-.128019.26205-.230772.42135-.30211.1594-.071338.3315-.109794.5061-.113068.1745-.003273.348.028703.5099.094016s.309.16262.4324.286098.2207.270592.2859.432532c.0653.16194.0972.33537.0939.50994-.0034.17456-.0419.34665-.1133.50598-.0714.15932-.1742.30194-.3022.42061z" stroke="#000" stroke-linecap="round" stroke-linejoin="round" stroke-width=".5"/><path d="m4.40285 2.60011c.50666.50734 2.93466 1.10067 2.93466 1.10067s-.59733-2.42733-1.10066-2.934001c-.24493-.235159-.57229-.364922-.91182-.361437-.33952.003485-.66415.139941-.9042.380078-.24005.24014-.37639.56482-.37975.90434-.00336.33953.12652.66684.36177.91169z" stroke="#000" stroke-linecap="round" stroke-linejoin="round" stroke-width=".5"/><path d="m14.2981 14.9705c-.0001.1758-.0701.3443-.1945.4686-.1244.1242-.293.194-.4688.194h-11.26932c-.08708.0001-.17332-.017-.25379-.0502-.08048-.0333-.15361-.0821-.21522-.1436-.0616-.0616-.11047-.1346-.14382-.2151-.03334-.0804-.0505-.1667-.0505-.2537v-7.29203h12.59535z" fill="#f93737"/><path d="m14.2981 7.67847h-12.59595v1.88h12.59535v-1.88z" fill="#cd1b1b"/><path d="m15.6236 7.01528c.0001.08708-.017.17332-.0502.25379-.0333.08048-.0821.15361-.1436.21522-.0616.0616-.1347.11047-.2151.14381-.0804.03335-.1667.05051-.2537.05051h-13.92138c-.087079 0-.173304-.01716-.253746-.05051-.080441-.03334-.153523-.08221-.215066-.14381-.061543-.06161-.110341-.13474-.143603-.21522-.033263-.08047-.050339-.16671-.050252-.25379v-1.326c0-.17575.069817-.3443.194091-.46858.124274-.12427.292826-.19409.468576-.19409h13.92138c.1757 0 .3443.06982.4685.19409.1243.12428.1941.29283.1941.46858v1.32666z" fill="#cd1b1b"/><path d="m15.6236 6.20061v-.51133c0-.17575-.0698-.3443-.1941-.46858-.1242-.12427-.2928-.19409-.4685-.19409h-13.92138c-.17575 0-.344302.06982-.468576.19409-.124274.12428-.194091.29283-.194091.46858v.51133z" fill="#f93737"/><path d="m10.3207 5.02661h-4.64004v2.652h4.64004z" fill="#d8922c"/><path d="m10.3207 5.02661h-4.64004v1.174h4.64004z" fill="#ffb952"/><path d="m10.3207 7.67847h-4.64004v7.95463h4.64004z" fill="#ffb952"/><path d="m10.3207 7.67847h-4.64004v1.88h4.64004z" fill="#d8922c"/><g stroke-linecap="round" stroke-linejoin="round" stroke-width=".611111"><path d="m15.6236 7.01528c.0001.08708-.017.17332-.0502.25379-.0333.08048-.0821.15361-.1436.21522-.0616.0616-.1347.11047-.2151.14382-.0804.03334-.1667.0505-.2537.0505h-13.92138c-.087079 0-.173304-.01716-.253746-.0505-.080441-.03335-.153523-.08222-.215066-.14382-.061543-.06161-.110341-.13474-.143603-.21522-.033263-.08047-.050339-.16671-.050252-.25379v-1.326c0-.17575.069817-.3443.194091-.46858.124274-.12427.292826-.19409.468576-.19409h13.92138c.1757 0 .3443.06982.4685.19409.1243.12428.1941.29283.1941.46858v1.32666z" stroke="url(#c)"/><path d="m14.2981 14.9705c-.0001.1758-.0701.3443-.1945.4686-.1244.1242-.293.194-.4688.194h-11.26932c-.08708.0001-.17332-.017-.25379-.0502-.08048-.0333-.15361-.0821-.21522-.1436-.0616-.0616-.11047-.1346-.14382-.2151-.03334-.0804-.0505-.1667-.0505-.2537v-7.29203h12.59595z" stroke="url(#d)"/><path d="m5.68066 5.02661v10.60669" stroke="url(#e)"/><path d="m10.3203 15.6333v-10.60669" stroke="url(#f)"/><path d="m11.5978 2.59999c-.5067.50734-2.93471 1.10067-2.93471 1.10067s.59666-2.428 1.10066-2.934668c.11872-.128019.26205-.230772.42135-.30211.1594-.071338.3315-.109794.5061-.113068.1745-.003273.348.028703.5099.094016s.309.16262.4324.286098.2207.270592.2859.432532c.0653.16194.0972.33537.0939.50994-.0034.17456-.0419.34665-.1133.50598-.0714.15932-.1742.30194-.3022.42061z" stroke="url(#h)"/><path d="m4.40285 2.59987c.50666.50733 2.93466 1.10067 2.93466 1.10067s-.59733-2.42734-1.10066-2.934005c-.24493-.235159-.57229-.364922-.91182-.361437-.33952.003485-.66415.139941-.9042.380078-.24005.240134-.37639.564814-.37975.904344-.00336.33952.12652.66684.36177.91168z" stroke="url(#i)"/><path d="m4.40285 2.59987c.50666.50733 2.93466 1.10067 2.93466 1.10067s-.59733-2.42734-1.10066-2.934005c-.24493-.235159-.57229-.364922-.91182-.361437-.33952.003485-.66415.139941-.9042.380078-.24005.240134-.37639.564814-.37975.904344-.00336.33952.12652.66684.36177.91168z" stroke="url(#j)"/></g><g filter="url(#a)"><rect fill="#ffb952" height="6.11111" rx="3.05556" width="6.11111" x="5.27734" y="4.36108"/><rect height="5.77778" rx="2.88889" stroke="#efa437" stroke-width=".333333" width="5.77778" x="5.44401" y="4.52775"/><rect height="5.77778" rx="2.88889" stroke="url(#k)" stroke-width=".333333" width="5.77778" x="5.44401" y="4.52775"/><g fill="#fff"><path d="m8.33301 5.92285v1.10439l.93344.41711z" fill-opacity=".4"/><path d="m8.33298 5.9231-.93357 1.52149.93357-.4171z"/><path d="m8.33301 8.16003v.75041l.93406-1.29228z" fill-opacity=".4"/><path d="m8.33298 8.91044v-.75054l-.93357-.54174z"/><path d="m8.33301 7.98619.93344-.54199-.93344-.41686z" fill-opacity=".1"/><path d="m7.39941 7.4442.93357.54199v-.95885z" fill-opacity=".4"/></g></g></svg>