<svg fill="none" height="46" viewBox="0 0 42 46" width="42" xmlns="http://www.w3.org/2000/svg" xmlns:xlink="http://www.w3.org/1999/xlink"><filter id="a" color-interpolation-filters="sRGB" filterUnits="userSpaceOnUse" height="58" width="56" x="-7" y="-11"><feFlood flood-opacity="0" result="BackgroundImageFix"/><feGaussianBlur in="BackgroundImageFix" stdDeviation="8"/><feComposite in2="SourceAlpha" operator="in" result="effect1_backgroundBlur_253_30607"/><feColorMatrix in="SourceAlpha" result="hardAlpha" type="matrix" values="0 0 0 0 0 0 0 0 0 0 0 0 0 0 0 0 0 0 127 0"/><feOffset dy="6"/><feGaussianBlur stdDeviation="6"/><feComposite in2="hardAlpha" operator="out"/><feColorMatrix type="matrix" values="0 0 0 0 0.941176 0 0 0 0 0.2 0 0 0 0 0.2 0 0 0 0.2 0"/><feBlend in2="effect1_backgroundBlur_253_30607" mode="normal" result="effect2_dropShadow_253_30607"/><feBlend in="SourceGraphic" in2="effect2_dropShadow_253_30607" mode="normal" result="shape"/></filter><g filter="url(#a)"><path d="m12.8794 11.1941s-.793-2.28394 8.1209-2.28394 8.1208 2.28394 8.1208 2.28394v.9834h-16.2417z" fill="#db1919"/><path d="m26.8006 10.3981c0 1.3101-1.0621 2.3722-2.3723 2.3722-1.3101 0-2.3722-1.0621-2.3722-2.3722 0-1.31021 1.0621-2.37232 2.3722-2.37232 1.3102 0 2.3723 1.06211 2.3723 2.37232z" fill="#ffbc5a" stroke="#f5b250" stroke-width=".2"/><path clip-rule="evenodd" d="m25.7803 9.87444v.74526h-2.2559-.097c.1027.4522.5104.7899.9977.7899.4028 0 .7513-.2308.918-.5663l.4372-.0001v.626c0 .1482-.1212.2683-.2707.2683h-2.1657c-.1495 0-.2707-.1201-.2707-.2683v-1.59476zm-.6969.96876c-.1435.2081-.3849.3446-.6583.3446-.2735 0-.5149-.1365-.6584-.3446zm-1.2356-.7899c-.2122 0-.3877.1555-.4169.3577h.2308c.0253-.0778.0991-.1341.1861-.1341.0869 0 .1607.0563.186.1341h.2308c-.0292-.2022-.2047-.3577-.4168-.3577zm1.158 0c-.2122 0-.3877.1555-.4169.3577h.2308c.0254-.0778.0991-.1341.1861-.1341s.1607.0563.1861.1341h.2307c-.0292-.2022-.2047-.3577-.4168-.3577zm.5038-.99861c.1495 0 .2707.12011.2707.26828v.3279h-2.7071v-.3279c0-.14817.1212-.26828.2707-.26828z" fill="#fff" fill-rule="evenodd"/><circle cx="17.3902" cy="10.3981" fill="#ffbc5a" r="2.37228" stroke="#f5b250" stroke-width=".2"/><path clip-rule="evenodd" d="m18.7422 9.87444v.74526h-2.2559-.097c.1027.4522.5104.7899.9977.7899.4028 0 .7513-.2308.918-.5663l.4372-.0001v.626c0 .1482-.1212.2683-.2707.2683h-2.1656c-.1495 0-.2707-.1201-.2707-.2683v-1.59476zm-.6969.96876c-.1435.2081-.3848.3446-.6583.3446s-.5148-.1365-.6584-.3446zm-1.2356-.7899c-.2122 0-.3877.1555-.4169.3577h.2308c.0254-.0778.0991-.1341.1861-.1341s.1607.0563.1861.1341h.2307c-.0292-.2022-.2047-.3577-.4168-.3577zm1.158 0c-.2122 0-.3877.1555-.4168.3577h.2307c.0254-.0778.0991-.1341.1861-.1341s.1607.0563.1861.1341h.2307c-.0292-.2022-.2047-.3577-.4168-.3577zm.5038-.99861c.1495 0 .2707.12011.2707.26828v.3279h-2.707v-.3279c0-.14817.1212-.26828.2707-.26828z" fill="#fff" fill-rule="evenodd"/><path d="m24.1833 9.78323c0 1.75807-1.4252 3.18327-3.1833 3.18327-1.758 0-3.1832-1.4252-3.1832-3.18327 0-1.75805 1.4252-3.18323 3.1832-3.18323 1.7581 0 3.1833 1.42518 3.1833 3.18323z" fill="#ffbc5a" stroke="#f5b250" stroke-width=".2"/><path clip-rule="evenodd" d="m22.7972 9.0906v.9897h-2.9959-.1289c.1364.6005.6779 1.049 1.325 1.049.535 0 .9977-.3065 1.2191-.7521h.5807v.8313c0 .1968-.161.3563-.3595.3563h-2.876c-.1986 0-.3596-.1595-.3596-.3563v-2.1179zm-.9255 1.2866c-.1906.2762-.5111.4575-.8743.4575s-.6837-.1813-.8743-.4575zm-1.641-1.04908c-.2817 0-.5148.20647-.5535.47505l.3064.00001c.0337-.10338.1316-.17815.2471-.17815s.2134.07477.2471.17815l.3065-.00001c-.0388-.26858-.2718-.47505-.5536-.47505zm1.5379 0c-.2817 0-.5148.20647-.5536.47505l.3065.00001c.0337-.10338.1316-.17815.2471-.17815s.2134.07477.2471.17815l.3065-.00001c-.0388-.26858-.2719-.47505-.5536-.47505zm.6691-1.32617c.1985 0 .3595.15952.3595.35629v.43546h-3.5951v-.43546c0-.19677.161-.35629.3596-.35629z" fill="#fff" fill-rule="evenodd"/><path d="m12.8799 11.2578s3.0136.9041 8.105.9041 8.1367-.9041 8.1367-.9041v15.2417c0 .5523-.4477 1-1 1h-14.2417c-.5523 0-1-.4477-1-1z" fill="#f93737"/></g></svg>