<svg fill="none" height="24" viewBox="0 0 24 24" width="24" xmlns="http://www.w3.org/2000/svg"><circle cx="12" cy="12" fill="#ff3d00" r="12"/><path d="m14.6645 16.0301c.1428.1429.1428.2813 0 .4152-.5536.5536-1.442.8304-2.6652.8304s-2.1116-.2768-2.66518-.8304c-.14285-.1339-.14285-.2723 0-.4152.05358-.0535.12054-.0803.2009-.0803.08035 0 .14732.0268.20089.0803.42859.4375 1.18299.6563 2.26339.6563 1.0714 0 1.8259-.2188 2.2634-.6563.0536-.0535.1205-.0803.2009-.0803.0803 0 .1473.0268.2009.0803zm-4.1116-2.4241c0 .3304-.1161.6116-.3482.8438-.23218.2321-.51343.3482-.84379.3482s-.61384-.1161-.85045-.3482c-.2366-.2322-.35491-.5134-.35491-.8438 0-.3393.11831-.625.35491-.8571.23661-.2322.52009-.3482.85045-.3482s.61161.1183.84379.3549c.2321.2366.3482.5201.3482.8504zm5.2902 0c0 .3304-.1184.6116-.355.8438-.2366.2321-.52.3482-.8504.3482s-.6116-.1161-.8438-.3482c-.2321-.2322-.3482-.5134-.3482-.8438 0-.3303.1161-.6138.3482-.8504.2322-.2366.5134-.3549.8438-.3549s.6138.116.8504.3482c.2366.2321.355.5178.355.8571zm3.3616-1.6071c0-.4375-.1563-.8125-.4688-1.125s-.692-.4688-1.1384-.4688-.8303.1607-1.1518.4822c-1.1607-.8036-2.5491-1.23217-4.1651-1.28574l.8437-3.79018 2.6786.60268c0 .33036.116.61161.3482.84375.2321.23215.5134.34822.8437.34822.3304 0 .6139-.11831.8505-.35491.2366-.23661.3549-.52009.3549-.85045s-.1183-.61384-.3549-.85045c-.2366-.2366-.5201-.35491-.8505-.35491-.4821 0-.8392.22322-1.0714.66965l-2.9598-.65625c-.1697-.04465-.2813.02678-.3348.21428l-.9241 4.17857c-1.6072.0625-2.98665.49554-4.13843 1.29914-.3125-.3304-.7009-.4956-1.16518-.4956-.44643 0-.82589.1563-1.13839.4688s-.46875.6875-.46875 1.125c0 .3125.08258.5982.24776.8571.16518.259.38616.4554.66295.5893-.05357.2411-.08036.4911-.08036.75 0 1.2679.625 2.3527 1.875 3.2545s2.7545 1.3527 4.5134 1.3527c1.7679 0 3.2768-.4509 4.5268-1.3527s1.875-1.9866 1.875-3.2545c0-.2857-.0313-.5402-.0938-.7634.2679-.1339.4822-.3281.6429-.5826.1607-.2544.2411-.5379.2411-.8504z" fill="#fff"/></svg>