<svg xmlns="http://www.w3.org/2000/svg" fill="none" viewBox="0 0 80 80">
    <g fill="currentColor" fill-rule="evenodd" clip-rule="evenodd">
        <path d="m40.0006 15.9974c-8.9898 0-16.829 4.9415-20.9432 12.2692-.721 1.2841-2.3466 1.7407-3.6308 1.0197-1.2841-.7211-1.7407-2.3466-1.0197-3.6308 5.0199-8.9407 14.5984-14.9914 25.5937-14.9914 16.2003 0 29.3333 13.1329 29.3333 29.3333s-13.133 29.3333-29.3333 29.3333c-16.2004 0-29.3334-13.1329-29.3334-29.3333 0-1.4728 1.1939-2.6667 2.6667-2.6667s2.6667 1.1939 2.6667 2.6667c0 13.2548 10.7451 24 24 24 13.2548 0 24-10.7452 24-24s-10.7452-24-24-24z"/>
        <path d="m15.9902 11.1196c1.4727 0 2.6666 1.1939 2.6666 2.6667v10.6667h10.6667c1.4727 0 2.6667 1.1939 2.6667 2.6666 0 1.4728-1.194 2.6667-2.6667 2.6667h-13.3333c-1.4728 0-2.6667-1.1939-2.6667-2.6667v-13.3333c0-1.4728 1.1939-2.6667 2.6667-2.6667z"/>
    </g>
</svg>

