<svg viewBox="0 0 12 12" fill="none" xmlns="http://www.w3.org/2000/svg">
    <path d="M7 1.5V3.5C7 3.63261 7.05268 3.75979 7.14645 3.85355C7.24021 3.94732 7.36739 4 7.5 4H9.5M7 1.5H3.5C3.23478 1.5 2.98043 1.60536 2.79289 1.79289C2.60536 1.98043 2.5 2.23478 2.5 2.5V9.5C2.5 9.76522 2.60536 10.0196 2.79289 10.2071C2.98043 10.3946 3.23478 10.5 3.5 10.5H8.5C8.76522 10.5 9.01957 10.3946 9.20711 10.2071C9.39464 10.0196 9.5 9.76522 9.5 9.5V4M7 1.5L9.5 4M5 9L7.5 6.5C7.63261 6.36739 7.70711 6.18754 7.70711 6C7.70711 5.81246 7.63261 5.63261 7.5 5.5C7.36739 5.36739 7.18754 5.29289 7 5.29289C6.81246 5.29289 6.63261 5.36739 6.5 5.5L4 8V9H5Z" stroke="currentColor" stroke-linecap="round" stroke-linejoin="round"/>
</svg>
