<svg xmlns="http://www.w3.org/2000/svg" width="16" height="16" fill="none">
    <path fill="currentColor" fill-rule="evenodd"
        d="m10.041 3.161 1.068.626c.708.415 1.145.672 1.46.901.287.209.373.325.419.405.046.082.103.219.139.58.038.393.04.908.04 1.737v1.25c0 .83-.002 1.345-.04 1.738-.036.361-.093.498-.14.58-.045.08-.13.196-.418.405-.315.228-.752.486-1.46.901l-1.068.625c-.709.415-1.147.67-1.499.832-.322.148-.46.163-.542.163-.083 0-.22-.015-.543-.163-.352-.162-.79-.417-1.499-.832l-1.068-.625c-.708-.415-1.145-.673-1.46-.901-.287-.209-.373-.325-.418-.405-.047-.082-.104-.219-.14-.58-.037-.393-.039-.908-.039-1.737V7.41c0-.829.002-1.344.04-1.737.035-.361.092-.498.139-.58.045-.08.131-.196.418-.405.315-.229.752-.486 1.46-.901l1.068-.626c.709-.415 1.147-.67 1.5-.831.321-.148.459-.163.542-.163.083 0 .22.015.542.163.352.162.79.416 1.499.831Zm-4.84-1.294C6.566 1.067 7.25.667 8 .667s1.433.4 2.799 1.2l1.068.625c1.366.8 2.05 1.2 2.424 1.86.375.658.375 1.458.375 3.058v1.25c0 1.6 0 2.4-.375 3.06-.375.658-1.058 1.058-2.424 1.858l-1.068.626c-1.366.8-2.05 1.2-2.8 1.2s-1.432-.4-2.799-1.2l-1.068-.626c-1.366-.8-2.049-1.2-2.424-1.858-.375-.66-.375-1.46-.375-3.06V7.41c0-1.6 0-2.4.375-3.059.375-.659 1.058-1.059 2.424-1.859L5.2 1.867Zm.804 4.414c.111 0 .167 0 .211.017a.25.25 0 0 1 .141.141c.018.045.018.1.018.211v2.72c0 .159 0 .238-.035.297a.25.25 0 0 1-.088.088c-.059.035-.138.035-.298.035-.087 0-.131 0-.17-.014a.25.25 0 0 1-.068-.035c-.033-.025-.058-.06-.108-.133l-1.397-2.02a.017.017 0 0 0-.03.01v1.82c0 .114 0 .17-.018.215a.25.25 0 0 1-.14.139c-.044.018-.1.018-.214.018-.112 0-.169 0-.214-.018a.25.25 0 0 1-.139-.14c-.018-.044-.018-.1-.018-.213V6.708c0-.166 0-.248.038-.309a.25.25 0 0 1 .08-.08c.061-.038.144-.038.309-.038.09 0 .136 0 .177.015a.25.25 0 0 1 .063.032c.035.026.06.063.112.138L5.599 8.48a.02.02 0 0 0 .037-.011V6.65c0-.11 0-.166.017-.21a.25.25 0 0 1 .141-.142c.044-.017.1-.017.211-.017ZM7.36 9.79c-.113 0-.17 0-.214-.018a.25.25 0 0 1-.14-.14c-.017-.044-.017-.1-.017-.213V6.78c0-.236 0-.354.073-.427.073-.073.191-.073.427-.073h1.518c.052 0 .078 0 .1.004a.25.25 0 0 1 .202.202.629.629 0 0 1 .004.1c0 .052 0 .078-.004.1a.25.25 0 0 1-.202.202c-.022.004-.048.004-.1.004h-.858c-.157 0-.235 0-.294.034a.25.25 0 0 0-.09.09c-.034.058-.034.137-.034.294 0 .157 0 .235.034.294a.25.25 0 0 0 .09.09c.059.034.137.034.294.034h.704c.052 0 .078 0 .1.004a.25.25 0 0 1 .202.202c.004.022.004.048.004.1 0 .051 0 .077-.004.099a.25.25 0 0 1-.202.203c-.022.003-.048.003-.1.003H8.23c-.236 0-.353 0-.427.074-.073.073-.073.19-.073.426v.579c0 .113 0 .169-.018.214a.25.25 0 0 1-.139.139c-.045.018-.101.018-.214.018ZM9.984 6.28c-.052 0-.078 0-.1.004a.25.25 0 0 0-.202.202c-.004.022-.004.048-.004.1 0 .052 0 .078.004.1a.25.25 0 0 0 .202.202c.022.004.048.004.1.004h.269c.235 0 .353 0 .426.073.074.073.074.191.074.427v2.03c0 .109 0 .163.016.207a.25.25 0 0 0 .144.143.624.624 0 0 0 .207.017c.108 0 .163 0 .206-.017a.25.25 0 0 0 .144-.143c.016-.044.016-.098.016-.207v-2.03c0-.236 0-.354.073-.427.074-.073.192-.073.427-.073h.27c.051 0 .077 0 .099-.004a.25.25 0 0 0 .202-.203c.004-.021.004-.047.004-.1 0-.051 0-.077-.004-.099a.25.25 0 0 0-.202-.202c-.022-.004-.048-.004-.1-.004H9.984Z"
        clip-rule="evenodd" />
</svg>