<svg xmlns="http://www.w3.org/2000/svg" width="24" height="24" fill="none">
    <path stroke="currentColor" stroke-linecap="round" stroke-linejoin="round"
        stroke-miterlimit="10"
        stroke-width="1.5" d="M8 2v3M16 2v3M3.5 9.09h17M18 23a4 4 0 1 0 0-8 4 4 0 0 0 0 8Z" />
    <path stroke="currentColor" stroke-linecap="round" stroke-linejoin="round"
        stroke-miterlimit="10"
        stroke-width="1.5" d="M18.25 17.75v.93c0 .35-.18.68-.49.86L17 20" />
    <path stroke="currentColor" stroke-linecap="round" stroke-linejoin="round"
        stroke-miterlimit="10"
        stroke-width="1.5"
        d="M21 8.5v7.86c-.73-.83-1.8-1.36-3-1.36-2.21 0-4 1.79-4 4 0 .75.21 1.46.58 2.06.21.36.48.68.79.94H8c-3.5 0-5-2-5-5V8.5c0-3 1.5-5 5-5h8c3.5 0 5 2 5 5Z" />
    <path stroke="currentColor" stroke-linecap="round" stroke-linejoin="round" stroke-width="2"
        d="M11.995 13.7h.01M8.294 13.7h.01M8.294 16.7h.01" />
</svg>