<svg fill="none" height="24" viewBox="0 0 25 24" width="25" xmlns="http://www.w3.org/2000/svg"><path d="m10.3863 21.8806c.446.1592.9303.1592 1.3763 0 3.0389-1.0837 4.1367-1.969 4.1367-1.969 3.1583-2.2398 3.1861-5.1809 3.1861-5.1809v-9.28199c0-.45502-.356-.84586-.7936-.86249-2.2414-.0827-5.5448-1.79518-6.754-2.46526-.1428-.07941-.3023-.12096-.4643-.12096s-.3216.04155-.4644.12096c-1.20923.66807-4.51068 2.38256-6.75404 2.46526-.43755.01652-.79354.40747-.79354.86249v9.28199s.0278 2.941 3.18608 5.1809c.00194 0 1.09974.8853 4.1387 1.969z" fill="#42cf00"/><path d="m10.5002 20.1987c.3727.1324.777.1324 1.1496 0 2.5377-.9037 3.4546-1.6441 3.4546-1.6441 2.6371-1.8697 2.661-4.3267 2.661-4.3267v-7.64822c0-.38057-.2983-.70524-.6623-.71974-1.8714-.0683-4.6299-1.49943-5.6382-2.0579-.1194-.06623-.2526-.10087-.3879-.10087-.1352 0-.2684.03464-.3878.10087-1.00825.55836-3.76676 1.9896-5.63824 2.0579-.36393.01239-.66229.33917-.66229.71974v7.64822s.02383 2.457 2.66106 4.3267c-.00397 0 .91288.7404 3.45047 1.6441z" fill="#46dc00"/><path d="m10.4853 13.9603c-.1573.0002-.3082-.0645-.4196-.1799l-2.09432-2.1799c-.23267-.242-.23267-.6329 0-.8728.23268-.2419.60862-.2419.83926 0l1.67456 1.7414 3.3849-3.52005c.2327-.24196.6087-.24196.8393 0 .2327.24196.2327.63292 0 .87276l-3.8045 3.95639c-.0547.058-.12.104-.1921.1353-.072.0312-.1494.0471-.2275.0468z" fill="#fff"/><path d="m20.8548 20.6858-.52-.52c.48-.64.76-1.44.76-2.32 0-2.16-1.76-3.92-3.96-3.92s-3.96 1.76-3.96 3.92 1.76 3.92 3.96 3.92c.88 0 1.68-.32 2.32-.76l.52.52c.24.24.6.24.84 0s.24-.6.04-.84z" fill="#ff5f5f"/><path d="m14.6543 17.8052c0 .6472.2613 1.2678.7264 1.7254s1.0959.7146 1.7536.7146 1.2885-.257 1.7536-.7146.7264-1.0782.7264-1.7254c0-.6471-.2613-1.2677-.7264-1.7253s-1.0959-.7147-1.7536-.7147-1.2885.2571-1.7536.7147-.7264 1.0782-.7264 1.7253z" fill="#fff"/><path d="m17.3746 16.6848c.2 0 .36-.16.36-.36s-.16-.36-.36-.36-.36.16-.36.36.16.36.36.36z" fill="#ffd6c2"/></svg>