<svg width="24" height="24" viewBox="0 0 24 24" fill="none" xmlns="http://www.w3.org/2000/svg">
    <path opacity="0.2" fill-rule="evenodd" clip-rule="evenodd"
        d="M12 0C18.6274 0 24 5.37258 24 12C24 18.6274 18.6274 24 12 24C5.37258 24 0 18.6274 0 12C0 5.37258 5.37258 0 12 0Z"
        fill="currentColor" />
    <path fill-rule="evenodd" clip-rule="evenodd"
        d="M16.9372 8.03194C16.7946 7.9887 16.6487 7.9887 16.5061 8.03194C16.3634 8.07517 16.2448 8.14089 15.9906 8.3951L11.0328 13.3528L8.01075 10.3307C7.75653 10.0765 7.63788 10.0108 7.49524 9.96758C7.3526 9.92434 7.20673 9.92434 7.06409 9.96758C6.92145 10.0108 6.80279 10.0765 6.54858 10.3307L5.72957 11.1497C5.47536 11.404 5.40964 11.5226 5.36641 11.6653C5.32318 11.8079 5.32318 11.9538 5.36641 12.0964C5.40964 12.239 5.47536 12.3577 5.72957 12.6119L9.23401 16.1165C9.28669 16.1877 9.36066 16.2712 9.46862 16.3792L10.2876 17.1982C10.5418 17.4524 10.6605 17.5181 10.8031 17.5614C10.9458 17.6046 11.0916 17.6046 11.2343 17.5614C11.3769 17.5181 11.4956 17.4524 11.7498 17.1982L18.2717 10.6763C18.5259 10.4221 18.5917 10.3034 18.6349 10.1608C18.6781 10.0181 18.6781 9.87225 18.6349 9.72961C18.5917 9.58697 18.5259 9.46832 18.2717 9.21411L17.4527 8.3951C17.1985 8.14089 17.0799 8.07517 16.9372 8.03194Z"
        fill="currentColor" />
</svg>
    