<svg width="24" height="24" viewBox="0 0 24 24" fill="none" xmlns="http://www.w3.org/2000/svg">
    <g id="vuesax/bold/send-2">
        <g id="send-2">
            <path id="Vector"
                d="M16.1401 2.95907L7.11012 5.95907C1.04012 7.98907 1.04012 11.2991 7.11012 13.3191L9.79012 14.2091L10.6801 16.8891C12.7001 22.9591 16.0201 22.9591 18.0401 16.8891L21.0501 7.86907C22.3901 3.81907 20.1901 1.60907 16.1401 2.95907ZM16.4601 8.33907L12.6601 12.1591C12.5101 12.3091 12.3201 12.3791 12.1301 12.3791C11.9401 12.3791 11.7501 12.3091 11.6001 12.1591C11.3101 11.8691 11.3101 11.3891 11.6001 11.0991L15.4001 7.27907C15.6901 6.98907 16.1701 6.98907 16.4601 7.27907C16.7501 7.56907 16.7501 8.04907 16.4601 8.33907Z"
                fill="currentColor" />
        </g>
    </g>
</svg>