<svg xmlns="http://www.w3.org/2000/svg" width="18" height="18" fill="none" viewBox="0 0 18 18">
    <path fill="currentColor" fill-rule="evenodd" d="m16.3452 3.38244-13.92013 4.54395 3.39699 2.03147c.22643.13544.36506.37984.36506.64364v2.2764l2.29965-.9327c.21123-.0857.44995-.0706.64876.0409l5.20757 2.9206zm.3386-1.37286c.5375-.17545 1.0685.28431.9717.84135l-2.239 12.88767c-.0885.5098-.6545.7789-1.1058.5258l-5.57344-3.1259-2.71825 1.1025c-.49312.2-1.03189-.1628-1.03189-.695v-2.6892l-4.026213-2.4078c-.552253-.33026-.45952-1.15698.152193-1.35666zm-2.5037 3.64624c.2173.25016.1907.62912-.0595.84644l-4.23454 3.67844c-.25016.2173-.62912.1907-.84644-.0594-.21731-.25021-.19068-.62917.05948-.84648l4.2345-3.67848c.2502-.21732.6292-.19069.8465.05948z" clip-rule="evenodd"/>
</svg>
