<svg fill="none" height="16" width="15" xmlns="http://www.w3.org/2000/svg" xmlns:xlink="http://www.w3.org/1999/xlink"><clipPath id="a"><path d="m3.75 3.313h7.969v9.374h-7.969z"/></clipPath><rect fill="#fff" height="15" rx="7.5" width="15" y=".5"/><g clip-path="url(#a)"><path d="m11.702 7.388a.266.266 0 0 0 -.249-.17h-3.207l1.85-3.526a.257.257 0 0 0 -.072-.324.268.268 0 0 0 -.338.008l-1.952 1.652-3.892 3.296a.257.257 0 0 0 -.075.287c.038.102.138.17.249.17h3.207l-1.85 3.527a.257.257 0 0 0 .072.324.268.268 0 0 0 .338-.008l1.951-1.652 3.893-3.296a.257.257 0 0 0 .075-.288z" fill="#ffac33"/></g></svg>