<svg xmlns="http://www.w3.org/2000/svg" width="20" height="20" fill="none">
    <path fill="#fff"
        d="m11.016 3.966-5.57 4.637c-.976.813-1.464 1.22-1.335 1.583.13.364.764.364 2.03.364.518 0 .776 0 .97.078.343.137.594.44.667.803.041.207-.005.463-.097.976l-.466 2.582c-.223 1.24-.335 1.86-.005 2.053.329.195.81-.206 1.774-1.009l5.57-4.636c.976-.813 1.464-1.22 1.334-1.583-.13-.364-.763-.364-2.03-.364-.517 0-.776 0-.97-.078a1.098 1.098 0 0 1-.666-.804c-.041-.206.005-.462.097-.975l.465-2.583c.224-1.239.335-1.858.006-2.052-.33-.195-.81.206-1.774 1.008Z" />
</svg>