<svg xmlns="http://www.w3.org/2000/svg" width="15" height="16" fill="none">
    <rect width="15" height="15" y=".5" fill="#fff" rx="7.5" />
    <g clip-path="url(#snapshot_a)">
        <path fill="#FFAC33"
            d="M11.702 7.388a.266.266 0 0 0-.249-.17H8.246l1.85-3.526a.257.257 0 0 0-.072-.324.268.268 0 0 0-.338.008L7.734 5.028 3.842 8.324a.257.257 0 0 0-.075.287c.038.102.138.17.249.17h3.207l-1.85 3.527a.257.257 0 0 0 .072.324.268.268 0 0 0 .338-.008l1.951-1.652 3.893-3.296a.257.257 0 0 0 .075-.288Z" />
    </g>
    <defs>
        <clipPath id="snapshot_a">
            <path fill="#fff" d="M3.75 3.313h7.969v9.374H3.75z" />
        </clipPath>
    </defs>
</svg>