<svg xmlns="http://www.w3.org/2000/svg" width="20" height="20" fill="none">
    <path fill="#fff" fill-rule="evenodd"
        d="M14.94 6.394a.705.705 0 0 0-.412 0c-.137.041-.25.104-.492.344l-4.733 4.698-2.885-2.863c-.242-.241-.356-.304-.492-.345a.705.705 0 0 0-.411 0c-.136.041-.25.104-.492.345l-.782.776c-.243.24-.305.353-.347.488a.69.69 0 0 0 0 .409c.042.135.104.247.347.488l3.345 3.32c.05.068.12.147.224.25l.782.776c.242.24.356.303.492.344a.704.704 0 0 0 .411 0c.137-.041.25-.103.492-.344l6.226-6.18c.243-.24.305-.353.347-.488a.689.689 0 0 0 0-.409c-.042-.135-.104-.248-.347-.488l-.782-.777c-.242-.24-.356-.303-.492-.344Z"
        clip-rule="evenodd" />
</svg>