<svg fill="none" viewBox="0 0 16 16" xmlns="http://www.w3.org/2000/svg"><circle cx="8" cy="8" fill="#000" r="7.6875" stroke="#fff" stroke-width=".625"/><path clip-rule="evenodd" d="m3.33333 6.20529c0-1.58605 1.28575-2.87179 2.8718-2.87179h3.58974c1.58603 0 2.87183 1.28574 2.87183 2.87179v3.58974c0 1.58607-1.2858 2.87177-2.87183 2.87177h-3.58974c-1.58605 0-2.8718-1.2857-2.8718-2.87177zm2.8718-1.72308h3.58974c.95163 0 1.72303.77145 1.72303 1.72308v3.58974c0 .95167-.7714 1.72307-1.72303 1.72307h-3.58974c-.95163 0-1.72308-.7714-1.72308-1.72307v-3.58974c0-.95163.77145-1.72308 1.72308-1.72308zm3.30252 1.86697c-.3965 0-.71794.32144-.71794.71795v.28718c0 .39651.32144.71795.71794.71795h.28719c.39646 0 .71796-.32144.71796-.71795v-.28718c0-.39651-.3215-.71795-.71796-.71795zm-.71794 3.30217c0-.3965.32144-.71794.71794-.71794h.28719c.39646 0 .71796.32144.71796.71794v.28719c0 .39646-.3215.71796-.71796.71796h-.28719c-.3965 0-.71794-.3215-.71794-.71796z" fill="#1eefa4" fill-rule="evenodd"/></svg>