<svg viewBox="0 0 65 64" fill="none" xmlns="http://www.w3.org/2000/svg">
    <path fill-rule="evenodd" clip-rule="evenodd" d="M43.2203 11.52C43.2203 11.9912 43.6024 12.3733 44.0737 12.3733L46.6603 12.3733C47.4409 12.3733 48.0737 13.0061 48.0737 13.7866C48.0737 14.5672 48.7064 15.2 49.487 15.2L50.9537 15.2C51.2508 15.2 51.3994 15.2 51.5246 15.2123C52.74 15.332 53.7016 16.2936 53.8213 17.509C53.8337 17.6342 53.8337 17.7828 53.8337 18.08L53.8337 36.08C53.8337 36.9783 53.1054 37.7066 52.207 37.7066C51.3086 37.7066 50.5803 38.4349 50.5803 39.3333V40.9333C50.5803 42.2441 49.5178 43.3066 48.207 43.3066H47.887C46.753 43.3066 45.8337 44.2259 45.8337 45.36C45.8337 46.494 44.9144 47.4133 43.7803 47.4133H42.447C42.0755 47.4133 41.8897 47.4133 41.7336 47.4325C40.5682 47.5763 39.65 48.4945 39.5062 49.6599C39.487 49.816 39.487 50.0018 39.487 50.3733C39.487 50.7448 39.487 50.9306 39.4677 51.0867C39.324 52.2521 38.4058 53.1703 37.2404 53.314C37.0843 53.3333 36.8985 53.3333 36.527 53.3333H28.4737C28.1021 53.3333 27.9164 53.3333 27.7603 53.314C26.5949 53.1703 25.6767 52.2521 25.5329 51.0867C25.5137 50.9306 25.5137 50.7448 25.5137 50.3733C25.5137 50.0018 25.5137 49.816 25.4944 49.6599C25.3507 48.4945 24.4325 47.5763 23.267 47.4325C23.1109 47.4133 22.9252 47.4133 22.5537 47.4133H21.2203C20.0863 47.4133 19.167 46.494 19.167 45.36C19.167 44.2259 18.2477 43.3066 17.1137 43.3066H16.7937C15.4829 43.3066 14.4203 42.244 14.4203 40.9333V39.3333C14.4203 38.4349 13.692 37.7066 12.7937 37.7066C11.8953 37.7066 11.167 36.9783 11.167 36.08V18.08C11.167 17.7828 11.167 17.6342 11.1793 17.509C11.299 16.2936 12.2606 15.332 13.4761 15.2123C13.6012 15.2 13.7498 15.2 14.047 15.2H15.5137C16.2942 15.2 16.927 14.5672 16.927 13.7866C16.927 13.0061 17.5598 12.3733 18.3403 12.3733L20.927 12.3733C21.3983 12.3733 21.7803 11.9912 21.7803 11.52C21.7803 11.0487 22.1624 10.6666 22.6337 10.6666H42.367C42.8383 10.6666 43.2203 11.0487 43.2203 11.52ZM46.4372 20.9966C46.6872 21.2465 46.6872 21.6488 46.6872 22.4533V24.3733C46.6872 25.1779 46.6872 25.5801 46.4372 25.8301C46.1873 26.08 45.785 26.08 44.9805 26.08C44.176 26.08 43.7737 26.08 43.5238 26.3299C43.2738 26.5799 43.2738 26.9821 43.2738 27.7867C43.2738 28.5912 43.2738 28.9935 43.0239 29.2434C42.774 29.4933 42.3717 29.4933 41.5672 29.4933C40.7626 29.4933 40.3604 29.4933 40.1104 29.7433C39.8605 29.9932 39.8605 30.3955 39.8605 31.2C39.8605 32.0045 39.8605 32.4068 39.6106 32.6567C39.3606 32.9067 38.9584 32.9067 38.1538 32.9067C37.3493 32.9067 36.947 32.9067 36.6971 33.1566C36.4472 33.4065 36.4472 33.8088 36.4472 34.6133C36.4472 35.4179 36.4472 35.8201 36.1972 36.0701C35.9473 36.32 35.545 36.32 34.7405 36.32H34.5272C33.7226 36.32 33.3204 36.32 33.0704 36.5699C32.8205 36.8199 32.8205 37.2221 32.8205 38.0267V38.24C32.8205 39.0445 32.8205 39.4468 32.5706 39.6967C32.3206 39.9467 31.9184 39.9467 31.1138 39.9467H29.1938C28.3893 39.9467 27.987 39.9467 27.7371 39.6967C27.4872 39.4468 27.4872 39.0445 27.4872 38.24V38.0267C27.4872 37.2221 27.4872 36.8199 27.2372 36.5699C26.9873 36.32 26.585 36.32 25.7805 36.32H25.5672C24.7626 36.32 24.3604 36.32 24.1104 36.0701C23.8605 35.8201 23.8605 35.4179 23.8605 34.6133C23.8605 33.8088 23.8605 33.4065 23.6106 33.1566C23.3606 32.9067 22.9584 32.9067 22.1538 32.9067C21.3493 32.9067 20.947 32.9067 20.6971 32.6567C20.4472 32.4068 20.4472 32.0045 20.4472 31.2V29.28C20.4472 28.4755 20.4472 28.0732 20.6971 27.8233C20.947 27.5733 21.3493 27.5733 22.1538 27.5733H24.0738C24.8784 27.5733 25.2806 27.5733 25.5306 27.8233C25.7805 28.0732 25.7805 28.4755 25.7805 29.28C25.7805 30.0845 25.7805 30.4868 26.0304 30.7367C26.2804 30.9867 26.6826 30.9867 27.4872 30.9867C28.2917 30.9867 28.694 30.9867 28.9439 31.2366C29.1938 31.4865 29.1938 31.8888 29.1938 32.6933V33.6533C29.1938 33.7524 29.1938 33.8019 29.1979 33.8436C29.2378 34.2488 29.5584 34.5693 29.9635 34.6092C30.0052 34.6133 30.0548 34.6133 30.1538 34.6133C30.2529 34.6133 30.3024 34.6133 30.3441 34.6092C30.7493 34.5693 31.0698 34.2488 31.1097 33.8436C31.1138 33.8019 31.1138 33.7524 31.1138 33.6533V32.6933C31.1138 31.8888 31.1138 31.4865 31.3638 31.2366C31.6137 30.9867 32.016 30.9867 32.8205 30.9867C33.625 30.9867 34.0273 30.9867 34.2772 30.7367C34.5272 30.4868 34.5272 30.0845 34.5272 29.28C34.5272 28.4755 34.5272 28.0732 34.7771 27.8233C35.027 27.5733 35.4293 27.5733 36.2338 27.5733C37.0384 27.5733 37.4406 27.5733 37.6906 27.3234C37.9405 27.0735 37.9405 26.6712 37.9405 25.8667C37.9405 25.0621 37.9405 24.6599 38.1904 24.4099C38.4404 24.16 38.8426 24.16 39.6472 24.16C40.4517 24.16 40.854 24.16 41.1039 23.9101C41.3538 23.6601 41.3538 23.2579 41.3538 22.4533C41.3538 21.6488 41.3538 21.2465 41.6038 20.9966C41.8537 20.7467 42.256 20.7467 43.0605 20.7467H44.9805C45.785 20.7467 46.1873 20.7467 46.4372 20.9966Z" fill="currentColor"/>
</svg>
