<svg width="310" height="64" viewBox="0 0 310 64" fill="none" xmlns="http://www.w3.org/2000/svg">
    <path fill-rule="evenodd" clip-rule="evenodd" d="M97.7369 20.2104H0.0527344V26.9474H3.42134V33.6843H10.1582V40.4211H16.895V47.158H23.6319V53.8947H37.1055V47.158H30.3687L30.3687 40.4211H23.6319V33.6843H16.895V26.9474H10.1582V20.2106H16.895H23.6319V26.9474H30.3687V33.6843H37.1055V40.4211H43.8424V47.158H50.5792V53.8947H64.0529V47.158H57.3161L57.3161 40.4211H50.5792V33.6843H43.8424V26.9474H37.1055V20.2106H43.8424H50.5792V26.9474H57.3161V33.6843H64.0529V40.4211H70.7897V47.158H77.5266V53.8947H91.0003V47.158H84.2634V40.4211H77.5266V33.6843H70.7897V26.9474H64.0529V20.2106H70.7897H77.5266V26.9474H84.2634V33.6843H91.0003V40.4211H97.7369V26.9474H91.0003V20.2106H97.7369V20.2104ZM205.526 40.4211H205.527V47.158H212.263V53.8947H225.737L225.737 47.158H219V40.4211H212.263V33.6843H205.527V26.9474H205.526V40.4211ZM205.526 20.2106H205.527H212.263V26.9474H219V33.6843H225.737V40.4211H232.474V47.158H239.211V53.8947H252.685V47.158H245.948V40.4211H239.211V33.6843H232.474V26.9474H225.737V20.2106H232.474H239.211V26.9474H245.948V33.6843H252.685V40.4211H259.421V47.158H266.158V53.8948H279.632V47.158H272.895V40.4211H266.158V33.6843H259.421V26.9474H252.685V20.2106H259.421H266.158V26.9474H272.895V33.6843H279.632V40.4211H286.369V47.158H293.106V53.8948H306.579V47.158H299.842L299.842 40.4211H293.106V33.6843H286.369V26.9474H279.632V20.2106H286.369H293.106V26.9474H299.842V33.6843H306.579V40.4211H309.947V26.9474H306.579V20.2106H309.947V20.2104H205.526V20.2106ZM10.1582 47.158V53.8947H0.0527344V40.4211H3.42134V47.158H10.1582Z" fill="currentColor"/>
    <path fill-rule="evenodd" clip-rule="evenodd" d="M160.183 0.591953C159.591 4.76837e-07 158.638 4.14538e-07 156.732 3.30617e-07L153.268 0C151.362 0 150.41 0 149.818 0.591953C149.226 1.18391 149.226 2.13664 149.226 4.04211V8.75789C149.226 10.6634 149.226 11.6161 148.634 12.208C148.042 12.8 147.089 12.8 145.184 12.8H144.606C142.701 12.8 141.748 12.8 141.156 13.392C140.564 13.9839 140.564 14.9366 140.564 16.8421V21.5579C140.564 23.4634 140.564 24.4161 139.972 25.008C139.38 25.6 138.427 25.6 136.522 25.6H135.945C134.039 25.6 133.086 25.6 132.494 26.192C131.902 26.7839 131.902 27.7366 131.902 29.6421V34.3579C131.902 36.2634 131.902 37.2161 131.31 37.8081C130.719 38.4 129.766 38.4 127.86 38.4H127.283C125.377 38.4 124.425 38.4 123.833 38.992C123.241 39.5839 123.241 40.5366 123.241 42.4421L123.241 47.1579C123.241 49.0634 123.241 50.0161 122.649 50.608C122.057 51.2 121.104 51.2 119.199 51.2H118.621C116.716 51.2 115.763 51.2 115.171 51.7919C114.579 52.3839 114.579 53.3366 114.579 55.2421V59.9579C114.579 61.8634 114.579 62.8161 115.171 63.408C115.763 64 116.716 64 118.621 64L191.379 64C193.285 64 194.237 64 194.829 63.4081C195.421 62.8161 195.421 61.8634 195.421 59.9579V55.2421C195.421 53.3366 195.421 52.3839 194.829 51.792C194.237 51.2 193.285 51.2 191.379 51.2H190.802C188.896 51.2 187.943 51.2 187.352 50.608C186.76 50.0161 186.76 49.0634 186.76 47.1579V42.4421C186.76 40.5366 186.76 39.5839 186.168 38.992C185.576 38.4 184.623 38.4 182.717 38.4H182.14C180.235 38.4 179.282 38.4 178.69 37.808C178.098 37.2161 178.098 36.2634 178.098 34.3579V29.6421C178.098 27.7366 178.098 26.7839 177.506 26.1919C176.914 25.6 175.961 25.6 174.056 25.6H173.478C171.573 25.6 170.62 25.6 170.028 25.008C169.436 24.4161 169.436 23.4634 169.436 21.5579V16.8421C169.436 14.9366 169.436 13.9839 168.844 13.392C168.252 12.8 167.3 12.8 165.394 12.8H164.817C162.911 12.8 161.958 12.8 161.367 12.208C160.775 11.6161 160.775 10.6634 160.775 8.75789V4.04211C160.775 2.13664 160.775 1.18391 160.183 0.591953ZM150.958 27.9579C150.958 26.0524 150.958 25.0997 151.55 24.5077C152.142 23.9158 153.095 23.9158 155 23.9158C156.906 23.9158 157.858 23.9158 158.45 24.5077C159.042 25.0997 159.042 26.0524 159.042 27.9579V38.7368C159.042 40.6423 159.042 41.595 158.45 42.187C157.858 42.7789 156.906 42.7789 155 42.7789C153.095 42.7789 152.142 42.7789 151.55 42.187C150.958 41.595 150.958 40.6423 150.958 38.7368V27.9579ZM150.958 50.0547C150.958 48.1493 150.958 47.1965 151.55 46.6046C152.142 46.0126 153.095 46.0126 155 46.0126C156.906 46.0126 157.858 46.0126 158.45 46.6046C159.042 47.1965 159.042 48.1493 159.042 50.0547C159.042 51.9602 159.042 52.9129 158.45 53.5049C157.858 54.0968 156.906 54.0968 155 54.0968C153.095 54.0968 152.142 54.0968 151.55 53.5049C150.958 52.9129 150.958 51.9602 150.958 50.0547Z" fill="currentColor"/>
</svg>
