<svg xmlns="http://www.w3.org/2000/svg" width="16" height="16" fill="none" viewBox="0 0 16 16">
    <path fill="currentColor" d="M12.6667 5.33332L10 7.99999H12C12 10.2067 10.2067 12 8.00002 12C7.32669 12 6.68669 11.8333 6.13335 11.5333L5.16002 12.5067C5.98002 13.0267 6.95335 13.3333 8.00002 13.3333C10.9467 13.3333 13.3334 10.9467 13.3334 7.99999H15.3334L12.6667 5.33332ZM4.00002 7.99999C4.00002 5.79332 5.79335 3.99999 8.00002 3.99999C8.67335 3.99999 9.31335 4.16666 9.86669 4.46666L10.84 3.49332C10.02 2.97332 9.04669 2.66666 8.00002 2.66666C5.05335 2.66666 2.66669 5.05332 2.66669 7.99999H0.666687L3.33335 10.6667L6.00002 7.99999H4.00002Z"/>
</svg>
