<svg xmlns="http://www.w3.org/2000/svg" width="41" height="41" viewBox="0 0 41 41" fill="none">
    <rect x="0.0778809" y="0.5" width="40" height="40" rx="20" fill="#35ACDF" />
    <path
        d="M6.67187 19.8625L22.1592 13.4815C23.688 12.8168 28.8726 10.6898 28.8726 10.6898C28.8726 10.6898 31.2655 9.75922 31.0661 12.0192C30.9996 12.9497 30.4679 16.2067 29.9361 19.7296L28.2744 30.1653C28.2744 30.1653 28.1414 31.6941 27.0115 31.9599C25.8815 32.2258 24.0203 31.0294 23.688 30.7635C23.4221 30.5641 18.7028 27.573 16.9746 26.1107C16.5093 25.7118 15.9776 24.9142 17.0411 23.9836C19.434 21.7902 22.2921 19.0649 24.0203 17.3367C24.818 16.5391 25.6156 14.6779 22.2921 16.9379L12.92 23.2525C12.92 23.2525 11.8565 23.9172 9.8624 23.3189C7.86832 22.7207 5.5419 21.9231 5.5419 21.9231C5.5419 21.9231 3.94664 20.9261 6.67187 19.8625Z"
        fill="white" />
</svg>