<svg xmlns="http://www.w3.org/2000/svg" width="18" height="18" viewBox="0 0 18 18" fill="none">
    <path fill-rule="evenodd" clip-rule="evenodd"
        d="M2.00001 16H9.00001C12.866 16 16 12.866 16 9.00001C16 5.13401 12.866 2.00001 9.00001 2.00001C5.13401 2.00001 2.00001 5.13401 2.00001 9.00001V16ZM9.00001 0.666672C4.39763 0.666672 0.666672 4.39763 0.666672 9.00001V16.0872C0.666672 16.7754 1.22457 17.3333 1.91278 17.3333H9.00001C13.6024 17.3333 17.3333 13.6024 17.3333 9.00001C17.3333 4.39763 13.6024 0.666672 9.00001 0.666672Z"
        fill="currentColor" />
    <path
        d="M5.39453 12.9317C5.28694 12.823 5.22671 12.676 5.22689 12.5227C5.22706 12.3695 5.28764 12.2222 5.39548 12.1128L6.00909 11.4992L5.96262 11.4217C5.78764 11.1388 5.6615 10.8283 5.58948 10.5032C5.5278 10.2552 5.50268 9.99941 5.5149 9.74386C5.52844 9.59224 5.60098 9.45176 5.71688 9.35268C5.83278 9.2536 5.98277 9.20385 6.13455 9.21414C6.28633 9.22443 6.42776 9.29395 6.52836 9.40771C6.62896 9.52147 6.68068 9.67038 6.6724 9.82236C6.67017 9.96389 6.68629 10.105 6.72036 10.2423C6.79325 10.5763 6.95992 10.8823 7.20085 11.1243C7.32405 11.2574 7.47331 11.3638 7.63943 11.4369C7.80555 11.51 7.98501 11.5482 8.16677 11.5492C8.25267 11.5483 8.33748 11.5292 8.41558 11.4931C8.49368 11.4569 8.56329 11.4047 8.61981 11.3398C8.84897 11.0546 8.81865 10.6523 8.49311 9.61646L8.41673 9.37838C8.21642 8.84134 8.09911 8.27663 8.06882 7.70361C8.07803 7.26503 8.24707 6.84426 8.54419 6.52037C8.84131 6.19647 9.24604 5.99175 9.68233 5.94468C10.1818 5.90134 10.6813 6.01904 11.1078 6.28054L11.1838 6.32555L11.8005 5.70885C11.9116 5.6102 12.056 5.55756 12.2042 5.56166C12.3524 5.56577 12.4932 5.62633 12.5978 5.73095C12.7024 5.83558 12.763 5.97637 12.7671 6.12456C12.7712 6.27275 12.7186 6.41715 12.6199 6.52824L12.0063 7.14185L12.0535 7.21861C12.2278 7.50188 12.3539 7.81224 12.4267 8.1371C12.4879 8.38516 12.5131 8.64092 12.5012 8.89646C12.4973 8.9734 12.478 9.04885 12.4446 9.1184C12.4112 9.18794 12.3643 9.25017 12.3066 9.30147C12.2489 9.35276 12.1816 9.39208 12.1087 9.41713C12.0357 9.44219 11.9586 9.45246 11.8817 9.44737C11.8049 9.44227 11.7299 9.4219 11.6611 9.38745C11.5924 9.353 11.5312 9.30516 11.4813 9.24672C11.4313 9.18829 11.3936 9.12044 11.3702 9.04713C11.3468 8.97382 11.3383 8.89653 11.3452 8.81978C11.3476 8.67791 11.3313 8.53642 11.2967 8.39896C11.2251 8.06431 11.0589 7.75762 10.8178 7.51529C10.6946 7.38218 10.5452 7.27587 10.379 7.20293C10.2127 7.13 10.0332 7.09199 9.85138 7.09125C9.76545 7.09224 9.68061 7.11134 9.60242 7.14731C9.52423 7.18328 9.45444 7.23531 9.39761 7.3C9.16917 7.58442 9.19858 7.98761 9.52559 9.02312L9.60123 9.26048C9.80111 9.79786 9.91818 10.3628 9.94842 10.936C9.94005 11.3746 9.77137 11.7957 9.47422 12.1196C9.17708 12.4435 8.77205 12.6479 8.33563 12.6942C7.83664 12.7375 7.33755 12.6198 6.91164 12.3583L6.83487 12.3126L6.21744 12.93C6.16348 12.9842 6.09941 13.0272 6.0289 13.0566C5.95839 13.086 5.88283 13.1012 5.80655 13.1013C5.73026 13.1015 5.65476 13.0866 5.58437 13.0575C5.51398 13.0284 5.45009 12.9856 5.39636 12.9317L5.39453 12.9317Z"
        fill="currentColor" />
</svg>