<svg xmlns="http://www.w3.org/2000/svg" width="16" height="16" viewBox="0 0 16 16" fill="none">
    <path
        d="M12.36 2.74664L8.69337 1.37331C8.31337 1.23331 7.69337 1.23331 7.31337 1.37331L3.6467 2.74664C2.94003 3.01331 2.3667 3.83998 2.3667 4.59331V9.99331C2.3667 10.5333 2.72003 11.2466 3.15337 11.5666L6.82003 14.3066C7.4667 14.7933 8.5267 14.7933 9.17337 14.3066L12.84 11.5666C13.2734 11.24 13.6267 10.5333 13.6267 9.99331V4.59331C13.6334 3.83998 13.06 3.01331 12.36 2.74664ZM10.32 6.47998L7.45337 9.34664C7.35337 9.44664 7.2267 9.49331 7.10003 9.49331C6.97337 9.49331 6.8467 9.44664 6.7467 9.34664L5.68003 8.26664C5.4867 8.07331 5.4867 7.75331 5.68003 7.55998C5.87337 7.36664 6.19337 7.36664 6.3867 7.55998L7.1067 8.27998L9.62003 5.76664C9.81337 5.57331 10.1334 5.57331 10.3267 5.76664C10.52 5.95998 10.52 6.28664 10.32 6.47998Z"
        fill="currentColor" />
</svg>