<svg xmlns="http://www.w3.org/2000/svg" width="17" height="16" viewBox="0 0 17 16" fill="none">
    <path
        d="M8.50016 1.33337C4.82683 1.33337 1.8335 4.32671 1.8335 8.00004C1.8335 11.6734 4.82683 14.6667 8.50016 14.6667C12.1735 14.6667 15.1668 11.6734 15.1668 8.00004C15.1668 4.32671 12.1735 1.33337 8.50016 1.33337ZM8.00016 5.33337C8.00016 5.06004 8.22683 4.83337 8.50016 4.83337C8.7735 4.83337 9.00016 5.06004 9.00016 5.33337V8.66671C9.00016 8.94004 8.7735 9.16671 8.50016 9.16671C8.22683 9.16671 8.00016 8.94004 8.00016 8.66671V5.33337ZM9.1135 10.92C9.08016 11.0067 9.0335 11.0734 8.9735 11.14C8.90683 11.2 8.8335 11.2467 8.7535 11.28C8.6735 11.3134 8.58683 11.3334 8.50016 11.3334C8.4135 11.3334 8.32683 11.3134 8.24683 11.28C8.16683 11.2467 8.0935 11.2 8.02683 11.14C7.96683 11.0734 7.92016 11.0067 7.88683 10.92C7.8535 10.84 7.8335 10.7534 7.8335 10.6667C7.8335 10.58 7.8535 10.4934 7.88683 10.4134C7.92016 10.3334 7.96683 10.26 8.02683 10.1934C8.0935 10.1334 8.16683 10.0867 8.24683 10.0534C8.40683 9.98671 8.5935 9.98671 8.7535 10.0534C8.8335 10.0867 8.90683 10.1334 8.9735 10.1934C9.0335 10.26 9.08016 10.3334 9.1135 10.4134C9.14683 10.4934 9.16683 10.58 9.16683 10.6667C9.16683 10.7534 9.14683 10.84 9.1135 10.92Z"
        fill="currentColor" />
</svg>