<svg xmlns="http://www.w3.org/2000/svg" width="18" height="18" viewBox="0 0 18 18" fill="none">
    <path
        d="M15.75 4.48535C13.2525 4.23785 10.74 4.11035 8.235 4.11035C6.75 4.11035 5.265 4.18535 3.78 4.33535L2.25 4.48535"
        stroke="currentColor" stroke-width="1.5" stroke-linecap="round" stroke-linejoin="round" />
    <path
        d="M6.375 3.7275L6.54 2.745C6.66 2.0325 6.75 1.5 8.0175 1.5H9.9825C11.25 1.5 11.3475 2.0625 11.46 2.7525L11.625 3.7275"
        stroke="currentColor" stroke-width="1.5" stroke-linecap="round" stroke-linejoin="round" />
    <path
        d="M14.1373 6.85547L13.6498 14.408C13.5673 15.5855 13.4998 16.5005 11.4073 16.5005H6.5923C4.4998 16.5005 4.4323 15.5855 4.3498 14.408L3.8623 6.85547"
        stroke="currentColor" stroke-width="1.5" stroke-linecap="round" stroke-linejoin="round" />
    <path d="M7.74707 12.375H10.2446" stroke="currentColor" stroke-width="1.5" stroke-linecap="round"
        stroke-linejoin="round" />
    <path d="M7.125 9.375H10.875" stroke="currentColor" stroke-width="1.5" stroke-linecap="round"
        stroke-linejoin="round" />
</svg>