<svg xmlns="http://www.w3.org/2000/svg" width="20" height="20" fill="none">
    <path fill="currentColor" fill-rule="evenodd"
        d="M2.697 6.178c0-.368.298-.667.667-.667h13.274a.667.667 0 1 1 0 1.334H3.364a.667.667 0 0 1-.667-.667ZM7.96 8.09c.368 0 .667.298.667.666v5.22a.667.667 0 0 1-1.334 0v-5.22c0-.368.299-.667.667-.667ZM10 8.09c.368 0 .666.298.666.666v5.22a.667.667 0 0 1-1.333 0v-5.22c0-.368.298-.667.666-.667ZM12.039 8.09c.368 0 .666.298.666.666v5.22a.667.667 0 0 1-1.333 0v-5.22c0-.368.299-.667.667-.667Z"
        clip-rule="evenodd" />
    <path fill="currentColor" fill-rule="evenodd"
        d="M6.16 6.08v9.169a1 1 0 0 0 1 1h5.68a1 1 0 0 0 1-1V6.08h1.332v9.168a2.333 2.333 0 0 1-2.333 2.333H7.16a2.333 2.333 0 0 1-2.333-2.333V6.08h1.333ZM11.912 5.514a1.763 1.763 0 0 0-3.527 0H7.052a3.097 3.097 0 1 1 6.193 0h-1.333Z"
        clip-rule="evenodd" />
</svg>