<svg width="16" height="17" viewBox="0 0 16 17" fill="none" xmlns="http://www.w3.org/2000/svg">
    <path fill-rule="evenodd" clip-rule="evenodd" d="M2.22021 6.14149C2.22021 5.84694 2.459 5.60815 2.75355 5.60815H10.0869C12.2214 5.60815 13.9535 7.34027 13.9535 9.47482C13.9535 11.6094 12.2214 13.3415 10.0869 13.3415H4.75355C4.459 13.3415 4.22021 13.1027 4.22021 12.8082C4.22021 12.5136 4.459 12.2748 4.75355 12.2748H10.0869C11.6323 12.2748 12.8869 11.0203 12.8869 9.47482C12.8869 7.92937 11.6323 6.67482 10.0869 6.67482H2.75355C2.459 6.67482 2.22021 6.43604 2.22021 6.14149Z" fill="currentColor"/>
    <path fill-rule="evenodd" clip-rule="evenodd" d="M4.664 4.01778C4.87228 4.22606 4.87228 4.56375 4.664 4.77203L3.33446 6.10157L4.664 7.43112C4.87228 7.6394 4.87228 7.97708 4.664 8.18536C4.45572 8.39364 4.11803 8.39364 3.90975 8.18536L2.20308 6.4787C1.99481 6.27042 1.99481 5.93273 2.20308 5.72445L3.90975 4.01778C4.11803 3.8095 4.45572 3.8095 4.664 4.01778Z" fill="currentColor"/>
</svg>
