<svg viewBox="0 0 15 16" fill="none" xmlns="http://www.w3.org/2000/svg">
    <g clip-path="url(#clip0_29632_64952)">
        <path d="M1.65752 3.99111C1.65752 3.50481 1.8507 3.03843 2.19456 2.69456C2.53843 2.3507 3.00481 2.15752 3.49111 2.15752H4.32456C4.80871 2.15724 5.2731 1.96549 5.6164 1.62411L6.19982 1.04069C6.37021 0.869337 6.5728 0.733353 6.79594 0.640561C7.01907 0.547769 7.25834 0.5 7.5 0.5C7.74166 0.5 7.98093 0.547769 8.20406 0.640561C8.42719 0.733353 8.62978 0.869337 8.80018 1.04069L9.3836 1.62411C9.72698 1.96582 10.192 2.15752 10.6754 2.15752H11.5089C11.9952 2.15752 12.4616 2.3507 12.8054 2.69456C13.1493 3.03843 13.3425 3.50481 13.3425 3.99111V4.82456C13.3425 5.30796 13.5342 5.77302 13.8759 6.1164L14.4593 6.69982C14.6307 6.87021 14.7666 7.0728 14.8594 7.29594C14.9522 7.51907 15 7.75834 15 8C15 8.24166 14.9522 8.48093 14.8594 8.70406C14.7666 8.92719 14.6307 9.12978 14.4593 9.30018L13.8759 9.8836C13.5345 10.2269 13.3428 10.6913 13.3425 11.1754V12.0089C13.3425 12.4952 13.1493 12.9616 12.8054 13.3054C12.4616 13.6493 11.9952 13.8425 11.5089 13.8425H10.6754C10.1913 13.8428 9.7269 14.0345 9.3836 14.3759L8.80018 14.9593C8.62978 15.1307 8.42719 15.2666 8.20406 15.3594C7.98093 15.4522 7.74166 15.5 7.5 15.5C7.25834 15.5 7.01907 15.4522 6.79594 15.3594C6.5728 15.2666 6.37021 15.1307 6.19982 14.9593L5.6164 14.3759C5.2731 14.0345 4.80871 13.8428 4.32456 13.8425H3.49111C3.00481 13.8425 2.53843 13.6493 2.19456 13.3054C1.8507 12.9616 1.65752 12.4952 1.65752 12.0089V11.1754C1.65724 10.6913 1.46549 10.2269 1.12411 9.8836L0.540694 9.30018C0.369337 9.12978 0.233353 8.92719 0.140561 8.70406C0.0477691 8.48093 0 8.24166 0 8C0 7.75834 0.0477691 7.51907 0.140561 7.29594C0.233353 7.0728 0.369337 6.87021 0.540694 6.69982L1.12411 6.1164C1.46549 5.7731 1.65724 5.30871 1.65752 4.82456V3.99111Z" fill="currentColor"/>
        <path fill-rule="evenodd" clip-rule="evenodd" d="M9.81889 6.31003C10.063 6.55413 10.063 6.9499 9.81889 7.19401L7.31889 9.69427C7.07482 9.93837 6.67909 9.93837 6.43501 9.69427L5.18501 8.44414C4.94093 8.20003 4.94093 7.80426 5.18501 7.56016C5.42909 7.31606 5.82482 7.31606 6.06889 7.56016L6.87695 8.3683L8.93501 6.31003C9.17909 6.06593 9.57482 6.06593 9.81889 6.31003Z" fill="white"/>
    </g>
    <defs>
        <clipPath id="clip0_29632_64952">
            <rect width="15" height="15" fill="white" transform="translate(0 0.5)"/>
        </clipPath>
    </defs>
</svg>
