<svg fill="none" height="25" viewBox="0 0 25 25" width="25" xmlns="http://www.w3.org/2000/svg"><g stroke="#101010" stroke-linecap="round" stroke-linejoin="round"><path d="m17.8295 7.54997c-.24-.04-.49-.04999-.75-.04999h-9.99997c-.28 0-.55.02-.81.06.14-.28.34-.53997.58-.77997l3.24997-3.26001c1.37-1.36 3.59-1.36 4.96 0l1.75 1.76996c.64.63.98 1.43001 1.02 2.26001z"/><path d="m10.0781 22.5h7c3 0 5-2 5-5v-5c0-2.74-1.67-4.65001-4.25-4.95001-.24-.04-.49-.04999-.75-.04999h-9.99998c-.28 0-.55.02-.81.06-2.55.32-4.19 2.22-4.19 4.94v2"/><path d="m22.0781 13h-3c-1.1 0-2 .9-2 2s.9 2 2 2h3"/></g><path d="m5.07812 15.5c-2.21 0-4 1.79-4 4 0 .75.21001 1.46.58001 2.06.68999 1.16 1.95999 1.94 3.41999 1.94 1.46001 0 2.73001-.78 3.42001-1.94.36999-.6.57999-1.31.57999-2.06 0-2.21-1.78999-4-4-4zm1.97 3.67-2.12999 1.97c-.14.13-.33001.2-.51001.2-.19 0-.37999-.07-.53-.22l-.99-.99c-.29-.29-.29-.77 0-1.06s.77-.29 1.06 0l.48.48 1.6-1.48c.3-.28.78001-.26 1.06001.04s.25999.78-.04001 1.06z" fill="#a5f59c"/></svg>