<svg xmlns="http://www.w3.org/2000/svg" width="24" height="24" fill="none">
    <path fill="currentColor" fill-rule="evenodd"
        d="M6.2 11.15c0-.44.36-.8.8-.8h6a.8.8 0 0 1 0 1.6H7a.8.8 0 0 1-.8-.8ZM5.69 3.64c-1.6 0-2.89 1.3-2.89 2.89v4.62a.8.8 0 0 1-1.6 0V6.53c0-2.48 2-4.5 4.49-4.5h5.62c1.18 0 2.3.38 3.13 1.1a3.9 3.9 0 0 1 1.36 3.02.8.8 0 0 1-1.6 0c0-.79-.31-1.4-.8-1.81-.5-.43-1.23-.7-2.09-.7H5.69Z"
        clip-rule="evenodd" />
    <path fill="currentColor" fill-rule="evenodd"
        d="M6 6.95a3.2 3.2 0 0 0-3.2 3.2v7a3.2 3.2 0 0 0 3.2 3.2h10a3.2 3.2 0 0 0 3.2-3.2v-.65h-.13a2.97 2.97 0 0 1-2.9-2.11 2.81 2.81 0 0 1 .75-2.76 2.8 2.8 0 0 1 2-.83h.28v-.65c0-1.76-1.44-3.2-3.2-3.2H6Zm-4.8 3.2A4.8 4.8 0 0 1 6 5.35h10c2.64 0 4.8 2.16 4.8 4.8v1.45a.8.8 0 0 1-.8.8h-1.08a1.2 1.2 0 0 0-.89.38c-.29.28-.44.72-.32 1.2.14.51.7.92 1.36.92H20c.44 0 .8.36.8.8v1.45a4.8 4.8 0 0 1-4.8 4.8H6a4.8 4.8 0 0 1-4.8-4.8v-7Z"
        clip-rule="evenodd" />
    <path fill="currentColor" fill-rule="evenodd"
        d="M18.92 12.4c-.35 0-.65.13-.87.36l-.01.01c-.26.25-.4.6-.36.98v.01c.05.6.63 1.14 1.36 1.14h1.93c.13 0 .23-.1.23-.22v-2.06c0-.11-.1-.22-.23-.22h-2.05Zm-2-.77a2.8 2.8 0 0 1 2-.83h2.05c1 0 1.83.81 1.83 1.82v2.06c0 1-.82 1.82-1.83 1.82h-1.93c-1.43 0-2.82-1.05-2.96-2.6a2.8 2.8 0 0 1 .83-2.27Z"
        clip-rule="evenodd" />
</svg>