<svg xmlns="http://www.w3.org/2000/svg" width="25" height="25" viewBox="0 0 25 25" fill="none">
    <path
        d="M17.7905 7.54997C17.5505 7.50997 17.3005 7.49998 17.0405 7.49998H7.04047C6.76047 7.49998 6.49047 7.51998 6.23047 7.55998C6.37047 7.27998 6.57047 7.02001 6.81047 6.78001L10.0605 3.52C11.4305 2.16 13.6505 2.16 15.0205 3.52L16.7705 5.28996C17.4105 5.91996 17.7505 6.71997 17.7905 7.54997Z"
        stroke="currentColor" stroke-linecap="round" stroke-linejoin="round" />
    <path
        d="M10.0391 22.5H17.0391C20.0391 22.5 22.0391 20.5 22.0391 17.5V12.5C22.0391 9.76 20.3691 7.84999 17.7891 7.54999C17.5491 7.50999 17.2991 7.5 17.0391 7.5H7.03906C6.75906 7.5 6.48906 7.52 6.22906 7.56C3.67906 7.88 2.03906 9.78 2.03906 12.5V14.5"
        stroke="currentColor" stroke-linecap="round" stroke-linejoin="round" />
    <path d="M22.0391 13H19.0391C17.9391 13 17.0391 13.9 17.0391 15C17.0391 16.1 17.9391 17 19.0391 17H22.0391"
        stroke="currentColor" stroke-linecap="round" stroke-linejoin="round" />
    <path
        d="M5.03906 15.5C2.82906 15.5 1.03906 17.29 1.03906 19.5C1.03906 20.25 1.24906 20.96 1.61906 21.56C2.30906 22.72 3.57906 23.5 5.03906 23.5C6.49906 23.5 7.76906 22.72 8.45906 21.56C8.82906 20.96 9.03906 20.25 9.03906 19.5C9.03906 17.29 7.24906 15.5 5.03906 15.5ZM7.00906 19.17L4.87906 21.14C4.73906 21.27 4.54906 21.34 4.36906 21.34C4.17906 21.34 3.98906 21.27 3.83906 21.12L2.84906 20.13C2.55906 19.84 2.55906 19.36 2.84906 19.07C3.13906 18.78 3.61906 18.78 3.90906 19.07L4.38906 19.55L5.98906 18.07C6.28906 17.79 6.76906 17.81 7.04906 18.11C7.32906 18.41 7.30906 18.89 7.00906 19.17Z"
        fill="#8E96FF" />
</svg>