<svg width="20" height="20" viewBox="0 0 20 20" fill="none" xmlns="http://www.w3.org/2000/svg">
    <path fill-rule="evenodd" clip-rule="evenodd" d="M14.8076 8.22754H17.7113C18.055 8.22754 18.3336 8.49914 18.3336 8.83418V10.943C18.3296 11.2764 18.0533 11.5457 17.7113 11.5496H14.8743C14.0459 11.5605 13.3215 11.0075 13.1336 10.2208C13.0395 9.73244 13.1716 9.2285 13.4945 8.84404C13.8174 8.45959 14.298 8.23392 14.8076 8.22754ZM14.934 10.4447H15.208C15.5599 10.4447 15.8451 10.1666 15.8451 9.8236C15.8451 9.48059 15.5599 9.20252 15.208 9.20252H14.934C14.7657 9.20059 14.6036 9.26441 14.4839 9.37974C14.3643 9.49507 14.2969 9.65232 14.2969 9.81638C14.2969 10.1606 14.5809 10.4407 14.934 10.4447Z" fill="currentColor"/>
    <path fill-rule="evenodd" clip-rule="evenodd" d="M18.3333 6.98483H14.8074V7.01372C13.171 7.01372 11.8444 8.30707 11.8444 9.9025C11.8444 11.4979 13.171 12.7913 14.8074 12.7913H18.3333V13.0513C18.3333 15.8462 16.637 17.5 13.7629 17.5H6.237C3.36292 17.5 1.66663 15.8462 1.66663 13.0513V6.94872C1.66663 4.15383 3.36292 2.5 6.237 2.5H13.7629C16.637 2.5 18.3333 4.15383 18.3333 6.98483ZM5.61502 6.98436H10.3187C10.6706 6.98436 10.9558 6.70629 10.9558 6.36328C10.9558 6.02026 10.6706 5.74219 10.3187 5.74219H5.61502C5.26607 5.74216 4.98204 6.01586 4.97799 6.35605C4.97796 6.70026 5.262 6.98041 5.61502 6.98436Z" fill="currentColor"/>
</svg>
