<svg xmlns="http://www.w3.org/2000/svg" width="25" height="25" viewBox="0 0 25 25" fill="none">
    <path
        d="M22.0391 12.5V17.5C22.0391 20.5 20.0391 22.5 17.0391 22.5H7.03906C4.03906 22.5 2.03906 20.5 2.03906 17.5V12.5C2.03906 9.78 3.67906 7.88 6.22906 7.56C6.48906 7.52 6.75906 7.5 7.03906 7.5H17.0391C17.2991 7.5 17.5491 7.50999 17.7891 7.54999C20.3691 7.84999 22.0391 9.76 22.0391 12.5Z"
        stroke="currentColor" stroke-linecap="round" stroke-linejoin="round" />
    <path
        d="M17.7905 7.55C17.5505 7.51 17.3005 7.50001 17.0405 7.50001H7.04047C6.76047 7.50001 6.49047 7.52001 6.23047 7.56001C6.37047 7.28001 6.57047 7.02001 6.81047 6.78001L10.0605 3.52C11.4305 2.16 13.6505 2.16 15.0205 3.52L16.7705 5.29002C17.4105 5.92002 17.7505 6.72 17.7905 7.55Z"
        stroke="currentColor" stroke-linecap="round" stroke-linejoin="round" />
    <path d="M22.0391 13H19.0391C17.9391 13 17.0391 13.9 17.0391 15C17.0391 16.1 17.9391 17 19.0391 17H22.0391"
        stroke="currentColor" stroke-linecap="round" stroke-linejoin="round" />
</svg>