<svg fill="none" height="15" width="14" xmlns="http://www.w3.org/2000/svg"><rect fill="#fff" height="14" rx="4" width="14" y=".602"/><g stroke="#202020" stroke-linecap="round" stroke-linejoin="round" stroke-width=".5"><path d="m10.75 7.601v1.875c0 1.125-.75 1.875-1.875 1.875h-3.75c-1.125 0-1.875-.75-1.875-1.875v-1.875c0-1.02.615-1.732 1.571-1.852.098-.015.199-.023.304-.023h3.75c.098 0 .191.004.281.02.968.112 1.594.828 1.594 1.855z"/><path d="m9.157 5.746a1.715 1.715 0 0 0 -.281-.02h-3.75c-.105 0-.207.008-.304.023.052-.105.127-.202.217-.292l1.219-1.223a1.322 1.322 0 0 1 1.86 0l.656.664c.24.236.368.536.383.848zm1.593 2.044h-1.125a.752.752 0 0 0 -.75.75c0 .412.338.75.75.75h1.125"/></g></svg>