<svg xmlns="http://www.w3.org/2000/svg" fill="none" viewBox="0 0 16 16">
    <path fill="#FFB100" d="M6.71204 2.77291C7.28447 1.78142 8.71555 1.78143 9.28799 2.77291L14.4652 11.7401C15.0376 12.7316 14.3221 13.971 13.1772 13.971H2.82279C1.67792 13.971 0.96238 12.7316 1.53481 11.7401L6.71204 2.77291Z"/>
    <path fill="white" fill-rule="evenodd" d="M7.99915 4.6666C8.33052 4.6666 8.59915 4.96426 8.59915 5.33144L8.59915 9.33509C8.59915 9.70227 8.33052 9.99993 7.99915 9.99993C7.66778 9.99993 7.39915 9.70227 7.39915 9.33509L7.39915 5.33144C7.39915 4.96426 7.66778 4.6666 7.99915 4.6666Z" clip-rule="evenodd"/>
    <path fill="white" fill-rule="evenodd" d="M7.99967 10.4765C8.33104 10.4765 8.59967 10.7451 8.59967 11.0765L8.59967 11.0918C8.59967 11.4232 8.33104 11.6918 7.99967 11.6918C7.6683 11.6918 7.39967 11.4232 7.39967 11.0918L7.39967 11.0765C7.39967 10.7451 7.6683 10.4765 7.99967 10.4765Z" clip-rule="evenodd"/>
</svg>
