<svg fill="none" viewBox="0 0 16 16" xmlns="http://www.w3.org/2000/svg"><path d="m6.71204 2.77291c.57243-.99149 2.00351-.99148 2.57595 0l5.17721 8.96719c.5724.9915-.1431 2.2309-1.288 2.2309h-10.35441c-1.14487 0-1.86041-1.2394-1.28798-2.2309z" fill="#ffb100"/><g clip-rule="evenodd" fill="#fff" fill-rule="evenodd"><path d="m7.99915 4.6666c.33137 0 .6.29766.6.66484v4.00365c0 .36718-.26863.66484-.6.66484s-.6-.29766-.6-.66484v-4.00365c0-.36718.26863-.66484.6-.66484z"/><path d="m7.99967 10.4765c.33137 0 .6.2686.6.6v.0153c0 .3314-.26863.6-.6.6s-.6-.2686-.6-.6v-.0153c0-.3314.26863-.6.6-.6z"/></g></svg>