<svg xmlns="http://www.w3.org/2000/svg" width="21" height="20" viewBox="0 0 21 20" fill="none">
    <path
        d="M10.3 18.3332C14.9024 18.3332 18.6333 14.6022 18.6333 9.99984C18.6333 5.39746 14.9024 1.6665 10.3 1.6665C5.69763 1.6665 1.96667 5.39746 1.96667 9.99984C1.96667 14.6022 5.69763 18.3332 10.3 18.3332Z"
        stroke="currentColor" stroke-width="1.25" stroke-linecap="round" stroke-linejoin="round" />
    <path d="M6.96672 2.5H7.80005C6.17505 7.36667 6.17505 12.6333 7.80005 17.5H6.96672" stroke="currentColor"
        stroke-width="1.25" stroke-linecap="round" stroke-linejoin="round" />
    <path d="M12.8 2.5C14.425 7.36667 14.425 12.6333 12.8 17.5" stroke="currentColor" stroke-width="1.25"
        stroke-linecap="round" stroke-linejoin="round" />
    <path d="M2.80005 13.3333V12.5C7.66672 14.125 12.9334 14.125 17.8 12.5V13.3333" stroke="currentColor"
        stroke-width="1.25" stroke-linecap="round" stroke-linejoin="round" />
    <path d="M2.80005 7.5C7.66672 5.875 12.9334 5.875 17.8 7.5" stroke="currentColor" stroke-width="1.25"
        stroke-linecap="round" stroke-linejoin="round" />
</svg>